<?xml version="1.0" encoding="utf-8" standalone="no"?>
<!DOCTYPE svg PUBLIC "-//W3C//DTD SVG 1.1//EN"
  "http://www.w3.org/Graphics/SVG/1.1/DTD/svg11.dtd">
<svg xmlns:xlink="http://www.w3.org/1999/xlink" width="590.4pt" height="605.518125pt" viewBox="0 0 590.4 605.518125" xmlns="http://www.w3.org/2000/svg" version="1.1">
 <metadata>
  <rdf:RDF xmlns:dc="http://purl.org/dc/elements/1.1/" xmlns:cc="http://creativecommons.org/ns#" xmlns:rdf="http://www.w3.org/1999/02/22-rdf-syntax-ns#">
   <cc:Work>
    <dc:type rdf:resource="http://purl.org/dc/dcmitype/StillImage"/>
    <dc:date>2023-04-12T08:20:54.760005</dc:date>
    <dc:format>image/svg+xml</dc:format>
    <dc:creator>
     <cc:Agent>
      <dc:title>Matplotlib v3.5.2, https://matplotlib.org/</dc:title>
     </cc:Agent>
    </dc:creator>
   </cc:Work>
  </rdf:RDF>
 </metadata>
 <defs>
  <style type="text/css">*{stroke-linejoin: round; stroke-linecap: butt}</style>
 </defs>
 <g id="figure_1">
  <g id="patch_1">
   <path d="M 0 605.518125 
L 590.4 605.518125 
L 590.4 0 
L 0 0 
z
" style="fill: #ffffff"/>
  </g>
  <g id="axes_1">
   <g id="LineCollection_1">
    <path d="M 533.216529 310.318132 
L 487.759419 163.215829 
" clip-path="url(#pbf2a03be9a)" style="fill: none; stroke: #a9a9a9; stroke-width: 2"/>
    <path d="M 533.216529 310.318132 
L 368.751147 72.301596 
" clip-path="url(#pbf2a03be9a)" style="fill: none; stroke: #f3f3f3; stroke-width: 2"/>
    <path d="M 533.216529 310.318132 
L 221.648839 72.301611 
" clip-path="url(#pbf2a03be9a)" style="fill: none; stroke: #dcdcdc; stroke-width: 2"/>
    <path d="M 533.216529 310.318132 
L 102.640581 163.215829 
" clip-path="url(#pbf2a03be9a)" style="fill: none; stroke: #787878; stroke-width: 2"/>
    <path d="M 533.216529 310.318132 
L 57.183471 310.318154 
" clip-path="url(#pbf2a03be9a)" style="fill: none; stroke: #636363; stroke-width: 2"/>
    <path d="M 533.216529 310.318132 
L 102.640595 457.420451 
" clip-path="url(#pbf2a03be9a)" style="fill: none; stroke: #e7e7e7; stroke-width: 2"/>
    <path d="M 533.216529 310.318132 
L 221.648817 548.334654 
" clip-path="url(#pbf2a03be9a)" style="fill: none; stroke: #a2a2a2; stroke-width: 2"/>
    <path d="M 533.216529 310.318132 
L 368.751183 548.334654 
" clip-path="url(#pbf2a03be9a)" style="fill: none; stroke: #ececec; stroke-width: 2"/>
    <path d="M 533.216529 310.318132 
L 487.759405 457.420451 
" clip-path="url(#pbf2a03be9a)" style="fill: none; stroke: #ececec; stroke-width: 2"/>
    <path d="M 487.759419 163.215829 
L 221.648839 72.301611 
" clip-path="url(#pbf2a03be9a)" style="fill: none; stroke: #dfdfdf; stroke-width: 2"/>
    <path d="M 487.759419 163.215829 
L 102.640581 163.215829 
" clip-path="url(#pbf2a03be9a)" style="fill: none; stroke: #c1c1c1; stroke-width: 2"/>
    <path d="M 487.759419 163.215829 
L 57.183471 310.318154 
" clip-path="url(#pbf2a03be9a)" style="fill: none; stroke: #b1b1b1; stroke-width: 2"/>
    <path d="M 487.759419 163.215829 
L 102.640595 457.420451 
" clip-path="url(#pbf2a03be9a)" style="fill: none; stroke: #d4d4d4; stroke-width: 2"/>
    <path d="M 487.759419 163.215829 
L 221.648817 548.334654 
" clip-path="url(#pbf2a03be9a)" style="fill: none; stroke: #d9d9d9; stroke-width: 2"/>
    <path d="M 487.759419 163.215829 
L 368.751183 548.334654 
" clip-path="url(#pbf2a03be9a)" style="fill: none; stroke: #ffffff; stroke-width: 2"/>
    <path d="M 487.759419 163.215829 
L 487.759405 457.420451 
" clip-path="url(#pbf2a03be9a)" style="fill: none; stroke: #d9d9d9; stroke-width: 2"/>
    <path d="M 368.751147 72.301596 
L 221.648839 72.301611 
" clip-path="url(#pbf2a03be9a)" style="fill: none; stroke: #f4f4f4; stroke-width: 2"/>
    <path d="M 368.751147 72.301596 
L 102.640581 163.215829 
" clip-path="url(#pbf2a03be9a)" style="fill: none; stroke: #e6e6e6; stroke-width: 2"/>
    <path d="M 368.751147 72.301596 
L 57.183471 310.318154 
" clip-path="url(#pbf2a03be9a)" style="fill: none; stroke: #d1d1d1; stroke-width: 2"/>
    <path d="M 368.751147 72.301596 
L 221.648817 548.334654 
" clip-path="url(#pbf2a03be9a)" style="fill: none; stroke: #efefef; stroke-width: 2"/>
    <path d="M 368.751147 72.301596 
L 368.751183 548.334654 
" clip-path="url(#pbf2a03be9a)" style="fill: none; stroke: #e1e1e1; stroke-width: 2"/>
    <path d="M 368.751147 72.301596 
L 487.759405 457.420451 
" clip-path="url(#pbf2a03be9a)" style="fill: none; stroke: #fefefe; stroke-width: 2"/>
    <path d="M 221.648839 72.301611 
L 102.640581 163.215829 
" clip-path="url(#pbf2a03be9a)" style="fill: none; stroke: #cecece; stroke-width: 2"/>
    <path d="M 221.648839 72.301611 
L 57.183471 310.318154 
" clip-path="url(#pbf2a03be9a)" style="fill: none; stroke: #bdbdbd; stroke-width: 2"/>
    <path d="M 221.648839 72.301611 
L 102.640595 457.420451 
" clip-path="url(#pbf2a03be9a)" style="fill: none; stroke: #efefef; stroke-width: 2"/>
    <path d="M 221.648839 72.301611 
L 221.648817 548.334654 
" clip-path="url(#pbf2a03be9a)" style="fill: none; stroke: #cecece; stroke-width: 2"/>
    <path d="M 221.648839 72.301611 
L 368.751183 548.334654 
" clip-path="url(#pbf2a03be9a)" style="fill: none; stroke: #e9e9e9; stroke-width: 2"/>
    <path d="M 221.648839 72.301611 
L 487.759405 457.420451 
" clip-path="url(#pbf2a03be9a)" style="fill: none; stroke: #f7f7f7; stroke-width: 2"/>
    <path d="M 102.640581 163.215829 
L 57.183471 310.318154 
" clip-path="url(#pbf2a03be9a)" style="fill: none; stroke: #989898; stroke-width: 2"/>
    <path d="M 102.640581 163.215829 
L 102.640595 457.420451 
" clip-path="url(#pbf2a03be9a)" style="fill: none; stroke: #e7e7e7; stroke-width: 2"/>
    <path d="M 102.640581 163.215829 
L 221.648817 548.334654 
" clip-path="url(#pbf2a03be9a)" style="fill: none; stroke: #393939; stroke-width: 2"/>
    <path d="M 102.640581 163.215829 
L 368.751183 548.334654 
" clip-path="url(#pbf2a03be9a)" style="fill: none; stroke: #e1e1e1; stroke-width: 2"/>
    <path d="M 102.640581 163.215829 
L 487.759405 457.420451 
" clip-path="url(#pbf2a03be9a)" style="fill: none; stroke: #a1a1a1; stroke-width: 2"/>
    <path d="M 57.183471 310.318154 
L 102.640595 457.420451 
" clip-path="url(#pbf2a03be9a)" style="fill: none; stroke: #e7e7e7; stroke-width: 2"/>
    <path d="M 57.183471 310.318154 
L 221.648817 548.334654 
" clip-path="url(#pbf2a03be9a)" style="fill: none; stroke: #000000; stroke-width: 2"/>
    <path d="M 57.183471 310.318154 
L 368.751183 548.334654 
" clip-path="url(#pbf2a03be9a)" style="fill: none; stroke: #c2c2c2; stroke-width: 2"/>
    <path d="M 57.183471 310.318154 
L 487.759405 457.420451 
" clip-path="url(#pbf2a03be9a)" style="fill: none; stroke: #979797; stroke-width: 2"/>
    <path d="M 102.640595 457.420451 
L 221.648817 548.334654 
" clip-path="url(#pbf2a03be9a)" style="fill: none; stroke: #efefef; stroke-width: 2"/>
    <path d="M 102.640595 457.420451 
L 368.751183 548.334654 
" clip-path="url(#pbf2a03be9a)" style="fill: none; stroke: #efefef; stroke-width: 2"/>
    <path d="M 102.640595 457.420451 
L 487.759405 457.420451 
" clip-path="url(#pbf2a03be9a)" style="fill: none; stroke: #ffffff; stroke-width: 2"/>
    <path d="M 221.648817 548.334654 
L 368.751183 548.334654 
" clip-path="url(#pbf2a03be9a)" style="fill: none; stroke: #f9f9f9; stroke-width: 2"/>
    <path d="M 221.648817 548.334654 
L 487.759405 457.420451 
" clip-path="url(#pbf2a03be9a)" style="fill: none; stroke: #8c8c8c; stroke-width: 2"/>
    <path d="M 368.751183 548.334654 
L 487.759405 457.420451 
" clip-path="url(#pbf2a03be9a)" style="fill: none; stroke: #f9f9f9; stroke-width: 2"/>
   </g>
   <g id="PathCollection_1">
    <path d="M 533.216529 317.598242 
C 535.147237 317.598242 536.999127 316.831164 538.364344 315.465948 
C 539.729561 314.100731 540.496639 312.24884 540.496639 310.318132 
C 540.496639 308.387425 539.729561 306.535534 538.364344 305.170317 
C 536.999127 303.805101 535.147237 303.038023 533.216529 303.038023 
C 531.285821 303.038023 529.43393 303.805101 528.068714 305.170317 
C 526.703497 306.535534 525.936419 308.387425 525.936419 310.318132 
C 525.936419 312.24884 526.703497 314.100731 528.068714 315.465948 
C 529.43393 316.831164 531.285821 317.598242 533.216529 317.598242 
z
" clip-path="url(#pbf2a03be9a)" style="fill: #ffffff; stroke: #000000; stroke-width: 2"/>
    <path d="M 487.759419 170.03492 
C 489.567863 170.03492 491.302481 169.316417 492.581244 168.037654 
C 493.860007 166.758891 494.57851 165.024273 494.57851 163.215829 
C 494.57851 161.407385 493.860007 159.672766 492.581244 158.394003 
C 491.302481 157.11524 489.567863 156.396738 487.759419 156.396738 
C 485.950975 156.396738 484.216356 157.11524 482.937593 158.394003 
C 481.65883 159.672766 480.940328 161.407385 480.940328 163.215829 
C 480.940328 165.024273 481.65883 166.758891 482.937593 168.037654 
C 484.216356 169.316417 485.950975 170.03492 487.759419 170.03492 
z
" clip-path="url(#pbf2a03be9a)" style="fill: #ffffff; stroke: #000000; stroke-width: 2"/>
    <path d="M 368.751147 76.631723 
C 369.89951 76.631723 371.000994 76.175474 371.813009 75.363458 
C 372.625025 74.551443 373.081274 73.449959 373.081274 72.301596 
C 373.081274 71.153233 372.625025 70.051749 371.813009 69.239734 
C 371.000994 68.427719 369.89951 67.971469 368.751147 67.971469 
C 367.602784 67.971469 366.5013 68.427719 365.689285 69.239734 
C 364.87727 70.051749 364.42102 71.153233 364.42102 72.301596 
C 364.42102 73.449959 364.87727 74.551443 365.689285 75.363458 
C 366.5013 76.175474 367.602784 76.631723 368.751147 76.631723 
z
" clip-path="url(#pbf2a03be9a)" style="fill: #ffffff; stroke: #000000; stroke-width: 2"/>
    <path d="M 221.648839 76.394287 
C 222.734229 76.394287 223.775311 75.963057 224.542798 75.19557 
C 225.310285 74.428083 225.741515 73.387001 225.741515 72.301611 
C 225.741515 71.216221 225.310285 70.175139 224.542798 69.407652 
C 223.775311 68.640165 222.734229 68.208935 221.648839 68.208935 
C 220.563448 68.208935 219.522366 68.640165 218.754879 69.407652 
C 217.987392 70.175139 217.556162 71.216221 217.556162 72.301611 
C 217.556162 73.387001 217.987392 74.428083 218.754879 75.19557 
C 219.522366 75.963057 220.563448 76.394287 221.648839 76.394287 
z
" clip-path="url(#pbf2a03be9a)" style="fill: #ffffff; stroke: #000000; stroke-width: 2"/>
    <path d="M 102.640581 170.339732 
C 104.529862 170.339732 106.342018 169.589113 107.677942 168.253189 
C 109.013865 166.917266 109.764485 165.10511 109.764485 163.215829 
C 109.764485 161.326548 109.013865 159.514392 107.677942 158.178468 
C 106.342018 156.842545 104.529862 156.091925 102.640581 156.091925 
C 100.7513 156.091925 98.939144 156.842545 97.603221 158.178468 
C 96.267297 159.514392 95.516678 161.326548 95.516678 163.215829 
C 95.516678 165.10511 96.267297 166.917266 97.603221 168.253189 
C 98.939144 169.589113 100.7513 170.339732 102.640581 170.339732 
z
" clip-path="url(#pbf2a03be9a)" style="fill: #ffffff; stroke: #000000; stroke-width: 2"/>
    <path d="M 57.183471 318.891368 
C 59.457114 318.891368 61.637941 317.988041 63.245649 316.380332 
C 64.853357 314.772624 65.756685 312.591797 65.756685 310.318154 
C 65.756685 308.044511 64.853357 305.863685 63.245649 304.255977 
C 61.637941 302.648268 59.457114 301.74494 57.183471 301.74494 
C 54.909828 301.74494 52.729002 302.648268 51.121293 304.255977 
C 49.513585 305.863685 48.610257 308.044511 48.610257 310.318154 
C 48.610257 312.591797 49.513585 314.772624 51.121293 316.380332 
C 52.729002 317.988041 54.909828 318.891368 57.183471 318.891368 
z
" clip-path="url(#pbf2a03be9a)" style="fill: #ffffff; stroke: #000000; stroke-width: 2"/>
    <path d="M 102.640595 461.228338 
C 103.650459 461.228338 104.619097 460.827115 105.333178 460.113033 
C 106.047259 459.398952 106.448482 458.430314 106.448482 457.420451 
C 106.448482 456.410588 106.047259 455.44195 105.333178 454.727869 
C 104.619097 454.013787 103.650459 453.612564 102.640595 453.612564 
C 101.630732 453.612564 100.662094 454.013787 99.948013 454.727869 
C 99.233932 455.44195 98.832709 456.410588 98.832709 457.420451 
C 98.832709 458.430314 99.233932 459.398952 99.948013 460.113033 
C 100.662094 460.827115 101.630732 461.228338 102.640595 461.228338 
z
" clip-path="url(#pbf2a03be9a)" style="fill: #ffffff; stroke: #000000; stroke-width: 2"/>
    <path d="M 221.648817 558.107064 
C 224.240491 558.107064 226.726365 557.077381 228.558955 555.244791 
C 230.391545 553.412202 231.421227 550.926327 231.421227 548.334654 
C 231.421227 545.74298 230.391545 543.257106 228.558955 541.424516 
C 226.726365 539.591927 224.240491 538.562244 221.648817 538.562244 
C 219.057144 538.562244 216.57127 539.591927 214.73868 541.424516 
C 212.90609 543.257106 211.876407 545.74298 211.876407 548.334654 
C 211.876407 550.926327 212.90609 553.412202 214.73868 555.244791 
C 216.57127 557.077381 219.057144 558.107064 221.648817 558.107064 
z
" clip-path="url(#pbf2a03be9a)" style="fill: #ffffff; stroke: #000000; stroke-width: 2"/>
    <path d="M 368.751183 552.971463 
C 369.980879 552.971463 371.160375 552.4829 372.029902 551.613373 
C 372.899428 550.743847 373.387992 549.56435 373.387992 548.334654 
C 373.387992 547.104958 372.899428 545.925461 372.029902 545.055935 
C 371.160375 544.186408 369.980879 543.697845 368.751183 543.697845 
C 367.521487 543.697845 366.34199 544.186408 365.472463 545.055935 
C 364.602937 545.925461 364.114373 547.104958 364.114373 548.334654 
C 364.114373 549.56435 364.602937 550.743847 365.472463 551.613373 
C 366.34199 552.4829 367.521487 552.971463 368.751183 552.971463 
z
" clip-path="url(#pbf2a03be9a)" style="fill: #ffffff; stroke: #000000; stroke-width: 2"/>
    <path d="M 487.759405 462.688278 
C 489.156449 462.688278 490.496461 462.133226 491.484321 461.145367 
C 492.47218 460.157508 493.027231 458.817495 493.027231 457.420451 
C 493.027231 456.023407 492.47218 454.683394 491.484321 453.695535 
C 490.496461 452.707676 489.156449 452.152624 487.759405 452.152624 
C 486.362361 452.152624 485.022348 452.707676 484.034489 453.695535 
C 483.046629 454.683394 482.491578 456.023407 482.491578 457.420451 
C 482.491578 458.817495 483.046629 460.157508 484.034489 461.145367 
C 485.022348 462.133226 486.362361 462.688278 487.759405 462.688278 
z
" clip-path="url(#pbf2a03be9a)" style="fill: #ffffff; stroke: #000000; stroke-width: 2"/>
   </g>
   <g id="text_1">
    <g clip-path="url(#pbf2a03be9a)">
     <!-- A.Horford -->
     <g transform="translate(533.2682 283.597535)scale(0.12 -0.12)">
      <defs>
       <path id="DejaVuSans-41" d="M 2188 4044 
L 1331 1722 
L 3047 1722 
L 2188 4044 
z
M 1831 4666 
L 2547 4666 
L 4325 0 
L 3669 0 
L 3244 1197 
L 1141 1197 
L 716 0 
L 50 0 
L 1831 4666 
z
" transform="scale(0.015625)"/>
       <path id="DejaVuSans-2e" d="M 684 794 
L 1344 794 
L 1344 0 
L 684 0 
L 684 794 
z
" transform="scale(0.015625)"/>
       <path id="DejaVuSans-48" d="M 628 4666 
L 1259 4666 
L 1259 2753 
L 3553 2753 
L 3553 4666 
L 4184 4666 
L 4184 0 
L 3553 0 
L 3553 2222 
L 1259 2222 
L 1259 0 
L 628 0 
L 628 4666 
z
" transform="scale(0.015625)"/>
       <path id="DejaVuSans-6f" d="M 1959 3097 
Q 1497 3097 1228 2736 
Q 959 2375 959 1747 
Q 959 1119 1226 758 
Q 1494 397 1959 397 
Q 2419 397 2687 759 
Q 2956 1122 2956 1747 
Q 2956 2369 2687 2733 
Q 2419 3097 1959 3097 
z
M 1959 3584 
Q 2709 3584 3137 3096 
Q 3566 2609 3566 1747 
Q 3566 888 3137 398 
Q 2709 -91 1959 -91 
Q 1206 -91 779 398 
Q 353 888 353 1747 
Q 353 2609 779 3096 
Q 1206 3584 1959 3584 
z
" transform="scale(0.015625)"/>
       <path id="DejaVuSans-72" d="M 2631 2963 
Q 2534 3019 2420 3045 
Q 2306 3072 2169 3072 
Q 1681 3072 1420 2755 
Q 1159 2438 1159 1844 
L 1159 0 
L 581 0 
L 581 3500 
L 1159 3500 
L 1159 2956 
Q 1341 3275 1631 3429 
Q 1922 3584 2338 3584 
Q 2397 3584 2469 3576 
Q 2541 3569 2628 3553 
L 2631 2963 
z
" transform="scale(0.015625)"/>
       <path id="DejaVuSans-66" d="M 2375 4863 
L 2375 4384 
L 1825 4384 
Q 1516 4384 1395 4259 
Q 1275 4134 1275 3809 
L 1275 3500 
L 2222 3500 
L 2222 3053 
L 1275 3053 
L 1275 0 
L 697 0 
L 697 3053 
L 147 3053 
L 147 3500 
L 697 3500 
L 697 3744 
Q 697 4328 969 4595 
Q 1241 4863 1831 4863 
L 2375 4863 
z
" transform="scale(0.015625)"/>
       <path id="DejaVuSans-64" d="M 2906 2969 
L 2906 4863 
L 3481 4863 
L 3481 0 
L 2906 0 
L 2906 525 
Q 2725 213 2448 61 
Q 2172 -91 1784 -91 
Q 1150 -91 751 415 
Q 353 922 353 1747 
Q 353 2572 751 3078 
Q 1150 3584 1784 3584 
Q 2172 3584 2448 3432 
Q 2725 3281 2906 2969 
z
M 947 1747 
Q 947 1113 1208 752 
Q 1469 391 1925 391 
Q 2381 391 2643 752 
Q 2906 1113 2906 1747 
Q 2906 2381 2643 2742 
Q 2381 3103 1925 3103 
Q 1469 3103 1208 2742 
Q 947 2381 947 1747 
z
" transform="scale(0.015625)"/>
      </defs>
      <use xlink:href="#DejaVuSans-41"/>
      <use xlink:href="#DejaVuSans-2e" x="66.658203"/>
      <use xlink:href="#DejaVuSans-48" x="98.445312"/>
      <use xlink:href="#DejaVuSans-6f" x="173.640625"/>
      <use xlink:href="#DejaVuSans-72" x="234.822266"/>
      <use xlink:href="#DejaVuSans-66" x="275.935547"/>
      <use xlink:href="#DejaVuSans-6f" x="311.140625"/>
      <use xlink:href="#DejaVuSans-72" x="372.322266"/>
      <use xlink:href="#DejaVuSans-64" x="411.685547"/>
     </g>
    </g>
   </g>
   <g id="text_2">
    <g clip-path="url(#pbf2a03be9a)">
     <!-- D.Schroder -->
     <g transform="translate(482.91359 136.495232)scale(0.12 -0.12)">
      <defs>
       <path id="DejaVuSans-44" d="M 1259 4147 
L 1259 519 
L 2022 519 
Q 2988 519 3436 956 
Q 3884 1394 3884 2338 
Q 3884 3275 3436 3711 
Q 2988 4147 2022 4147 
L 1259 4147 
z
M 628 4666 
L 1925 4666 
Q 3281 4666 3915 4102 
Q 4550 3538 4550 2338 
Q 4550 1131 3912 565 
Q 3275 0 1925 0 
L 628 0 
L 628 4666 
z
" transform="scale(0.015625)"/>
       <path id="DejaVuSans-53" d="M 3425 4513 
L 3425 3897 
Q 3066 4069 2747 4153 
Q 2428 4238 2131 4238 
Q 1616 4238 1336 4038 
Q 1056 3838 1056 3469 
Q 1056 3159 1242 3001 
Q 1428 2844 1947 2747 
L 2328 2669 
Q 3034 2534 3370 2195 
Q 3706 1856 3706 1288 
Q 3706 609 3251 259 
Q 2797 -91 1919 -91 
Q 1588 -91 1214 -16 
Q 841 59 441 206 
L 441 856 
Q 825 641 1194 531 
Q 1563 422 1919 422 
Q 2459 422 2753 634 
Q 3047 847 3047 1241 
Q 3047 1584 2836 1778 
Q 2625 1972 2144 2069 
L 1759 2144 
Q 1053 2284 737 2584 
Q 422 2884 422 3419 
Q 422 4038 858 4394 
Q 1294 4750 2059 4750 
Q 2388 4750 2728 4690 
Q 3069 4631 3425 4513 
z
" transform="scale(0.015625)"/>
       <path id="DejaVuSans-63" d="M 3122 3366 
L 3122 2828 
Q 2878 2963 2633 3030 
Q 2388 3097 2138 3097 
Q 1578 3097 1268 2742 
Q 959 2388 959 1747 
Q 959 1106 1268 751 
Q 1578 397 2138 397 
Q 2388 397 2633 464 
Q 2878 531 3122 666 
L 3122 134 
Q 2881 22 2623 -34 
Q 2366 -91 2075 -91 
Q 1284 -91 818 406 
Q 353 903 353 1747 
Q 353 2603 823 3093 
Q 1294 3584 2113 3584 
Q 2378 3584 2631 3529 
Q 2884 3475 3122 3366 
z
" transform="scale(0.015625)"/>
       <path id="DejaVuSans-68" d="M 3513 2113 
L 3513 0 
L 2938 0 
L 2938 2094 
Q 2938 2591 2744 2837 
Q 2550 3084 2163 3084 
Q 1697 3084 1428 2787 
Q 1159 2491 1159 1978 
L 1159 0 
L 581 0 
L 581 4863 
L 1159 4863 
L 1159 2956 
Q 1366 3272 1645 3428 
Q 1925 3584 2291 3584 
Q 2894 3584 3203 3211 
Q 3513 2838 3513 2113 
z
" transform="scale(0.015625)"/>
       <path id="DejaVuSans-65" d="M 3597 1894 
L 3597 1613 
L 953 1613 
Q 991 1019 1311 708 
Q 1631 397 2203 397 
Q 2534 397 2845 478 
Q 3156 559 3463 722 
L 3463 178 
Q 3153 47 2828 -22 
Q 2503 -91 2169 -91 
Q 1331 -91 842 396 
Q 353 884 353 1716 
Q 353 2575 817 3079 
Q 1281 3584 2069 3584 
Q 2775 3584 3186 3129 
Q 3597 2675 3597 1894 
z
M 3022 2063 
Q 3016 2534 2758 2815 
Q 2500 3097 2075 3097 
Q 1594 3097 1305 2825 
Q 1016 2553 972 2059 
L 3022 2063 
z
" transform="scale(0.015625)"/>
      </defs>
      <use xlink:href="#DejaVuSans-44"/>
      <use xlink:href="#DejaVuSans-2e" x="77.001953"/>
      <use xlink:href="#DejaVuSans-53" x="108.789062"/>
      <use xlink:href="#DejaVuSans-63" x="172.265625"/>
      <use xlink:href="#DejaVuSans-68" x="227.246094"/>
      <use xlink:href="#DejaVuSans-72" x="290.625"/>
      <use xlink:href="#DejaVuSans-6f" x="329.488281"/>
      <use xlink:href="#DejaVuSans-64" x="390.669922"/>
      <use xlink:href="#DejaVuSans-65" x="454.146484"/>
      <use xlink:href="#DejaVuSans-72" x="515.669922"/>
     </g>
    </g>
   </g>
   <g id="text_3">
    <g clip-path="url(#pbf2a03be9a)">
     <!-- D.White -->
     <g transform="translate(373.340318 45.580999)scale(0.12 -0.12)">
      <defs>
       <path id="DejaVuSans-57" d="M 213 4666 
L 850 4666 
L 1831 722 
L 2809 4666 
L 3519 4666 
L 4500 722 
L 5478 4666 
L 6119 4666 
L 4947 0 
L 4153 0 
L 3169 4050 
L 2175 0 
L 1381 0 
L 213 4666 
z
" transform="scale(0.015625)"/>
       <path id="DejaVuSans-69" d="M 603 3500 
L 1178 3500 
L 1178 0 
L 603 0 
L 603 3500 
z
M 603 4863 
L 1178 4863 
L 1178 4134 
L 603 4134 
L 603 4863 
z
" transform="scale(0.015625)"/>
       <path id="DejaVuSans-74" d="M 1172 4494 
L 1172 3500 
L 2356 3500 
L 2356 3053 
L 1172 3053 
L 1172 1153 
Q 1172 725 1289 603 
Q 1406 481 1766 481 
L 2356 481 
L 2356 0 
L 1766 0 
Q 1100 0 847 248 
Q 594 497 594 1153 
L 594 3053 
L 172 3053 
L 172 3500 
L 594 3500 
L 594 4494 
L 1172 4494 
z
" transform="scale(0.015625)"/>
      </defs>
      <use xlink:href="#DejaVuSans-44"/>
      <use xlink:href="#DejaVuSans-2e" x="77.001953"/>
      <use xlink:href="#DejaVuSans-57" x="108.789062"/>
      <use xlink:href="#DejaVuSans-68" x="207.666016"/>
      <use xlink:href="#DejaVuSans-69" x="271.044922"/>
      <use xlink:href="#DejaVuSans-74" x="298.828125"/>
      <use xlink:href="#DejaVuSans-65" x="338.037109"/>
     </g>
    </g>
   </g>
   <g id="text_4">
    <g clip-path="url(#pbf2a03be9a)">
     <!-- G.Williams -->
     <g transform="translate(161.419042 45.581014)scale(0.12 -0.12)">
      <defs>
       <path id="DejaVuSans-47" d="M 3809 666 
L 3809 1919 
L 2778 1919 
L 2778 2438 
L 4434 2438 
L 4434 434 
Q 4069 175 3628 42 
Q 3188 -91 2688 -91 
Q 1594 -91 976 548 
Q 359 1188 359 2328 
Q 359 3472 976 4111 
Q 1594 4750 2688 4750 
Q 3144 4750 3555 4637 
Q 3966 4525 4313 4306 
L 4313 3634 
Q 3963 3931 3569 4081 
Q 3175 4231 2741 4231 
Q 1884 4231 1454 3753 
Q 1025 3275 1025 2328 
Q 1025 1384 1454 906 
Q 1884 428 2741 428 
Q 3075 428 3337 486 
Q 3600 544 3809 666 
z
" transform="scale(0.015625)"/>
       <path id="DejaVuSans-6c" d="M 603 4863 
L 1178 4863 
L 1178 0 
L 603 0 
L 603 4863 
z
" transform="scale(0.015625)"/>
       <path id="DejaVuSans-61" d="M 2194 1759 
Q 1497 1759 1228 1600 
Q 959 1441 959 1056 
Q 959 750 1161 570 
Q 1363 391 1709 391 
Q 2188 391 2477 730 
Q 2766 1069 2766 1631 
L 2766 1759 
L 2194 1759 
z
M 3341 1997 
L 3341 0 
L 2766 0 
L 2766 531 
Q 2569 213 2275 61 
Q 1981 -91 1556 -91 
Q 1019 -91 701 211 
Q 384 513 384 1019 
Q 384 1609 779 1909 
Q 1175 2209 1959 2209 
L 2766 2209 
L 2766 2266 
Q 2766 2663 2505 2880 
Q 2244 3097 1772 3097 
Q 1472 3097 1187 3025 
Q 903 2953 641 2809 
L 641 3341 
Q 956 3463 1253 3523 
Q 1550 3584 1831 3584 
Q 2591 3584 2966 3190 
Q 3341 2797 3341 1997 
z
" transform="scale(0.015625)"/>
       <path id="DejaVuSans-6d" d="M 3328 2828 
Q 3544 3216 3844 3400 
Q 4144 3584 4550 3584 
Q 5097 3584 5394 3201 
Q 5691 2819 5691 2113 
L 5691 0 
L 5113 0 
L 5113 2094 
Q 5113 2597 4934 2840 
Q 4756 3084 4391 3084 
Q 3944 3084 3684 2787 
Q 3425 2491 3425 1978 
L 3425 0 
L 2847 0 
L 2847 2094 
Q 2847 2600 2669 2842 
Q 2491 3084 2119 3084 
Q 1678 3084 1418 2786 
Q 1159 2488 1159 1978 
L 1159 0 
L 581 0 
L 581 3500 
L 1159 3500 
L 1159 2956 
Q 1356 3278 1631 3431 
Q 1906 3584 2284 3584 
Q 2666 3584 2933 3390 
Q 3200 3197 3328 2828 
z
" transform="scale(0.015625)"/>
       <path id="DejaVuSans-73" d="M 2834 3397 
L 2834 2853 
Q 2591 2978 2328 3040 
Q 2066 3103 1784 3103 
Q 1356 3103 1142 2972 
Q 928 2841 928 2578 
Q 928 2378 1081 2264 
Q 1234 2150 1697 2047 
L 1894 2003 
Q 2506 1872 2764 1633 
Q 3022 1394 3022 966 
Q 3022 478 2636 193 
Q 2250 -91 1575 -91 
Q 1294 -91 989 -36 
Q 684 19 347 128 
L 347 722 
Q 666 556 975 473 
Q 1284 391 1588 391 
Q 1994 391 2212 530 
Q 2431 669 2431 922 
Q 2431 1156 2273 1281 
Q 2116 1406 1581 1522 
L 1381 1569 
Q 847 1681 609 1914 
Q 372 2147 372 2553 
Q 372 3047 722 3315 
Q 1072 3584 1716 3584 
Q 2034 3584 2315 3537 
Q 2597 3491 2834 3397 
z
" transform="scale(0.015625)"/>
      </defs>
      <use xlink:href="#DejaVuSans-47"/>
      <use xlink:href="#DejaVuSans-2e" x="77.490234"/>
      <use xlink:href="#DejaVuSans-57" x="109.277344"/>
      <use xlink:href="#DejaVuSans-69" x="205.904297"/>
      <use xlink:href="#DejaVuSans-6c" x="233.6875"/>
      <use xlink:href="#DejaVuSans-6c" x="261.470703"/>
      <use xlink:href="#DejaVuSans-69" x="289.253906"/>
      <use xlink:href="#DejaVuSans-61" x="317.037109"/>
      <use xlink:href="#DejaVuSans-6d" x="378.316406"/>
      <use xlink:href="#DejaVuSans-73" x="475.728516"/>
     </g>
    </g>
   </g>
   <g id="text_5">
    <g clip-path="url(#pbf2a03be9a)">
     <!-- J.Brown -->
     <g transform="translate(51.572973 136.495232)scale(0.12 -0.12)">
      <defs>
       <path id="DejaVuSans-4a" d="M 628 4666 
L 1259 4666 
L 1259 325 
Q 1259 -519 939 -900 
Q 619 -1281 -91 -1281 
L -331 -1281 
L -331 -750 
L -134 -750 
Q 284 -750 456 -515 
Q 628 -281 628 325 
L 628 4666 
z
" transform="scale(0.015625)"/>
       <path id="DejaVuSans-42" d="M 1259 2228 
L 1259 519 
L 2272 519 
Q 2781 519 3026 730 
Q 3272 941 3272 1375 
Q 3272 1813 3026 2020 
Q 2781 2228 2272 2228 
L 1259 2228 
z
M 1259 4147 
L 1259 2741 
L 2194 2741 
Q 2656 2741 2882 2914 
Q 3109 3088 3109 3444 
Q 3109 3797 2882 3972 
Q 2656 4147 2194 4147 
L 1259 4147 
z
M 628 4666 
L 2241 4666 
Q 2963 4666 3353 4366 
Q 3744 4066 3744 3513 
Q 3744 3084 3544 2831 
Q 3344 2578 2956 2516 
Q 3422 2416 3680 2098 
Q 3938 1781 3938 1306 
Q 3938 681 3513 340 
Q 3088 0 2303 0 
L 628 0 
L 628 4666 
z
" transform="scale(0.015625)"/>
       <path id="DejaVuSans-77" d="M 269 3500 
L 844 3500 
L 1563 769 
L 2278 3500 
L 2956 3500 
L 3675 769 
L 4391 3500 
L 4966 3500 
L 4050 0 
L 3372 0 
L 2619 2869 
L 1863 0 
L 1184 0 
L 269 3500 
z
" transform="scale(0.015625)"/>
       <path id="DejaVuSans-6e" d="M 3513 2113 
L 3513 0 
L 2938 0 
L 2938 2094 
Q 2938 2591 2744 2837 
Q 2550 3084 2163 3084 
Q 1697 3084 1428 2787 
Q 1159 2491 1159 1978 
L 1159 0 
L 581 0 
L 581 3500 
L 1159 3500 
L 1159 2956 
Q 1366 3272 1645 3428 
Q 1925 3584 2291 3584 
Q 2894 3584 3203 3211 
Q 3513 2838 3513 2113 
z
" transform="scale(0.015625)"/>
      </defs>
      <use xlink:href="#DejaVuSans-4a"/>
      <use xlink:href="#DejaVuSans-2e" x="29.492188"/>
      <use xlink:href="#DejaVuSans-42" x="61.279297"/>
      <use xlink:href="#DejaVuSans-72" x="129.882812"/>
      <use xlink:href="#DejaVuSans-6f" x="168.746094"/>
      <use xlink:href="#DejaVuSans-77" x="229.927734"/>
      <use xlink:href="#DejaVuSans-6e" x="311.714844"/>
     </g>
    </g>
   </g>
   <g id="text_6">
    <g clip-path="url(#pbf2a03be9a)">
     <!-- J.Tatum -->
     <g transform="translate(6.593987 343.661251)scale(0.12 -0.12)">
      <defs>
       <path id="DejaVuSans-54" d="M -19 4666 
L 3928 4666 
L 3928 4134 
L 2272 4134 
L 2272 0 
L 1638 0 
L 1638 4134 
L -19 4134 
L -19 4666 
z
" transform="scale(0.015625)"/>
       <path id="DejaVuSans-75" d="M 544 1381 
L 544 3500 
L 1119 3500 
L 1119 1403 
Q 1119 906 1312 657 
Q 1506 409 1894 409 
Q 2359 409 2629 706 
Q 2900 1003 2900 1516 
L 2900 3500 
L 3475 3500 
L 3475 0 
L 2900 0 
L 2900 538 
Q 2691 219 2414 64 
Q 2138 -91 1772 -91 
Q 1169 -91 856 284 
Q 544 659 544 1381 
z
M 1991 3584 
L 1991 3584 
z
" transform="scale(0.015625)"/>
      </defs>
      <use xlink:href="#DejaVuSans-4a"/>
      <use xlink:href="#DejaVuSans-2e" x="29.492188"/>
      <use xlink:href="#DejaVuSans-54" x="61.279297"/>
      <use xlink:href="#DejaVuSans-61" x="105.863281"/>
      <use xlink:href="#DejaVuSans-74" x="167.142578"/>
      <use xlink:href="#DejaVuSans-75" x="206.351562"/>
      <use xlink:href="#DejaVuSans-6d" x="269.730469"/>
     </g>
    </g>
   </g>
   <g id="text_7">
    <g clip-path="url(#pbf2a03be9a)">
     <!-- J.Richardson -->
     <g transform="translate(37.017362 490.763548)scale(0.12 -0.12)">
      <defs>
       <path id="DejaVuSans-52" d="M 2841 2188 
Q 3044 2119 3236 1894 
Q 3428 1669 3622 1275 
L 4263 0 
L 3584 0 
L 2988 1197 
Q 2756 1666 2539 1819 
Q 2322 1972 1947 1972 
L 1259 1972 
L 1259 0 
L 628 0 
L 628 4666 
L 2053 4666 
Q 2853 4666 3247 4331 
Q 3641 3997 3641 3322 
Q 3641 2881 3436 2590 
Q 3231 2300 2841 2188 
z
M 1259 4147 
L 1259 2491 
L 2053 2491 
Q 2509 2491 2742 2702 
Q 2975 2913 2975 3322 
Q 2975 3731 2742 3939 
Q 2509 4147 2053 4147 
L 1259 4147 
z
" transform="scale(0.015625)"/>
      </defs>
      <use xlink:href="#DejaVuSans-4a"/>
      <use xlink:href="#DejaVuSans-2e" x="29.492188"/>
      <use xlink:href="#DejaVuSans-52" x="61.279297"/>
      <use xlink:href="#DejaVuSans-69" x="130.761719"/>
      <use xlink:href="#DejaVuSans-63" x="158.544922"/>
      <use xlink:href="#DejaVuSans-68" x="213.525391"/>
      <use xlink:href="#DejaVuSans-61" x="276.904297"/>
      <use xlink:href="#DejaVuSans-72" x="338.183594"/>
      <use xlink:href="#DejaVuSans-64" x="377.546875"/>
      <use xlink:href="#DejaVuSans-73" x="441.023438"/>
      <use xlink:href="#DejaVuSans-6f" x="493.123047"/>
      <use xlink:href="#DejaVuSans-6e" x="554.304688"/>
     </g>
    </g>
   </g>
   <g id="text_8">
    <g clip-path="url(#pbf2a03be9a)">
     <!-- M.Smart -->
     <g transform="translate(167.854021 581.677751)scale(0.12 -0.12)">
      <defs>
       <path id="DejaVuSans-4d" d="M 628 4666 
L 1569 4666 
L 2759 1491 
L 3956 4666 
L 4897 4666 
L 4897 0 
L 4281 0 
L 4281 4097 
L 3078 897 
L 2444 897 
L 1241 4097 
L 1241 0 
L 628 0 
L 628 4666 
z
" transform="scale(0.015625)"/>
      </defs>
      <use xlink:href="#DejaVuSans-4d"/>
      <use xlink:href="#DejaVuSans-2e" x="86.279297"/>
      <use xlink:href="#DejaVuSans-53" x="118.066406"/>
      <use xlink:href="#DejaVuSans-6d" x="181.542969"/>
      <use xlink:href="#DejaVuSans-61" x="278.955078"/>
      <use xlink:href="#DejaVuSans-72" x="340.234375"/>
      <use xlink:href="#DejaVuSans-74" x="381.347656"/>
     </g>
    </g>
   </g>
   <g id="text_9">
    <g clip-path="url(#pbf2a03be9a)">
     <!-- P.Pritchard -->
     <g transform="translate(365.778479 581.677751)scale(0.12 -0.12)">
      <defs>
       <path id="DejaVuSans-50" d="M 1259 4147 
L 1259 2394 
L 2053 2394 
Q 2494 2394 2734 2622 
Q 2975 2850 2975 3272 
Q 2975 3691 2734 3919 
Q 2494 4147 2053 4147 
L 1259 4147 
z
M 628 4666 
L 2053 4666 
Q 2838 4666 3239 4311 
Q 3641 3956 3641 3272 
Q 3641 2581 3239 2228 
Q 2838 1875 2053 1875 
L 1259 1875 
L 1259 0 
L 628 0 
L 628 4666 
z
" transform="scale(0.015625)"/>
      </defs>
      <use xlink:href="#DejaVuSans-50"/>
      <use xlink:href="#DejaVuSans-2e" x="44.677734"/>
      <use xlink:href="#DejaVuSans-50" x="76.464844"/>
      <use xlink:href="#DejaVuSans-72" x="135.017578"/>
      <use xlink:href="#DejaVuSans-69" x="176.130859"/>
      <use xlink:href="#DejaVuSans-74" x="203.914062"/>
      <use xlink:href="#DejaVuSans-63" x="243.123047"/>
      <use xlink:href="#DejaVuSans-68" x="298.103516"/>
      <use xlink:href="#DejaVuSans-61" x="361.482422"/>
      <use xlink:href="#DejaVuSans-72" x="422.761719"/>
      <use xlink:href="#DejaVuSans-64" x="462.125"/>
     </g>
    </g>
   </g>
   <g id="text_10">
    <g clip-path="url(#pbf2a03be9a)">
     <!-- R.Williams III -->
     <g transform="translate(478.134201 490.763548)scale(0.12 -0.12)">
      <defs>
       <path id="DejaVuSans-20" transform="scale(0.015625)"/>
       <path id="DejaVuSans-49" d="M 628 4666 
L 1259 4666 
L 1259 0 
L 628 0 
L 628 4666 
z
" transform="scale(0.015625)"/>
      </defs>
      <use xlink:href="#DejaVuSans-52"/>
      <use xlink:href="#DejaVuSans-2e" x="65.857422"/>
      <use xlink:href="#DejaVuSans-57" x="97.644531"/>
      <use xlink:href="#DejaVuSans-69" x="194.271484"/>
      <use xlink:href="#DejaVuSans-6c" x="222.054688"/>
      <use xlink:href="#DejaVuSans-6c" x="249.837891"/>
      <use xlink:href="#DejaVuSans-69" x="277.621094"/>
      <use xlink:href="#DejaVuSans-61" x="305.404297"/>
      <use xlink:href="#DejaVuSans-6d" x="366.683594"/>
      <use xlink:href="#DejaVuSans-73" x="464.095703"/>
      <use xlink:href="#DejaVuSans-20" x="516.195312"/>
      <use xlink:href="#DejaVuSans-49" x="547.982422"/>
      <use xlink:href="#DejaVuSans-49" x="577.474609"/>
      <use xlink:href="#DejaVuSans-49" x="606.966797"/>
     </g>
    </g>
   </g>
   <g id="text_11">
    <!-- 2021-22 Boston Celtics Assist Network -->
    <g transform="translate(179.219063 16.318125)scale(0.12 -0.12)">
     <defs>
      <path id="DejaVuSans-32" d="M 1228 531 
L 3431 531 
L 3431 0 
L 469 0 
L 469 531 
Q 828 903 1448 1529 
Q 2069 2156 2228 2338 
Q 2531 2678 2651 2914 
Q 2772 3150 2772 3378 
Q 2772 3750 2511 3984 
Q 2250 4219 1831 4219 
Q 1534 4219 1204 4116 
Q 875 4013 500 3803 
L 500 4441 
Q 881 4594 1212 4672 
Q 1544 4750 1819 4750 
Q 2544 4750 2975 4387 
Q 3406 4025 3406 3419 
Q 3406 3131 3298 2873 
Q 3191 2616 2906 2266 
Q 2828 2175 2409 1742 
Q 1991 1309 1228 531 
z
" transform="scale(0.015625)"/>
      <path id="DejaVuSans-30" d="M 2034 4250 
Q 1547 4250 1301 3770 
Q 1056 3291 1056 2328 
Q 1056 1369 1301 889 
Q 1547 409 2034 409 
Q 2525 409 2770 889 
Q 3016 1369 3016 2328 
Q 3016 3291 2770 3770 
Q 2525 4250 2034 4250 
z
M 2034 4750 
Q 2819 4750 3233 4129 
Q 3647 3509 3647 2328 
Q 3647 1150 3233 529 
Q 2819 -91 2034 -91 
Q 1250 -91 836 529 
Q 422 1150 422 2328 
Q 422 3509 836 4129 
Q 1250 4750 2034 4750 
z
" transform="scale(0.015625)"/>
      <path id="DejaVuSans-31" d="M 794 531 
L 1825 531 
L 1825 4091 
L 703 3866 
L 703 4441 
L 1819 4666 
L 2450 4666 
L 2450 531 
L 3481 531 
L 3481 0 
L 794 0 
L 794 531 
z
" transform="scale(0.015625)"/>
      <path id="DejaVuSans-2d" d="M 313 2009 
L 1997 2009 
L 1997 1497 
L 313 1497 
L 313 2009 
z
" transform="scale(0.015625)"/>
      <path id="DejaVuSans-43" d="M 4122 4306 
L 4122 3641 
Q 3803 3938 3442 4084 
Q 3081 4231 2675 4231 
Q 1875 4231 1450 3742 
Q 1025 3253 1025 2328 
Q 1025 1406 1450 917 
Q 1875 428 2675 428 
Q 3081 428 3442 575 
Q 3803 722 4122 1019 
L 4122 359 
Q 3791 134 3420 21 
Q 3050 -91 2638 -91 
Q 1578 -91 968 557 
Q 359 1206 359 2328 
Q 359 3453 968 4101 
Q 1578 4750 2638 4750 
Q 3056 4750 3426 4639 
Q 3797 4528 4122 4306 
z
" transform="scale(0.015625)"/>
      <path id="DejaVuSans-4e" d="M 628 4666 
L 1478 4666 
L 3547 763 
L 3547 4666 
L 4159 4666 
L 4159 0 
L 3309 0 
L 1241 3903 
L 1241 0 
L 628 0 
L 628 4666 
z
" transform="scale(0.015625)"/>
      <path id="DejaVuSans-6b" d="M 581 4863 
L 1159 4863 
L 1159 1991 
L 2875 3500 
L 3609 3500 
L 1753 1863 
L 3688 0 
L 2938 0 
L 1159 1709 
L 1159 0 
L 581 0 
L 581 4863 
z
" transform="scale(0.015625)"/>
     </defs>
     <use xlink:href="#DejaVuSans-32"/>
     <use xlink:href="#DejaVuSans-30" x="63.623047"/>
     <use xlink:href="#DejaVuSans-32" x="127.246094"/>
     <use xlink:href="#DejaVuSans-31" x="190.869141"/>
     <use xlink:href="#DejaVuSans-2d" x="254.492188"/>
     <use xlink:href="#DejaVuSans-32" x="290.576172"/>
     <use xlink:href="#DejaVuSans-32" x="354.199219"/>
     <use xlink:href="#DejaVuSans-20" x="417.822266"/>
     <use xlink:href="#DejaVuSans-42" x="449.609375"/>
     <use xlink:href="#DejaVuSans-6f" x="518.212891"/>
     <use xlink:href="#DejaVuSans-73" x="579.394531"/>
     <use xlink:href="#DejaVuSans-74" x="631.494141"/>
     <use xlink:href="#DejaVuSans-6f" x="670.703125"/>
     <use xlink:href="#DejaVuSans-6e" x="731.884766"/>
     <use xlink:href="#DejaVuSans-20" x="795.263672"/>
     <use xlink:href="#DejaVuSans-43" x="827.050781"/>
     <use xlink:href="#DejaVuSans-65" x="896.875"/>
     <use xlink:href="#DejaVuSans-6c" x="958.398438"/>
     <use xlink:href="#DejaVuSans-74" x="986.181641"/>
     <use xlink:href="#DejaVuSans-69" x="1025.390625"/>
     <use xlink:href="#DejaVuSans-63" x="1053.173828"/>
     <use xlink:href="#DejaVuSans-73" x="1108.154297"/>
     <use xlink:href="#DejaVuSans-20" x="1160.253906"/>
     <use xlink:href="#DejaVuSans-41" x="1192.041016"/>
     <use xlink:href="#DejaVuSans-73" x="1260.449219"/>
     <use xlink:href="#DejaVuSans-73" x="1312.548828"/>
     <use xlink:href="#DejaVuSans-69" x="1364.648438"/>
     <use xlink:href="#DejaVuSans-73" x="1392.431641"/>
     <use xlink:href="#DejaVuSans-74" x="1444.53125"/>
     <use xlink:href="#DejaVuSans-20" x="1483.740234"/>
     <use xlink:href="#DejaVuSans-4e" x="1515.527344"/>
     <use xlink:href="#DejaVuSans-65" x="1590.332031"/>
     <use xlink:href="#DejaVuSans-74" x="1651.855469"/>
     <use xlink:href="#DejaVuSans-77" x="1691.064453"/>
     <use xlink:href="#DejaVuSans-6f" x="1772.851562"/>
     <use xlink:href="#DejaVuSans-72" x="1834.033203"/>
     <use xlink:href="#DejaVuSans-6b" x="1875.146484"/>
    </g>
   </g>
  </g>
 </g>
 <defs>
  <clipPath id="pbf2a03be9a">
   <rect x="7.2" y="22.318125" width="576" height="576"/>
  </clipPath>
 </defs>
</svg>
