<?xml version="1.0" encoding="utf-8" standalone="no"?>
<!DOCTYPE svg PUBLIC "-//W3C//DTD SVG 1.1//EN"
  "http://www.w3.org/Graphics/SVG/1.1/DTD/svg11.dtd">
<svg xmlns:xlink="http://www.w3.org/1999/xlink" width="590.4pt" height="605.518125pt" viewBox="0 0 590.4 605.518125" xmlns="http://www.w3.org/2000/svg" version="1.1">
 <metadata>
  <rdf:RDF xmlns:dc="http://purl.org/dc/elements/1.1/" xmlns:cc="http://creativecommons.org/ns#" xmlns:rdf="http://www.w3.org/1999/02/22-rdf-syntax-ns#">
   <cc:Work>
    <dc:type rdf:resource="http://purl.org/dc/dcmitype/StillImage"/>
    <dc:date>2023-04-14T16:43:02.850011</dc:date>
    <dc:format>image/svg+xml</dc:format>
    <dc:creator>
     <cc:Agent>
      <dc:title>Matplotlib v3.5.2, https://matplotlib.org/</dc:title>
     </cc:Agent>
    </dc:creator>
   </cc:Work>
  </rdf:RDF>
 </metadata>
 <defs>
  <style type="text/css">*{stroke-linejoin: round; stroke-linecap: butt}</style>
 </defs>
 <g id="figure_1">
  <g id="patch_1">
   <path d="M 0 605.518125 
L 590.4 605.518125 
L 590.4 0 
L 0 0 
z
" style="fill: #ffffff"/>
  </g>
  <g id="axes_1">
   <g id="LineCollection_1">
    <path d="M 533.216529 310.318132 
L 487.759419 163.215829 
" clip-path="url(#p0061a435a7)" style="fill: none; stroke: #cccccc; stroke-width: 2"/>
    <path d="M 533.216529 310.318132 
L 368.751147 72.301596 
" clip-path="url(#p0061a435a7)" style="fill: none; stroke: #b5b5b5; stroke-width: 2"/>
    <path d="M 533.216529 310.318132 
L 221.648839 72.301611 
" clip-path="url(#p0061a435a7)" style="fill: none; stroke: #e4e4e4; stroke-width: 2"/>
    <path d="M 533.216529 310.318132 
L 102.640581 163.215829 
" clip-path="url(#p0061a435a7)" style="fill: none; stroke: #b1b1b1; stroke-width: 2"/>
    <path d="M 533.216529 310.318132 
L 57.183471 310.318154 
" clip-path="url(#p0061a435a7)" style="fill: none; stroke: #b3b3b3; stroke-width: 2"/>
    <path d="M 533.216529 310.318132 
L 102.640595 457.420451 
" clip-path="url(#p0061a435a7)" style="fill: none; stroke: #fafafa; stroke-width: 2"/>
    <path d="M 533.216529 310.318132 
L 221.648817 548.334654 
" clip-path="url(#p0061a435a7)" style="fill: none; stroke: #dbdbdb; stroke-width: 2"/>
    <path d="M 533.216529 310.318132 
L 368.751183 548.334654 
" clip-path="url(#p0061a435a7)" style="fill: none; stroke: #888888; stroke-width: 2"/>
    <path d="M 533.216529 310.318132 
L 487.759405 457.420451 
" clip-path="url(#p0061a435a7)" style="fill: none; stroke: #f8f8f8; stroke-width: 2"/>
    <path d="M 487.759419 163.215829 
L 368.751147 72.301596 
" clip-path="url(#p0061a435a7)" style="fill: none; stroke: #e7e7e7; stroke-width: 2"/>
    <path d="M 487.759419 163.215829 
L 221.648839 72.301611 
" clip-path="url(#p0061a435a7)" style="fill: none; stroke: #d4d4d4; stroke-width: 2"/>
    <path d="M 487.759419 163.215829 
L 102.640581 163.215829 
" clip-path="url(#p0061a435a7)" style="fill: none; stroke: #d7d7d7; stroke-width: 2"/>
    <path d="M 487.759419 163.215829 
L 57.183471 310.318154 
" clip-path="url(#p0061a435a7)" style="fill: none; stroke: #bbbbbb; stroke-width: 2"/>
    <path d="M 487.759419 163.215829 
L 102.640595 457.420451 
" clip-path="url(#p0061a435a7)" style="fill: none; stroke: #f6f6f6; stroke-width: 2"/>
    <path d="M 487.759419 163.215829 
L 221.648817 548.334654 
" clip-path="url(#p0061a435a7)" style="fill: none; stroke: #d8d8d8; stroke-width: 2"/>
    <path d="M 487.759419 163.215829 
L 368.751183 548.334654 
" clip-path="url(#p0061a435a7)" style="fill: none; stroke: #e9e9e9; stroke-width: 2"/>
    <path d="M 487.759419 163.215829 
L 487.759405 457.420451 
" clip-path="url(#p0061a435a7)" style="fill: none; stroke: #ffffff; stroke-width: 2"/>
    <path d="M 368.751147 72.301596 
L 221.648839 72.301611 
" clip-path="url(#p0061a435a7)" style="fill: none; stroke: #d7d7d7; stroke-width: 2"/>
    <path d="M 368.751147 72.301596 
L 102.640581 163.215829 
" clip-path="url(#p0061a435a7)" style="fill: none; stroke: #696969; stroke-width: 2"/>
    <path d="M 368.751147 72.301596 
L 57.183471 310.318154 
" clip-path="url(#p0061a435a7)" style="fill: none; stroke: #2d2d2d; stroke-width: 2"/>
    <path d="M 368.751147 72.301596 
L 102.640595 457.420451 
" clip-path="url(#p0061a435a7)" style="fill: none; stroke: #ededed; stroke-width: 2"/>
    <path d="M 368.751147 72.301596 
L 221.648817 548.334654 
" clip-path="url(#p0061a435a7)" style="fill: none; stroke: #d8d8d8; stroke-width: 2"/>
    <path d="M 368.751147 72.301596 
L 368.751183 548.334654 
" clip-path="url(#p0061a435a7)" style="fill: none; stroke: #000000; stroke-width: 2"/>
    <path d="M 368.751147 72.301596 
L 487.759405 457.420451 
" clip-path="url(#p0061a435a7)" style="fill: none; stroke: #c4c4c4; stroke-width: 2"/>
    <path d="M 221.648839 72.301611 
L 102.640581 163.215829 
" clip-path="url(#p0061a435a7)" style="fill: none; stroke: #d8d8d8; stroke-width: 2"/>
    <path d="M 221.648839 72.301611 
L 57.183471 310.318154 
" clip-path="url(#p0061a435a7)" style="fill: none; stroke: #f9f9f9; stroke-width: 2"/>
    <path d="M 221.648839 72.301611 
L 102.640595 457.420451 
" clip-path="url(#p0061a435a7)" style="fill: none; stroke: #ededed; stroke-width: 2"/>
    <path d="M 221.648839 72.301611 
L 221.648817 548.334654 
" clip-path="url(#p0061a435a7)" style="fill: none; stroke: #eaeaea; stroke-width: 2"/>
    <path d="M 221.648839 72.301611 
L 368.751183 548.334654 
" clip-path="url(#p0061a435a7)" style="fill: none; stroke: #e4e4e4; stroke-width: 2"/>
    <path d="M 221.648839 72.301611 
L 487.759405 457.420451 
" clip-path="url(#p0061a435a7)" style="fill: none; stroke: #fdfdfd; stroke-width: 2"/>
    <path d="M 102.640581 163.215829 
L 57.183471 310.318154 
" clip-path="url(#p0061a435a7)" style="fill: none; stroke: #7a7a7a; stroke-width: 2"/>
    <path d="M 102.640581 163.215829 
L 102.640595 457.420451 
" clip-path="url(#p0061a435a7)" style="fill: none; stroke: #f1f1f1; stroke-width: 2"/>
    <path d="M 102.640581 163.215829 
L 221.648817 548.334654 
" clip-path="url(#p0061a435a7)" style="fill: none; stroke: #e5e5e5; stroke-width: 2"/>
    <path d="M 102.640581 163.215829 
L 368.751183 548.334654 
" clip-path="url(#p0061a435a7)" style="fill: none; stroke: #343434; stroke-width: 2"/>
    <path d="M 102.640581 163.215829 
L 487.759405 457.420451 
" clip-path="url(#p0061a435a7)" style="fill: none; stroke: #c3c3c3; stroke-width: 2"/>
    <path d="M 57.183471 310.318154 
L 102.640595 457.420451 
" clip-path="url(#p0061a435a7)" style="fill: none; stroke: #eaeaea; stroke-width: 2"/>
    <path d="M 57.183471 310.318154 
L 221.648817 548.334654 
" clip-path="url(#p0061a435a7)" style="fill: none; stroke: #d8d8d8; stroke-width: 2"/>
    <path d="M 57.183471 310.318154 
L 368.751183 548.334654 
" clip-path="url(#p0061a435a7)" style="fill: none; stroke: #424242; stroke-width: 2"/>
    <path d="M 57.183471 310.318154 
L 487.759405 457.420451 
" clip-path="url(#p0061a435a7)" style="fill: none; stroke: #b2b2b2; stroke-width: 2"/>
    <path d="M 102.640595 457.420451 
L 221.648817 548.334654 
" clip-path="url(#p0061a435a7)" style="fill: none; stroke: #f8f8f8; stroke-width: 2"/>
    <path d="M 102.640595 457.420451 
L 368.751183 548.334654 
" clip-path="url(#p0061a435a7)" style="fill: none; stroke: #d9d9d9; stroke-width: 2"/>
    <path d="M 102.640595 457.420451 
L 487.759405 457.420451 
" clip-path="url(#p0061a435a7)" style="fill: none; stroke: #f9f9f9; stroke-width: 2"/>
    <path d="M 221.648817 548.334654 
L 368.751183 548.334654 
" clip-path="url(#p0061a435a7)" style="fill: none; stroke: #dcdcdc; stroke-width: 2"/>
    <path d="M 221.648817 548.334654 
L 487.759405 457.420451 
" clip-path="url(#p0061a435a7)" style="fill: none; stroke: #fefefe; stroke-width: 2"/>
    <path d="M 368.751183 548.334654 
L 487.759405 457.420451 
" clip-path="url(#p0061a435a7)" style="fill: none; stroke: #9c9c9c; stroke-width: 2"/>
   </g>
   <g id="PathCollection_1">
    <path d="M 533.216529 317.884505 
C 535.223154 317.884505 537.147864 317.087265 538.566763 315.668366 
C 539.985661 314.249468 540.782902 312.324758 540.782902 310.318132 
C 540.782902 308.311507 539.985661 306.386797 538.566763 304.967899 
C 537.147864 303.549 535.223154 302.751759 533.216529 302.751759 
C 531.209903 302.751759 529.285194 303.549 527.866295 304.967899 
C 526.447397 306.386797 525.650156 308.311507 525.650156 310.318132 
C 525.650156 312.324758 526.447397 314.249468 527.866295 315.668366 
C 529.285194 317.087265 531.209903 317.884505 533.216529 317.884505 
z
" clip-path="url(#p0061a435a7)" style="fill: #ffffff; stroke: #000000; stroke-width: 2"/>
    <path d="M 487.759419 169.194959 
C 489.345103 169.194959 490.866055 168.56496 491.987302 167.443712 
C 493.10855 166.322465 493.738549 164.801513 493.738549 163.215829 
C 493.738549 161.630145 493.10855 160.109193 491.987302 158.987945 
C 490.866055 157.866697 489.345103 157.236698 487.759419 157.236698 
C 486.173735 157.236698 484.652783 157.866697 483.531535 158.987945 
C 482.410287 160.109193 481.780288 161.630145 481.780288 163.215829 
C 481.780288 164.801513 482.410287 166.322465 483.531535 167.443712 
C 484.652783 168.56496 486.173735 169.194959 487.759419 169.194959 
z
" clip-path="url(#p0061a435a7)" style="fill: #ffffff; stroke: #000000; stroke-width: 2"/>
    <path d="M 368.751147 83.221761 
C 371.647209 83.221761 374.425045 82.071143 376.47287 80.023319 
C 378.520695 77.975494 379.671312 75.197658 379.671312 72.301596 
C 379.671312 69.405535 378.520695 66.627698 376.47287 64.579873 
C 374.425045 62.532049 371.647209 61.381431 368.751147 61.381431 
C 365.855086 61.381431 363.077249 62.532049 361.029425 64.579873 
C 358.9816 66.627698 357.830982 69.405535 357.830982 72.301596 
C 357.830982 75.197658 358.9816 77.975494 361.029425 80.023319 
C 363.077249 82.071143 365.855086 83.221761 368.751147 83.221761 
z
" clip-path="url(#p0061a435a7)" style="fill: #ffffff; stroke: #000000; stroke-width: 2"/>
    <path d="M 221.648839 76.174594 
C 222.675966 76.174594 223.661163 75.766512 224.387451 75.040224 
C 225.11374 74.313935 225.521822 73.328738 225.521822 72.301611 
C 225.521822 71.274484 225.11374 70.289287 224.387451 69.562998 
C 223.661163 68.83671 222.675966 68.428628 221.648839 68.428628 
C 220.621711 68.428628 219.636514 68.83671 218.910226 69.562998 
C 218.183937 70.289287 217.775855 71.274484 217.775855 72.301611 
C 217.775855 73.328738 218.183937 74.313935 218.910226 75.040224 
C 219.636514 75.766512 220.621711 76.174594 221.648839 76.174594 
z
" clip-path="url(#p0061a435a7)" style="fill: #ffffff; stroke: #000000; stroke-width: 2"/>
    <path d="M 102.640581 171.293576 
C 104.782825 171.293576 106.837616 170.442454 108.352411 168.927659 
C 109.867206 167.412864 110.718328 165.358072 110.718328 163.215829 
C 110.718328 161.073585 109.867206 159.018794 108.352411 157.503999 
C 106.837616 155.989204 104.782825 155.138082 102.640581 155.138082 
C 100.498338 155.138082 98.443546 155.989204 96.928751 157.503999 
C 95.413956 159.018794 94.562834 161.073585 94.562834 163.215829 
C 94.562834 165.358072 95.413956 167.412864 96.928751 168.927659 
C 98.443546 170.442454 100.498338 171.293576 102.640581 171.293576 
z
" clip-path="url(#p0061a435a7)" style="fill: #ffffff; stroke: #000000; stroke-width: 2"/>
    <path d="M 57.183471 316.149106 
C 58.729858 316.149106 60.213116 315.53472 61.306577 314.44126 
C 62.400037 313.3478 63.014423 311.864541 63.014423 310.318154 
C 63.014423 308.771768 62.400037 307.288509 61.306577 306.195049 
C 60.213116 305.101588 58.729858 304.487202 57.183471 304.487202 
C 55.637085 304.487202 54.153826 305.101588 53.060365 306.195049 
C 51.966905 307.288509 51.352519 308.771768 51.352519 310.318154 
C 51.352519 311.864541 51.966905 313.3478 53.060365 314.44126 
C 54.153826 315.53472 55.637085 316.149106 57.183471 316.149106 
z
" clip-path="url(#p0061a435a7)" style="fill: #ffffff; stroke: #000000; stroke-width: 2"/>
    <path d="M 102.640595 461.094686 
C 103.615014 461.094686 104.549654 460.707545 105.238672 460.018527 
C 105.927689 459.329509 106.31483 458.394869 106.31483 457.420451 
C 106.31483 456.446033 105.927689 455.511393 105.238672 454.822375 
C 104.549654 454.133357 103.615014 453.746216 102.640595 453.746216 
C 101.666177 453.746216 100.731537 454.133357 100.042519 454.822375 
C 99.353501 455.511393 98.966361 456.446033 98.966361 457.420451 
C 98.966361 458.394869 99.353501 459.329509 100.042519 460.018527 
C 100.731537 460.707545 101.666177 461.094686 102.640595 461.094686 
z
" clip-path="url(#p0061a435a7)" style="fill: #ffffff; stroke: #000000; stroke-width: 2"/>
    <path d="M 221.648817 553.857334 
C 223.113449 553.857334 224.518291 553.27543 225.553942 552.239779 
C 226.589593 551.204128 227.171498 549.799286 227.171498 548.334654 
C 227.171498 546.870022 226.589593 545.46518 225.553942 544.429529 
C 224.518291 543.393878 223.113449 542.811973 221.648817 542.811973 
C 220.184185 542.811973 218.779344 543.393878 217.743692 544.429529 
C 216.708041 545.46518 216.126137 546.870022 216.126137 548.334654 
C 216.126137 549.799286 216.708041 551.204128 217.743692 552.239779 
C 218.779344 553.27543 220.184185 553.857334 221.648817 553.857334 
z
" clip-path="url(#p0061a435a7)" style="fill: #ffffff; stroke: #000000; stroke-width: 2"/>
    <path d="M 368.751183 558.73898 
C 371.510442 558.73898 374.157061 557.642715 376.108152 555.691623 
C 378.059243 553.740532 379.155509 551.093913 379.155509 548.334654 
C 379.155509 545.575394 378.059243 542.928776 376.108152 540.977684 
C 374.157061 539.026593 371.510442 537.930328 368.751183 537.930328 
C 365.991923 537.930328 363.345304 539.026593 361.394213 540.977684 
C 359.443122 542.928776 358.346857 545.575394 358.346857 548.334654 
C 358.346857 551.093913 359.443122 553.740532 361.394213 555.691623 
C 363.345304 557.642715 365.991923 558.73898 368.751183 558.73898 
z
" clip-path="url(#p0061a435a7)" style="fill: #ffffff; stroke: #000000; stroke-width: 2"/>
    <path d="M 487.759405 463.186732 
C 489.28864 463.186732 490.755448 462.579161 491.836781 461.497828 
C 492.918114 460.416495 493.525686 458.949687 493.525686 457.420451 
C 493.525686 455.891215 492.918114 454.424407 491.836781 453.343074 
C 490.755448 452.261741 489.28864 451.65417 487.759405 451.65417 
C 486.230169 451.65417 484.763361 452.261741 483.682028 453.343074 
C 482.600695 454.424407 481.993123 455.891215 481.993123 457.420451 
C 481.993123 458.949687 482.600695 460.416495 483.682028 461.497828 
C 484.763361 462.579161 486.230169 463.186732 487.759405 463.186732 
z
" clip-path="url(#p0061a435a7)" style="fill: #ffffff; stroke: #000000; stroke-width: 2"/>
   </g>
   <g id="text_1">
    <g clip-path="url(#p0061a435a7)">
     <!-- A.Iguodala -->
     <g transform="translate(529.989763 283.597535)scale(0.12 -0.12)">
      <defs>
       <path id="DejaVuSans-41" d="M 2188 4044 
L 1331 1722 
L 3047 1722 
L 2188 4044 
z
M 1831 4666 
L 2547 4666 
L 4325 0 
L 3669 0 
L 3244 1197 
L 1141 1197 
L 716 0 
L 50 0 
L 1831 4666 
z
" transform="scale(0.015625)"/>
       <path id="DejaVuSans-2e" d="M 684 794 
L 1344 794 
L 1344 0 
L 684 0 
L 684 794 
z
" transform="scale(0.015625)"/>
       <path id="DejaVuSans-49" d="M 628 4666 
L 1259 4666 
L 1259 0 
L 628 0 
L 628 4666 
z
" transform="scale(0.015625)"/>
       <path id="DejaVuSans-67" d="M 2906 1791 
Q 2906 2416 2648 2759 
Q 2391 3103 1925 3103 
Q 1463 3103 1205 2759 
Q 947 2416 947 1791 
Q 947 1169 1205 825 
Q 1463 481 1925 481 
Q 2391 481 2648 825 
Q 2906 1169 2906 1791 
z
M 3481 434 
Q 3481 -459 3084 -895 
Q 2688 -1331 1869 -1331 
Q 1566 -1331 1297 -1286 
Q 1028 -1241 775 -1147 
L 775 -588 
Q 1028 -725 1275 -790 
Q 1522 -856 1778 -856 
Q 2344 -856 2625 -561 
Q 2906 -266 2906 331 
L 2906 616 
Q 2728 306 2450 153 
Q 2172 0 1784 0 
Q 1141 0 747 490 
Q 353 981 353 1791 
Q 353 2603 747 3093 
Q 1141 3584 1784 3584 
Q 2172 3584 2450 3431 
Q 2728 3278 2906 2969 
L 2906 3500 
L 3481 3500 
L 3481 434 
z
" transform="scale(0.015625)"/>
       <path id="DejaVuSans-75" d="M 544 1381 
L 544 3500 
L 1119 3500 
L 1119 1403 
Q 1119 906 1312 657 
Q 1506 409 1894 409 
Q 2359 409 2629 706 
Q 2900 1003 2900 1516 
L 2900 3500 
L 3475 3500 
L 3475 0 
L 2900 0 
L 2900 538 
Q 2691 219 2414 64 
Q 2138 -91 1772 -91 
Q 1169 -91 856 284 
Q 544 659 544 1381 
z
M 1991 3584 
L 1991 3584 
z
" transform="scale(0.015625)"/>
       <path id="DejaVuSans-6f" d="M 1959 3097 
Q 1497 3097 1228 2736 
Q 959 2375 959 1747 
Q 959 1119 1226 758 
Q 1494 397 1959 397 
Q 2419 397 2687 759 
Q 2956 1122 2956 1747 
Q 2956 2369 2687 2733 
Q 2419 3097 1959 3097 
z
M 1959 3584 
Q 2709 3584 3137 3096 
Q 3566 2609 3566 1747 
Q 3566 888 3137 398 
Q 2709 -91 1959 -91 
Q 1206 -91 779 398 
Q 353 888 353 1747 
Q 353 2609 779 3096 
Q 1206 3584 1959 3584 
z
" transform="scale(0.015625)"/>
       <path id="DejaVuSans-64" d="M 2906 2969 
L 2906 4863 
L 3481 4863 
L 3481 0 
L 2906 0 
L 2906 525 
Q 2725 213 2448 61 
Q 2172 -91 1784 -91 
Q 1150 -91 751 415 
Q 353 922 353 1747 
Q 353 2572 751 3078 
Q 1150 3584 1784 3584 
Q 2172 3584 2448 3432 
Q 2725 3281 2906 2969 
z
M 947 1747 
Q 947 1113 1208 752 
Q 1469 391 1925 391 
Q 2381 391 2643 752 
Q 2906 1113 2906 1747 
Q 2906 2381 2643 2742 
Q 2381 3103 1925 3103 
Q 1469 3103 1208 2742 
Q 947 2381 947 1747 
z
" transform="scale(0.015625)"/>
       <path id="DejaVuSans-61" d="M 2194 1759 
Q 1497 1759 1228 1600 
Q 959 1441 959 1056 
Q 959 750 1161 570 
Q 1363 391 1709 391 
Q 2188 391 2477 730 
Q 2766 1069 2766 1631 
L 2766 1759 
L 2194 1759 
z
M 3341 1997 
L 3341 0 
L 2766 0 
L 2766 531 
Q 2569 213 2275 61 
Q 1981 -91 1556 -91 
Q 1019 -91 701 211 
Q 384 513 384 1019 
Q 384 1609 779 1909 
Q 1175 2209 1959 2209 
L 2766 2209 
L 2766 2266 
Q 2766 2663 2505 2880 
Q 2244 3097 1772 3097 
Q 1472 3097 1187 3025 
Q 903 2953 641 2809 
L 641 3341 
Q 956 3463 1253 3523 
Q 1550 3584 1831 3584 
Q 2591 3584 2966 3190 
Q 3341 2797 3341 1997 
z
" transform="scale(0.015625)"/>
       <path id="DejaVuSans-6c" d="M 603 4863 
L 1178 4863 
L 1178 0 
L 603 0 
L 603 4863 
z
" transform="scale(0.015625)"/>
      </defs>
      <use xlink:href="#DejaVuSans-41"/>
      <use xlink:href="#DejaVuSans-2e" x="66.658203"/>
      <use xlink:href="#DejaVuSans-49" x="98.445312"/>
      <use xlink:href="#DejaVuSans-67" x="127.9375"/>
      <use xlink:href="#DejaVuSans-75" x="191.414062"/>
      <use xlink:href="#DejaVuSans-6f" x="254.792969"/>
      <use xlink:href="#DejaVuSans-64" x="315.974609"/>
      <use xlink:href="#DejaVuSans-61" x="379.451172"/>
      <use xlink:href="#DejaVuSans-6c" x="440.730469"/>
      <use xlink:href="#DejaVuSans-61" x="468.513672"/>
     </g>
    </g>
   </g>
   <g id="text_2">
    <g clip-path="url(#p0061a435a7)">
     <!-- D.West -->
     <g transform="translate(495.04484 136.495232)scale(0.12 -0.12)">
      <defs>
       <path id="DejaVuSans-44" d="M 1259 4147 
L 1259 519 
L 2022 519 
Q 2988 519 3436 956 
Q 3884 1394 3884 2338 
Q 3884 3275 3436 3711 
Q 2988 4147 2022 4147 
L 1259 4147 
z
M 628 4666 
L 1925 4666 
Q 3281 4666 3915 4102 
Q 4550 3538 4550 2338 
Q 4550 1131 3912 565 
Q 3275 0 1925 0 
L 628 0 
L 628 4666 
z
" transform="scale(0.015625)"/>
       <path id="DejaVuSans-57" d="M 213 4666 
L 850 4666 
L 1831 722 
L 2809 4666 
L 3519 4666 
L 4500 722 
L 5478 4666 
L 6119 4666 
L 4947 0 
L 4153 0 
L 3169 4050 
L 2175 0 
L 1381 0 
L 213 4666 
z
" transform="scale(0.015625)"/>
       <path id="DejaVuSans-65" d="M 3597 1894 
L 3597 1613 
L 953 1613 
Q 991 1019 1311 708 
Q 1631 397 2203 397 
Q 2534 397 2845 478 
Q 3156 559 3463 722 
L 3463 178 
Q 3153 47 2828 -22 
Q 2503 -91 2169 -91 
Q 1331 -91 842 396 
Q 353 884 353 1716 
Q 353 2575 817 3079 
Q 1281 3584 2069 3584 
Q 2775 3584 3186 3129 
Q 3597 2675 3597 1894 
z
M 3022 2063 
Q 3016 2534 2758 2815 
Q 2500 3097 2075 3097 
Q 1594 3097 1305 2825 
Q 1016 2553 972 2059 
L 3022 2063 
z
" transform="scale(0.015625)"/>
       <path id="DejaVuSans-73" d="M 2834 3397 
L 2834 2853 
Q 2591 2978 2328 3040 
Q 2066 3103 1784 3103 
Q 1356 3103 1142 2972 
Q 928 2841 928 2578 
Q 928 2378 1081 2264 
Q 1234 2150 1697 2047 
L 1894 2003 
Q 2506 1872 2764 1633 
Q 3022 1394 3022 966 
Q 3022 478 2636 193 
Q 2250 -91 1575 -91 
Q 1294 -91 989 -36 
Q 684 19 347 128 
L 347 722 
Q 666 556 975 473 
Q 1284 391 1588 391 
Q 1994 391 2212 530 
Q 2431 669 2431 922 
Q 2431 1156 2273 1281 
Q 2116 1406 1581 1522 
L 1381 1569 
Q 847 1681 609 1914 
Q 372 2147 372 2553 
Q 372 3047 722 3315 
Q 1072 3584 1716 3584 
Q 2034 3584 2315 3537 
Q 2597 3491 2834 3397 
z
" transform="scale(0.015625)"/>
       <path id="DejaVuSans-74" d="M 1172 4494 
L 1172 3500 
L 2356 3500 
L 2356 3053 
L 1172 3053 
L 1172 1153 
Q 1172 725 1289 603 
Q 1406 481 1766 481 
L 2356 481 
L 2356 0 
L 1766 0 
Q 1100 0 847 248 
Q 594 497 594 1153 
L 594 3053 
L 172 3053 
L 172 3500 
L 594 3500 
L 594 4494 
L 1172 4494 
z
" transform="scale(0.015625)"/>
      </defs>
      <use xlink:href="#DejaVuSans-44"/>
      <use xlink:href="#DejaVuSans-2e" x="77.001953"/>
      <use xlink:href="#DejaVuSans-57" x="108.789062"/>
      <use xlink:href="#DejaVuSans-65" x="201.791016"/>
      <use xlink:href="#DejaVuSans-73" x="263.314453"/>
      <use xlink:href="#DejaVuSans-74" x="315.414062"/>
     </g>
    </g>
   </g>
   <g id="text_3">
    <g clip-path="url(#p0061a435a7)">
     <!-- D.Green -->
     <g transform="translate(372.619381 45.580999)scale(0.12 -0.12)">
      <defs>
       <path id="DejaVuSans-47" d="M 3809 666 
L 3809 1919 
L 2778 1919 
L 2778 2438 
L 4434 2438 
L 4434 434 
Q 4069 175 3628 42 
Q 3188 -91 2688 -91 
Q 1594 -91 976 548 
Q 359 1188 359 2328 
Q 359 3472 976 4111 
Q 1594 4750 2688 4750 
Q 3144 4750 3555 4637 
Q 3966 4525 4313 4306 
L 4313 3634 
Q 3963 3931 3569 4081 
Q 3175 4231 2741 4231 
Q 1884 4231 1454 3753 
Q 1025 3275 1025 2328 
Q 1025 1384 1454 906 
Q 1884 428 2741 428 
Q 3075 428 3337 486 
Q 3600 544 3809 666 
z
" transform="scale(0.015625)"/>
       <path id="DejaVuSans-72" d="M 2631 2963 
Q 2534 3019 2420 3045 
Q 2306 3072 2169 3072 
Q 1681 3072 1420 2755 
Q 1159 2438 1159 1844 
L 1159 0 
L 581 0 
L 581 3500 
L 1159 3500 
L 1159 2956 
Q 1341 3275 1631 3429 
Q 1922 3584 2338 3584 
Q 2397 3584 2469 3576 
Q 2541 3569 2628 3553 
L 2631 2963 
z
" transform="scale(0.015625)"/>
       <path id="DejaVuSans-6e" d="M 3513 2113 
L 3513 0 
L 2938 0 
L 2938 2094 
Q 2938 2591 2744 2837 
Q 2550 3084 2163 3084 
Q 1697 3084 1428 2787 
Q 1159 2491 1159 1978 
L 1159 0 
L 581 0 
L 581 3500 
L 1159 3500 
L 1159 2956 
Q 1366 3272 1645 3428 
Q 1925 3584 2291 3584 
Q 2894 3584 3203 3211 
Q 3513 2838 3513 2113 
z
" transform="scale(0.015625)"/>
      </defs>
      <use xlink:href="#DejaVuSans-44"/>
      <use xlink:href="#DejaVuSans-2e" x="77.001953"/>
      <use xlink:href="#DejaVuSans-47" x="108.789062"/>
      <use xlink:href="#DejaVuSans-72" x="186.279297"/>
      <use xlink:href="#DejaVuSans-65" x="225.142578"/>
      <use xlink:href="#DejaVuSans-65" x="286.666016"/>
      <use xlink:href="#DejaVuSans-6e" x="348.189453"/>
     </g>
    </g>
   </g>
   <g id="text_4">
    <g clip-path="url(#p0061a435a7)">
     <!-- I.Clark -->
     <g transform="translate(173.935605 45.581014)scale(0.12 -0.12)">
      <defs>
       <path id="DejaVuSans-43" d="M 4122 4306 
L 4122 3641 
Q 3803 3938 3442 4084 
Q 3081 4231 2675 4231 
Q 1875 4231 1450 3742 
Q 1025 3253 1025 2328 
Q 1025 1406 1450 917 
Q 1875 428 2675 428 
Q 3081 428 3442 575 
Q 3803 722 4122 1019 
L 4122 359 
Q 3791 134 3420 21 
Q 3050 -91 2638 -91 
Q 1578 -91 968 557 
Q 359 1206 359 2328 
Q 359 3453 968 4101 
Q 1578 4750 2638 4750 
Q 3056 4750 3426 4639 
Q 3797 4528 4122 4306 
z
" transform="scale(0.015625)"/>
       <path id="DejaVuSans-6b" d="M 581 4863 
L 1159 4863 
L 1159 1991 
L 2875 3500 
L 3609 3500 
L 1753 1863 
L 3688 0 
L 2938 0 
L 1159 1709 
L 1159 0 
L 581 0 
L 581 4863 
z
" transform="scale(0.015625)"/>
      </defs>
      <use xlink:href="#DejaVuSans-49"/>
      <use xlink:href="#DejaVuSans-2e" x="29.492188"/>
      <use xlink:href="#DejaVuSans-43" x="61.279297"/>
      <use xlink:href="#DejaVuSans-6c" x="131.103516"/>
      <use xlink:href="#DejaVuSans-61" x="158.886719"/>
      <use xlink:href="#DejaVuSans-72" x="220.166016"/>
      <use xlink:href="#DejaVuSans-6b" x="261.279297"/>
     </g>
    </g>
   </g>
   <g id="text_5">
    <g clip-path="url(#p0061a435a7)">
     <!-- K.Durant -->
     <g transform="translate(47.51641 136.495232)scale(0.12 -0.12)">
      <defs>
       <path id="DejaVuSans-4b" d="M 628 4666 
L 1259 4666 
L 1259 2694 
L 3353 4666 
L 4166 4666 
L 1850 2491 
L 4331 0 
L 3500 0 
L 1259 2247 
L 1259 0 
L 628 0 
L 628 4666 
z
" transform="scale(0.015625)"/>
      </defs>
      <use xlink:href="#DejaVuSans-4b"/>
      <use xlink:href="#DejaVuSans-2e" x="65.576172"/>
      <use xlink:href="#DejaVuSans-44" x="97.363281"/>
      <use xlink:href="#DejaVuSans-75" x="174.365234"/>
      <use xlink:href="#DejaVuSans-72" x="237.744141"/>
      <use xlink:href="#DejaVuSans-61" x="278.857422"/>
      <use xlink:href="#DejaVuSans-6e" x="340.136719"/>
      <use xlink:href="#DejaVuSans-74" x="403.515625"/>
     </g>
    </g>
   </g>
   <g id="text_6">
    <g clip-path="url(#p0061a435a7)">
     <!-- K.Thompson -->
     <g transform="translate(-8.611325 343.661251)scale(0.12 -0.12)">
      <defs>
       <path id="DejaVuSans-54" d="M -19 4666 
L 3928 4666 
L 3928 4134 
L 2272 4134 
L 2272 0 
L 1638 0 
L 1638 4134 
L -19 4134 
L -19 4666 
z
" transform="scale(0.015625)"/>
       <path id="DejaVuSans-68" d="M 3513 2113 
L 3513 0 
L 2938 0 
L 2938 2094 
Q 2938 2591 2744 2837 
Q 2550 3084 2163 3084 
Q 1697 3084 1428 2787 
Q 1159 2491 1159 1978 
L 1159 0 
L 581 0 
L 581 4863 
L 1159 4863 
L 1159 2956 
Q 1366 3272 1645 3428 
Q 1925 3584 2291 3584 
Q 2894 3584 3203 3211 
Q 3513 2838 3513 2113 
z
" transform="scale(0.015625)"/>
       <path id="DejaVuSans-6d" d="M 3328 2828 
Q 3544 3216 3844 3400 
Q 4144 3584 4550 3584 
Q 5097 3584 5394 3201 
Q 5691 2819 5691 2113 
L 5691 0 
L 5113 0 
L 5113 2094 
Q 5113 2597 4934 2840 
Q 4756 3084 4391 3084 
Q 3944 3084 3684 2787 
Q 3425 2491 3425 1978 
L 3425 0 
L 2847 0 
L 2847 2094 
Q 2847 2600 2669 2842 
Q 2491 3084 2119 3084 
Q 1678 3084 1418 2786 
Q 1159 2488 1159 1978 
L 1159 0 
L 581 0 
L 581 3500 
L 1159 3500 
L 1159 2956 
Q 1356 3278 1631 3431 
Q 1906 3584 2284 3584 
Q 2666 3584 2933 3390 
Q 3200 3197 3328 2828 
z
" transform="scale(0.015625)"/>
       <path id="DejaVuSans-70" d="M 1159 525 
L 1159 -1331 
L 581 -1331 
L 581 3500 
L 1159 3500 
L 1159 2969 
Q 1341 3281 1617 3432 
Q 1894 3584 2278 3584 
Q 2916 3584 3314 3078 
Q 3713 2572 3713 1747 
Q 3713 922 3314 415 
Q 2916 -91 2278 -91 
Q 1894 -91 1617 61 
Q 1341 213 1159 525 
z
M 3116 1747 
Q 3116 2381 2855 2742 
Q 2594 3103 2138 3103 
Q 1681 3103 1420 2742 
Q 1159 2381 1159 1747 
Q 1159 1113 1420 752 
Q 1681 391 2138 391 
Q 2594 391 2855 752 
Q 3116 1113 3116 1747 
z
" transform="scale(0.015625)"/>
      </defs>
      <use xlink:href="#DejaVuSans-4b"/>
      <use xlink:href="#DejaVuSans-2e" x="65.576172"/>
      <use xlink:href="#DejaVuSans-54" x="97.363281"/>
      <use xlink:href="#DejaVuSans-68" x="158.447266"/>
      <use xlink:href="#DejaVuSans-6f" x="221.826172"/>
      <use xlink:href="#DejaVuSans-6d" x="283.007812"/>
      <use xlink:href="#DejaVuSans-70" x="380.419922"/>
      <use xlink:href="#DejaVuSans-73" x="443.896484"/>
      <use xlink:href="#DejaVuSans-6f" x="495.996094"/>
      <use xlink:href="#DejaVuSans-6e" x="557.177734"/>
     </g>
    </g>
   </g>
   <g id="text_7">
    <g clip-path="url(#p0061a435a7)">
     <!-- P.McCaw -->
     <g transform="translate(48.242049 490.763548)scale(0.12 -0.12)">
      <defs>
       <path id="DejaVuSans-50" d="M 1259 4147 
L 1259 2394 
L 2053 2394 
Q 2494 2394 2734 2622 
Q 2975 2850 2975 3272 
Q 2975 3691 2734 3919 
Q 2494 4147 2053 4147 
L 1259 4147 
z
M 628 4666 
L 2053 4666 
Q 2838 4666 3239 4311 
Q 3641 3956 3641 3272 
Q 3641 2581 3239 2228 
Q 2838 1875 2053 1875 
L 1259 1875 
L 1259 0 
L 628 0 
L 628 4666 
z
" transform="scale(0.015625)"/>
       <path id="DejaVuSans-4d" d="M 628 4666 
L 1569 4666 
L 2759 1491 
L 3956 4666 
L 4897 4666 
L 4897 0 
L 4281 0 
L 4281 4097 
L 3078 897 
L 2444 897 
L 1241 4097 
L 1241 0 
L 628 0 
L 628 4666 
z
" transform="scale(0.015625)"/>
       <path id="DejaVuSans-63" d="M 3122 3366 
L 3122 2828 
Q 2878 2963 2633 3030 
Q 2388 3097 2138 3097 
Q 1578 3097 1268 2742 
Q 959 2388 959 1747 
Q 959 1106 1268 751 
Q 1578 397 2138 397 
Q 2388 397 2633 464 
Q 2878 531 3122 666 
L 3122 134 
Q 2881 22 2623 -34 
Q 2366 -91 2075 -91 
Q 1284 -91 818 406 
Q 353 903 353 1747 
Q 353 2603 823 3093 
Q 1294 3584 2113 3584 
Q 2378 3584 2631 3529 
Q 2884 3475 3122 3366 
z
" transform="scale(0.015625)"/>
       <path id="DejaVuSans-77" d="M 269 3500 
L 844 3500 
L 1563 769 
L 2278 3500 
L 2956 3500 
L 3675 769 
L 4391 3500 
L 4966 3500 
L 4050 0 
L 3372 0 
L 2619 2869 
L 1863 0 
L 1184 0 
L 269 3500 
z
" transform="scale(0.015625)"/>
      </defs>
      <use xlink:href="#DejaVuSans-50"/>
      <use xlink:href="#DejaVuSans-2e" x="44.677734"/>
      <use xlink:href="#DejaVuSans-4d" x="76.464844"/>
      <use xlink:href="#DejaVuSans-63" x="162.744141"/>
      <use xlink:href="#DejaVuSans-43" x="217.724609"/>
      <use xlink:href="#DejaVuSans-61" x="287.548828"/>
      <use xlink:href="#DejaVuSans-77" x="348.828125"/>
     </g>
    </g>
   </g>
   <g id="text_8">
    <g clip-path="url(#p0061a435a7)">
     <!-- S.Livingston -->
     <g transform="translate(156.579646 581.677751)scale(0.12 -0.12)">
      <defs>
       <path id="DejaVuSans-53" d="M 3425 4513 
L 3425 3897 
Q 3066 4069 2747 4153 
Q 2428 4238 2131 4238 
Q 1616 4238 1336 4038 
Q 1056 3838 1056 3469 
Q 1056 3159 1242 3001 
Q 1428 2844 1947 2747 
L 2328 2669 
Q 3034 2534 3370 2195 
Q 3706 1856 3706 1288 
Q 3706 609 3251 259 
Q 2797 -91 1919 -91 
Q 1588 -91 1214 -16 
Q 841 59 441 206 
L 441 856 
Q 825 641 1194 531 
Q 1563 422 1919 422 
Q 2459 422 2753 634 
Q 3047 847 3047 1241 
Q 3047 1584 2836 1778 
Q 2625 1972 2144 2069 
L 1759 2144 
Q 1053 2284 737 2584 
Q 422 2884 422 3419 
Q 422 4038 858 4394 
Q 1294 4750 2059 4750 
Q 2388 4750 2728 4690 
Q 3069 4631 3425 4513 
z
" transform="scale(0.015625)"/>
       <path id="DejaVuSans-4c" d="M 628 4666 
L 1259 4666 
L 1259 531 
L 3531 531 
L 3531 0 
L 628 0 
L 628 4666 
z
" transform="scale(0.015625)"/>
       <path id="DejaVuSans-69" d="M 603 3500 
L 1178 3500 
L 1178 0 
L 603 0 
L 603 3500 
z
M 603 4863 
L 1178 4863 
L 1178 4134 
L 603 4134 
L 603 4863 
z
" transform="scale(0.015625)"/>
       <path id="DejaVuSans-76" d="M 191 3500 
L 800 3500 
L 1894 563 
L 2988 3500 
L 3597 3500 
L 2284 0 
L 1503 0 
L 191 3500 
z
" transform="scale(0.015625)"/>
      </defs>
      <use xlink:href="#DejaVuSans-53"/>
      <use xlink:href="#DejaVuSans-2e" x="63.476562"/>
      <use xlink:href="#DejaVuSans-4c" x="95.263672"/>
      <use xlink:href="#DejaVuSans-69" x="150.976562"/>
      <use xlink:href="#DejaVuSans-76" x="178.759766"/>
      <use xlink:href="#DejaVuSans-69" x="237.939453"/>
      <use xlink:href="#DejaVuSans-6e" x="265.722656"/>
      <use xlink:href="#DejaVuSans-67" x="329.101562"/>
      <use xlink:href="#DejaVuSans-73" x="392.578125"/>
      <use xlink:href="#DejaVuSans-74" x="444.677734"/>
      <use xlink:href="#DejaVuSans-6f" x="483.886719"/>
      <use xlink:href="#DejaVuSans-6e" x="545.068359"/>
     </g>
    </g>
   </g>
   <g id="text_9">
    <g clip-path="url(#p0061a435a7)">
     <!-- S.Curry -->
     <g transform="translate(375.225666 581.677751)scale(0.12 -0.12)">
      <defs>
       <path id="DejaVuSans-79" d="M 2059 -325 
Q 1816 -950 1584 -1140 
Q 1353 -1331 966 -1331 
L 506 -1331 
L 506 -850 
L 844 -850 
Q 1081 -850 1212 -737 
Q 1344 -625 1503 -206 
L 1606 56 
L 191 3500 
L 800 3500 
L 1894 763 
L 2988 3500 
L 3597 3500 
L 2059 -325 
z
" transform="scale(0.015625)"/>
      </defs>
      <use xlink:href="#DejaVuSans-53"/>
      <use xlink:href="#DejaVuSans-2e" x="63.476562"/>
      <use xlink:href="#DejaVuSans-43" x="95.263672"/>
      <use xlink:href="#DejaVuSans-75" x="165.087891"/>
      <use xlink:href="#DejaVuSans-72" x="228.466797"/>
      <use xlink:href="#DejaVuSans-72" x="267.830078"/>
      <use xlink:href="#DejaVuSans-79" x="308.943359"/>
     </g>
    </g>
   </g>
   <g id="text_10">
    <g clip-path="url(#p0061a435a7)">
     <!-- Z.Pachulia -->
     <g transform="translate(485.365138 490.763548)scale(0.12 -0.12)">
      <defs>
       <path id="DejaVuSans-5a" d="M 359 4666 
L 4025 4666 
L 4025 4184 
L 1075 531 
L 4097 531 
L 4097 0 
L 288 0 
L 288 481 
L 3238 4134 
L 359 4134 
L 359 4666 
z
" transform="scale(0.015625)"/>
      </defs>
      <use xlink:href="#DejaVuSans-5a"/>
      <use xlink:href="#DejaVuSans-2e" x="68.505859"/>
      <use xlink:href="#DejaVuSans-50" x="100.292969"/>
      <use xlink:href="#DejaVuSans-61" x="156.095703"/>
      <use xlink:href="#DejaVuSans-63" x="217.375"/>
      <use xlink:href="#DejaVuSans-68" x="272.355469"/>
      <use xlink:href="#DejaVuSans-75" x="335.734375"/>
      <use xlink:href="#DejaVuSans-6c" x="399.113281"/>
      <use xlink:href="#DejaVuSans-69" x="426.896484"/>
      <use xlink:href="#DejaVuSans-61" x="454.679688"/>
     </g>
    </g>
   </g>
   <g id="text_11">
    <!-- 2016-17 Golden State Warriors Assist Network -->
    <g transform="translate(155.885625 16.318125)scale(0.12 -0.12)">
     <defs>
      <path id="DejaVuSans-32" d="M 1228 531 
L 3431 531 
L 3431 0 
L 469 0 
L 469 531 
Q 828 903 1448 1529 
Q 2069 2156 2228 2338 
Q 2531 2678 2651 2914 
Q 2772 3150 2772 3378 
Q 2772 3750 2511 3984 
Q 2250 4219 1831 4219 
Q 1534 4219 1204 4116 
Q 875 4013 500 3803 
L 500 4441 
Q 881 4594 1212 4672 
Q 1544 4750 1819 4750 
Q 2544 4750 2975 4387 
Q 3406 4025 3406 3419 
Q 3406 3131 3298 2873 
Q 3191 2616 2906 2266 
Q 2828 2175 2409 1742 
Q 1991 1309 1228 531 
z
" transform="scale(0.015625)"/>
      <path id="DejaVuSans-30" d="M 2034 4250 
Q 1547 4250 1301 3770 
Q 1056 3291 1056 2328 
Q 1056 1369 1301 889 
Q 1547 409 2034 409 
Q 2525 409 2770 889 
Q 3016 1369 3016 2328 
Q 3016 3291 2770 3770 
Q 2525 4250 2034 4250 
z
M 2034 4750 
Q 2819 4750 3233 4129 
Q 3647 3509 3647 2328 
Q 3647 1150 3233 529 
Q 2819 -91 2034 -91 
Q 1250 -91 836 529 
Q 422 1150 422 2328 
Q 422 3509 836 4129 
Q 1250 4750 2034 4750 
z
" transform="scale(0.015625)"/>
      <path id="DejaVuSans-31" d="M 794 531 
L 1825 531 
L 1825 4091 
L 703 3866 
L 703 4441 
L 1819 4666 
L 2450 4666 
L 2450 531 
L 3481 531 
L 3481 0 
L 794 0 
L 794 531 
z
" transform="scale(0.015625)"/>
      <path id="DejaVuSans-36" d="M 2113 2584 
Q 1688 2584 1439 2293 
Q 1191 2003 1191 1497 
Q 1191 994 1439 701 
Q 1688 409 2113 409 
Q 2538 409 2786 701 
Q 3034 994 3034 1497 
Q 3034 2003 2786 2293 
Q 2538 2584 2113 2584 
z
M 3366 4563 
L 3366 3988 
Q 3128 4100 2886 4159 
Q 2644 4219 2406 4219 
Q 1781 4219 1451 3797 
Q 1122 3375 1075 2522 
Q 1259 2794 1537 2939 
Q 1816 3084 2150 3084 
Q 2853 3084 3261 2657 
Q 3669 2231 3669 1497 
Q 3669 778 3244 343 
Q 2819 -91 2113 -91 
Q 1303 -91 875 529 
Q 447 1150 447 2328 
Q 447 3434 972 4092 
Q 1497 4750 2381 4750 
Q 2619 4750 2861 4703 
Q 3103 4656 3366 4563 
z
" transform="scale(0.015625)"/>
      <path id="DejaVuSans-2d" d="M 313 2009 
L 1997 2009 
L 1997 1497 
L 313 1497 
L 313 2009 
z
" transform="scale(0.015625)"/>
      <path id="DejaVuSans-37" d="M 525 4666 
L 3525 4666 
L 3525 4397 
L 1831 0 
L 1172 0 
L 2766 4134 
L 525 4134 
L 525 4666 
z
" transform="scale(0.015625)"/>
      <path id="DejaVuSans-20" transform="scale(0.015625)"/>
      <path id="DejaVuSans-4e" d="M 628 4666 
L 1478 4666 
L 3547 763 
L 3547 4666 
L 4159 4666 
L 4159 0 
L 3309 0 
L 1241 3903 
L 1241 0 
L 628 0 
L 628 4666 
z
" transform="scale(0.015625)"/>
     </defs>
     <use xlink:href="#DejaVuSans-32"/>
     <use xlink:href="#DejaVuSans-30" x="63.623047"/>
     <use xlink:href="#DejaVuSans-31" x="127.246094"/>
     <use xlink:href="#DejaVuSans-36" x="190.869141"/>
     <use xlink:href="#DejaVuSans-2d" x="254.492188"/>
     <use xlink:href="#DejaVuSans-31" x="290.576172"/>
     <use xlink:href="#DejaVuSans-37" x="354.199219"/>
     <use xlink:href="#DejaVuSans-20" x="417.822266"/>
     <use xlink:href="#DejaVuSans-47" x="449.609375"/>
     <use xlink:href="#DejaVuSans-6f" x="527.099609"/>
     <use xlink:href="#DejaVuSans-6c" x="588.28125"/>
     <use xlink:href="#DejaVuSans-64" x="616.064453"/>
     <use xlink:href="#DejaVuSans-65" x="679.541016"/>
     <use xlink:href="#DejaVuSans-6e" x="741.064453"/>
     <use xlink:href="#DejaVuSans-20" x="804.443359"/>
     <use xlink:href="#DejaVuSans-53" x="836.230469"/>
     <use xlink:href="#DejaVuSans-74" x="899.707031"/>
     <use xlink:href="#DejaVuSans-61" x="938.916016"/>
     <use xlink:href="#DejaVuSans-74" x="1000.195312"/>
     <use xlink:href="#DejaVuSans-65" x="1039.404297"/>
     <use xlink:href="#DejaVuSans-20" x="1100.927734"/>
     <use xlink:href="#DejaVuSans-57" x="1132.714844"/>
     <use xlink:href="#DejaVuSans-61" x="1225.216797"/>
     <use xlink:href="#DejaVuSans-72" x="1286.496094"/>
     <use xlink:href="#DejaVuSans-72" x="1325.859375"/>
     <use xlink:href="#DejaVuSans-69" x="1366.972656"/>
     <use xlink:href="#DejaVuSans-6f" x="1394.755859"/>
     <use xlink:href="#DejaVuSans-72" x="1455.9375"/>
     <use xlink:href="#DejaVuSans-73" x="1497.050781"/>
     <use xlink:href="#DejaVuSans-20" x="1549.150391"/>
     <use xlink:href="#DejaVuSans-41" x="1580.9375"/>
     <use xlink:href="#DejaVuSans-73" x="1649.345703"/>
     <use xlink:href="#DejaVuSans-73" x="1701.445312"/>
     <use xlink:href="#DejaVuSans-69" x="1753.544922"/>
     <use xlink:href="#DejaVuSans-73" x="1781.328125"/>
     <use xlink:href="#DejaVuSans-74" x="1833.427734"/>
     <use xlink:href="#DejaVuSans-20" x="1872.636719"/>
     <use xlink:href="#DejaVuSans-4e" x="1904.423828"/>
     <use xlink:href="#DejaVuSans-65" x="1979.228516"/>
     <use xlink:href="#DejaVuSans-74" x="2040.751953"/>
     <use xlink:href="#DejaVuSans-77" x="2079.960938"/>
     <use xlink:href="#DejaVuSans-6f" x="2161.748047"/>
     <use xlink:href="#DejaVuSans-72" x="2222.929688"/>
     <use xlink:href="#DejaVuSans-6b" x="2264.042969"/>
    </g>
   </g>
  </g>
 </g>
 <defs>
  <clipPath id="p0061a435a7">
   <rect x="7.2" y="22.318125" width="576" height="576"/>
  </clipPath>
 </defs>
</svg>
