<?xml version="1.0" encoding="utf-8" standalone="no"?>
<!DOCTYPE svg PUBLIC "-//W3C//DTD SVG 1.1//EN"
  "http://www.w3.org/Graphics/SVG/1.1/DTD/svg11.dtd">
<svg xmlns:xlink="http://www.w3.org/1999/xlink" width="590.4pt" height="605.518125pt" viewBox="0 0 590.4 605.518125" xmlns="http://www.w3.org/2000/svg" version="1.1">
 <metadata>
  <rdf:RDF xmlns:dc="http://purl.org/dc/elements/1.1/" xmlns:cc="http://creativecommons.org/ns#" xmlns:rdf="http://www.w3.org/1999/02/22-rdf-syntax-ns#">
   <cc:Work>
    <dc:type rdf:resource="http://purl.org/dc/dcmitype/StillImage"/>
    <dc:date>2023-04-12T08:20:32.905968</dc:date>
    <dc:format>image/svg+xml</dc:format>
    <dc:creator>
     <cc:Agent>
      <dc:title>Matplotlib v3.5.2, https://matplotlib.org/</dc:title>
     </cc:Agent>
    </dc:creator>
   </cc:Work>
  </rdf:RDF>
 </metadata>
 <defs>
  <style type="text/css">*{stroke-linejoin: round; stroke-linecap: butt}</style>
 </defs>
 <g id="figure_1">
  <g id="patch_1">
   <path d="M 0 605.518125 
L 590.4 605.518125 
L 590.4 0 
L 0 0 
z
" style="fill: #ffffff"/>
  </g>
  <g id="axes_1">
   <g id="LineCollection_1">
    <path d="M 533.216529 310.318125 
L 438.932342 119.443682 
" clip-path="url(#pd165e50e74)" style="fill: none; stroke: #c5c5c5; stroke-width: 2"/>
    <path d="M 533.216529 310.318125 
L 227.077696 72.301596 
" clip-path="url(#pd165e50e74)" style="fill: none; stroke: #eeeeee; stroke-width: 2"/>
    <path d="M 533.216529 310.318125 
L 57.183471 204.390785 
" clip-path="url(#pd165e50e74)" style="fill: none; stroke: #fbfbfb; stroke-width: 2"/>
    <path d="M 533.216529 310.318125 
L 57.183471 416.245451 
" clip-path="url(#pd165e50e74)" style="fill: none; stroke: #dddddd; stroke-width: 2"/>
    <path d="M 533.216529 310.318125 
L 227.077681 548.334654 
" clip-path="url(#pd165e50e74)" style="fill: none; stroke: #f5f5f5; stroke-width: 2"/>
    <path d="M 533.216529 310.318125 
L 438.932297 501.192597 
" clip-path="url(#pd165e50e74)" style="fill: none; stroke: #cbcbcb; stroke-width: 2"/>
    <path d="M 438.932342 119.443682 
L 227.077696 72.301596 
" clip-path="url(#pd165e50e74)" style="fill: none; stroke: #eeeeee; stroke-width: 2"/>
    <path d="M 438.932342 119.443682 
L 57.183471 204.390785 
" clip-path="url(#pd165e50e74)" style="fill: none; stroke: #f9f9f9; stroke-width: 2"/>
    <path d="M 438.932342 119.443682 
L 57.183471 416.245451 
" clip-path="url(#pd165e50e74)" style="fill: none; stroke: #939393; stroke-width: 2"/>
    <path d="M 438.932342 119.443682 
L 227.077681 548.334654 
" clip-path="url(#pd165e50e74)" style="fill: none; stroke: #e5e5e5; stroke-width: 2"/>
    <path d="M 438.932342 119.443682 
L 438.932297 501.192597 
" clip-path="url(#pd165e50e74)" style="fill: none; stroke: #777777; stroke-width: 2"/>
    <path d="M 227.077696 72.301596 
L 57.183471 204.390785 
" clip-path="url(#pd165e50e74)" style="fill: none; stroke: #ffffff; stroke-width: 2"/>
    <path d="M 227.077696 72.301596 
L 57.183471 416.245451 
" clip-path="url(#pd165e50e74)" style="fill: none; stroke: #757575; stroke-width: 2"/>
    <path d="M 227.077696 72.301596 
L 227.077681 548.334654 
" clip-path="url(#pd165e50e74)" style="fill: none; stroke: #d6d6d6; stroke-width: 2"/>
    <path d="M 227.077696 72.301596 
L 438.932297 501.192597 
" clip-path="url(#pd165e50e74)" style="fill: none; stroke: #828282; stroke-width: 2"/>
    <path d="M 57.183471 204.390785 
L 57.183471 416.245451 
" clip-path="url(#pd165e50e74)" style="fill: none; stroke: #b1b1b1; stroke-width: 2"/>
    <path d="M 57.183471 204.390785 
L 227.077681 548.334654 
" clip-path="url(#pd165e50e74)" style="fill: none; stroke: #e8e8e8; stroke-width: 2"/>
    <path d="M 57.183471 204.390785 
L 438.932297 501.192597 
" clip-path="url(#pd165e50e74)" style="fill: none; stroke: #cecece; stroke-width: 2"/>
    <path d="M 57.183471 416.245451 
L 227.077681 548.334654 
" clip-path="url(#pd165e50e74)" style="fill: none; stroke: #9a9a9a; stroke-width: 2"/>
    <path d="M 57.183471 416.245451 
L 438.932297 501.192597 
" clip-path="url(#pd165e50e74)" style="fill: none; stroke: #000000; stroke-width: 2"/>
    <path d="M 227.077681 548.334654 
L 438.932297 501.192597 
" clip-path="url(#pd165e50e74)" style="fill: none; stroke: #727272; stroke-width: 2"/>
   </g>
   <g id="PathCollection_1">
    <path d="M 533.216529 314.619288 
C 534.357211 314.619288 535.451326 314.16609 536.25791 313.359506 
C 537.064494 312.552923 537.517692 311.458807 537.517692 310.318125 
C 537.517692 309.177443 537.064494 308.083327 536.25791 307.276744 
C 535.451326 306.47016 534.357211 306.016962 533.216529 306.016962 
C 532.075847 306.016962 530.981731 306.47016 530.175148 307.276744 
C 529.368564 308.083327 528.915366 309.177443 528.915366 310.318125 
C 528.915366 311.458807 529.368564 312.552923 530.175148 313.359506 
C 530.981731 314.16609 532.075847 314.619288 533.216529 314.619288 
z
" clip-path="url(#pd165e50e74)" style="fill: #ffffff; stroke: #000000; stroke-width: 2"/>
    <path d="M 438.932342 122.443682 
C 439.727951 122.443682 440.491081 122.127583 441.053662 121.565002 
C 441.616243 121.002421 441.932342 120.239291 441.932342 119.443682 
C 441.932342 118.648072 441.616243 117.884942 441.053662 117.322361 
C 440.491081 116.759781 439.727951 116.443682 438.932342 116.443682 
C 438.136732 116.443682 437.373602 116.759781 436.811021 117.322361 
C 436.24844 117.884942 435.932342 118.648072 435.932342 119.443682 
C 435.932342 120.239291 436.24844 121.002421 436.811021 121.565002 
C 437.373602 122.127583 438.136732 122.443682 438.932342 122.443682 
z
" clip-path="url(#pd165e50e74)" style="fill: #ffffff; stroke: #000000; stroke-width: 2"/>
    <path d="M 227.077696 76.142169 
C 228.096228 76.142169 229.07318 75.737502 229.793391 75.017291 
C 230.513602 74.29708 230.918269 73.320128 230.918269 72.301596 
C 230.918269 71.283064 230.513602 70.306112 229.793391 69.585901 
C 229.07318 68.86569 228.096228 68.461023 227.077696 68.461023 
C 226.059164 68.461023 225.082212 68.86569 224.362001 69.585901 
C 223.64179 70.306112 223.237123 71.283064 223.237123 72.301596 
C 223.237123 73.320128 223.64179 74.29708 224.362001 75.017291 
C 225.082212 75.737502 226.059164 76.142169 227.077696 76.142169 
z
" clip-path="url(#pd165e50e74)" style="fill: #ffffff; stroke: #000000; stroke-width: 2"/>
    <path d="M 57.183471 207.513284 
C 58.011567 207.513284 58.805859 207.184277 59.391411 206.598725 
C 59.976964 206.013172 60.30597 205.218881 60.30597 204.390785 
C 60.30597 203.562688 59.976964 202.768397 59.391411 202.182844 
C 58.805859 201.597292 58.011567 201.268286 57.183471 201.268286 
C 56.355375 201.268286 55.561083 201.597292 54.975531 202.182844 
C 54.389978 202.768397 54.060972 203.562688 54.060972 204.390785 
C 54.060972 205.218881 54.389978 206.013172 54.975531 206.598725 
C 55.561083 207.184277 56.355375 207.513284 57.183471 207.513284 
z
" clip-path="url(#pd165e50e74)" style="fill: #ffffff; stroke: #000000; stroke-width: 2"/>
    <path d="M 57.183471 425.273186 
C 59.577654 425.273186 61.8741 424.321967 63.567044 422.629024 
C 65.259987 420.93608 66.211206 418.639634 66.211206 416.245451 
C 66.211206 413.851268 65.259987 411.554822 63.567044 409.861878 
C 61.8741 408.168935 59.577654 407.217716 57.183471 407.217716 
C 54.789288 407.217716 52.492842 408.168935 50.799898 409.861878 
C 49.106955 411.554822 48.155736 413.851268 48.155736 416.245451 
C 48.155736 418.639634 49.106955 420.93608 50.799898 422.629024 
C 52.492842 424.321967 54.789288 425.273186 57.183471 425.273186 
z
" clip-path="url(#pd165e50e74)" style="fill: #ffffff; stroke: #000000; stroke-width: 2"/>
    <path d="M 227.077681 552.944426 
C 228.300207 552.944426 229.472826 552.458711 230.337282 551.594255 
C 231.201739 550.729799 231.687453 549.55718 231.687453 548.334654 
C 231.687453 547.112128 231.201739 545.939509 230.337282 545.075053 
C 229.472826 544.210596 228.300207 543.724882 227.077681 543.724882 
C 225.855155 543.724882 224.682536 544.210596 223.81808 545.075053 
C 222.953624 545.939509 222.467909 547.112128 222.467909 548.334654 
C 222.467909 549.55718 222.953624 550.729799 223.81808 551.594255 
C 224.682536 552.458711 225.855155 552.944426 227.077681 552.944426 
z
" clip-path="url(#pd165e50e74)" style="fill: #ffffff; stroke: #000000; stroke-width: 2"/>
    <path d="M 438.932297 509.423636 
C 441.115194 509.423636 443.208979 508.556362 444.75252 507.012821 
C 446.296061 505.469279 447.163336 503.375494 447.163336 501.192597 
C 447.163336 499.0097 446.296061 496.915915 444.75252 495.372374 
C 443.208979 493.828833 441.115194 492.961559 438.932297 492.961559 
C 436.7494 492.961559 434.655615 493.828833 433.112073 495.372374 
C 431.568532 496.915915 430.701258 499.0097 430.701258 501.192597 
C 430.701258 503.375494 431.568532 505.469279 433.112073 507.012821 
C 434.655615 508.556362 436.7494 509.423636 438.932297 509.423636 
z
" clip-path="url(#pd165e50e74)" style="fill: #ffffff; stroke: #000000; stroke-width: 2"/>
   </g>
   <g id="text_1">
    <g clip-path="url(#pd165e50e74)">
     <!-- A.Rivers -->
     <g transform="translate(538.688953 284.332866)scale(0.12 -0.12)">
      <defs>
       <path id="DejaVuSans-41" d="M 2188 4044 
L 1331 1722 
L 3047 1722 
L 2188 4044 
z
M 1831 4666 
L 2547 4666 
L 4325 0 
L 3669 0 
L 3244 1197 
L 1141 1197 
L 716 0 
L 50 0 
L 1831 4666 
z
" transform="scale(0.015625)"/>
       <path id="DejaVuSans-2e" d="M 684 794 
L 1344 794 
L 1344 0 
L 684 0 
L 684 794 
z
" transform="scale(0.015625)"/>
       <path id="DejaVuSans-52" d="M 2841 2188 
Q 3044 2119 3236 1894 
Q 3428 1669 3622 1275 
L 4263 0 
L 3584 0 
L 2988 1197 
Q 2756 1666 2539 1819 
Q 2322 1972 1947 1972 
L 1259 1972 
L 1259 0 
L 628 0 
L 628 4666 
L 2053 4666 
Q 2853 4666 3247 4331 
Q 3641 3997 3641 3322 
Q 3641 2881 3436 2590 
Q 3231 2300 2841 2188 
z
M 1259 4147 
L 1259 2491 
L 2053 2491 
Q 2509 2491 2742 2702 
Q 2975 2913 2975 3322 
Q 2975 3731 2742 3939 
Q 2509 4147 2053 4147 
L 1259 4147 
z
" transform="scale(0.015625)"/>
       <path id="DejaVuSans-69" d="M 603 3500 
L 1178 3500 
L 1178 0 
L 603 0 
L 603 3500 
z
M 603 4863 
L 1178 4863 
L 1178 4134 
L 603 4134 
L 603 4863 
z
" transform="scale(0.015625)"/>
       <path id="DejaVuSans-76" d="M 191 3500 
L 800 3500 
L 1894 563 
L 2988 3500 
L 3597 3500 
L 2284 0 
L 1503 0 
L 191 3500 
z
" transform="scale(0.015625)"/>
       <path id="DejaVuSans-65" d="M 3597 1894 
L 3597 1613 
L 953 1613 
Q 991 1019 1311 708 
Q 1631 397 2203 397 
Q 2534 397 2845 478 
Q 3156 559 3463 722 
L 3463 178 
Q 3153 47 2828 -22 
Q 2503 -91 2169 -91 
Q 1331 -91 842 396 
Q 353 884 353 1716 
Q 353 2575 817 3079 
Q 1281 3584 2069 3584 
Q 2775 3584 3186 3129 
Q 3597 2675 3597 1894 
z
M 3022 2063 
Q 3016 2534 2758 2815 
Q 2500 3097 2075 3097 
Q 1594 3097 1305 2825 
Q 1016 2553 972 2059 
L 3022 2063 
z
" transform="scale(0.015625)"/>
       <path id="DejaVuSans-72" d="M 2631 2963 
Q 2534 3019 2420 3045 
Q 2306 3072 2169 3072 
Q 1681 3072 1420 2755 
Q 1159 2438 1159 1844 
L 1159 0 
L 581 0 
L 581 3500 
L 1159 3500 
L 1159 2956 
Q 1341 3275 1631 3429 
Q 1922 3584 2338 3584 
Q 2397 3584 2469 3576 
Q 2541 3569 2628 3553 
L 2631 2963 
z
" transform="scale(0.015625)"/>
       <path id="DejaVuSans-73" d="M 2834 3397 
L 2834 2853 
Q 2591 2978 2328 3040 
Q 2066 3103 1784 3103 
Q 1356 3103 1142 2972 
Q 928 2841 928 2578 
Q 928 2378 1081 2264 
Q 1234 2150 1697 2047 
L 1894 2003 
Q 2506 1872 2764 1633 
Q 3022 1394 3022 966 
Q 3022 478 2636 193 
Q 2250 -91 1575 -91 
Q 1294 -91 989 -36 
Q 684 19 347 128 
L 347 722 
Q 666 556 975 473 
Q 1284 391 1588 391 
Q 1994 391 2212 530 
Q 2431 669 2431 922 
Q 2431 1156 2273 1281 
Q 2116 1406 1581 1522 
L 1381 1569 
Q 847 1681 609 1914 
Q 372 2147 372 2553 
Q 372 3047 722 3315 
Q 1072 3584 1716 3584 
Q 2034 3584 2315 3537 
Q 2597 3491 2834 3397 
z
" transform="scale(0.015625)"/>
      </defs>
      <use xlink:href="#DejaVuSans-41"/>
      <use xlink:href="#DejaVuSans-2e" x="66.658203"/>
      <use xlink:href="#DejaVuSans-52" x="98.445312"/>
      <use xlink:href="#DejaVuSans-69" x="167.927734"/>
      <use xlink:href="#DejaVuSans-76" x="195.710938"/>
      <use xlink:href="#DejaVuSans-65" x="254.890625"/>
      <use xlink:href="#DejaVuSans-72" x="316.414062"/>
      <use xlink:href="#DejaVuSans-73" x="357.527344"/>
     </g>
    </g>
   </g>
   <g id="text_2">
    <g clip-path="url(#pd165e50e74)">
     <!-- B.McLemore -->
     <g transform="translate(432.013828 93.458422)scale(0.12 -0.12)">
      <defs>
       <path id="DejaVuSans-42" d="M 1259 2228 
L 1259 519 
L 2272 519 
Q 2781 519 3026 730 
Q 3272 941 3272 1375 
Q 3272 1813 3026 2020 
Q 2781 2228 2272 2228 
L 1259 2228 
z
M 1259 4147 
L 1259 2741 
L 2194 2741 
Q 2656 2741 2882 2914 
Q 3109 3088 3109 3444 
Q 3109 3797 2882 3972 
Q 2656 4147 2194 4147 
L 1259 4147 
z
M 628 4666 
L 2241 4666 
Q 2963 4666 3353 4366 
Q 3744 4066 3744 3513 
Q 3744 3084 3544 2831 
Q 3344 2578 2956 2516 
Q 3422 2416 3680 2098 
Q 3938 1781 3938 1306 
Q 3938 681 3513 340 
Q 3088 0 2303 0 
L 628 0 
L 628 4666 
z
" transform="scale(0.015625)"/>
       <path id="DejaVuSans-4d" d="M 628 4666 
L 1569 4666 
L 2759 1491 
L 3956 4666 
L 4897 4666 
L 4897 0 
L 4281 0 
L 4281 4097 
L 3078 897 
L 2444 897 
L 1241 4097 
L 1241 0 
L 628 0 
L 628 4666 
z
" transform="scale(0.015625)"/>
       <path id="DejaVuSans-63" d="M 3122 3366 
L 3122 2828 
Q 2878 2963 2633 3030 
Q 2388 3097 2138 3097 
Q 1578 3097 1268 2742 
Q 959 2388 959 1747 
Q 959 1106 1268 751 
Q 1578 397 2138 397 
Q 2388 397 2633 464 
Q 2878 531 3122 666 
L 3122 134 
Q 2881 22 2623 -34 
Q 2366 -91 2075 -91 
Q 1284 -91 818 406 
Q 353 903 353 1747 
Q 353 2603 823 3093 
Q 1294 3584 2113 3584 
Q 2378 3584 2631 3529 
Q 2884 3475 3122 3366 
z
" transform="scale(0.015625)"/>
       <path id="DejaVuSans-4c" d="M 628 4666 
L 1259 4666 
L 1259 531 
L 3531 531 
L 3531 0 
L 628 0 
L 628 4666 
z
" transform="scale(0.015625)"/>
       <path id="DejaVuSans-6d" d="M 3328 2828 
Q 3544 3216 3844 3400 
Q 4144 3584 4550 3584 
Q 5097 3584 5394 3201 
Q 5691 2819 5691 2113 
L 5691 0 
L 5113 0 
L 5113 2094 
Q 5113 2597 4934 2840 
Q 4756 3084 4391 3084 
Q 3944 3084 3684 2787 
Q 3425 2491 3425 1978 
L 3425 0 
L 2847 0 
L 2847 2094 
Q 2847 2600 2669 2842 
Q 2491 3084 2119 3084 
Q 1678 3084 1418 2786 
Q 1159 2488 1159 1978 
L 1159 0 
L 581 0 
L 581 3500 
L 1159 3500 
L 1159 2956 
Q 1356 3278 1631 3431 
Q 1906 3584 2284 3584 
Q 2666 3584 2933 3390 
Q 3200 3197 3328 2828 
z
" transform="scale(0.015625)"/>
       <path id="DejaVuSans-6f" d="M 1959 3097 
Q 1497 3097 1228 2736 
Q 959 2375 959 1747 
Q 959 1119 1226 758 
Q 1494 397 1959 397 
Q 2419 397 2687 759 
Q 2956 1122 2956 1747 
Q 2956 2369 2687 2733 
Q 2419 3097 1959 3097 
z
M 1959 3584 
Q 2709 3584 3137 3096 
Q 3566 2609 3566 1747 
Q 3566 888 3137 398 
Q 2709 -91 1959 -91 
Q 1206 -91 779 398 
Q 353 888 353 1747 
Q 353 2609 779 3096 
Q 1206 3584 1959 3584 
z
" transform="scale(0.015625)"/>
      </defs>
      <use xlink:href="#DejaVuSans-42"/>
      <use xlink:href="#DejaVuSans-2e" x="68.603516"/>
      <use xlink:href="#DejaVuSans-4d" x="100.390625"/>
      <use xlink:href="#DejaVuSans-63" x="186.669922"/>
      <use xlink:href="#DejaVuSans-4c" x="241.650391"/>
      <use xlink:href="#DejaVuSans-65" x="295.613281"/>
      <use xlink:href="#DejaVuSans-6d" x="357.136719"/>
      <use xlink:href="#DejaVuSans-6f" x="454.548828"/>
      <use xlink:href="#DejaVuSans-72" x="515.730469"/>
      <use xlink:href="#DejaVuSans-65" x="554.59375"/>
     </g>
    </g>
   </g>
   <g id="text_3">
    <g clip-path="url(#pd165e50e74)">
     <!-- D.House Jr. -->
     <g transform="translate(164.194647 46.316337)scale(0.12 -0.12)">
      <defs>
       <path id="DejaVuSans-44" d="M 1259 4147 
L 1259 519 
L 2022 519 
Q 2988 519 3436 956 
Q 3884 1394 3884 2338 
Q 3884 3275 3436 3711 
Q 2988 4147 2022 4147 
L 1259 4147 
z
M 628 4666 
L 1925 4666 
Q 3281 4666 3915 4102 
Q 4550 3538 4550 2338 
Q 4550 1131 3912 565 
Q 3275 0 1925 0 
L 628 0 
L 628 4666 
z
" transform="scale(0.015625)"/>
       <path id="DejaVuSans-48" d="M 628 4666 
L 1259 4666 
L 1259 2753 
L 3553 2753 
L 3553 4666 
L 4184 4666 
L 4184 0 
L 3553 0 
L 3553 2222 
L 1259 2222 
L 1259 0 
L 628 0 
L 628 4666 
z
" transform="scale(0.015625)"/>
       <path id="DejaVuSans-75" d="M 544 1381 
L 544 3500 
L 1119 3500 
L 1119 1403 
Q 1119 906 1312 657 
Q 1506 409 1894 409 
Q 2359 409 2629 706 
Q 2900 1003 2900 1516 
L 2900 3500 
L 3475 3500 
L 3475 0 
L 2900 0 
L 2900 538 
Q 2691 219 2414 64 
Q 2138 -91 1772 -91 
Q 1169 -91 856 284 
Q 544 659 544 1381 
z
M 1991 3584 
L 1991 3584 
z
" transform="scale(0.015625)"/>
       <path id="DejaVuSans-20" transform="scale(0.015625)"/>
       <path id="DejaVuSans-4a" d="M 628 4666 
L 1259 4666 
L 1259 325 
Q 1259 -519 939 -900 
Q 619 -1281 -91 -1281 
L -331 -1281 
L -331 -750 
L -134 -750 
Q 284 -750 456 -515 
Q 628 -281 628 325 
L 628 4666 
z
" transform="scale(0.015625)"/>
      </defs>
      <use xlink:href="#DejaVuSans-44"/>
      <use xlink:href="#DejaVuSans-2e" x="77.001953"/>
      <use xlink:href="#DejaVuSans-48" x="108.789062"/>
      <use xlink:href="#DejaVuSans-6f" x="183.984375"/>
      <use xlink:href="#DejaVuSans-75" x="245.166016"/>
      <use xlink:href="#DejaVuSans-73" x="308.544922"/>
      <use xlink:href="#DejaVuSans-65" x="360.644531"/>
      <use xlink:href="#DejaVuSans-20" x="422.167969"/>
      <use xlink:href="#DejaVuSans-4a" x="453.955078"/>
      <use xlink:href="#DejaVuSans-72" x="483.447266"/>
      <use xlink:href="#DejaVuSans-2e" x="515.435547"/>
     </g>
    </g>
   </g>
   <g id="text_4">
    <g clip-path="url(#pd165e50e74)">
     <!-- E.Gordon -->
     <g transform="translate(-0.529265 178.405525)scale(0.12 -0.12)">
      <defs>
       <path id="DejaVuSans-45" d="M 628 4666 
L 3578 4666 
L 3578 4134 
L 1259 4134 
L 1259 2753 
L 3481 2753 
L 3481 2222 
L 1259 2222 
L 1259 531 
L 3634 531 
L 3634 0 
L 628 0 
L 628 4666 
z
" transform="scale(0.015625)"/>
       <path id="DejaVuSans-47" d="M 3809 666 
L 3809 1919 
L 2778 1919 
L 2778 2438 
L 4434 2438 
L 4434 434 
Q 4069 175 3628 42 
Q 3188 -91 2688 -91 
Q 1594 -91 976 548 
Q 359 1188 359 2328 
Q 359 3472 976 4111 
Q 1594 4750 2688 4750 
Q 3144 4750 3555 4637 
Q 3966 4525 4313 4306 
L 4313 3634 
Q 3963 3931 3569 4081 
Q 3175 4231 2741 4231 
Q 1884 4231 1454 3753 
Q 1025 3275 1025 2328 
Q 1025 1384 1454 906 
Q 1884 428 2741 428 
Q 3075 428 3337 486 
Q 3600 544 3809 666 
z
" transform="scale(0.015625)"/>
       <path id="DejaVuSans-64" d="M 2906 2969 
L 2906 4863 
L 3481 4863 
L 3481 0 
L 2906 0 
L 2906 525 
Q 2725 213 2448 61 
Q 2172 -91 1784 -91 
Q 1150 -91 751 415 
Q 353 922 353 1747 
Q 353 2572 751 3078 
Q 1150 3584 1784 3584 
Q 2172 3584 2448 3432 
Q 2725 3281 2906 2969 
z
M 947 1747 
Q 947 1113 1208 752 
Q 1469 391 1925 391 
Q 2381 391 2643 752 
Q 2906 1113 2906 1747 
Q 2906 2381 2643 2742 
Q 2381 3103 1925 3103 
Q 1469 3103 1208 2742 
Q 947 2381 947 1747 
z
" transform="scale(0.015625)"/>
       <path id="DejaVuSans-6e" d="M 3513 2113 
L 3513 0 
L 2938 0 
L 2938 2094 
Q 2938 2591 2744 2837 
Q 2550 3084 2163 3084 
Q 1697 3084 1428 2787 
Q 1159 2491 1159 1978 
L 1159 0 
L 581 0 
L 581 3500 
L 1159 3500 
L 1159 2956 
Q 1366 3272 1645 3428 
Q 1925 3584 2291 3584 
Q 2894 3584 3203 3211 
Q 3513 2838 3513 2113 
z
" transform="scale(0.015625)"/>
      </defs>
      <use xlink:href="#DejaVuSans-45"/>
      <use xlink:href="#DejaVuSans-2e" x="63.183594"/>
      <use xlink:href="#DejaVuSans-47" x="94.970703"/>
      <use xlink:href="#DejaVuSans-6f" x="172.460938"/>
      <use xlink:href="#DejaVuSans-72" x="233.642578"/>
      <use xlink:href="#DejaVuSans-64" x="273.005859"/>
      <use xlink:href="#DejaVuSans-6f" x="336.482422"/>
      <use xlink:href="#DejaVuSans-6e" x="397.664062"/>
     </g>
    </g>
   </g>
   <g id="text_5">
    <g clip-path="url(#pd165e50e74)">
     <!-- J.Harden -->
     <g transform="translate(1.60261 448.85321)scale(0.12 -0.12)">
      <defs>
       <path id="DejaVuSans-61" d="M 2194 1759 
Q 1497 1759 1228 1600 
Q 959 1441 959 1056 
Q 959 750 1161 570 
Q 1363 391 1709 391 
Q 2188 391 2477 730 
Q 2766 1069 2766 1631 
L 2766 1759 
L 2194 1759 
z
M 3341 1997 
L 3341 0 
L 2766 0 
L 2766 531 
Q 2569 213 2275 61 
Q 1981 -91 1556 -91 
Q 1019 -91 701 211 
Q 384 513 384 1019 
Q 384 1609 779 1909 
Q 1175 2209 1959 2209 
L 2766 2209 
L 2766 2266 
Q 2766 2663 2505 2880 
Q 2244 3097 1772 3097 
Q 1472 3097 1187 3025 
Q 903 2953 641 2809 
L 641 3341 
Q 956 3463 1253 3523 
Q 1550 3584 1831 3584 
Q 2591 3584 2966 3190 
Q 3341 2797 3341 1997 
z
" transform="scale(0.015625)"/>
      </defs>
      <use xlink:href="#DejaVuSans-4a"/>
      <use xlink:href="#DejaVuSans-2e" x="29.492188"/>
      <use xlink:href="#DejaVuSans-48" x="61.279297"/>
      <use xlink:href="#DejaVuSans-61" x="136.474609"/>
      <use xlink:href="#DejaVuSans-72" x="197.753906"/>
      <use xlink:href="#DejaVuSans-64" x="237.117188"/>
      <use xlink:href="#DejaVuSans-65" x="300.59375"/>
      <use xlink:href="#DejaVuSans-6e" x="362.117188"/>
     </g>
    </g>
   </g>
   <g id="text_6">
    <g clip-path="url(#pd165e50e74)">
     <!-- P.Tucker -->
     <g transform="translate(173.166507 580.942413)scale(0.12 -0.12)">
      <defs>
       <path id="DejaVuSans-50" d="M 1259 4147 
L 1259 2394 
L 2053 2394 
Q 2494 2394 2734 2622 
Q 2975 2850 2975 3272 
Q 2975 3691 2734 3919 
Q 2494 4147 2053 4147 
L 1259 4147 
z
M 628 4666 
L 2053 4666 
Q 2838 4666 3239 4311 
Q 3641 3956 3641 3272 
Q 3641 2581 3239 2228 
Q 2838 1875 2053 1875 
L 1259 1875 
L 1259 0 
L 628 0 
L 628 4666 
z
" transform="scale(0.015625)"/>
       <path id="DejaVuSans-54" d="M -19 4666 
L 3928 4666 
L 3928 4134 
L 2272 4134 
L 2272 0 
L 1638 0 
L 1638 4134 
L -19 4134 
L -19 4666 
z
" transform="scale(0.015625)"/>
       <path id="DejaVuSans-6b" d="M 581 4863 
L 1159 4863 
L 1159 1991 
L 2875 3500 
L 3609 3500 
L 1753 1863 
L 3688 0 
L 2938 0 
L 1159 1709 
L 1159 0 
L 581 0 
L 581 4863 
z
" transform="scale(0.015625)"/>
      </defs>
      <use xlink:href="#DejaVuSans-50"/>
      <use xlink:href="#DejaVuSans-2e" x="44.677734"/>
      <use xlink:href="#DejaVuSans-54" x="76.464844"/>
      <use xlink:href="#DejaVuSans-75" x="122.423828"/>
      <use xlink:href="#DejaVuSans-63" x="185.802734"/>
      <use xlink:href="#DejaVuSans-6b" x="240.783203"/>
      <use xlink:href="#DejaVuSans-65" x="295.068359"/>
      <use xlink:href="#DejaVuSans-72" x="356.591797"/>
     </g>
    </g>
   </g>
   <g id="text_7">
    <g clip-path="url(#pd165e50e74)">
     <!-- R.Westbrook -->
     <g transform="translate(431.416595 533.800357)scale(0.12 -0.12)">
      <defs>
       <path id="DejaVuSans-57" d="M 213 4666 
L 850 4666 
L 1831 722 
L 2809 4666 
L 3519 4666 
L 4500 722 
L 5478 4666 
L 6119 4666 
L 4947 0 
L 4153 0 
L 3169 4050 
L 2175 0 
L 1381 0 
L 213 4666 
z
" transform="scale(0.015625)"/>
       <path id="DejaVuSans-74" d="M 1172 4494 
L 1172 3500 
L 2356 3500 
L 2356 3053 
L 1172 3053 
L 1172 1153 
Q 1172 725 1289 603 
Q 1406 481 1766 481 
L 2356 481 
L 2356 0 
L 1766 0 
Q 1100 0 847 248 
Q 594 497 594 1153 
L 594 3053 
L 172 3053 
L 172 3500 
L 594 3500 
L 594 4494 
L 1172 4494 
z
" transform="scale(0.015625)"/>
       <path id="DejaVuSans-62" d="M 3116 1747 
Q 3116 2381 2855 2742 
Q 2594 3103 2138 3103 
Q 1681 3103 1420 2742 
Q 1159 2381 1159 1747 
Q 1159 1113 1420 752 
Q 1681 391 2138 391 
Q 2594 391 2855 752 
Q 3116 1113 3116 1747 
z
M 1159 2969 
Q 1341 3281 1617 3432 
Q 1894 3584 2278 3584 
Q 2916 3584 3314 3078 
Q 3713 2572 3713 1747 
Q 3713 922 3314 415 
Q 2916 -91 2278 -91 
Q 1894 -91 1617 61 
Q 1341 213 1159 525 
L 1159 0 
L 581 0 
L 581 4863 
L 1159 4863 
L 1159 2969 
z
" transform="scale(0.015625)"/>
      </defs>
      <use xlink:href="#DejaVuSans-52"/>
      <use xlink:href="#DejaVuSans-2e" x="65.857422"/>
      <use xlink:href="#DejaVuSans-57" x="97.644531"/>
      <use xlink:href="#DejaVuSans-65" x="190.646484"/>
      <use xlink:href="#DejaVuSans-73" x="252.169922"/>
      <use xlink:href="#DejaVuSans-74" x="304.269531"/>
      <use xlink:href="#DejaVuSans-62" x="343.478516"/>
      <use xlink:href="#DejaVuSans-72" x="406.955078"/>
      <use xlink:href="#DejaVuSans-6f" x="445.818359"/>
      <use xlink:href="#DejaVuSans-6f" x="507"/>
      <use xlink:href="#DejaVuSans-6b" x="568.181641"/>
     </g>
    </g>
   </g>
   <g id="text_8">
    <!-- 2019-20 Houston Rockets Assist Network -->
    <g transform="translate(171.717187 16.318125)scale(0.12 -0.12)">
     <defs>
      <path id="DejaVuSans-32" d="M 1228 531 
L 3431 531 
L 3431 0 
L 469 0 
L 469 531 
Q 828 903 1448 1529 
Q 2069 2156 2228 2338 
Q 2531 2678 2651 2914 
Q 2772 3150 2772 3378 
Q 2772 3750 2511 3984 
Q 2250 4219 1831 4219 
Q 1534 4219 1204 4116 
Q 875 4013 500 3803 
L 500 4441 
Q 881 4594 1212 4672 
Q 1544 4750 1819 4750 
Q 2544 4750 2975 4387 
Q 3406 4025 3406 3419 
Q 3406 3131 3298 2873 
Q 3191 2616 2906 2266 
Q 2828 2175 2409 1742 
Q 1991 1309 1228 531 
z
" transform="scale(0.015625)"/>
      <path id="DejaVuSans-30" d="M 2034 4250 
Q 1547 4250 1301 3770 
Q 1056 3291 1056 2328 
Q 1056 1369 1301 889 
Q 1547 409 2034 409 
Q 2525 409 2770 889 
Q 3016 1369 3016 2328 
Q 3016 3291 2770 3770 
Q 2525 4250 2034 4250 
z
M 2034 4750 
Q 2819 4750 3233 4129 
Q 3647 3509 3647 2328 
Q 3647 1150 3233 529 
Q 2819 -91 2034 -91 
Q 1250 -91 836 529 
Q 422 1150 422 2328 
Q 422 3509 836 4129 
Q 1250 4750 2034 4750 
z
" transform="scale(0.015625)"/>
      <path id="DejaVuSans-31" d="M 794 531 
L 1825 531 
L 1825 4091 
L 703 3866 
L 703 4441 
L 1819 4666 
L 2450 4666 
L 2450 531 
L 3481 531 
L 3481 0 
L 794 0 
L 794 531 
z
" transform="scale(0.015625)"/>
      <path id="DejaVuSans-39" d="M 703 97 
L 703 672 
Q 941 559 1184 500 
Q 1428 441 1663 441 
Q 2288 441 2617 861 
Q 2947 1281 2994 2138 
Q 2813 1869 2534 1725 
Q 2256 1581 1919 1581 
Q 1219 1581 811 2004 
Q 403 2428 403 3163 
Q 403 3881 828 4315 
Q 1253 4750 1959 4750 
Q 2769 4750 3195 4129 
Q 3622 3509 3622 2328 
Q 3622 1225 3098 567 
Q 2575 -91 1691 -91 
Q 1453 -91 1209 -44 
Q 966 3 703 97 
z
M 1959 2075 
Q 2384 2075 2632 2365 
Q 2881 2656 2881 3163 
Q 2881 3666 2632 3958 
Q 2384 4250 1959 4250 
Q 1534 4250 1286 3958 
Q 1038 3666 1038 3163 
Q 1038 2656 1286 2365 
Q 1534 2075 1959 2075 
z
" transform="scale(0.015625)"/>
      <path id="DejaVuSans-2d" d="M 313 2009 
L 1997 2009 
L 1997 1497 
L 313 1497 
L 313 2009 
z
" transform="scale(0.015625)"/>
      <path id="DejaVuSans-4e" d="M 628 4666 
L 1478 4666 
L 3547 763 
L 3547 4666 
L 4159 4666 
L 4159 0 
L 3309 0 
L 1241 3903 
L 1241 0 
L 628 0 
L 628 4666 
z
" transform="scale(0.015625)"/>
      <path id="DejaVuSans-77" d="M 269 3500 
L 844 3500 
L 1563 769 
L 2278 3500 
L 2956 3500 
L 3675 769 
L 4391 3500 
L 4966 3500 
L 4050 0 
L 3372 0 
L 2619 2869 
L 1863 0 
L 1184 0 
L 269 3500 
z
" transform="scale(0.015625)"/>
     </defs>
     <use xlink:href="#DejaVuSans-32"/>
     <use xlink:href="#DejaVuSans-30" x="63.623047"/>
     <use xlink:href="#DejaVuSans-31" x="127.246094"/>
     <use xlink:href="#DejaVuSans-39" x="190.869141"/>
     <use xlink:href="#DejaVuSans-2d" x="254.492188"/>
     <use xlink:href="#DejaVuSans-32" x="290.576172"/>
     <use xlink:href="#DejaVuSans-30" x="354.199219"/>
     <use xlink:href="#DejaVuSans-20" x="417.822266"/>
     <use xlink:href="#DejaVuSans-48" x="449.609375"/>
     <use xlink:href="#DejaVuSans-6f" x="524.804688"/>
     <use xlink:href="#DejaVuSans-75" x="585.986328"/>
     <use xlink:href="#DejaVuSans-73" x="649.365234"/>
     <use xlink:href="#DejaVuSans-74" x="701.464844"/>
     <use xlink:href="#DejaVuSans-6f" x="740.673828"/>
     <use xlink:href="#DejaVuSans-6e" x="801.855469"/>
     <use xlink:href="#DejaVuSans-20" x="865.234375"/>
     <use xlink:href="#DejaVuSans-52" x="897.021484"/>
     <use xlink:href="#DejaVuSans-6f" x="962.003906"/>
     <use xlink:href="#DejaVuSans-63" x="1023.185547"/>
     <use xlink:href="#DejaVuSans-6b" x="1078.166016"/>
     <use xlink:href="#DejaVuSans-65" x="1132.451172"/>
     <use xlink:href="#DejaVuSans-74" x="1193.974609"/>
     <use xlink:href="#DejaVuSans-73" x="1233.183594"/>
     <use xlink:href="#DejaVuSans-20" x="1285.283203"/>
     <use xlink:href="#DejaVuSans-41" x="1317.070312"/>
     <use xlink:href="#DejaVuSans-73" x="1385.478516"/>
     <use xlink:href="#DejaVuSans-73" x="1437.578125"/>
     <use xlink:href="#DejaVuSans-69" x="1489.677734"/>
     <use xlink:href="#DejaVuSans-73" x="1517.460938"/>
     <use xlink:href="#DejaVuSans-74" x="1569.560547"/>
     <use xlink:href="#DejaVuSans-20" x="1608.769531"/>
     <use xlink:href="#DejaVuSans-4e" x="1640.556641"/>
     <use xlink:href="#DejaVuSans-65" x="1715.361328"/>
     <use xlink:href="#DejaVuSans-74" x="1776.884766"/>
     <use xlink:href="#DejaVuSans-77" x="1816.09375"/>
     <use xlink:href="#DejaVuSans-6f" x="1897.880859"/>
     <use xlink:href="#DejaVuSans-72" x="1959.0625"/>
     <use xlink:href="#DejaVuSans-6b" x="2000.175781"/>
    </g>
   </g>
  </g>
 </g>
 <defs>
  <clipPath id="pd165e50e74">
   <rect x="7.2" y="22.318125" width="576" height="576"/>
  </clipPath>
 </defs>
</svg>
