<?xml version="1.0" encoding="utf-8" standalone="no"?>
<!DOCTYPE svg PUBLIC "-//W3C//DTD SVG 1.1//EN"
  "http://www.w3.org/Graphics/SVG/1.1/DTD/svg11.dtd">
<svg xmlns:xlink="http://www.w3.org/1999/xlink" width="590.4pt" height="605.518125pt" viewBox="0 0 590.4 605.518125" xmlns="http://www.w3.org/2000/svg" version="1.1">
 <metadata>
  <rdf:RDF xmlns:dc="http://purl.org/dc/elements/1.1/" xmlns:cc="http://creativecommons.org/ns#" xmlns:rdf="http://www.w3.org/1999/02/22-rdf-syntax-ns#">
   <cc:Work>
    <dc:type rdf:resource="http://purl.org/dc/dcmitype/StillImage"/>
    <dc:date>2023-04-10T22:32:14.424605</dc:date>
    <dc:format>image/svg+xml</dc:format>
    <dc:creator>
     <cc:Agent>
      <dc:title>Matplotlib v3.5.2, https://matplotlib.org/</dc:title>
     </cc:Agent>
    </dc:creator>
   </cc:Work>
  </rdf:RDF>
 </metadata>
 <defs>
  <style type="text/css">*{stroke-linejoin: round; stroke-linecap: butt}</style>
 </defs>
 <g id="figure_1">
  <g id="patch_1">
   <path d="M 0 605.518125 
L 590.4 605.518125 
L 590.4 0 
L 0 0 
z
" style="fill: #ffffff"/>
  </g>
  <g id="axes_1">
   <g id="LineCollection_1">
    <path d="M 533.216529 310.318125 
L 501.328357 191.309861 
" clip-path="url(#p0302625605)" style="fill: none; stroke: #eeeeee; stroke-width: 2"/>
    <path d="M 533.216529 310.318125 
L 414.208257 104.189754 
" clip-path="url(#p0302625605)" style="fill: none; stroke: #d1d1d1; stroke-width: 2"/>
    <path d="M 533.216529 310.318125 
L 176.191721 104.189768 
" clip-path="url(#p0302625605)" style="fill: none; stroke: #dcdcdc; stroke-width: 2"/>
    <path d="M 533.216529 310.318125 
L 89.071643 191.309846 
" clip-path="url(#p0302625605)" style="fill: none; stroke: #838383; stroke-width: 2"/>
    <path d="M 533.216529 310.318125 
L 57.183471 310.318146 
" clip-path="url(#p0302625605)" style="fill: none; stroke: #878787; stroke-width: 2"/>
    <path d="M 533.216529 310.318125 
L 89.071629 429.326382 
" clip-path="url(#p0302625605)" style="fill: none; stroke: #000000; stroke-width: 2"/>
    <path d="M 533.216529 310.318125 
L 176.191757 516.446496 
" clip-path="url(#p0302625605)" style="fill: none; stroke: #a7a7a7; stroke-width: 2"/>
    <path d="M 533.216529 310.318125 
L 295.200003 548.334654 
" clip-path="url(#p0302625605)" style="fill: none; stroke: #676767; stroke-width: 2"/>
    <path d="M 533.216529 310.318125 
L 414.208243 516.446496 
" clip-path="url(#p0302625605)" style="fill: none; stroke: #e3e3e3; stroke-width: 2"/>
    <path d="M 533.216529 310.318125 
L 501.328343 429.326432 
" clip-path="url(#p0302625605)" style="fill: none; stroke: #aaaaaa; stroke-width: 2"/>
    <path d="M 501.328357 191.309861 
L 414.208257 104.189754 
" clip-path="url(#p0302625605)" style="fill: none; stroke: #ffffff; stroke-width: 2"/>
    <path d="M 501.328357 191.309861 
L 89.071643 191.309846 
" clip-path="url(#p0302625605)" style="fill: none; stroke: #d8d8d8; stroke-width: 2"/>
    <path d="M 501.328357 191.309861 
L 89.071629 429.326382 
" clip-path="url(#p0302625605)" style="fill: none; stroke: #e7e7e7; stroke-width: 2"/>
    <path d="M 501.328357 191.309861 
L 176.191757 516.446496 
" clip-path="url(#p0302625605)" style="fill: none; stroke: #a3a3a3; stroke-width: 2"/>
    <path d="M 501.328357 191.309861 
L 295.200003 548.334654 
" clip-path="url(#p0302625605)" style="fill: none; stroke: #ffffff; stroke-width: 2"/>
    <path d="M 501.328357 191.309861 
L 414.208243 516.446496 
" clip-path="url(#p0302625605)" style="fill: none; stroke: #eeeeee; stroke-width: 2"/>
    <path d="M 501.328357 191.309861 
L 501.328343 429.326432 
" clip-path="url(#p0302625605)" style="fill: none; stroke: #ffffff; stroke-width: 2"/>
    <path d="M 414.208257 104.189754 
L 295.19999 72.301596 
" clip-path="url(#p0302625605)" style="fill: none; stroke: #f1f1f1; stroke-width: 2"/>
    <path d="M 414.208257 104.189754 
L 176.191721 104.189768 
" clip-path="url(#p0302625605)" style="fill: none; stroke: #eaeaea; stroke-width: 2"/>
    <path d="M 414.208257 104.189754 
L 89.071643 191.309846 
" clip-path="url(#p0302625605)" style="fill: none; stroke: #a7a7a7; stroke-width: 2"/>
    <path d="M 414.208257 104.189754 
L 57.183471 310.318146 
" clip-path="url(#p0302625605)" style="fill: none; stroke: #f1f1f1; stroke-width: 2"/>
    <path d="M 414.208257 104.189754 
L 89.071629 429.326382 
" clip-path="url(#p0302625605)" style="fill: none; stroke: #aeaeae; stroke-width: 2"/>
    <path d="M 414.208257 104.189754 
L 176.191757 516.446496 
" clip-path="url(#p0302625605)" style="fill: none; stroke: #ffffff; stroke-width: 2"/>
    <path d="M 414.208257 104.189754 
L 295.200003 548.334654 
" clip-path="url(#p0302625605)" style="fill: none; stroke: #f5f5f5; stroke-width: 2"/>
    <path d="M 414.208257 104.189754 
L 414.208243 516.446496 
" clip-path="url(#p0302625605)" style="fill: none; stroke: #cecece; stroke-width: 2"/>
    <path d="M 414.208257 104.189754 
L 501.328343 429.326432 
" clip-path="url(#p0302625605)" style="fill: none; stroke: #d1d1d1; stroke-width: 2"/>
    <path d="M 295.19999 72.301596 
L 176.191721 104.189768 
" clip-path="url(#p0302625605)" style="fill: none; stroke: #c3c3c3; stroke-width: 2"/>
    <path d="M 295.19999 72.301596 
L 89.071643 191.309846 
" clip-path="url(#p0302625605)" style="fill: none; stroke: #d8d8d8; stroke-width: 2"/>
    <path d="M 295.19999 72.301596 
L 57.183471 310.318146 
" clip-path="url(#p0302625605)" style="fill: none; stroke: #f8f8f8; stroke-width: 2"/>
    <path d="M 295.19999 72.301596 
L 89.071629 429.326382 
" clip-path="url(#p0302625605)" style="fill: none; stroke: #a3a3a3; stroke-width: 2"/>
    <path d="M 295.19999 72.301596 
L 414.208243 516.446496 
" clip-path="url(#p0302625605)" style="fill: none; stroke: #e3e3e3; stroke-width: 2"/>
    <path d="M 295.19999 72.301596 
L 501.328343 429.326432 
" clip-path="url(#p0302625605)" style="fill: none; stroke: #d8d8d8; stroke-width: 2"/>
    <path d="M 176.191721 104.189768 
L 89.071643 191.309846 
" clip-path="url(#p0302625605)" style="fill: none; stroke: #a7a7a7; stroke-width: 2"/>
    <path d="M 176.191721 104.189768 
L 57.183471 310.318146 
" clip-path="url(#p0302625605)" style="fill: none; stroke: #eeeeee; stroke-width: 2"/>
    <path d="M 176.191721 104.189768 
L 89.071629 429.326382 
" clip-path="url(#p0302625605)" style="fill: none; stroke: #b8b8b8; stroke-width: 2"/>
    <path d="M 176.191721 104.189768 
L 295.200003 548.334654 
" clip-path="url(#p0302625605)" style="fill: none; stroke: #fcfcfc; stroke-width: 2"/>
    <path d="M 176.191721 104.189768 
L 414.208243 516.446496 
" clip-path="url(#p0302625605)" style="fill: none; stroke: #cecece; stroke-width: 2"/>
    <path d="M 176.191721 104.189768 
L 501.328343 429.326432 
" clip-path="url(#p0302625605)" style="fill: none; stroke: #d5d5d5; stroke-width: 2"/>
    <path d="M 89.071643 191.309846 
L 57.183471 310.318146 
" clip-path="url(#p0302625605)" style="fill: none; stroke: #e7e7e7; stroke-width: 2"/>
    <path d="M 89.071643 191.309846 
L 89.071629 429.326382 
" clip-path="url(#p0302625605)" style="fill: none; stroke: #717171; stroke-width: 2"/>
    <path d="M 89.071643 191.309846 
L 176.191757 516.446496 
" clip-path="url(#p0302625605)" style="fill: none; stroke: #878787; stroke-width: 2"/>
    <path d="M 89.071643 191.309846 
L 295.200003 548.334654 
" clip-path="url(#p0302625605)" style="fill: none; stroke: #8a8a8a; stroke-width: 2"/>
    <path d="M 89.071643 191.309846 
L 414.208243 516.446496 
" clip-path="url(#p0302625605)" style="fill: none; stroke: #b1b1b1; stroke-width: 2"/>
    <path d="M 89.071643 191.309846 
L 501.328343 429.326432 
" clip-path="url(#p0302625605)" style="fill: none; stroke: #bfbfbf; stroke-width: 2"/>
    <path d="M 57.183471 310.318146 
L 89.071629 429.326382 
" clip-path="url(#p0302625605)" style="fill: none; stroke: #dfdfdf; stroke-width: 2"/>
    <path d="M 57.183471 310.318146 
L 414.208243 516.446496 
" clip-path="url(#p0302625605)" style="fill: none; stroke: #eaeaea; stroke-width: 2"/>
    <path d="M 89.071629 429.326382 
L 176.191757 516.446496 
" clip-path="url(#p0302625605)" style="fill: none; stroke: #c3c3c3; stroke-width: 2"/>
    <path d="M 89.071629 429.326382 
L 295.200003 548.334654 
" clip-path="url(#p0302625605)" style="fill: none; stroke: #d1d1d1; stroke-width: 2"/>
    <path d="M 89.071629 429.326382 
L 414.208243 516.446496 
" clip-path="url(#p0302625605)" style="fill: none; stroke: #9f9f9f; stroke-width: 2"/>
    <path d="M 89.071629 429.326382 
L 501.328343 429.326432 
" clip-path="url(#p0302625605)" style="fill: none; stroke: #aeaeae; stroke-width: 2"/>
    <path d="M 176.191757 516.446496 
L 295.200003 548.334654 
" clip-path="url(#p0302625605)" style="fill: none; stroke: #8e8e8e; stroke-width: 2"/>
    <path d="M 176.191757 516.446496 
L 414.208243 516.446496 
" clip-path="url(#p0302625605)" style="fill: none; stroke: #f5f5f5; stroke-width: 2"/>
    <path d="M 295.200003 548.334654 
L 414.208243 516.446496 
" clip-path="url(#p0302625605)" style="fill: none; stroke: #e3e3e3; stroke-width: 2"/>
    <path d="M 295.200003 548.334654 
L 501.328343 429.326432 
" clip-path="url(#p0302625605)" style="fill: none; stroke: #e3e3e3; stroke-width: 2"/>
    <path d="M 414.208243 516.446496 
L 501.328343 429.326432 
" clip-path="url(#p0302625605)" style="fill: none; stroke: #eaeaea; stroke-width: 2"/>
   </g>
   <g id="PathCollection_1">
    <path d="M 533.216529 313.95818 
C 534.181883 313.95818 535.107828 313.574641 535.790436 312.892033 
C 536.473045 312.209424 536.856584 311.283479 536.856584 310.318125 
C 536.856584 309.352771 536.473045 308.426826 535.790436 307.744217 
C 535.107828 307.061609 534.181883 306.67807 533.216529 306.67807 
C 532.251175 306.67807 531.32523 307.061609 530.642621 307.744217 
C 529.960013 308.426826 529.576474 309.352771 529.576474 310.318125 
C 529.576474 311.283479 529.960013 312.209424 530.642621 312.892033 
C 531.32523 313.574641 532.251175 313.95818 533.216529 313.95818 
z
" clip-path="url(#p0302625605)" style="fill: #ffffff; stroke: #000000; stroke-width: 2"/>
    <path d="M 501.328357 194.550231 
C 502.187713 194.550231 503.011988 194.208805 503.619645 193.601148 
C 504.227301 192.993492 504.568727 192.169217 504.568727 191.309861 
C 504.568727 190.450504 504.227301 189.626229 503.619645 189.018573 
C 503.011988 188.410916 502.187713 188.06949 501.328357 188.06949 
C 500.469001 188.06949 499.644726 188.410916 499.037069 189.018573 
C 498.429412 189.626229 498.087987 190.450504 498.087987 191.309861 
C 498.087987 192.169217 498.429412 192.993492 499.037069 193.601148 
C 499.644726 194.208805 500.469001 194.550231 501.328357 194.550231 
z
" clip-path="url(#p0302625605)" style="fill: #ffffff; stroke: #000000; stroke-width: 2"/>
    <path d="M 414.208257 107.468473 
C 415.077784 107.468473 415.911814 107.123007 416.526662 106.508159 
C 417.14151 105.89331 417.486977 105.05928 417.486977 104.189754 
C 417.486977 103.320227 417.14151 102.486197 416.526662 101.871349 
C 415.911814 101.256501 415.077784 100.911035 414.208257 100.911035 
C 413.338731 100.911035 412.504701 101.256501 411.889853 101.871349 
C 411.275005 102.486197 410.929538 103.320227 410.929538 104.189754 
C 410.929538 105.05928 411.275005 105.89331 411.889853 106.508159 
C 412.504701 107.123007 413.338731 107.468473 414.208257 107.468473 
z
" clip-path="url(#p0302625605)" style="fill: #ffffff; stroke: #000000; stroke-width: 2"/>
    <path d="M 295.19999 75.463874 
C 296.038635 75.463874 296.843045 75.130676 297.436058 74.537664 
C 298.02907 73.944652 298.362267 73.140242 298.362267 72.301596 
C 298.362267 71.46295 298.02907 70.65854 297.436058 70.065528 
C 296.843045 69.472516 296.038635 69.139318 295.19999 69.139318 
C 294.361344 69.139318 293.556934 69.472516 292.963922 70.065528 
C 292.370909 70.65854 292.037712 71.46295 292.037712 72.301596 
C 292.037712 73.140242 292.370909 73.944652 292.963922 74.537664 
C 293.556934 75.130676 294.361344 75.463874 295.19999 75.463874 
z
" clip-path="url(#p0302625605)" style="fill: #ffffff; stroke: #000000; stroke-width: 2"/>
    <path d="M 176.191721 107.760482 
C 177.138686 107.760482 178.046993 107.384249 178.716598 106.714644 
C 179.386203 106.045039 179.762436 105.136733 179.762436 104.189768 
C 179.762436 103.242804 179.386203 102.334497 178.716598 101.664892 
C 178.046993 100.995287 177.138686 100.619054 176.191721 100.619054 
C 175.244757 100.619054 174.33645 100.995287 173.666845 101.664892 
C 172.99724 102.334497 172.621007 103.242804 172.621007 104.189768 
C 172.621007 105.136733 172.99724 106.045039 173.666845 106.714644 
C 174.33645 107.384249 175.244757 107.760482 176.191721 107.760482 
z
" clip-path="url(#p0302625605)" style="fill: #ffffff; stroke: #000000; stroke-width: 2"/>
    <path d="M 89.071643 196.601349 
C 90.474966 196.601349 91.821001 196.043803 92.813301 195.051504 
C 93.8056 194.059205 94.363146 192.713169 94.363146 191.309846 
C 94.363146 189.906523 93.8056 188.560488 92.813301 187.568189 
C 91.821001 186.57589 90.474966 186.018344 89.071643 186.018344 
C 87.66832 186.018344 86.322285 186.57589 85.329986 187.568189 
C 84.337687 188.560488 83.780141 189.906523 83.780141 191.309846 
C 83.780141 192.713169 84.337687 194.059205 85.329986 195.051504 
C 86.322285 196.043803 87.66832 196.601349 89.071643 196.601349 
z
" clip-path="url(#p0302625605)" style="fill: #ffffff; stroke: #000000; stroke-width: 2"/>
    <path d="M 57.183471 314.25515 
C 58.227577 314.25515 59.229059 313.840322 59.967353 313.102028 
C 60.705647 312.363734 61.120475 311.362251 61.120475 310.318146 
C 61.120475 309.27404 60.705647 308.272558 59.967353 307.534264 
C 59.229059 306.795969 58.227577 306.381142 57.183471 306.381142 
C 56.139365 306.381142 55.137883 306.795969 54.399589 307.534264 
C 53.661295 308.272558 53.246467 309.27404 53.246467 310.318146 
C 53.246467 311.362251 53.661295 312.363734 54.399589 313.102028 
C 55.137883 313.840322 56.139365 314.25515 57.183471 314.25515 
z
" clip-path="url(#p0302625605)" style="fill: #ffffff; stroke: #000000; stroke-width: 2"/>
    <path d="M 89.071629 436.974912 
C 91.100043 436.974912 93.045651 436.169014 94.479956 434.734709 
C 95.914261 433.300404 96.720158 431.354796 96.720158 429.326382 
C 96.720158 427.297969 95.914261 425.352361 94.479956 423.918055 
C 93.045651 422.48375 91.100043 421.677853 89.071629 421.677853 
C 87.043215 421.677853 85.097607 422.48375 83.663302 423.918055 
C 82.228997 425.352361 81.4231 427.297969 81.4231 429.326382 
C 81.4231 431.354796 82.228997 433.300404 83.663302 434.734709 
C 85.097607 436.169014 87.043215 436.974912 89.071629 436.974912 
z
" clip-path="url(#p0302625605)" style="fill: #ffffff; stroke: #000000; stroke-width: 2"/>
    <path d="M 176.191757 519.837661 
C 177.091104 519.837661 177.953738 519.480347 178.589673 518.844412 
C 179.225607 518.208477 179.582922 517.345844 179.582922 516.446496 
C 179.582922 515.547149 179.225607 514.684515 178.589673 514.04858 
C 177.953738 513.412646 177.091104 513.055331 176.191757 513.055331 
C 175.292409 513.055331 174.429776 513.412646 173.793841 514.04858 
C 173.157906 514.684515 172.800592 515.547149 172.800592 516.446496 
C 172.800592 517.345844 173.157906 518.208477 173.793841 518.844412 
C 174.429776 519.480347 175.292409 519.837661 176.191757 519.837661 
z
" clip-path="url(#p0302625605)" style="fill: #ffffff; stroke: #000000; stroke-width: 2"/>
    <path d="M 295.200003 553.81188 
C 296.65258 553.81188 298.045859 553.234764 299.072986 552.207637 
C 300.100113 551.18051 300.677228 549.787231 300.677228 548.334654 
C 300.677228 546.882077 300.100113 545.488798 299.072986 544.461671 
C 298.045859 543.434543 296.65258 542.857428 295.200003 542.857428 
C 293.747426 542.857428 292.354147 543.434543 291.327019 544.461671 
C 290.299892 545.488798 289.722777 546.882077 289.722777 548.334654 
C 289.722777 549.787231 290.299892 551.18051 291.327019 552.207637 
C 292.354147 553.234764 293.747426 553.81188 295.200003 553.81188 
z
" clip-path="url(#p0302625605)" style="fill: #ffffff; stroke: #000000; stroke-width: 2"/>
    <path d="M 414.208243 519.648058 
C 415.057307 519.648058 415.87171 519.310721 416.472089 518.710342 
C 417.072469 518.109963 417.409805 517.29556 417.409805 516.446496 
C 417.409805 515.597432 417.072469 514.783029 416.472089 514.18265 
C 415.87171 513.582271 415.057307 513.244934 414.208243 513.244934 
C 413.359179 513.244934 412.544776 513.582271 411.944397 514.18265 
C 411.344018 514.783029 411.006681 515.597432 411.006681 516.446496 
C 411.006681 517.29556 411.344018 518.109963 411.944397 518.710342 
C 412.544776 519.310721 413.359179 519.648058 414.208243 519.648058 
z
" clip-path="url(#p0302625605)" style="fill: #ffffff; stroke: #000000; stroke-width: 2"/>
    <path d="M 501.328343 433.770529 
C 502.506931 433.770529 503.637406 433.302271 504.470794 432.468883 
C 505.304182 431.635495 505.77244 430.50502 505.77244 429.326432 
C 505.77244 428.147844 505.304182 427.017369 504.470794 426.183981 
C 503.637406 425.350593 502.506931 424.882335 501.328343 424.882335 
C 500.149754 424.882335 499.019279 425.350593 498.185891 426.183981 
C 497.352504 427.017369 496.884245 428.147844 496.884245 429.326432 
C 496.884245 430.50502 497.352504 431.635495 498.185891 432.468883 
C 499.019279 433.302271 500.149754 433.770529 501.328343 433.770529 
z
" clip-path="url(#p0302625605)" style="fill: #ffffff; stroke: #000000; stroke-width: 2"/>
   </g>
   <g id="text_1">
    <g clip-path="url(#p0302625605)">
     <!-- C.Wood -->
     <g transform="translate(538.950388 285.067391)scale(0.12 -0.12)">
      <defs>
       <path id="DejaVuSans-43" d="M 4122 4306 
L 4122 3641 
Q 3803 3938 3442 4084 
Q 3081 4231 2675 4231 
Q 1875 4231 1450 3742 
Q 1025 3253 1025 2328 
Q 1025 1406 1450 917 
Q 1875 428 2675 428 
Q 3081 428 3442 575 
Q 3803 722 4122 1019 
L 4122 359 
Q 3791 134 3420 21 
Q 3050 -91 2638 -91 
Q 1578 -91 968 557 
Q 359 1206 359 2328 
Q 359 3453 968 4101 
Q 1578 4750 2638 4750 
Q 3056 4750 3426 4639 
Q 3797 4528 4122 4306 
z
" transform="scale(0.015625)"/>
       <path id="DejaVuSans-2e" d="M 684 794 
L 1344 794 
L 1344 0 
L 684 0 
L 684 794 
z
" transform="scale(0.015625)"/>
       <path id="DejaVuSans-57" d="M 213 4666 
L 850 4666 
L 1831 722 
L 2809 4666 
L 3519 4666 
L 4500 722 
L 5478 4666 
L 6119 4666 
L 4947 0 
L 4153 0 
L 3169 4050 
L 2175 0 
L 1381 0 
L 213 4666 
z
" transform="scale(0.015625)"/>
       <path id="DejaVuSans-6f" d="M 1959 3097 
Q 1497 3097 1228 2736 
Q 959 2375 959 1747 
Q 959 1119 1226 758 
Q 1494 397 1959 397 
Q 2419 397 2687 759 
Q 2956 1122 2956 1747 
Q 2956 2369 2687 2733 
Q 2419 3097 1959 3097 
z
M 1959 3584 
Q 2709 3584 3137 3096 
Q 3566 2609 3566 1747 
Q 3566 888 3137 398 
Q 2709 -91 1959 -91 
Q 1206 -91 779 398 
Q 353 888 353 1747 
Q 353 2609 779 3096 
Q 1206 3584 1959 3584 
z
" transform="scale(0.015625)"/>
       <path id="DejaVuSans-64" d="M 2906 2969 
L 2906 4863 
L 3481 4863 
L 3481 0 
L 2906 0 
L 2906 525 
Q 2725 213 2448 61 
Q 2172 -91 1784 -91 
Q 1150 -91 751 415 
Q 353 922 353 1747 
Q 353 2572 751 3078 
Q 1150 3584 1784 3584 
Q 2172 3584 2448 3432 
Q 2725 3281 2906 2969 
z
M 947 1747 
Q 947 1113 1208 752 
Q 1469 391 1925 391 
Q 2381 391 2643 752 
Q 2906 1113 2906 1747 
Q 2906 2381 2643 2742 
Q 2381 3103 1925 3103 
Q 1469 3103 1208 2742 
Q 947 2381 947 1747 
z
" transform="scale(0.015625)"/>
      </defs>
      <use xlink:href="#DejaVuSans-43"/>
      <use xlink:href="#DejaVuSans-2e" x="69.824219"/>
      <use xlink:href="#DejaVuSans-57" x="101.611328"/>
      <use xlink:href="#DejaVuSans-6f" x="194.613281"/>
      <use xlink:href="#DejaVuSans-6f" x="255.794922"/>
      <use xlink:href="#DejaVuSans-64" x="316.976562"/>
     </g>
    </g>
   </g>
   <g id="text_2">
    <g clip-path="url(#p0302625605)">
     <!-- D.Augustin -->
     <g transform="translate(496.897841 166.059126)scale(0.12 -0.12)">
      <defs>
       <path id="DejaVuSans-44" d="M 1259 4147 
L 1259 519 
L 2022 519 
Q 2988 519 3436 956 
Q 3884 1394 3884 2338 
Q 3884 3275 3436 3711 
Q 2988 4147 2022 4147 
L 1259 4147 
z
M 628 4666 
L 1925 4666 
Q 3281 4666 3915 4102 
Q 4550 3538 4550 2338 
Q 4550 1131 3912 565 
Q 3275 0 1925 0 
L 628 0 
L 628 4666 
z
" transform="scale(0.015625)"/>
       <path id="DejaVuSans-41" d="M 2188 4044 
L 1331 1722 
L 3047 1722 
L 2188 4044 
z
M 1831 4666 
L 2547 4666 
L 4325 0 
L 3669 0 
L 3244 1197 
L 1141 1197 
L 716 0 
L 50 0 
L 1831 4666 
z
" transform="scale(0.015625)"/>
       <path id="DejaVuSans-75" d="M 544 1381 
L 544 3500 
L 1119 3500 
L 1119 1403 
Q 1119 906 1312 657 
Q 1506 409 1894 409 
Q 2359 409 2629 706 
Q 2900 1003 2900 1516 
L 2900 3500 
L 3475 3500 
L 3475 0 
L 2900 0 
L 2900 538 
Q 2691 219 2414 64 
Q 2138 -91 1772 -91 
Q 1169 -91 856 284 
Q 544 659 544 1381 
z
M 1991 3584 
L 1991 3584 
z
" transform="scale(0.015625)"/>
       <path id="DejaVuSans-67" d="M 2906 1791 
Q 2906 2416 2648 2759 
Q 2391 3103 1925 3103 
Q 1463 3103 1205 2759 
Q 947 2416 947 1791 
Q 947 1169 1205 825 
Q 1463 481 1925 481 
Q 2391 481 2648 825 
Q 2906 1169 2906 1791 
z
M 3481 434 
Q 3481 -459 3084 -895 
Q 2688 -1331 1869 -1331 
Q 1566 -1331 1297 -1286 
Q 1028 -1241 775 -1147 
L 775 -588 
Q 1028 -725 1275 -790 
Q 1522 -856 1778 -856 
Q 2344 -856 2625 -561 
Q 2906 -266 2906 331 
L 2906 616 
Q 2728 306 2450 153 
Q 2172 0 1784 0 
Q 1141 0 747 490 
Q 353 981 353 1791 
Q 353 2603 747 3093 
Q 1141 3584 1784 3584 
Q 2172 3584 2450 3431 
Q 2728 3278 2906 2969 
L 2906 3500 
L 3481 3500 
L 3481 434 
z
" transform="scale(0.015625)"/>
       <path id="DejaVuSans-73" d="M 2834 3397 
L 2834 2853 
Q 2591 2978 2328 3040 
Q 2066 3103 1784 3103 
Q 1356 3103 1142 2972 
Q 928 2841 928 2578 
Q 928 2378 1081 2264 
Q 1234 2150 1697 2047 
L 1894 2003 
Q 2506 1872 2764 1633 
Q 3022 1394 3022 966 
Q 3022 478 2636 193 
Q 2250 -91 1575 -91 
Q 1294 -91 989 -36 
Q 684 19 347 128 
L 347 722 
Q 666 556 975 473 
Q 1284 391 1588 391 
Q 1994 391 2212 530 
Q 2431 669 2431 922 
Q 2431 1156 2273 1281 
Q 2116 1406 1581 1522 
L 1381 1569 
Q 847 1681 609 1914 
Q 372 2147 372 2553 
Q 372 3047 722 3315 
Q 1072 3584 1716 3584 
Q 2034 3584 2315 3537 
Q 2597 3491 2834 3397 
z
" transform="scale(0.015625)"/>
       <path id="DejaVuSans-74" d="M 1172 4494 
L 1172 3500 
L 2356 3500 
L 2356 3053 
L 1172 3053 
L 1172 1153 
Q 1172 725 1289 603 
Q 1406 481 1766 481 
L 2356 481 
L 2356 0 
L 1766 0 
Q 1100 0 847 248 
Q 594 497 594 1153 
L 594 3053 
L 172 3053 
L 172 3500 
L 594 3500 
L 594 4494 
L 1172 4494 
z
" transform="scale(0.015625)"/>
       <path id="DejaVuSans-69" d="M 603 3500 
L 1178 3500 
L 1178 0 
L 603 0 
L 603 3500 
z
M 603 4863 
L 1178 4863 
L 1178 4134 
L 603 4134 
L 603 4863 
z
" transform="scale(0.015625)"/>
       <path id="DejaVuSans-6e" d="M 3513 2113 
L 3513 0 
L 2938 0 
L 2938 2094 
Q 2938 2591 2744 2837 
Q 2550 3084 2163 3084 
Q 1697 3084 1428 2787 
Q 1159 2491 1159 1978 
L 1159 0 
L 581 0 
L 581 3500 
L 1159 3500 
L 1159 2956 
Q 1366 3272 1645 3428 
Q 1925 3584 2291 3584 
Q 2894 3584 3203 3211 
Q 3513 2838 3513 2113 
z
" transform="scale(0.015625)"/>
      </defs>
      <use xlink:href="#DejaVuSans-44"/>
      <use xlink:href="#DejaVuSans-2e" x="77.001953"/>
      <use xlink:href="#DejaVuSans-41" x="108.789062"/>
      <use xlink:href="#DejaVuSans-75" x="177.197266"/>
      <use xlink:href="#DejaVuSans-67" x="240.576172"/>
      <use xlink:href="#DejaVuSans-75" x="304.052734"/>
      <use xlink:href="#DejaVuSans-73" x="367.431641"/>
      <use xlink:href="#DejaVuSans-74" x="419.53125"/>
      <use xlink:href="#DejaVuSans-69" x="458.740234"/>
      <use xlink:href="#DejaVuSans-6e" x="486.523438"/>
     </g>
    </g>
   </g>
   <g id="text_3">
    <g clip-path="url(#p0302625605)">
     <!-- D.House Jr. -->
     <g transform="translate(409.937116 78.93902)scale(0.12 -0.12)">
      <defs>
       <path id="DejaVuSans-48" d="M 628 4666 
L 1259 4666 
L 1259 2753 
L 3553 2753 
L 3553 4666 
L 4184 4666 
L 4184 0 
L 3553 0 
L 3553 2222 
L 1259 2222 
L 1259 0 
L 628 0 
L 628 4666 
z
" transform="scale(0.015625)"/>
       <path id="DejaVuSans-65" d="M 3597 1894 
L 3597 1613 
L 953 1613 
Q 991 1019 1311 708 
Q 1631 397 2203 397 
Q 2534 397 2845 478 
Q 3156 559 3463 722 
L 3463 178 
Q 3153 47 2828 -22 
Q 2503 -91 2169 -91 
Q 1331 -91 842 396 
Q 353 884 353 1716 
Q 353 2575 817 3079 
Q 1281 3584 2069 3584 
Q 2775 3584 3186 3129 
Q 3597 2675 3597 1894 
z
M 3022 2063 
Q 3016 2534 2758 2815 
Q 2500 3097 2075 3097 
Q 1594 3097 1305 2825 
Q 1016 2553 972 2059 
L 3022 2063 
z
" transform="scale(0.015625)"/>
       <path id="DejaVuSans-20" transform="scale(0.015625)"/>
       <path id="DejaVuSans-4a" d="M 628 4666 
L 1259 4666 
L 1259 325 
Q 1259 -519 939 -900 
Q 619 -1281 -91 -1281 
L -331 -1281 
L -331 -750 
L -134 -750 
Q 284 -750 456 -515 
Q 628 -281 628 325 
L 628 4666 
z
" transform="scale(0.015625)"/>
       <path id="DejaVuSans-72" d="M 2631 2963 
Q 2534 3019 2420 3045 
Q 2306 3072 2169 3072 
Q 1681 3072 1420 2755 
Q 1159 2438 1159 1844 
L 1159 0 
L 581 0 
L 581 3500 
L 1159 3500 
L 1159 2956 
Q 1341 3275 1631 3429 
Q 1922 3584 2338 3584 
Q 2397 3584 2469 3576 
Q 2541 3569 2628 3553 
L 2631 2963 
z
" transform="scale(0.015625)"/>
      </defs>
      <use xlink:href="#DejaVuSans-44"/>
      <use xlink:href="#DejaVuSans-2e" x="77.001953"/>
      <use xlink:href="#DejaVuSans-48" x="108.789062"/>
      <use xlink:href="#DejaVuSans-6f" x="183.984375"/>
      <use xlink:href="#DejaVuSans-75" x="245.166016"/>
      <use xlink:href="#DejaVuSans-73" x="308.544922"/>
      <use xlink:href="#DejaVuSans-65" x="360.644531"/>
      <use xlink:href="#DejaVuSans-20" x="422.167969"/>
      <use xlink:href="#DejaVuSans-4a" x="453.955078"/>
      <use xlink:href="#DejaVuSans-72" x="483.447266"/>
      <use xlink:href="#DejaVuSans-2e" x="515.435547"/>
     </g>
    </g>
   </g>
   <g id="text_4">
    <g clip-path="url(#p0302625605)">
     <!-- D.Cousins -->
     <g transform="translate(236.727068 47.050862)scale(0.12 -0.12)">
      <use xlink:href="#DejaVuSans-44"/>
      <use xlink:href="#DejaVuSans-2e" x="77.001953"/>
      <use xlink:href="#DejaVuSans-43" x="108.789062"/>
      <use xlink:href="#DejaVuSans-6f" x="178.613281"/>
      <use xlink:href="#DejaVuSans-75" x="239.794922"/>
      <use xlink:href="#DejaVuSans-73" x="303.173828"/>
      <use xlink:href="#DejaVuSans-69" x="355.273438"/>
      <use xlink:href="#DejaVuSans-6e" x="383.056641"/>
      <use xlink:href="#DejaVuSans-73" x="446.435547"/>
     </g>
    </g>
   </g>
   <g id="text_5">
    <g clip-path="url(#p0302625605)">
     <!-- E.Gordon -->
     <g transform="translate(119.966925 78.939034)scale(0.12 -0.12)">
      <defs>
       <path id="DejaVuSans-45" d="M 628 4666 
L 3578 4666 
L 3578 4134 
L 1259 4134 
L 1259 2753 
L 3481 2753 
L 3481 2222 
L 1259 2222 
L 1259 531 
L 3634 531 
L 3634 0 
L 628 0 
L 628 4666 
z
" transform="scale(0.015625)"/>
       <path id="DejaVuSans-47" d="M 3809 666 
L 3809 1919 
L 2778 1919 
L 2778 2438 
L 4434 2438 
L 4434 434 
Q 4069 175 3628 42 
Q 3188 -91 2688 -91 
Q 1594 -91 976 548 
Q 359 1188 359 2328 
Q 359 3472 976 4111 
Q 1594 4750 2688 4750 
Q 3144 4750 3555 4637 
Q 3966 4525 4313 4306 
L 4313 3634 
Q 3963 3931 3569 4081 
Q 3175 4231 2741 4231 
Q 1884 4231 1454 3753 
Q 1025 3275 1025 2328 
Q 1025 1384 1454 906 
Q 1884 428 2741 428 
Q 3075 428 3337 486 
Q 3600 544 3809 666 
z
" transform="scale(0.015625)"/>
      </defs>
      <use xlink:href="#DejaVuSans-45"/>
      <use xlink:href="#DejaVuSans-2e" x="63.183594"/>
      <use xlink:href="#DejaVuSans-47" x="94.970703"/>
      <use xlink:href="#DejaVuSans-6f" x="172.460938"/>
      <use xlink:href="#DejaVuSans-72" x="233.642578"/>
      <use xlink:href="#DejaVuSans-64" x="273.005859"/>
      <use xlink:href="#DejaVuSans-6f" x="336.482422"/>
      <use xlink:href="#DejaVuSans-6e" x="397.664062"/>
     </g>
    </g>
   </g>
   <g id="text_6">
    <g clip-path="url(#p0302625605)">
     <!-- J.Tate -->
     <g transform="translate(44.437159 166.059112)scale(0.12 -0.12)">
      <defs>
       <path id="DejaVuSans-54" d="M -19 4666 
L 3928 4666 
L 3928 4134 
L 2272 4134 
L 2272 0 
L 1638 0 
L 1638 4134 
L -19 4134 
L -19 4666 
z
" transform="scale(0.015625)"/>
       <path id="DejaVuSans-61" d="M 2194 1759 
Q 1497 1759 1228 1600 
Q 959 1441 959 1056 
Q 959 750 1161 570 
Q 1363 391 1709 391 
Q 2188 391 2477 730 
Q 2766 1069 2766 1631 
L 2766 1759 
L 2194 1759 
z
M 3341 1997 
L 3341 0 
L 2766 0 
L 2766 531 
Q 2569 213 2275 61 
Q 1981 -91 1556 -91 
Q 1019 -91 701 211 
Q 384 513 384 1019 
Q 384 1609 779 1909 
Q 1175 2209 1959 2209 
L 2766 2209 
L 2766 2266 
Q 2766 2663 2505 2880 
Q 2244 3097 1772 3097 
Q 1472 3097 1187 3025 
Q 903 2953 641 2809 
L 641 3341 
Q 956 3463 1253 3523 
Q 1550 3584 1831 3584 
Q 2591 3584 2966 3190 
Q 3341 2797 3341 1997 
z
" transform="scale(0.015625)"/>
      </defs>
      <use xlink:href="#DejaVuSans-4a"/>
      <use xlink:href="#DejaVuSans-2e" x="29.492188"/>
      <use xlink:href="#DejaVuSans-54" x="61.279297"/>
      <use xlink:href="#DejaVuSans-61" x="105.863281"/>
      <use xlink:href="#DejaVuSans-74" x="167.142578"/>
      <use xlink:href="#DejaVuSans-65" x="206.351562"/>
     </g>
    </g>
   </g>
   <g id="text_7">
    <g clip-path="url(#p0302625605)">
     <!-- J.Harden -->
     <g transform="translate(3.09055 342.19138)scale(0.12 -0.12)">
      <use xlink:href="#DejaVuSans-4a"/>
      <use xlink:href="#DejaVuSans-2e" x="29.492188"/>
      <use xlink:href="#DejaVuSans-48" x="61.279297"/>
      <use xlink:href="#DejaVuSans-61" x="136.474609"/>
      <use xlink:href="#DejaVuSans-72" x="197.753906"/>
      <use xlink:href="#DejaVuSans-64" x="237.117188"/>
      <use xlink:href="#DejaVuSans-65" x="300.59375"/>
      <use xlink:href="#DejaVuSans-6e" x="362.117188"/>
     </g>
    </g>
   </g>
   <g id="text_8">
    <g clip-path="url(#p0302625605)">
     <!-- J.Wall -->
     <g transform="translate(44.272145 461.199616)scale(0.12 -0.12)">
      <defs>
       <path id="DejaVuSans-6c" d="M 603 4863 
L 1178 4863 
L 1178 0 
L 603 0 
L 603 4863 
z
" transform="scale(0.015625)"/>
      </defs>
      <use xlink:href="#DejaVuSans-4a"/>
      <use xlink:href="#DejaVuSans-2e" x="29.492188"/>
      <use xlink:href="#DejaVuSans-57" x="61.279297"/>
      <use xlink:href="#DejaVuSans-61" x="153.78125"/>
      <use xlink:href="#DejaVuSans-6c" x="215.060547"/>
      <use xlink:href="#DejaVuSans-6c" x="242.84375"/>
     </g>
    </g>
   </g>
   <g id="text_9">
    <g clip-path="url(#p0302625605)">
     <!-- K.Olynyk -->
     <g transform="translate(121.018835 548.31973)scale(0.12 -0.12)">
      <defs>
       <path id="DejaVuSans-4b" d="M 628 4666 
L 1259 4666 
L 1259 2694 
L 3353 4666 
L 4166 4666 
L 1850 2491 
L 4331 0 
L 3500 0 
L 1259 2247 
L 1259 0 
L 628 0 
L 628 4666 
z
" transform="scale(0.015625)"/>
       <path id="DejaVuSans-4f" d="M 2522 4238 
Q 1834 4238 1429 3725 
Q 1025 3213 1025 2328 
Q 1025 1447 1429 934 
Q 1834 422 2522 422 
Q 3209 422 3611 934 
Q 4013 1447 4013 2328 
Q 4013 3213 3611 3725 
Q 3209 4238 2522 4238 
z
M 2522 4750 
Q 3503 4750 4090 4092 
Q 4678 3434 4678 2328 
Q 4678 1225 4090 567 
Q 3503 -91 2522 -91 
Q 1538 -91 948 565 
Q 359 1222 359 2328 
Q 359 3434 948 4092 
Q 1538 4750 2522 4750 
z
" transform="scale(0.015625)"/>
       <path id="DejaVuSans-79" d="M 2059 -325 
Q 1816 -950 1584 -1140 
Q 1353 -1331 966 -1331 
L 506 -1331 
L 506 -850 
L 844 -850 
Q 1081 -850 1212 -737 
Q 1344 -625 1503 -206 
L 1606 56 
L 191 3500 
L 800 3500 
L 1894 763 
L 2988 3500 
L 3597 3500 
L 2059 -325 
z
" transform="scale(0.015625)"/>
       <path id="DejaVuSans-6b" d="M 581 4863 
L 1159 4863 
L 1159 1991 
L 2875 3500 
L 3609 3500 
L 1753 1863 
L 3688 0 
L 2938 0 
L 1159 1709 
L 1159 0 
L 581 0 
L 581 4863 
z
" transform="scale(0.015625)"/>
      </defs>
      <use xlink:href="#DejaVuSans-4b"/>
      <use xlink:href="#DejaVuSans-2e" x="65.576172"/>
      <use xlink:href="#DejaVuSans-4f" x="97.363281"/>
      <use xlink:href="#DejaVuSans-6c" x="176.074219"/>
      <use xlink:href="#DejaVuSans-79" x="203.857422"/>
      <use xlink:href="#DejaVuSans-6e" x="263.037109"/>
      <use xlink:href="#DejaVuSans-79" x="326.416016"/>
      <use xlink:href="#DejaVuSans-6b" x="385.595703"/>
     </g>
    </g>
   </g>
   <g id="text_10">
    <g clip-path="url(#p0302625605)">
     <!-- K.Porter Jr. -->
     <g transform="translate(292.368862 580.207888)scale(0.12 -0.12)">
      <defs>
       <path id="DejaVuSans-50" d="M 1259 4147 
L 1259 2394 
L 2053 2394 
Q 2494 2394 2734 2622 
Q 2975 2850 2975 3272 
Q 2975 3691 2734 3919 
Q 2494 4147 2053 4147 
L 1259 4147 
z
M 628 4666 
L 2053 4666 
Q 2838 4666 3239 4311 
Q 3641 3956 3641 3272 
Q 3641 2581 3239 2228 
Q 2838 1875 2053 1875 
L 1259 1875 
L 1259 0 
L 628 0 
L 628 4666 
z
" transform="scale(0.015625)"/>
      </defs>
      <use xlink:href="#DejaVuSans-4b"/>
      <use xlink:href="#DejaVuSans-2e" x="65.576172"/>
      <use xlink:href="#DejaVuSans-50" x="97.363281"/>
      <use xlink:href="#DejaVuSans-6f" x="154.041016"/>
      <use xlink:href="#DejaVuSans-72" x="215.222656"/>
      <use xlink:href="#DejaVuSans-74" x="256.335938"/>
      <use xlink:href="#DejaVuSans-65" x="295.544922"/>
      <use xlink:href="#DejaVuSans-72" x="357.068359"/>
      <use xlink:href="#DejaVuSans-20" x="398.181641"/>
      <use xlink:href="#DejaVuSans-4a" x="429.96875"/>
      <use xlink:href="#DejaVuSans-72" x="459.460938"/>
      <use xlink:href="#DejaVuSans-2e" x="491.449219"/>
     </g>
    </g>
   </g>
   <g id="text_11">
    <g clip-path="url(#p0302625605)">
     <!-- S.Brown -->
     <g transform="translate(418.22554 548.31973)scale(0.12 -0.12)">
      <defs>
       <path id="DejaVuSans-53" d="M 3425 4513 
L 3425 3897 
Q 3066 4069 2747 4153 
Q 2428 4238 2131 4238 
Q 1616 4238 1336 4038 
Q 1056 3838 1056 3469 
Q 1056 3159 1242 3001 
Q 1428 2844 1947 2747 
L 2328 2669 
Q 3034 2534 3370 2195 
Q 3706 1856 3706 1288 
Q 3706 609 3251 259 
Q 2797 -91 1919 -91 
Q 1588 -91 1214 -16 
Q 841 59 441 206 
L 441 856 
Q 825 641 1194 531 
Q 1563 422 1919 422 
Q 2459 422 2753 634 
Q 3047 847 3047 1241 
Q 3047 1584 2836 1778 
Q 2625 1972 2144 2069 
L 1759 2144 
Q 1053 2284 737 2584 
Q 422 2884 422 3419 
Q 422 4038 858 4394 
Q 1294 4750 2059 4750 
Q 2388 4750 2728 4690 
Q 3069 4631 3425 4513 
z
" transform="scale(0.015625)"/>
       <path id="DejaVuSans-42" d="M 1259 2228 
L 1259 519 
L 2272 519 
Q 2781 519 3026 730 
Q 3272 941 3272 1375 
Q 3272 1813 3026 2020 
Q 2781 2228 2272 2228 
L 1259 2228 
z
M 1259 4147 
L 1259 2741 
L 2194 2741 
Q 2656 2741 2882 2914 
Q 3109 3088 3109 3444 
Q 3109 3797 2882 3972 
Q 2656 4147 2194 4147 
L 1259 4147 
z
M 628 4666 
L 2241 4666 
Q 2963 4666 3353 4366 
Q 3744 4066 3744 3513 
Q 3744 3084 3544 2831 
Q 3344 2578 2956 2516 
Q 3422 2416 3680 2098 
Q 3938 1781 3938 1306 
Q 3938 681 3513 340 
Q 3088 0 2303 0 
L 628 0 
L 628 4666 
z
" transform="scale(0.015625)"/>
       <path id="DejaVuSans-77" d="M 269 3500 
L 844 3500 
L 1563 769 
L 2278 3500 
L 2956 3500 
L 3675 769 
L 4391 3500 
L 4966 3500 
L 4050 0 
L 3372 0 
L 2619 2869 
L 1863 0 
L 1184 0 
L 269 3500 
z
" transform="scale(0.015625)"/>
      </defs>
      <use xlink:href="#DejaVuSans-53"/>
      <use xlink:href="#DejaVuSans-2e" x="63.476562"/>
      <use xlink:href="#DejaVuSans-42" x="95.263672"/>
      <use xlink:href="#DejaVuSans-72" x="163.867188"/>
      <use xlink:href="#DejaVuSans-6f" x="202.730469"/>
      <use xlink:href="#DejaVuSans-77" x="263.912109"/>
      <use xlink:href="#DejaVuSans-6e" x="345.699219"/>
     </g>
    </g>
   </g>
   <g id="text_12">
    <g clip-path="url(#p0302625605)">
     <!-- V.Oladipo -->
     <g transform="translate(501.628452 461.199666)scale(0.12 -0.12)">
      <defs>
       <path id="DejaVuSans-56" d="M 1831 0 
L 50 4666 
L 709 4666 
L 2188 738 
L 3669 4666 
L 4325 4666 
L 2547 0 
L 1831 0 
z
" transform="scale(0.015625)"/>
       <path id="DejaVuSans-70" d="M 1159 525 
L 1159 -1331 
L 581 -1331 
L 581 3500 
L 1159 3500 
L 1159 2969 
Q 1341 3281 1617 3432 
Q 1894 3584 2278 3584 
Q 2916 3584 3314 3078 
Q 3713 2572 3713 1747 
Q 3713 922 3314 415 
Q 2916 -91 2278 -91 
Q 1894 -91 1617 61 
Q 1341 213 1159 525 
z
M 3116 1747 
Q 3116 2381 2855 2742 
Q 2594 3103 2138 3103 
Q 1681 3103 1420 2742 
Q 1159 2381 1159 1747 
Q 1159 1113 1420 752 
Q 1681 391 2138 391 
Q 2594 391 2855 752 
Q 3116 1113 3116 1747 
z
" transform="scale(0.015625)"/>
      </defs>
      <use xlink:href="#DejaVuSans-56"/>
      <use xlink:href="#DejaVuSans-2e" x="55.533203"/>
      <use xlink:href="#DejaVuSans-4f" x="87.320312"/>
      <use xlink:href="#DejaVuSans-6c" x="166.03125"/>
      <use xlink:href="#DejaVuSans-61" x="193.814453"/>
      <use xlink:href="#DejaVuSans-64" x="255.09375"/>
      <use xlink:href="#DejaVuSans-69" x="318.570312"/>
      <use xlink:href="#DejaVuSans-70" x="346.353516"/>
      <use xlink:href="#DejaVuSans-6f" x="409.830078"/>
     </g>
    </g>
   </g>
   <g id="text_13">
    <!-- 2020-21 Houston Rockets Assist Network -->
    <g transform="translate(171.717187 16.318125)scale(0.12 -0.12)">
     <defs>
      <path id="DejaVuSans-32" d="M 1228 531 
L 3431 531 
L 3431 0 
L 469 0 
L 469 531 
Q 828 903 1448 1529 
Q 2069 2156 2228 2338 
Q 2531 2678 2651 2914 
Q 2772 3150 2772 3378 
Q 2772 3750 2511 3984 
Q 2250 4219 1831 4219 
Q 1534 4219 1204 4116 
Q 875 4013 500 3803 
L 500 4441 
Q 881 4594 1212 4672 
Q 1544 4750 1819 4750 
Q 2544 4750 2975 4387 
Q 3406 4025 3406 3419 
Q 3406 3131 3298 2873 
Q 3191 2616 2906 2266 
Q 2828 2175 2409 1742 
Q 1991 1309 1228 531 
z
" transform="scale(0.015625)"/>
      <path id="DejaVuSans-30" d="M 2034 4250 
Q 1547 4250 1301 3770 
Q 1056 3291 1056 2328 
Q 1056 1369 1301 889 
Q 1547 409 2034 409 
Q 2525 409 2770 889 
Q 3016 1369 3016 2328 
Q 3016 3291 2770 3770 
Q 2525 4250 2034 4250 
z
M 2034 4750 
Q 2819 4750 3233 4129 
Q 3647 3509 3647 2328 
Q 3647 1150 3233 529 
Q 2819 -91 2034 -91 
Q 1250 -91 836 529 
Q 422 1150 422 2328 
Q 422 3509 836 4129 
Q 1250 4750 2034 4750 
z
" transform="scale(0.015625)"/>
      <path id="DejaVuSans-2d" d="M 313 2009 
L 1997 2009 
L 1997 1497 
L 313 1497 
L 313 2009 
z
" transform="scale(0.015625)"/>
      <path id="DejaVuSans-31" d="M 794 531 
L 1825 531 
L 1825 4091 
L 703 3866 
L 703 4441 
L 1819 4666 
L 2450 4666 
L 2450 531 
L 3481 531 
L 3481 0 
L 794 0 
L 794 531 
z
" transform="scale(0.015625)"/>
      <path id="DejaVuSans-52" d="M 2841 2188 
Q 3044 2119 3236 1894 
Q 3428 1669 3622 1275 
L 4263 0 
L 3584 0 
L 2988 1197 
Q 2756 1666 2539 1819 
Q 2322 1972 1947 1972 
L 1259 1972 
L 1259 0 
L 628 0 
L 628 4666 
L 2053 4666 
Q 2853 4666 3247 4331 
Q 3641 3997 3641 3322 
Q 3641 2881 3436 2590 
Q 3231 2300 2841 2188 
z
M 1259 4147 
L 1259 2491 
L 2053 2491 
Q 2509 2491 2742 2702 
Q 2975 2913 2975 3322 
Q 2975 3731 2742 3939 
Q 2509 4147 2053 4147 
L 1259 4147 
z
" transform="scale(0.015625)"/>
      <path id="DejaVuSans-63" d="M 3122 3366 
L 3122 2828 
Q 2878 2963 2633 3030 
Q 2388 3097 2138 3097 
Q 1578 3097 1268 2742 
Q 959 2388 959 1747 
Q 959 1106 1268 751 
Q 1578 397 2138 397 
Q 2388 397 2633 464 
Q 2878 531 3122 666 
L 3122 134 
Q 2881 22 2623 -34 
Q 2366 -91 2075 -91 
Q 1284 -91 818 406 
Q 353 903 353 1747 
Q 353 2603 823 3093 
Q 1294 3584 2113 3584 
Q 2378 3584 2631 3529 
Q 2884 3475 3122 3366 
z
" transform="scale(0.015625)"/>
      <path id="DejaVuSans-4e" d="M 628 4666 
L 1478 4666 
L 3547 763 
L 3547 4666 
L 4159 4666 
L 4159 0 
L 3309 0 
L 1241 3903 
L 1241 0 
L 628 0 
L 628 4666 
z
" transform="scale(0.015625)"/>
     </defs>
     <use xlink:href="#DejaVuSans-32"/>
     <use xlink:href="#DejaVuSans-30" x="63.623047"/>
     <use xlink:href="#DejaVuSans-32" x="127.246094"/>
     <use xlink:href="#DejaVuSans-30" x="190.869141"/>
     <use xlink:href="#DejaVuSans-2d" x="254.492188"/>
     <use xlink:href="#DejaVuSans-32" x="290.576172"/>
     <use xlink:href="#DejaVuSans-31" x="354.199219"/>
     <use xlink:href="#DejaVuSans-20" x="417.822266"/>
     <use xlink:href="#DejaVuSans-48" x="449.609375"/>
     <use xlink:href="#DejaVuSans-6f" x="524.804688"/>
     <use xlink:href="#DejaVuSans-75" x="585.986328"/>
     <use xlink:href="#DejaVuSans-73" x="649.365234"/>
     <use xlink:href="#DejaVuSans-74" x="701.464844"/>
     <use xlink:href="#DejaVuSans-6f" x="740.673828"/>
     <use xlink:href="#DejaVuSans-6e" x="801.855469"/>
     <use xlink:href="#DejaVuSans-20" x="865.234375"/>
     <use xlink:href="#DejaVuSans-52" x="897.021484"/>
     <use xlink:href="#DejaVuSans-6f" x="962.003906"/>
     <use xlink:href="#DejaVuSans-63" x="1023.185547"/>
     <use xlink:href="#DejaVuSans-6b" x="1078.166016"/>
     <use xlink:href="#DejaVuSans-65" x="1132.451172"/>
     <use xlink:href="#DejaVuSans-74" x="1193.974609"/>
     <use xlink:href="#DejaVuSans-73" x="1233.183594"/>
     <use xlink:href="#DejaVuSans-20" x="1285.283203"/>
     <use xlink:href="#DejaVuSans-41" x="1317.070312"/>
     <use xlink:href="#DejaVuSans-73" x="1385.478516"/>
     <use xlink:href="#DejaVuSans-73" x="1437.578125"/>
     <use xlink:href="#DejaVuSans-69" x="1489.677734"/>
     <use xlink:href="#DejaVuSans-73" x="1517.460938"/>
     <use xlink:href="#DejaVuSans-74" x="1569.560547"/>
     <use xlink:href="#DejaVuSans-20" x="1608.769531"/>
     <use xlink:href="#DejaVuSans-4e" x="1640.556641"/>
     <use xlink:href="#DejaVuSans-65" x="1715.361328"/>
     <use xlink:href="#DejaVuSans-74" x="1776.884766"/>
     <use xlink:href="#DejaVuSans-77" x="1816.09375"/>
     <use xlink:href="#DejaVuSans-6f" x="1897.880859"/>
     <use xlink:href="#DejaVuSans-72" x="1959.0625"/>
     <use xlink:href="#DejaVuSans-6b" x="2000.175781"/>
    </g>
   </g>
  </g>
 </g>
 <defs>
  <clipPath id="p0302625605">
   <rect x="7.2" y="22.318125" width="576" height="576"/>
  </clipPath>
 </defs>
</svg>
