<?xml version="1.0" encoding="utf-8" standalone="no"?>
<!DOCTYPE svg PUBLIC "-//W3C//DTD SVG 1.1//EN"
  "http://www.w3.org/Graphics/SVG/1.1/DTD/svg11.dtd">
<svg xmlns:xlink="http://www.w3.org/1999/xlink" width="590.4pt" height="605.518125pt" viewBox="0 0 590.4 605.518125" xmlns="http://www.w3.org/2000/svg" version="1.1">
 <metadata>
  <rdf:RDF xmlns:dc="http://purl.org/dc/elements/1.1/" xmlns:cc="http://creativecommons.org/ns#" xmlns:rdf="http://www.w3.org/1999/02/22-rdf-syntax-ns#">
   <cc:Work>
    <dc:type rdf:resource="http://purl.org/dc/dcmitype/StillImage"/>
    <dc:date>2023-04-12T08:25:40.540625</dc:date>
    <dc:format>image/svg+xml</dc:format>
    <dc:creator>
     <cc:Agent>
      <dc:title>Matplotlib v3.5.2, https://matplotlib.org/</dc:title>
     </cc:Agent>
    </dc:creator>
   </cc:Work>
  </rdf:RDF>
 </metadata>
 <defs>
  <style type="text/css">*{stroke-linejoin: round; stroke-linecap: butt}</style>
 </defs>
 <g id="figure_1">
  <g id="patch_1">
   <path d="M 0 605.518125 
L 590.4 605.518125 
L 590.4 0 
L 0 0 
z
" style="fill: #ffffff"/>
  </g>
  <g id="axes_1">
   <g id="LineCollection_1">
    <path d="M 533.216529 310.318125 
L 494.651158 180.313424 
" clip-path="url(#p3faff3d185)" style="fill: none; stroke: #f8f8f8; stroke-width: 2"/>
    <path d="M 533.216529 310.318125 
L 391.199308 91.584285 
" clip-path="url(#p3faff3d185)" style="fill: none; stroke: #d9d9d9; stroke-width: 2"/>
    <path d="M 533.216529 310.318125 
L 255.706158 72.301596 
" clip-path="url(#p3faff3d185)" style="fill: none; stroke: #000000; stroke-width: 2"/>
    <path d="M 533.216529 310.318125 
L 131.189885 128.587461 
" clip-path="url(#p3faff3d185)" style="fill: none; stroke: #e8e8e8; stroke-width: 2"/>
    <path d="M 533.216529 310.318125 
L 131.18987 492.048775 
" clip-path="url(#p3faff3d185)" style="fill: none; stroke: #bcbcbc; stroke-width: 2"/>
    <path d="M 533.216529 310.318125 
L 255.706114 548.334654 
" clip-path="url(#p3faff3d185)" style="fill: none; stroke: #f1f1f1; stroke-width: 2"/>
    <path d="M 533.216529 310.318125 
L 391.199315 529.051965 
" clip-path="url(#p3faff3d185)" style="fill: none; stroke: #f4f4f4; stroke-width: 2"/>
    <path d="M 533.216529 310.318125 
L 494.651144 440.322855 
" clip-path="url(#p3faff3d185)" style="fill: none; stroke: #e1e1e1; stroke-width: 2"/>
    <path d="M 494.651158 180.313424 
L 391.199308 91.584285 
" clip-path="url(#p3faff3d185)" style="fill: none; stroke: #e1e1e1; stroke-width: 2"/>
    <path d="M 494.651158 180.313424 
L 255.706158 72.301596 
" clip-path="url(#p3faff3d185)" style="fill: none; stroke: #e2e2e2; stroke-width: 2"/>
    <path d="M 494.651158 180.313424 
L 57.183471 242.571549 
" clip-path="url(#p3faff3d185)" style="fill: none; stroke: #f0f0f0; stroke-width: 2"/>
    <path d="M 494.651158 180.313424 
L 57.183471 378.064694 
" clip-path="url(#p3faff3d185)" style="fill: none; stroke: #f5f5f5; stroke-width: 2"/>
    <path d="M 494.651158 180.313424 
L 131.18987 492.048775 
" clip-path="url(#p3faff3d185)" style="fill: none; stroke: #e8e8e8; stroke-width: 2"/>
    <path d="M 494.651158 180.313424 
L 255.706114 548.334654 
" clip-path="url(#p3faff3d185)" style="fill: none; stroke: #fefefe; stroke-width: 2"/>
    <path d="M 494.651158 180.313424 
L 391.199315 529.051965 
" clip-path="url(#p3faff3d185)" style="fill: none; stroke: #e6e6e6; stroke-width: 2"/>
    <path d="M 494.651158 180.313424 
L 494.651144 440.322855 
" clip-path="url(#p3faff3d185)" style="fill: none; stroke: #f4f4f4; stroke-width: 2"/>
    <path d="M 391.199308 91.584285 
L 255.706158 72.301596 
" clip-path="url(#p3faff3d185)" style="fill: none; stroke: #676767; stroke-width: 2"/>
    <path d="M 391.199308 91.584285 
L 131.189885 128.587461 
" clip-path="url(#p3faff3d185)" style="fill: none; stroke: #f5f5f5; stroke-width: 2"/>
    <path d="M 391.199308 91.584285 
L 57.183471 242.571549 
" clip-path="url(#p3faff3d185)" style="fill: none; stroke: #dddddd; stroke-width: 2"/>
    <path d="M 391.199308 91.584285 
L 57.183471 378.064694 
" clip-path="url(#p3faff3d185)" style="fill: none; stroke: #cdcdcd; stroke-width: 2"/>
    <path d="M 391.199308 91.584285 
L 131.18987 492.048775 
" clip-path="url(#p3faff3d185)" style="fill: none; stroke: #999999; stroke-width: 2"/>
    <path d="M 391.199308 91.584285 
L 255.706114 548.334654 
" clip-path="url(#p3faff3d185)" style="fill: none; stroke: #dadada; stroke-width: 2"/>
    <path d="M 391.199308 91.584285 
L 391.199315 529.051965 
" clip-path="url(#p3faff3d185)" style="fill: none; stroke: #c4c4c4; stroke-width: 2"/>
    <path d="M 391.199308 91.584285 
L 494.651144 440.322855 
" clip-path="url(#p3faff3d185)" style="fill: none; stroke: #bbbbbb; stroke-width: 2"/>
    <path d="M 255.706158 72.301596 
L 131.189885 128.587461 
" clip-path="url(#p3faff3d185)" style="fill: none; stroke: #e9e9e9; stroke-width: 2"/>
    <path d="M 255.706158 72.301596 
L 57.183471 242.571549 
" clip-path="url(#p3faff3d185)" style="fill: none; stroke: #848484; stroke-width: 2"/>
    <path d="M 255.706158 72.301596 
L 57.183471 378.064694 
" clip-path="url(#p3faff3d185)" style="fill: none; stroke: #626262; stroke-width: 2"/>
    <path d="M 255.706158 72.301596 
L 131.18987 492.048775 
" clip-path="url(#p3faff3d185)" style="fill: none; stroke: #bfbfbf; stroke-width: 2"/>
    <path d="M 255.706158 72.301596 
L 255.706114 548.334654 
" clip-path="url(#p3faff3d185)" style="fill: none; stroke: #292929; stroke-width: 2"/>
    <path d="M 255.706158 72.301596 
L 391.199315 529.051965 
" clip-path="url(#p3faff3d185)" style="fill: none; stroke: #c6c6c6; stroke-width: 2"/>
    <path d="M 255.706158 72.301596 
L 494.651144 440.322855 
" clip-path="url(#p3faff3d185)" style="fill: none; stroke: #1d1d1d; stroke-width: 2"/>
    <path d="M 131.189885 128.587461 
L 57.183471 242.571549 
" clip-path="url(#p3faff3d185)" style="fill: none; stroke: #f2f2f2; stroke-width: 2"/>
    <path d="M 131.189885 128.587461 
L 57.183471 378.064694 
" clip-path="url(#p3faff3d185)" style="fill: none; stroke: #ececec; stroke-width: 2"/>
    <path d="M 131.189885 128.587461 
L 131.18987 492.048775 
" clip-path="url(#p3faff3d185)" style="fill: none; stroke: #f0f0f0; stroke-width: 2"/>
    <path d="M 131.189885 128.587461 
L 255.706114 548.334654 
" clip-path="url(#p3faff3d185)" style="fill: none; stroke: #ffffff; stroke-width: 2"/>
    <path d="M 131.189885 128.587461 
L 391.199315 529.051965 
" clip-path="url(#p3faff3d185)" style="fill: none; stroke: #f8f8f8; stroke-width: 2"/>
    <path d="M 131.189885 128.587461 
L 494.651144 440.322855 
" clip-path="url(#p3faff3d185)" style="fill: none; stroke: #fcfcfc; stroke-width: 2"/>
    <path d="M 57.183471 242.571549 
L 131.18987 492.048775 
" clip-path="url(#p3faff3d185)" style="fill: none; stroke: #d4d4d4; stroke-width: 2"/>
    <path d="M 57.183471 242.571549 
L 255.706114 548.334654 
" clip-path="url(#p3faff3d185)" style="fill: none; stroke: #f8f8f8; stroke-width: 2"/>
    <path d="M 57.183471 242.571549 
L 391.199315 529.051965 
" clip-path="url(#p3faff3d185)" style="fill: none; stroke: #f5f5f5; stroke-width: 2"/>
    <path d="M 57.183471 242.571549 
L 494.651144 440.322855 
" clip-path="url(#p3faff3d185)" style="fill: none; stroke: #dedede; stroke-width: 2"/>
    <path d="M 57.183471 378.064694 
L 131.18987 492.048775 
" clip-path="url(#p3faff3d185)" style="fill: none; stroke: #dcdcdc; stroke-width: 2"/>
    <path d="M 57.183471 378.064694 
L 255.706114 548.334654 
" clip-path="url(#p3faff3d185)" style="fill: none; stroke: #fafafa; stroke-width: 2"/>
    <path d="M 57.183471 378.064694 
L 391.199315 529.051965 
" clip-path="url(#p3faff3d185)" style="fill: none; stroke: #ededed; stroke-width: 2"/>
    <path d="M 57.183471 378.064694 
L 494.651144 440.322855 
" clip-path="url(#p3faff3d185)" style="fill: none; stroke: #d1d1d1; stroke-width: 2"/>
    <path d="M 131.18987 492.048775 
L 255.706114 548.334654 
" clip-path="url(#p3faff3d185)" style="fill: none; stroke: #cacaca; stroke-width: 2"/>
    <path d="M 131.18987 492.048775 
L 391.199315 529.051965 
" clip-path="url(#p3faff3d185)" style="fill: none; stroke: #c9c9c9; stroke-width: 2"/>
    <path d="M 131.18987 492.048775 
L 494.651144 440.322855 
" clip-path="url(#p3faff3d185)" style="fill: none; stroke: #c5c5c5; stroke-width: 2"/>
    <path d="M 255.706114 548.334654 
L 391.199315 529.051965 
" clip-path="url(#p3faff3d185)" style="fill: none; stroke: #fafafa; stroke-width: 2"/>
    <path d="M 255.706114 548.334654 
L 494.651144 440.322855 
" clip-path="url(#p3faff3d185)" style="fill: none; stroke: #cccccc; stroke-width: 2"/>
    <path d="M 391.199315 529.051965 
L 494.651144 440.322855 
" clip-path="url(#p3faff3d185)" style="fill: none; stroke: #e4e4e4; stroke-width: 2"/>
   </g>
   <g id="PathCollection_1">
    <path d="M 533.216529 314.158698 
C 534.235061 314.158698 535.212013 313.754031 535.932224 313.03382 
C 536.652435 312.313609 537.057102 311.336657 537.057102 310.318125 
C 537.057102 309.299593 536.652435 308.322641 535.932224 307.60243 
C 535.212013 306.882219 534.235061 306.477552 533.216529 306.477552 
C 532.197997 306.477552 531.221045 306.882219 530.500834 307.60243 
C 529.780623 308.322641 529.375956 309.299593 529.375956 310.318125 
C 529.375956 311.336657 529.780623 312.313609 530.500834 313.03382 
C 531.221045 313.754031 532.197997 314.158698 533.216529 314.158698 
z
" clip-path="url(#p3faff3d185)" style="fill: #ffffff; stroke: #000000; stroke-width: 2"/>
    <path d="M 494.651158 184.186407 
C 495.678286 184.186407 496.663483 183.778325 497.389771 183.052037 
C 498.11606 182.325748 498.524142 181.340551 498.524142 180.313424 
C 498.524142 179.286297 498.11606 178.3011 497.389771 177.574811 
C 496.663483 176.848522 495.678286 176.44044 494.651158 176.44044 
C 493.624031 176.44044 492.638834 176.848522 491.912546 177.574811 
C 491.186257 178.3011 490.778175 179.286297 490.778175 180.313424 
C 490.778175 181.340551 491.186257 182.325748 491.912546 183.052037 
C 492.638834 183.778325 493.624031 184.186407 494.651158 184.186407 
z
" clip-path="url(#p3faff3d185)" style="fill: #ffffff; stroke: #000000; stroke-width: 2"/>
    <path d="M 391.199308 98.329653 
C 392.988201 98.329653 394.704066 97.618919 395.969004 96.353981 
C 397.233942 95.089042 397.944677 93.373177 397.944677 91.584285 
C 397.944677 89.795392 397.233942 88.079527 395.969004 86.814589 
C 394.704066 85.54965 392.988201 84.838916 391.199308 84.838916 
C 389.410415 84.838916 387.69455 85.54965 386.429612 86.814589 
C 385.164674 88.079527 384.453939 89.795392 384.453939 91.584285 
C 384.453939 93.373177 385.164674 95.089042 386.429612 96.353981 
C 387.69455 97.618919 389.410415 98.329653 391.199308 98.329653 
z
" clip-path="url(#p3faff3d185)" style="fill: #ffffff; stroke: #000000; stroke-width: 2"/>
    <path d="M 255.706158 87.108689 
C 259.633045 87.108689 263.399625 85.54852 266.176354 82.771792 
C 268.953082 79.995063 270.513251 76.228483 270.513251 72.301596 
C 270.513251 68.374709 268.953082 64.608129 266.176354 61.8314 
C 263.399625 59.054672 259.633045 57.494503 255.706158 57.494503 
C 251.779271 57.494503 248.01269 59.054672 245.235962 61.8314 
C 242.459234 64.608129 240.899065 68.374709 240.899065 72.301596 
C 240.899065 76.228483 242.459234 79.995063 245.235962 82.771792 
C 248.01269 85.54852 251.779271 87.108689 255.706158 87.108689 
z
" clip-path="url(#p3faff3d185)" style="fill: #ffffff; stroke: #000000; stroke-width: 2"/>
    <path d="M 131.189885 132.193012 
C 132.146088 132.193012 133.063257 131.813108 133.739395 131.13697 
C 134.415532 130.460833 134.795436 129.543664 134.795436 128.587461 
C 134.795436 127.631257 134.415532 126.714089 133.739395 126.037951 
C 133.063257 125.361813 132.146088 124.981909 131.189885 124.981909 
C 130.233681 124.981909 129.316513 125.361813 128.640375 126.037951 
C 127.964237 126.714089 127.584333 127.631257 127.584333 128.587461 
C 127.584333 129.543664 127.964237 130.460833 128.640375 131.13697 
C 129.316513 131.813108 130.233681 132.193012 131.189885 132.193012 
z
" clip-path="url(#p3faff3d185)" style="fill: #ffffff; stroke: #000000; stroke-width: 2"/>
    <path d="M 57.183471 246.279648 
C 58.16687 246.279648 59.110125 245.88894 59.805493 245.193571 
C 60.500862 244.498203 60.89157 243.554949 60.89157 242.571549 
C 60.89157 241.58815 60.500862 240.644895 59.805493 239.949527 
C 59.110125 239.254159 58.16687 238.86345 57.183471 238.86345 
C 56.200072 238.86345 55.256817 239.254159 54.561449 239.949527 
C 53.866081 240.644895 53.475372 241.58815 53.475372 242.571549 
C 53.475372 243.554949 53.866081 244.498203 54.561449 245.193571 
C 55.256817 245.88894 56.200072 246.279648 57.183471 246.279648 
z
" clip-path="url(#p3faff3d185)" style="fill: #ffffff; stroke: #000000; stroke-width: 2"/>
    <path d="M 57.183471 382.064694 
C 58.244283 382.064694 59.261791 381.643229 60.011898 380.893121 
C 60.762006 380.143013 61.183471 379.125506 61.183471 378.064694 
C 61.183471 377.003881 60.762006 375.986374 60.011898 375.236267 
C 59.261791 374.486159 58.244283 374.064694 57.183471 374.064694 
C 56.122659 374.064694 55.105152 374.486159 54.355044 375.236267 
C 53.604936 375.986374 53.183471 377.003881 53.183471 378.064694 
C 53.183471 379.125506 53.604936 380.143013 54.355044 380.893121 
C 55.105152 381.643229 56.122659 382.064694 57.183471 382.064694 
z
" clip-path="url(#p3faff3d185)" style="fill: #ffffff; stroke: #000000; stroke-width: 2"/>
    <path d="M 131.18987 500.355399 
C 133.392813 500.355399 135.505825 499.480161 137.06354 497.922445 
C 138.621256 496.36473 139.496494 494.251717 139.496494 492.048775 
C 139.496494 489.845833 138.621256 487.73282 137.06354 486.175105 
C 135.505825 484.617389 133.392813 483.742151 131.18987 483.742151 
C 128.986928 483.742151 126.873916 484.617389 125.3162 486.175105 
C 123.758485 487.73282 122.883246 489.845833 122.883246 492.048775 
C 122.883246 494.251717 123.758485 496.36473 125.3162 497.922445 
C 126.873916 499.480161 128.986928 500.355399 131.18987 500.355399 
z
" clip-path="url(#p3faff3d185)" style="fill: #ffffff; stroke: #000000; stroke-width: 2"/>
    <path d="M 255.706114 552.45776 
C 256.799575 552.45776 257.848397 552.023323 258.62159 551.25013 
C 259.394784 550.476937 259.82922 549.428114 259.82922 548.334654 
C 259.82922 547.241194 259.394784 546.192371 258.62159 545.419178 
C 257.848397 544.645985 256.799575 544.211548 255.706114 544.211548 
C 254.612654 544.211548 253.563832 544.645985 252.790638 545.419178 
C 252.017445 546.192371 251.583009 547.241194 251.583009 548.334654 
C 251.583009 549.428114 252.017445 550.476937 252.790638 551.25013 
C 253.563832 552.023323 254.612654 552.45776 255.706114 552.45776 
z
" clip-path="url(#p3faff3d185)" style="fill: #ffffff; stroke: #000000; stroke-width: 2"/>
    <path d="M 391.199315 533.113985 
C 392.276575 533.113985 393.309859 532.685985 394.071596 531.924247 
C 394.833334 531.162509 395.261334 530.129225 395.261334 529.051965 
C 395.261334 527.974705 394.833334 526.941422 394.071596 526.179684 
C 393.309859 525.417946 392.276575 524.989946 391.199315 524.989946 
C 390.122055 524.989946 389.088772 525.417946 388.327034 526.179684 
C 387.565296 526.941422 387.137296 527.974705 387.137296 529.051965 
C 387.137296 530.129225 387.565296 531.162509 388.327034 531.924247 
C 389.088772 532.685985 390.122055 533.113985 391.199315 533.113985 
z
" clip-path="url(#p3faff3d185)" style="fill: #ffffff; stroke: #000000; stroke-width: 2"/>
    <path d="M 494.651144 446.918308 
C 496.400279 446.918308 498.078009 446.223369 499.314834 444.986544 
C 500.551658 443.74972 501.246597 442.071989 501.246597 440.322855 
C 501.246597 438.57372 500.551658 436.89599 499.314834 435.659165 
C 498.078009 434.42234 496.400279 433.727402 494.651144 433.727402 
C 492.902009 433.727402 491.224279 434.42234 489.987454 435.659165 
C 488.75063 436.89599 488.055691 438.57372 488.055691 440.322855 
C 488.055691 442.071989 488.75063 443.74972 489.987454 444.986544 
C 491.224279 446.223369 492.902009 446.918308 494.651144 446.918308 
z
" clip-path="url(#p3faff3d185)" style="fill: #ffffff; stroke: #000000; stroke-width: 2"/>
   </g>
   <g id="text_1">
    <g clip-path="url(#p3faff3d185)">
     <!-- C.Capela -->
     <g transform="translate(535.561139 284.773682)scale(0.12 -0.12)">
      <defs>
       <path id="DejaVuSans-43" d="M 4122 4306 
L 4122 3641 
Q 3803 3938 3442 4084 
Q 3081 4231 2675 4231 
Q 1875 4231 1450 3742 
Q 1025 3253 1025 2328 
Q 1025 1406 1450 917 
Q 1875 428 2675 428 
Q 3081 428 3442 575 
Q 3803 722 4122 1019 
L 4122 359 
Q 3791 134 3420 21 
Q 3050 -91 2638 -91 
Q 1578 -91 968 557 
Q 359 1206 359 2328 
Q 359 3453 968 4101 
Q 1578 4750 2638 4750 
Q 3056 4750 3426 4639 
Q 3797 4528 4122 4306 
z
" transform="scale(0.015625)"/>
       <path id="DejaVuSans-2e" d="M 684 794 
L 1344 794 
L 1344 0 
L 684 0 
L 684 794 
z
" transform="scale(0.015625)"/>
       <path id="DejaVuSans-61" d="M 2194 1759 
Q 1497 1759 1228 1600 
Q 959 1441 959 1056 
Q 959 750 1161 570 
Q 1363 391 1709 391 
Q 2188 391 2477 730 
Q 2766 1069 2766 1631 
L 2766 1759 
L 2194 1759 
z
M 3341 1997 
L 3341 0 
L 2766 0 
L 2766 531 
Q 2569 213 2275 61 
Q 1981 -91 1556 -91 
Q 1019 -91 701 211 
Q 384 513 384 1019 
Q 384 1609 779 1909 
Q 1175 2209 1959 2209 
L 2766 2209 
L 2766 2266 
Q 2766 2663 2505 2880 
Q 2244 3097 1772 3097 
Q 1472 3097 1187 3025 
Q 903 2953 641 2809 
L 641 3341 
Q 956 3463 1253 3523 
Q 1550 3584 1831 3584 
Q 2591 3584 2966 3190 
Q 3341 2797 3341 1997 
z
" transform="scale(0.015625)"/>
       <path id="DejaVuSans-70" d="M 1159 525 
L 1159 -1331 
L 581 -1331 
L 581 3500 
L 1159 3500 
L 1159 2969 
Q 1341 3281 1617 3432 
Q 1894 3584 2278 3584 
Q 2916 3584 3314 3078 
Q 3713 2572 3713 1747 
Q 3713 922 3314 415 
Q 2916 -91 2278 -91 
Q 1894 -91 1617 61 
Q 1341 213 1159 525 
z
M 3116 1747 
Q 3116 2381 2855 2742 
Q 2594 3103 2138 3103 
Q 1681 3103 1420 2742 
Q 1159 2381 1159 1747 
Q 1159 1113 1420 752 
Q 1681 391 2138 391 
Q 2594 391 2855 752 
Q 3116 1113 3116 1747 
z
" transform="scale(0.015625)"/>
       <path id="DejaVuSans-65" d="M 3597 1894 
L 3597 1613 
L 953 1613 
Q 991 1019 1311 708 
Q 1631 397 2203 397 
Q 2534 397 2845 478 
Q 3156 559 3463 722 
L 3463 178 
Q 3153 47 2828 -22 
Q 2503 -91 2169 -91 
Q 1331 -91 842 396 
Q 353 884 353 1716 
Q 353 2575 817 3079 
Q 1281 3584 2069 3584 
Q 2775 3584 3186 3129 
Q 3597 2675 3597 1894 
z
M 3022 2063 
Q 3016 2534 2758 2815 
Q 2500 3097 2075 3097 
Q 1594 3097 1305 2825 
Q 1016 2553 972 2059 
L 3022 2063 
z
" transform="scale(0.015625)"/>
       <path id="DejaVuSans-6c" d="M 603 4863 
L 1178 4863 
L 1178 0 
L 603 0 
L 603 4863 
z
" transform="scale(0.015625)"/>
      </defs>
      <use xlink:href="#DejaVuSans-43"/>
      <use xlink:href="#DejaVuSans-2e" x="69.824219"/>
      <use xlink:href="#DejaVuSans-43" x="101.611328"/>
      <use xlink:href="#DejaVuSans-61" x="171.435547"/>
      <use xlink:href="#DejaVuSans-70" x="232.714844"/>
      <use xlink:href="#DejaVuSans-65" x="296.191406"/>
      <use xlink:href="#DejaVuSans-6c" x="357.714844"/>
      <use xlink:href="#DejaVuSans-61" x="385.498047"/>
     </g>
    </g>
   </g>
   <g id="text_2">
    <g clip-path="url(#p3faff3d185)">
     <!-- C.Brewer -->
     <g transform="translate(496.501706 154.768981)scale(0.12 -0.12)">
      <defs>
       <path id="DejaVuSans-42" d="M 1259 2228 
L 1259 519 
L 2272 519 
Q 2781 519 3026 730 
Q 3272 941 3272 1375 
Q 3272 1813 3026 2020 
Q 2781 2228 2272 2228 
L 1259 2228 
z
M 1259 4147 
L 1259 2741 
L 2194 2741 
Q 2656 2741 2882 2914 
Q 3109 3088 3109 3444 
Q 3109 3797 2882 3972 
Q 2656 4147 2194 4147 
L 1259 4147 
z
M 628 4666 
L 2241 4666 
Q 2963 4666 3353 4366 
Q 3744 4066 3744 3513 
Q 3744 3084 3544 2831 
Q 3344 2578 2956 2516 
Q 3422 2416 3680 2098 
Q 3938 1781 3938 1306 
Q 3938 681 3513 340 
Q 3088 0 2303 0 
L 628 0 
L 628 4666 
z
" transform="scale(0.015625)"/>
       <path id="DejaVuSans-72" d="M 2631 2963 
Q 2534 3019 2420 3045 
Q 2306 3072 2169 3072 
Q 1681 3072 1420 2755 
Q 1159 2438 1159 1844 
L 1159 0 
L 581 0 
L 581 3500 
L 1159 3500 
L 1159 2956 
Q 1341 3275 1631 3429 
Q 1922 3584 2338 3584 
Q 2397 3584 2469 3576 
Q 2541 3569 2628 3553 
L 2631 2963 
z
" transform="scale(0.015625)"/>
       <path id="DejaVuSans-77" d="M 269 3500 
L 844 3500 
L 1563 769 
L 2278 3500 
L 2956 3500 
L 3675 769 
L 4391 3500 
L 4966 3500 
L 4050 0 
L 3372 0 
L 2619 2869 
L 1863 0 
L 1184 0 
L 269 3500 
z
" transform="scale(0.015625)"/>
      </defs>
      <use xlink:href="#DejaVuSans-43"/>
      <use xlink:href="#DejaVuSans-2e" x="69.824219"/>
      <use xlink:href="#DejaVuSans-42" x="101.611328"/>
      <use xlink:href="#DejaVuSans-72" x="170.214844"/>
      <use xlink:href="#DejaVuSans-65" x="209.078125"/>
      <use xlink:href="#DejaVuSans-77" x="270.601562"/>
      <use xlink:href="#DejaVuSans-65" x="352.388672"/>
      <use xlink:href="#DejaVuSans-72" x="413.912109"/>
     </g>
    </g>
   </g>
   <g id="text_3">
    <g clip-path="url(#p3faff3d185)">
     <!-- E.Gordon -->
     <g transform="translate(392.688918 66.039841)scale(0.12 -0.12)">
      <defs>
       <path id="DejaVuSans-45" d="M 628 4666 
L 3578 4666 
L 3578 4134 
L 1259 4134 
L 1259 2753 
L 3481 2753 
L 3481 2222 
L 1259 2222 
L 1259 531 
L 3634 531 
L 3634 0 
L 628 0 
L 628 4666 
z
" transform="scale(0.015625)"/>
       <path id="DejaVuSans-47" d="M 3809 666 
L 3809 1919 
L 2778 1919 
L 2778 2438 
L 4434 2438 
L 4434 434 
Q 4069 175 3628 42 
Q 3188 -91 2688 -91 
Q 1594 -91 976 548 
Q 359 1188 359 2328 
Q 359 3472 976 4111 
Q 1594 4750 2688 4750 
Q 3144 4750 3555 4637 
Q 3966 4525 4313 4306 
L 4313 3634 
Q 3963 3931 3569 4081 
Q 3175 4231 2741 4231 
Q 1884 4231 1454 3753 
Q 1025 3275 1025 2328 
Q 1025 1384 1454 906 
Q 1884 428 2741 428 
Q 3075 428 3337 486 
Q 3600 544 3809 666 
z
" transform="scale(0.015625)"/>
       <path id="DejaVuSans-6f" d="M 1959 3097 
Q 1497 3097 1228 2736 
Q 959 2375 959 1747 
Q 959 1119 1226 758 
Q 1494 397 1959 397 
Q 2419 397 2687 759 
Q 2956 1122 2956 1747 
Q 2956 2369 2687 2733 
Q 2419 3097 1959 3097 
z
M 1959 3584 
Q 2709 3584 3137 3096 
Q 3566 2609 3566 1747 
Q 3566 888 3137 398 
Q 2709 -91 1959 -91 
Q 1206 -91 779 398 
Q 353 888 353 1747 
Q 353 2609 779 3096 
Q 1206 3584 1959 3584 
z
" transform="scale(0.015625)"/>
       <path id="DejaVuSans-64" d="M 2906 2969 
L 2906 4863 
L 3481 4863 
L 3481 0 
L 2906 0 
L 2906 525 
Q 2725 213 2448 61 
Q 2172 -91 1784 -91 
Q 1150 -91 751 415 
Q 353 922 353 1747 
Q 353 2572 751 3078 
Q 1150 3584 1784 3584 
Q 2172 3584 2448 3432 
Q 2725 3281 2906 2969 
z
M 947 1747 
Q 947 1113 1208 752 
Q 1469 391 1925 391 
Q 2381 391 2643 752 
Q 2906 1113 2906 1747 
Q 2906 2381 2643 2742 
Q 2381 3103 1925 3103 
Q 1469 3103 1208 2742 
Q 947 2381 947 1747 
z
" transform="scale(0.015625)"/>
       <path id="DejaVuSans-6e" d="M 3513 2113 
L 3513 0 
L 2938 0 
L 2938 2094 
Q 2938 2591 2744 2837 
Q 2550 3084 2163 3084 
Q 1697 3084 1428 2787 
Q 1159 2491 1159 1978 
L 1159 0 
L 581 0 
L 581 3500 
L 1159 3500 
L 1159 2956 
Q 1366 3272 1645 3428 
Q 1925 3584 2291 3584 
Q 2894 3584 3203 3211 
Q 3513 2838 3513 2113 
z
" transform="scale(0.015625)"/>
      </defs>
      <use xlink:href="#DejaVuSans-45"/>
      <use xlink:href="#DejaVuSans-2e" x="63.183594"/>
      <use xlink:href="#DejaVuSans-47" x="94.970703"/>
      <use xlink:href="#DejaVuSans-6f" x="172.460938"/>
      <use xlink:href="#DejaVuSans-72" x="233.642578"/>
      <use xlink:href="#DejaVuSans-64" x="273.005859"/>
      <use xlink:href="#DejaVuSans-6f" x="336.482422"/>
      <use xlink:href="#DejaVuSans-6e" x="397.664062"/>
     </g>
    </g>
   </g>
   <g id="text_4">
    <g clip-path="url(#p3faff3d185)">
     <!-- J.Harden -->
     <g transform="translate(201.022798 46.757153)scale(0.12 -0.12)">
      <defs>
       <path id="DejaVuSans-4a" d="M 628 4666 
L 1259 4666 
L 1259 325 
Q 1259 -519 939 -900 
Q 619 -1281 -91 -1281 
L -331 -1281 
L -331 -750 
L -134 -750 
Q 284 -750 456 -515 
Q 628 -281 628 325 
L 628 4666 
z
" transform="scale(0.015625)"/>
       <path id="DejaVuSans-48" d="M 628 4666 
L 1259 4666 
L 1259 2753 
L 3553 2753 
L 3553 4666 
L 4184 4666 
L 4184 0 
L 3553 0 
L 3553 2222 
L 1259 2222 
L 1259 0 
L 628 0 
L 628 4666 
z
" transform="scale(0.015625)"/>
      </defs>
      <use xlink:href="#DejaVuSans-4a"/>
      <use xlink:href="#DejaVuSans-2e" x="29.492188"/>
      <use xlink:href="#DejaVuSans-48" x="61.279297"/>
      <use xlink:href="#DejaVuSans-61" x="136.474609"/>
      <use xlink:href="#DejaVuSans-72" x="197.753906"/>
      <use xlink:href="#DejaVuSans-64" x="237.117188"/>
      <use xlink:href="#DejaVuSans-65" x="300.59375"/>
      <use xlink:href="#DejaVuSans-6e" x="362.117188"/>
     </g>
    </g>
   </g>
   <g id="text_5">
    <g clip-path="url(#p3faff3d185)">
     <!-- L.Williams -->
     <g transform="translate(71.675587 103.043018)scale(0.12 -0.12)">
      <defs>
       <path id="DejaVuSans-4c" d="M 628 4666 
L 1259 4666 
L 1259 531 
L 3531 531 
L 3531 0 
L 628 0 
L 628 4666 
z
" transform="scale(0.015625)"/>
       <path id="DejaVuSans-57" d="M 213 4666 
L 850 4666 
L 1831 722 
L 2809 4666 
L 3519 4666 
L 4500 722 
L 5478 4666 
L 6119 4666 
L 4947 0 
L 4153 0 
L 3169 4050 
L 2175 0 
L 1381 0 
L 213 4666 
z
" transform="scale(0.015625)"/>
       <path id="DejaVuSans-69" d="M 603 3500 
L 1178 3500 
L 1178 0 
L 603 0 
L 603 3500 
z
M 603 4863 
L 1178 4863 
L 1178 4134 
L 603 4134 
L 603 4863 
z
" transform="scale(0.015625)"/>
       <path id="DejaVuSans-6d" d="M 3328 2828 
Q 3544 3216 3844 3400 
Q 4144 3584 4550 3584 
Q 5097 3584 5394 3201 
Q 5691 2819 5691 2113 
L 5691 0 
L 5113 0 
L 5113 2094 
Q 5113 2597 4934 2840 
Q 4756 3084 4391 3084 
Q 3944 3084 3684 2787 
Q 3425 2491 3425 1978 
L 3425 0 
L 2847 0 
L 2847 2094 
Q 2847 2600 2669 2842 
Q 2491 3084 2119 3084 
Q 1678 3084 1418 2786 
Q 1159 2488 1159 1978 
L 1159 0 
L 581 0 
L 581 3500 
L 1159 3500 
L 1159 2956 
Q 1356 3278 1631 3431 
Q 1906 3584 2284 3584 
Q 2666 3584 2933 3390 
Q 3200 3197 3328 2828 
z
" transform="scale(0.015625)"/>
       <path id="DejaVuSans-73" d="M 2834 3397 
L 2834 2853 
Q 2591 2978 2328 3040 
Q 2066 3103 1784 3103 
Q 1356 3103 1142 2972 
Q 928 2841 928 2578 
Q 928 2378 1081 2264 
Q 1234 2150 1697 2047 
L 1894 2003 
Q 2506 1872 2764 1633 
Q 3022 1394 3022 966 
Q 3022 478 2636 193 
Q 2250 -91 1575 -91 
Q 1294 -91 989 -36 
Q 684 19 347 128 
L 347 722 
Q 666 556 975 473 
Q 1284 391 1588 391 
Q 1994 391 2212 530 
Q 2431 669 2431 922 
Q 2431 1156 2273 1281 
Q 2116 1406 1581 1522 
L 1381 1569 
Q 847 1681 609 1914 
Q 372 2147 372 2553 
Q 372 3047 722 3315 
Q 1072 3584 1716 3584 
Q 2034 3584 2315 3537 
Q 2597 3491 2834 3397 
z
" transform="scale(0.015625)"/>
      </defs>
      <use xlink:href="#DejaVuSans-4c"/>
      <use xlink:href="#DejaVuSans-2e" x="55.712891"/>
      <use xlink:href="#DejaVuSans-57" x="87.5"/>
      <use xlink:href="#DejaVuSans-69" x="184.126953"/>
      <use xlink:href="#DejaVuSans-6c" x="211.910156"/>
      <use xlink:href="#DejaVuSans-6c" x="239.693359"/>
      <use xlink:href="#DejaVuSans-69" x="267.476562"/>
      <use xlink:href="#DejaVuSans-61" x="295.259766"/>
      <use xlink:href="#DejaVuSans-6d" x="356.539062"/>
      <use xlink:href="#DejaVuSans-73" x="453.951172"/>
     </g>
    </g>
   </g>
   <g id="text_6">
    <g clip-path="url(#p3faff3d185)">
     <!-- M.Harrell -->
     <g transform="translate(1.039486 217.027106)scale(0.12 -0.12)">
      <defs>
       <path id="DejaVuSans-4d" d="M 628 4666 
L 1569 4666 
L 2759 1491 
L 3956 4666 
L 4897 4666 
L 4897 0 
L 4281 0 
L 4281 4097 
L 3078 897 
L 2444 897 
L 1241 4097 
L 1241 0 
L 628 0 
L 628 4666 
z
" transform="scale(0.015625)"/>
      </defs>
      <use xlink:href="#DejaVuSans-4d"/>
      <use xlink:href="#DejaVuSans-2e" x="86.279297"/>
      <use xlink:href="#DejaVuSans-48" x="118.066406"/>
      <use xlink:href="#DejaVuSans-61" x="193.261719"/>
      <use xlink:href="#DejaVuSans-72" x="254.541016"/>
      <use xlink:href="#DejaVuSans-72" x="293.904297"/>
      <use xlink:href="#DejaVuSans-65" x="332.767578"/>
      <use xlink:href="#DejaVuSans-6c" x="394.291016"/>
      <use xlink:href="#DejaVuSans-6c" x="422.074219"/>
     </g>
    </g>
   </g>
   <g id="text_7">
    <g clip-path="url(#p3faff3d185)">
     <!-- Nene -->
     <g transform="translate(12.356049 410.231637)scale(0.12 -0.12)">
      <defs>
       <path id="DejaVuSans-4e" d="M 628 4666 
L 1478 4666 
L 3547 763 
L 3547 4666 
L 4159 4666 
L 4159 0 
L 3309 0 
L 1241 3903 
L 1241 0 
L 628 0 
L 628 4666 
z
" transform="scale(0.015625)"/>
      </defs>
      <use xlink:href="#DejaVuSans-4e"/>
      <use xlink:href="#DejaVuSans-65" x="74.804688"/>
      <use xlink:href="#DejaVuSans-6e" x="136.328125"/>
      <use xlink:href="#DejaVuSans-65" x="199.707031"/>
     </g>
    </g>
   </g>
   <g id="text_8">
    <g clip-path="url(#p3faff3d185)">
     <!-- P.Beverley -->
     <g transform="translate(71.022135 524.215718)scale(0.12 -0.12)">
      <defs>
       <path id="DejaVuSans-50" d="M 1259 4147 
L 1259 2394 
L 2053 2394 
Q 2494 2394 2734 2622 
Q 2975 2850 2975 3272 
Q 2975 3691 2734 3919 
Q 2494 4147 2053 4147 
L 1259 4147 
z
M 628 4666 
L 2053 4666 
Q 2838 4666 3239 4311 
Q 3641 3956 3641 3272 
Q 3641 2581 3239 2228 
Q 2838 1875 2053 1875 
L 1259 1875 
L 1259 0 
L 628 0 
L 628 4666 
z
" transform="scale(0.015625)"/>
       <path id="DejaVuSans-76" d="M 191 3500 
L 800 3500 
L 1894 563 
L 2988 3500 
L 3597 3500 
L 2284 0 
L 1503 0 
L 191 3500 
z
" transform="scale(0.015625)"/>
       <path id="DejaVuSans-79" d="M 2059 -325 
Q 1816 -950 1584 -1140 
Q 1353 -1331 966 -1331 
L 506 -1331 
L 506 -850 
L 844 -850 
Q 1081 -850 1212 -737 
Q 1344 -625 1503 -206 
L 1606 56 
L 191 3500 
L 800 3500 
L 1894 763 
L 2988 3500 
L 3597 3500 
L 2059 -325 
z
" transform="scale(0.015625)"/>
      </defs>
      <use xlink:href="#DejaVuSans-50"/>
      <use xlink:href="#DejaVuSans-2e" x="44.677734"/>
      <use xlink:href="#DejaVuSans-42" x="76.464844"/>
      <use xlink:href="#DejaVuSans-65" x="145.068359"/>
      <use xlink:href="#DejaVuSans-76" x="206.591797"/>
      <use xlink:href="#DejaVuSans-65" x="265.771484"/>
      <use xlink:href="#DejaVuSans-72" x="327.294922"/>
      <use xlink:href="#DejaVuSans-6c" x="368.408203"/>
      <use xlink:href="#DejaVuSans-65" x="396.191406"/>
      <use xlink:href="#DejaVuSans-79" x="457.714844"/>
     </g>
    </g>
   </g>
   <g id="text_9">
    <g clip-path="url(#p3faff3d185)">
     <!-- R.Anderson -->
     <g transform="translate(192.221504 580.501597)scale(0.12 -0.12)">
      <defs>
       <path id="DejaVuSans-52" d="M 2841 2188 
Q 3044 2119 3236 1894 
Q 3428 1669 3622 1275 
L 4263 0 
L 3584 0 
L 2988 1197 
Q 2756 1666 2539 1819 
Q 2322 1972 1947 1972 
L 1259 1972 
L 1259 0 
L 628 0 
L 628 4666 
L 2053 4666 
Q 2853 4666 3247 4331 
Q 3641 3997 3641 3322 
Q 3641 2881 3436 2590 
Q 3231 2300 2841 2188 
z
M 1259 4147 
L 1259 2491 
L 2053 2491 
Q 2509 2491 2742 2702 
Q 2975 2913 2975 3322 
Q 2975 3731 2742 3939 
Q 2509 4147 2053 4147 
L 1259 4147 
z
" transform="scale(0.015625)"/>
       <path id="DejaVuSans-41" d="M 2188 4044 
L 1331 1722 
L 3047 1722 
L 2188 4044 
z
M 1831 4666 
L 2547 4666 
L 4325 0 
L 3669 0 
L 3244 1197 
L 1141 1197 
L 716 0 
L 50 0 
L 1831 4666 
z
" transform="scale(0.015625)"/>
      </defs>
      <use xlink:href="#DejaVuSans-52"/>
      <use xlink:href="#DejaVuSans-2e" x="65.857422"/>
      <use xlink:href="#DejaVuSans-41" x="97.644531"/>
      <use xlink:href="#DejaVuSans-6e" x="166.052734"/>
      <use xlink:href="#DejaVuSans-64" x="229.431641"/>
      <use xlink:href="#DejaVuSans-65" x="292.908203"/>
      <use xlink:href="#DejaVuSans-72" x="354.431641"/>
      <use xlink:href="#DejaVuSans-73" x="395.544922"/>
      <use xlink:href="#DejaVuSans-6f" x="447.644531"/>
      <use xlink:href="#DejaVuSans-6e" x="508.826172"/>
     </g>
    </g>
   </g>
   <g id="text_10">
    <g clip-path="url(#p3faff3d185)">
     <!-- S.Dekker -->
     <g transform="translate(393.434238 561.218909)scale(0.12 -0.12)">
      <defs>
       <path id="DejaVuSans-53" d="M 3425 4513 
L 3425 3897 
Q 3066 4069 2747 4153 
Q 2428 4238 2131 4238 
Q 1616 4238 1336 4038 
Q 1056 3838 1056 3469 
Q 1056 3159 1242 3001 
Q 1428 2844 1947 2747 
L 2328 2669 
Q 3034 2534 3370 2195 
Q 3706 1856 3706 1288 
Q 3706 609 3251 259 
Q 2797 -91 1919 -91 
Q 1588 -91 1214 -16 
Q 841 59 441 206 
L 441 856 
Q 825 641 1194 531 
Q 1563 422 1919 422 
Q 2459 422 2753 634 
Q 3047 847 3047 1241 
Q 3047 1584 2836 1778 
Q 2625 1972 2144 2069 
L 1759 2144 
Q 1053 2284 737 2584 
Q 422 2884 422 3419 
Q 422 4038 858 4394 
Q 1294 4750 2059 4750 
Q 2388 4750 2728 4690 
Q 3069 4631 3425 4513 
z
" transform="scale(0.015625)"/>
       <path id="DejaVuSans-44" d="M 1259 4147 
L 1259 519 
L 2022 519 
Q 2988 519 3436 956 
Q 3884 1394 3884 2338 
Q 3884 3275 3436 3711 
Q 2988 4147 2022 4147 
L 1259 4147 
z
M 628 4666 
L 1925 4666 
Q 3281 4666 3915 4102 
Q 4550 3538 4550 2338 
Q 4550 1131 3912 565 
Q 3275 0 1925 0 
L 628 0 
L 628 4666 
z
" transform="scale(0.015625)"/>
       <path id="DejaVuSans-6b" d="M 581 4863 
L 1159 4863 
L 1159 1991 
L 2875 3500 
L 3609 3500 
L 1753 1863 
L 3688 0 
L 2938 0 
L 1159 1709 
L 1159 0 
L 581 0 
L 581 4863 
z
" transform="scale(0.015625)"/>
      </defs>
      <use xlink:href="#DejaVuSans-53"/>
      <use xlink:href="#DejaVuSans-2e" x="63.476562"/>
      <use xlink:href="#DejaVuSans-44" x="95.263672"/>
      <use xlink:href="#DejaVuSans-65" x="172.265625"/>
      <use xlink:href="#DejaVuSans-6b" x="233.789062"/>
      <use xlink:href="#DejaVuSans-6b" x="291.699219"/>
      <use xlink:href="#DejaVuSans-65" x="345.984375"/>
      <use xlink:href="#DejaVuSans-72" x="407.507812"/>
     </g>
    </g>
   </g>
   <g id="text_11">
    <g clip-path="url(#p3faff3d185)">
     <!-- T.Ariza -->
     <g transform="translate(503.880754 472.489798)scale(0.12 -0.12)">
      <defs>
       <path id="DejaVuSans-54" d="M -19 4666 
L 3928 4666 
L 3928 4134 
L 2272 4134 
L 2272 0 
L 1638 0 
L 1638 4134 
L -19 4134 
L -19 4666 
z
" transform="scale(0.015625)"/>
       <path id="DejaVuSans-7a" d="M 353 3500 
L 3084 3500 
L 3084 2975 
L 922 459 
L 3084 459 
L 3084 0 
L 275 0 
L 275 525 
L 2438 3041 
L 353 3041 
L 353 3500 
z
" transform="scale(0.015625)"/>
      </defs>
      <use xlink:href="#DejaVuSans-54"/>
      <use xlink:href="#DejaVuSans-2e" x="49.208984"/>
      <use xlink:href="#DejaVuSans-41" x="80.996094"/>
      <use xlink:href="#DejaVuSans-72" x="149.404297"/>
      <use xlink:href="#DejaVuSans-69" x="190.517578"/>
      <use xlink:href="#DejaVuSans-7a" x="218.300781"/>
      <use xlink:href="#DejaVuSans-61" x="270.791016"/>
     </g>
    </g>
   </g>
   <g id="text_12">
    <!-- 2016-17 Houston Rockets Assist Network -->
    <g transform="translate(171.717187 16.318125)scale(0.12 -0.12)">
     <defs>
      <path id="DejaVuSans-32" d="M 1228 531 
L 3431 531 
L 3431 0 
L 469 0 
L 469 531 
Q 828 903 1448 1529 
Q 2069 2156 2228 2338 
Q 2531 2678 2651 2914 
Q 2772 3150 2772 3378 
Q 2772 3750 2511 3984 
Q 2250 4219 1831 4219 
Q 1534 4219 1204 4116 
Q 875 4013 500 3803 
L 500 4441 
Q 881 4594 1212 4672 
Q 1544 4750 1819 4750 
Q 2544 4750 2975 4387 
Q 3406 4025 3406 3419 
Q 3406 3131 3298 2873 
Q 3191 2616 2906 2266 
Q 2828 2175 2409 1742 
Q 1991 1309 1228 531 
z
" transform="scale(0.015625)"/>
      <path id="DejaVuSans-30" d="M 2034 4250 
Q 1547 4250 1301 3770 
Q 1056 3291 1056 2328 
Q 1056 1369 1301 889 
Q 1547 409 2034 409 
Q 2525 409 2770 889 
Q 3016 1369 3016 2328 
Q 3016 3291 2770 3770 
Q 2525 4250 2034 4250 
z
M 2034 4750 
Q 2819 4750 3233 4129 
Q 3647 3509 3647 2328 
Q 3647 1150 3233 529 
Q 2819 -91 2034 -91 
Q 1250 -91 836 529 
Q 422 1150 422 2328 
Q 422 3509 836 4129 
Q 1250 4750 2034 4750 
z
" transform="scale(0.015625)"/>
      <path id="DejaVuSans-31" d="M 794 531 
L 1825 531 
L 1825 4091 
L 703 3866 
L 703 4441 
L 1819 4666 
L 2450 4666 
L 2450 531 
L 3481 531 
L 3481 0 
L 794 0 
L 794 531 
z
" transform="scale(0.015625)"/>
      <path id="DejaVuSans-36" d="M 2113 2584 
Q 1688 2584 1439 2293 
Q 1191 2003 1191 1497 
Q 1191 994 1439 701 
Q 1688 409 2113 409 
Q 2538 409 2786 701 
Q 3034 994 3034 1497 
Q 3034 2003 2786 2293 
Q 2538 2584 2113 2584 
z
M 3366 4563 
L 3366 3988 
Q 3128 4100 2886 4159 
Q 2644 4219 2406 4219 
Q 1781 4219 1451 3797 
Q 1122 3375 1075 2522 
Q 1259 2794 1537 2939 
Q 1816 3084 2150 3084 
Q 2853 3084 3261 2657 
Q 3669 2231 3669 1497 
Q 3669 778 3244 343 
Q 2819 -91 2113 -91 
Q 1303 -91 875 529 
Q 447 1150 447 2328 
Q 447 3434 972 4092 
Q 1497 4750 2381 4750 
Q 2619 4750 2861 4703 
Q 3103 4656 3366 4563 
z
" transform="scale(0.015625)"/>
      <path id="DejaVuSans-2d" d="M 313 2009 
L 1997 2009 
L 1997 1497 
L 313 1497 
L 313 2009 
z
" transform="scale(0.015625)"/>
      <path id="DejaVuSans-37" d="M 525 4666 
L 3525 4666 
L 3525 4397 
L 1831 0 
L 1172 0 
L 2766 4134 
L 525 4134 
L 525 4666 
z
" transform="scale(0.015625)"/>
      <path id="DejaVuSans-20" transform="scale(0.015625)"/>
      <path id="DejaVuSans-75" d="M 544 1381 
L 544 3500 
L 1119 3500 
L 1119 1403 
Q 1119 906 1312 657 
Q 1506 409 1894 409 
Q 2359 409 2629 706 
Q 2900 1003 2900 1516 
L 2900 3500 
L 3475 3500 
L 3475 0 
L 2900 0 
L 2900 538 
Q 2691 219 2414 64 
Q 2138 -91 1772 -91 
Q 1169 -91 856 284 
Q 544 659 544 1381 
z
M 1991 3584 
L 1991 3584 
z
" transform="scale(0.015625)"/>
      <path id="DejaVuSans-74" d="M 1172 4494 
L 1172 3500 
L 2356 3500 
L 2356 3053 
L 1172 3053 
L 1172 1153 
Q 1172 725 1289 603 
Q 1406 481 1766 481 
L 2356 481 
L 2356 0 
L 1766 0 
Q 1100 0 847 248 
Q 594 497 594 1153 
L 594 3053 
L 172 3053 
L 172 3500 
L 594 3500 
L 594 4494 
L 1172 4494 
z
" transform="scale(0.015625)"/>
      <path id="DejaVuSans-63" d="M 3122 3366 
L 3122 2828 
Q 2878 2963 2633 3030 
Q 2388 3097 2138 3097 
Q 1578 3097 1268 2742 
Q 959 2388 959 1747 
Q 959 1106 1268 751 
Q 1578 397 2138 397 
Q 2388 397 2633 464 
Q 2878 531 3122 666 
L 3122 134 
Q 2881 22 2623 -34 
Q 2366 -91 2075 -91 
Q 1284 -91 818 406 
Q 353 903 353 1747 
Q 353 2603 823 3093 
Q 1294 3584 2113 3584 
Q 2378 3584 2631 3529 
Q 2884 3475 3122 3366 
z
" transform="scale(0.015625)"/>
     </defs>
     <use xlink:href="#DejaVuSans-32"/>
     <use xlink:href="#DejaVuSans-30" x="63.623047"/>
     <use xlink:href="#DejaVuSans-31" x="127.246094"/>
     <use xlink:href="#DejaVuSans-36" x="190.869141"/>
     <use xlink:href="#DejaVuSans-2d" x="254.492188"/>
     <use xlink:href="#DejaVuSans-31" x="290.576172"/>
     <use xlink:href="#DejaVuSans-37" x="354.199219"/>
     <use xlink:href="#DejaVuSans-20" x="417.822266"/>
     <use xlink:href="#DejaVuSans-48" x="449.609375"/>
     <use xlink:href="#DejaVuSans-6f" x="524.804688"/>
     <use xlink:href="#DejaVuSans-75" x="585.986328"/>
     <use xlink:href="#DejaVuSans-73" x="649.365234"/>
     <use xlink:href="#DejaVuSans-74" x="701.464844"/>
     <use xlink:href="#DejaVuSans-6f" x="740.673828"/>
     <use xlink:href="#DejaVuSans-6e" x="801.855469"/>
     <use xlink:href="#DejaVuSans-20" x="865.234375"/>
     <use xlink:href="#DejaVuSans-52" x="897.021484"/>
     <use xlink:href="#DejaVuSans-6f" x="962.003906"/>
     <use xlink:href="#DejaVuSans-63" x="1023.185547"/>
     <use xlink:href="#DejaVuSans-6b" x="1078.166016"/>
     <use xlink:href="#DejaVuSans-65" x="1132.451172"/>
     <use xlink:href="#DejaVuSans-74" x="1193.974609"/>
     <use xlink:href="#DejaVuSans-73" x="1233.183594"/>
     <use xlink:href="#DejaVuSans-20" x="1285.283203"/>
     <use xlink:href="#DejaVuSans-41" x="1317.070312"/>
     <use xlink:href="#DejaVuSans-73" x="1385.478516"/>
     <use xlink:href="#DejaVuSans-73" x="1437.578125"/>
     <use xlink:href="#DejaVuSans-69" x="1489.677734"/>
     <use xlink:href="#DejaVuSans-73" x="1517.460938"/>
     <use xlink:href="#DejaVuSans-74" x="1569.560547"/>
     <use xlink:href="#DejaVuSans-20" x="1608.769531"/>
     <use xlink:href="#DejaVuSans-4e" x="1640.556641"/>
     <use xlink:href="#DejaVuSans-65" x="1715.361328"/>
     <use xlink:href="#DejaVuSans-74" x="1776.884766"/>
     <use xlink:href="#DejaVuSans-77" x="1816.09375"/>
     <use xlink:href="#DejaVuSans-6f" x="1897.880859"/>
     <use xlink:href="#DejaVuSans-72" x="1959.0625"/>
     <use xlink:href="#DejaVuSans-6b" x="2000.175781"/>
    </g>
   </g>
  </g>
 </g>
 <defs>
  <clipPath id="p3faff3d185">
   <rect x="7.2" y="22.318125" width="576" height="576"/>
  </clipPath>
 </defs>
</svg>
