<?xml version="1.0" encoding="utf-8" standalone="no"?>
<!DOCTYPE svg PUBLIC "-//W3C//DTD SVG 1.1//EN"
  "http://www.w3.org/Graphics/SVG/1.1/DTD/svg11.dtd">
<svg xmlns:xlink="http://www.w3.org/1999/xlink" width="302.4pt" height="317.518125pt" viewBox="0 0 302.4 317.518125" xmlns="http://www.w3.org/2000/svg" version="1.1">
 <metadata>
  <rdf:RDF xmlns:dc="http://purl.org/dc/elements/1.1/" xmlns:cc="http://creativecommons.org/ns#" xmlns:rdf="http://www.w3.org/1999/02/22-rdf-syntax-ns#">
   <cc:Work>
    <dc:type rdf:resource="http://purl.org/dc/dcmitype/StillImage"/>
    <dc:date>2023-04-10T22:01:13.508760</dc:date>
    <dc:format>image/svg+xml</dc:format>
    <dc:creator>
     <cc:Agent>
      <dc:title>Matplotlib v3.5.2, https://matplotlib.org/</dc:title>
     </cc:Agent>
    </dc:creator>
   </cc:Work>
  </rdf:RDF>
 </metadata>
 <defs>
  <style type="text/css">*{stroke-linejoin: round; stroke-linecap: butt}</style>
 </defs>
 <g id="figure_1">
  <g id="patch_1">
   <path d="M 0 317.518125 
L 302.4 317.518125 
L 302.4 0 
L 0 0 
z
" style="fill: #ffffff"/>
  </g>
  <g id="axes_1">
   <g id="LineCollection_1">
    <path d="M 270.208264 166.318125 
L 250.925579 101.315774 
" clip-path="url(#pdf40c0e05a)" style="fill: none; stroke: #d6d6d6; stroke-width: 2"/>
    <path d="M 270.208264 166.318125 
L 199.199654 56.951205 
" clip-path="url(#pdf40c0e05a)" style="fill: none; stroke: #c4c4c4; stroke-width: 2"/>
    <path d="M 270.208264 166.318125 
L 131.453079 47.309861 
" clip-path="url(#pdf40c0e05a)" style="fill: none; stroke: #d6d6d6; stroke-width: 2"/>
    <path d="M 270.208264 166.318125 
L 69.194942 75.452793 
" clip-path="url(#pdf40c0e05a)" style="fill: none; stroke: #c8c8c8; stroke-width: 2"/>
    <path d="M 270.208264 166.318125 
L 32.191736 132.444837 
" clip-path="url(#pdf40c0e05a)" style="fill: none; stroke: #dadada; stroke-width: 2"/>
    <path d="M 270.208264 166.318125 
L 32.191736 200.191409 
" clip-path="url(#pdf40c0e05a)" style="fill: none; stroke: #cdcdcd; stroke-width: 2"/>
    <path d="M 270.208264 166.318125 
L 69.194935 257.18345 
" clip-path="url(#pdf40c0e05a)" style="fill: none; stroke: #c4c4c4; stroke-width: 2"/>
    <path d="M 270.208264 166.318125 
L 131.453057 285.326389 
" clip-path="url(#pdf40c0e05a)" style="fill: none; stroke: #b2b2b2; stroke-width: 2"/>
    <path d="M 270.208264 166.318125 
L 199.199658 275.685045 
" clip-path="url(#pdf40c0e05a)" style="fill: none; stroke: #a9a9a9; stroke-width: 2"/>
    <path d="M 270.208264 166.318125 
L 250.925572 231.32049 
" clip-path="url(#pdf40c0e05a)" style="fill: none; stroke: #b0b0b0; stroke-width: 2"/>
    <path d="M 250.925579 101.315774 
L 199.199654 56.951205 
" clip-path="url(#pdf40c0e05a)" style="fill: none; stroke: #f2f2f2; stroke-width: 2"/>
    <path d="M 250.925579 101.315774 
L 131.453079 47.309861 
" clip-path="url(#pdf40c0e05a)" style="fill: none; stroke: #e9e9e9; stroke-width: 2"/>
    <path d="M 250.925579 101.315774 
L 69.194942 75.452793 
" clip-path="url(#pdf40c0e05a)" style="fill: none; stroke: #868686; stroke-width: 2"/>
    <path d="M 250.925579 101.315774 
L 32.191736 132.444837 
" clip-path="url(#pdf40c0e05a)" style="fill: none; stroke: #c4c4c4; stroke-width: 2"/>
    <path d="M 250.925579 101.315774 
L 32.191736 200.191409 
" clip-path="url(#pdf40c0e05a)" style="fill: none; stroke: #5a5a5a; stroke-width: 2"/>
    <path d="M 250.925579 101.315774 
L 69.194935 257.18345 
" clip-path="url(#pdf40c0e05a)" style="fill: none; stroke: #6c6c6c; stroke-width: 2"/>
    <path d="M 250.925579 101.315774 
L 131.453057 285.326389 
" clip-path="url(#pdf40c0e05a)" style="fill: none; stroke: #d3d3d3; stroke-width: 2"/>
    <path d="M 250.925579 101.315774 
L 199.199658 275.685045 
" clip-path="url(#pdf40c0e05a)" style="fill: none; stroke: #dadada; stroke-width: 2"/>
    <path d="M 250.925579 101.315774 
L 250.925572 231.32049 
" clip-path="url(#pdf40c0e05a)" style="fill: none; stroke: #000000; stroke-width: 2"/>
    <path d="M 199.199654 56.951205 
L 69.194942 75.452793 
" clip-path="url(#pdf40c0e05a)" style="fill: none; stroke: #f4f4f4; stroke-width: 2"/>
    <path d="M 199.199654 56.951205 
L 32.191736 132.444837 
" clip-path="url(#pdf40c0e05a)" style="fill: none; stroke: #e9e9e9; stroke-width: 2"/>
    <path d="M 199.199654 56.951205 
L 32.191736 200.191409 
" clip-path="url(#pdf40c0e05a)" style="fill: none; stroke: #eeeeee; stroke-width: 2"/>
    <path d="M 199.199654 56.951205 
L 69.194935 257.18345 
" clip-path="url(#pdf40c0e05a)" style="fill: none; stroke: #f9f9f9; stroke-width: 2"/>
    <path d="M 199.199654 56.951205 
L 131.453057 285.326389 
" clip-path="url(#pdf40c0e05a)" style="fill: none; stroke: #ececec; stroke-width: 2"/>
    <path d="M 199.199654 56.951205 
L 199.199658 275.685045 
" clip-path="url(#pdf40c0e05a)" style="fill: none; stroke: #e3e3e3; stroke-width: 2"/>
    <path d="M 199.199654 56.951205 
L 250.925572 231.32049 
" clip-path="url(#pdf40c0e05a)" style="fill: none; stroke: #ffffff; stroke-width: 2"/>
    <path d="M 131.453079 47.309861 
L 69.194942 75.452793 
" clip-path="url(#pdf40c0e05a)" style="fill: none; stroke: #f9f9f9; stroke-width: 2"/>
    <path d="M 131.453079 47.309861 
L 32.191736 132.444837 
" clip-path="url(#pdf40c0e05a)" style="fill: none; stroke: #e5e5e5; stroke-width: 2"/>
    <path d="M 131.453079 47.309861 
L 32.191736 200.191409 
" clip-path="url(#pdf40c0e05a)" style="fill: none; stroke: #f0f0f0; stroke-width: 2"/>
    <path d="M 131.453079 47.309861 
L 69.194935 257.18345 
" clip-path="url(#pdf40c0e05a)" style="fill: none; stroke: #e1e1e1; stroke-width: 2"/>
    <path d="M 131.453079 47.309861 
L 131.453057 285.326389 
" clip-path="url(#pdf40c0e05a)" style="fill: none; stroke: #e9e9e9; stroke-width: 2"/>
    <path d="M 131.453079 47.309861 
L 199.199658 275.685045 
" clip-path="url(#pdf40c0e05a)" style="fill: none; stroke: #d8d8d8; stroke-width: 2"/>
    <path d="M 131.453079 47.309861 
L 250.925572 231.32049 
" clip-path="url(#pdf40c0e05a)" style="fill: none; stroke: #fdfdfd; stroke-width: 2"/>
    <path d="M 69.194942 75.452793 
L 32.191736 132.444837 
" clip-path="url(#pdf40c0e05a)" style="fill: none; stroke: #cdcdcd; stroke-width: 2"/>
    <path d="M 69.194942 75.452793 
L 32.191736 200.191409 
" clip-path="url(#pdf40c0e05a)" style="fill: none; stroke: #828282; stroke-width: 2"/>
    <path d="M 69.194942 75.452793 
L 69.194935 257.18345 
" clip-path="url(#pdf40c0e05a)" style="fill: none; stroke: #d8d8d8; stroke-width: 2"/>
    <path d="M 69.194942 75.452793 
L 131.453057 285.326389 
" clip-path="url(#pdf40c0e05a)" style="fill: none; stroke: #e7e7e7; stroke-width: 2"/>
    <path d="M 69.194942 75.452793 
L 199.199658 275.685045 
" clip-path="url(#pdf40c0e05a)" style="fill: none; stroke: #d1d1d1; stroke-width: 2"/>
    <path d="M 69.194942 75.452793 
L 250.925572 231.32049 
" clip-path="url(#pdf40c0e05a)" style="fill: none; stroke: #cbcbcb; stroke-width: 2"/>
    <path d="M 32.191736 132.444837 
L 32.191736 200.191409 
" clip-path="url(#pdf40c0e05a)" style="fill: none; stroke: #acacac; stroke-width: 2"/>
    <path d="M 32.191736 132.444837 
L 69.194935 257.18345 
" clip-path="url(#pdf40c0e05a)" style="fill: none; stroke: #ececec; stroke-width: 2"/>
    <path d="M 32.191736 132.444837 
L 131.453057 285.326389 
" clip-path="url(#pdf40c0e05a)" style="fill: none; stroke: #d6d6d6; stroke-width: 2"/>
    <path d="M 32.191736 132.444837 
L 199.199658 275.685045 
" clip-path="url(#pdf40c0e05a)" style="fill: none; stroke: #dadada; stroke-width: 2"/>
    <path d="M 32.191736 132.444837 
L 250.925572 231.32049 
" clip-path="url(#pdf40c0e05a)" style="fill: none; stroke: #b7b7b7; stroke-width: 2"/>
    <path d="M 32.191736 200.191409 
L 69.194935 257.18345 
" clip-path="url(#pdf40c0e05a)" style="fill: none; stroke: #868686; stroke-width: 2"/>
    <path d="M 32.191736 200.191409 
L 131.453057 285.326389 
" clip-path="url(#pdf40c0e05a)" style="fill: none; stroke: #e3e3e3; stroke-width: 2"/>
    <path d="M 32.191736 200.191409 
L 199.199658 275.685045 
" clip-path="url(#pdf40c0e05a)" style="fill: none; stroke: #ececec; stroke-width: 2"/>
    <path d="M 32.191736 200.191409 
L 250.925572 231.32049 
" clip-path="url(#pdf40c0e05a)" style="fill: none; stroke: #464646; stroke-width: 2"/>
    <path d="M 69.194935 257.18345 
L 131.453057 285.326389 
" clip-path="url(#pdf40c0e05a)" style="fill: none; stroke: #d3d3d3; stroke-width: 2"/>
    <path d="M 69.194935 257.18345 
L 199.199658 275.685045 
" clip-path="url(#pdf40c0e05a)" style="fill: none; stroke: #bbbbbb; stroke-width: 2"/>
    <path d="M 69.194935 257.18345 
L 250.925572 231.32049 
" clip-path="url(#pdf40c0e05a)" style="fill: none; stroke: #181818; stroke-width: 2"/>
    <path d="M 131.453057 285.326389 
L 199.199658 275.685045 
" clip-path="url(#pdf40c0e05a)" style="fill: none; stroke: #828282; stroke-width: 2"/>
    <path d="M 131.453057 285.326389 
L 250.925572 231.32049 
" clip-path="url(#pdf40c0e05a)" style="fill: none; stroke: #e5e5e5; stroke-width: 2"/>
    <path d="M 199.199658 275.685045 
L 250.925572 231.32049 
" clip-path="url(#pdf40c0e05a)" style="fill: none; stroke: #acacac; stroke-width: 2"/>
   </g>
   <g id="PathCollection_1">
    <path d="M 270.208264 172.701698 
C 271.901208 172.701698 273.52504 172.029084 274.722132 170.831993 
C 275.919224 169.634901 276.591837 168.011068 276.591837 166.318125 
C 276.591837 164.625182 275.919224 163.001349 274.722132 161.804257 
C 273.52504 160.607166 271.901208 159.934552 270.208264 159.934552 
C 268.515321 159.934552 266.891489 160.607166 265.694397 161.804257 
C 264.497305 163.001349 263.824692 164.625182 263.824692 166.318125 
C 263.824692 168.011068 264.497305 169.634901 265.694397 170.831993 
C 266.891489 172.029084 268.515321 172.701698 270.208264 172.701698 
z
" clip-path="url(#pdf40c0e05a)" style="fill: #ffffff; stroke: #000000; stroke-width: 2"/>
    <path d="M 250.925579 107.252945 
C 252.500135 107.252945 254.010414 106.627368 255.123793 105.513988 
C 256.237172 104.400609 256.86275 102.890331 256.86275 101.315774 
C 256.86275 99.741218 256.237172 98.23094 255.123793 97.11756 
C 254.010414 96.004181 252.500135 95.378603 250.925579 95.378603 
C 249.351023 95.378603 247.840745 96.004181 246.727365 97.11756 
C 245.613986 98.23094 244.988408 99.741218 244.988408 101.315774 
C 244.988408 102.890331 245.613986 104.400609 246.727365 105.513988 
C 247.840745 106.627368 249.351023 107.252945 250.925579 107.252945 
z
" clip-path="url(#pdf40c0e05a)" style="fill: #ffffff; stroke: #000000; stroke-width: 2"/>
    <path d="M 199.199654 60.759091 
C 200.209517 60.759091 201.178155 60.357868 201.892236 59.643787 
C 202.606318 58.929706 203.007541 57.961068 203.007541 56.951205 
C 203.007541 55.941342 202.606318 54.972704 201.892236 54.258622 
C 201.178155 53.544541 200.209517 53.143318 199.199654 53.143318 
C 198.189791 53.143318 197.221153 53.544541 196.507072 54.258622 
C 195.79299 54.972704 195.391767 55.941342 195.391767 56.951205 
C 195.391767 57.961068 195.79299 58.929706 196.507072 59.643787 
C 197.221153 60.357868 198.189791 60.759091 199.199654 60.759091 
z
" clip-path="url(#pdf40c0e05a)" style="fill: #ffffff; stroke: #000000; stroke-width: 2"/>
    <path d="M 131.453079 51.919633 
C 132.675605 51.919633 133.848224 51.433918 134.71268 50.569462 
C 135.577136 49.705005 136.062851 48.532386 136.062851 47.309861 
C 136.062851 46.087335 135.577136 44.914716 134.71268 44.050259 
C 133.848224 43.185803 132.675605 42.700088 131.453079 42.700088 
C 130.230553 42.700088 129.057934 43.185803 128.193478 44.050259 
C 127.329021 44.914716 126.843307 46.087335 126.843307 47.309861 
C 126.843307 48.532386 127.329021 49.705005 128.193478 50.569462 
C 129.057934 51.433918 130.230553 51.919633 131.453079 51.919633 
z
" clip-path="url(#pdf40c0e05a)" style="fill: #ffffff; stroke: #000000; stroke-width: 2"/>
    <path d="M 69.194942 81.109647 
C 70.695158 81.109647 72.13413 80.513605 73.194942 79.452793 
C 74.255755 78.39198 74.851797 76.953008 74.851797 75.452793 
C 74.851797 73.952578 74.255755 72.513605 73.194942 71.452793 
C 72.13413 70.39198 70.695158 69.795939 69.194942 69.795939 
C 67.694727 69.795939 66.255755 70.39198 65.194942 71.452793 
C 64.13413 72.513605 63.538088 73.952578 63.538088 75.452793 
C 63.538088 76.953008 64.13413 78.39198 65.194942 79.452793 
C 66.255755 80.513605 67.694727 81.109647 69.194942 81.109647 
z
" clip-path="url(#pdf40c0e05a)" style="fill: #ffffff; stroke: #000000; stroke-width: 2"/>
    <path d="M 32.191736 136.119072 
C 33.166154 136.119072 34.100794 135.731931 34.789812 135.042913 
C 35.47883 134.353895 35.86597 133.419255 35.86597 132.444837 
C 35.86597 131.470419 35.47883 130.535779 34.789812 129.846761 
C 34.100794 129.157743 33.166154 128.770602 32.191736 128.770602 
C 31.217317 128.770602 30.282677 129.157743 29.593659 129.846761 
C 28.904641 130.535779 28.517501 131.470419 28.517501 132.444837 
C 28.517501 133.419255 28.904641 134.353895 29.593659 135.042913 
C 30.282677 135.731931 31.217317 136.119072 32.191736 136.119072 
z
" clip-path="url(#pdf40c0e05a)" style="fill: #ffffff; stroke: #000000; stroke-width: 2"/>
    <path d="M 32.191736 207.155604 
C 34.038661 207.155604 35.810191 206.421812 37.116164 205.115838 
C 38.422138 203.809864 39.15593 202.038335 39.15593 200.191409 
C 39.15593 198.344483 38.422138 196.572954 37.116164 195.26698 
C 35.810191 193.961007 34.038661 193.227215 32.191736 193.227215 
C 30.34481 193.227215 28.57328 193.961007 27.267307 195.26698 
C 25.961333 196.572954 25.227541 198.344483 25.227541 200.191409 
C 25.227541 202.038335 25.961333 203.809864 27.267307 205.115838 
C 28.57328 206.421812 30.34481 207.155604 32.191736 207.155604 
z
" clip-path="url(#pdf40c0e05a)" style="fill: #ffffff; stroke: #000000; stroke-width: 2"/>
    <path d="M 69.194935 263.48821 
C 70.866977 263.48821 72.470762 262.823901 73.653074 261.641589 
C 74.835386 260.459276 75.499695 258.855492 75.499695 257.18345 
C 75.499695 255.511408 74.835386 253.907624 73.653074 252.725311 
C 72.470762 251.542999 70.866977 250.87869 69.194935 250.87869 
C 67.522893 250.87869 65.919109 251.542999 64.736797 252.725311 
C 63.554484 253.907624 62.890175 255.511408 62.890175 257.18345 
C 62.890175 258.855492 63.554484 260.459276 64.736797 261.641589 
C 65.919109 262.823901 67.522893 263.48821 69.194935 263.48821 
z
" clip-path="url(#pdf40c0e05a)" style="fill: #ffffff; stroke: #000000; stroke-width: 2"/>
    <path d="M 131.453057 290.803615 
C 132.905634 290.803615 134.298913 290.2265 135.326041 289.199373 
C 136.353168 288.172246 136.930283 286.778967 136.930283 285.326389 
C 136.930283 283.873812 136.353168 282.480533 135.326041 281.453406 
C 134.298913 280.426279 132.905634 279.849164 131.453057 279.849164 
C 130.00048 279.849164 128.607201 280.426279 127.580074 281.453406 
C 126.552947 282.480533 125.975832 283.873812 125.975832 285.326389 
C 125.975832 286.778967 126.552947 288.172246 127.580074 289.199373 
C 128.607201 290.2265 130.00048 290.803615 131.453057 290.803615 
z
" clip-path="url(#pdf40c0e05a)" style="fill: #ffffff; stroke: #000000; stroke-width: 2"/>
    <path d="M 199.199658 280.072527 
C 200.363231 280.072527 201.479305 279.610235 202.302076 278.787464 
C 203.124847 277.964693 203.58714 276.848619 203.58714 275.685045 
C 203.58714 274.521471 203.124847 273.405398 202.302076 272.582627 
C 201.479305 271.759856 200.363231 271.297563 199.199658 271.297563 
C 198.036084 271.297563 196.92001 271.759856 196.097239 272.582627 
C 195.274468 273.405398 194.812175 274.521471 194.812175 275.685045 
C 194.812175 276.848619 195.274468 277.964693 196.097239 278.787464 
C 196.92001 279.610235 198.036084 280.072527 199.199658 280.072527 
z
" clip-path="url(#pdf40c0e05a)" style="fill: #ffffff; stroke: #000000; stroke-width: 2"/>
    <path d="M 250.925572 240.567111 
C 253.377805 240.567111 255.72993 239.592829 257.46392 237.858838 
C 259.197911 236.124848 260.172193 233.772723 260.172193 231.32049 
C 260.172193 228.868257 259.197911 226.516132 257.46392 224.782142 
C 255.72993 223.048151 253.377805 222.073869 250.925572 222.073869 
C 248.473339 222.073869 246.121214 223.048151 244.387224 224.782142 
C 242.653233 226.516132 241.678951 228.868257 241.678951 231.32049 
C 241.678951 233.772723 242.653233 236.124848 244.387224 237.858838 
C 246.121214 239.592829 248.473339 240.567111 250.925572 240.567111 
z
" clip-path="url(#pdf40c0e05a)" style="fill: #ffffff; stroke: #000000; stroke-width: 2"/>
   </g>
   <g id="text_1">
    <g clip-path="url(#pdf40c0e05a)">
     <!-- A.Sengun -->
     <g transform="translate(241.584514 169.629375)scale(0.12 -0.12)">
      <defs>
       <path id="DejaVuSans-41" d="M 2188 4044 
L 1331 1722 
L 3047 1722 
L 2188 4044 
z
M 1831 4666 
L 2547 4666 
L 4325 0 
L 3669 0 
L 3244 1197 
L 1141 1197 
L 716 0 
L 50 0 
L 1831 4666 
z
" transform="scale(0.015625)"/>
       <path id="DejaVuSans-2e" d="M 684 794 
L 1344 794 
L 1344 0 
L 684 0 
L 684 794 
z
" transform="scale(0.015625)"/>
       <path id="DejaVuSans-53" d="M 3425 4513 
L 3425 3897 
Q 3066 4069 2747 4153 
Q 2428 4238 2131 4238 
Q 1616 4238 1336 4038 
Q 1056 3838 1056 3469 
Q 1056 3159 1242 3001 
Q 1428 2844 1947 2747 
L 2328 2669 
Q 3034 2534 3370 2195 
Q 3706 1856 3706 1288 
Q 3706 609 3251 259 
Q 2797 -91 1919 -91 
Q 1588 -91 1214 -16 
Q 841 59 441 206 
L 441 856 
Q 825 641 1194 531 
Q 1563 422 1919 422 
Q 2459 422 2753 634 
Q 3047 847 3047 1241 
Q 3047 1584 2836 1778 
Q 2625 1972 2144 2069 
L 1759 2144 
Q 1053 2284 737 2584 
Q 422 2884 422 3419 
Q 422 4038 858 4394 
Q 1294 4750 2059 4750 
Q 2388 4750 2728 4690 
Q 3069 4631 3425 4513 
z
" transform="scale(0.015625)"/>
       <path id="DejaVuSans-65" d="M 3597 1894 
L 3597 1613 
L 953 1613 
Q 991 1019 1311 708 
Q 1631 397 2203 397 
Q 2534 397 2845 478 
Q 3156 559 3463 722 
L 3463 178 
Q 3153 47 2828 -22 
Q 2503 -91 2169 -91 
Q 1331 -91 842 396 
Q 353 884 353 1716 
Q 353 2575 817 3079 
Q 1281 3584 2069 3584 
Q 2775 3584 3186 3129 
Q 3597 2675 3597 1894 
z
M 3022 2063 
Q 3016 2534 2758 2815 
Q 2500 3097 2075 3097 
Q 1594 3097 1305 2825 
Q 1016 2553 972 2059 
L 3022 2063 
z
" transform="scale(0.015625)"/>
       <path id="DejaVuSans-6e" d="M 3513 2113 
L 3513 0 
L 2938 0 
L 2938 2094 
Q 2938 2591 2744 2837 
Q 2550 3084 2163 3084 
Q 1697 3084 1428 2787 
Q 1159 2491 1159 1978 
L 1159 0 
L 581 0 
L 581 3500 
L 1159 3500 
L 1159 2956 
Q 1366 3272 1645 3428 
Q 1925 3584 2291 3584 
Q 2894 3584 3203 3211 
Q 3513 2838 3513 2113 
z
" transform="scale(0.015625)"/>
       <path id="DejaVuSans-67" d="M 2906 1791 
Q 2906 2416 2648 2759 
Q 2391 3103 1925 3103 
Q 1463 3103 1205 2759 
Q 947 2416 947 1791 
Q 947 1169 1205 825 
Q 1463 481 1925 481 
Q 2391 481 2648 825 
Q 2906 1169 2906 1791 
z
M 3481 434 
Q 3481 -459 3084 -895 
Q 2688 -1331 1869 -1331 
Q 1566 -1331 1297 -1286 
Q 1028 -1241 775 -1147 
L 775 -588 
Q 1028 -725 1275 -790 
Q 1522 -856 1778 -856 
Q 2344 -856 2625 -561 
Q 2906 -266 2906 331 
L 2906 616 
Q 2728 306 2450 153 
Q 2172 0 1784 0 
Q 1141 0 747 490 
Q 353 981 353 1791 
Q 353 2603 747 3093 
Q 1141 3584 1784 3584 
Q 2172 3584 2450 3431 
Q 2728 3278 2906 2969 
L 2906 3500 
L 3481 3500 
L 3481 434 
z
" transform="scale(0.015625)"/>
       <path id="DejaVuSans-75" d="M 544 1381 
L 544 3500 
L 1119 3500 
L 1119 1403 
Q 1119 906 1312 657 
Q 1506 409 1894 409 
Q 2359 409 2629 706 
Q 2900 1003 2900 1516 
L 2900 3500 
L 3475 3500 
L 3475 0 
L 2900 0 
L 2900 538 
Q 2691 219 2414 64 
Q 2138 -91 1772 -91 
Q 1169 -91 856 284 
Q 544 659 544 1381 
z
M 1991 3584 
L 1991 3584 
z
" transform="scale(0.015625)"/>
      </defs>
      <use xlink:href="#DejaVuSans-41"/>
      <use xlink:href="#DejaVuSans-2e" x="66.658203"/>
      <use xlink:href="#DejaVuSans-53" x="98.445312"/>
      <use xlink:href="#DejaVuSans-65" x="161.921875"/>
      <use xlink:href="#DejaVuSans-6e" x="223.445312"/>
      <use xlink:href="#DejaVuSans-67" x="286.824219"/>
      <use xlink:href="#DejaVuSans-75" x="350.300781"/>
      <use xlink:href="#DejaVuSans-6e" x="413.679688"/>
     </g>
    </g>
   </g>
   <g id="text_2">
    <g clip-path="url(#pdf40c0e05a)">
     <!-- C.Wood -->
     <g transform="translate(228.097454 104.627024)scale(0.12 -0.12)">
      <defs>
       <path id="DejaVuSans-43" d="M 4122 4306 
L 4122 3641 
Q 3803 3938 3442 4084 
Q 3081 4231 2675 4231 
Q 1875 4231 1450 3742 
Q 1025 3253 1025 2328 
Q 1025 1406 1450 917 
Q 1875 428 2675 428 
Q 3081 428 3442 575 
Q 3803 722 4122 1019 
L 4122 359 
Q 3791 134 3420 21 
Q 3050 -91 2638 -91 
Q 1578 -91 968 557 
Q 359 1206 359 2328 
Q 359 3453 968 4101 
Q 1578 4750 2638 4750 
Q 3056 4750 3426 4639 
Q 3797 4528 4122 4306 
z
" transform="scale(0.015625)"/>
       <path id="DejaVuSans-57" d="M 213 4666 
L 850 4666 
L 1831 722 
L 2809 4666 
L 3519 4666 
L 4500 722 
L 5478 4666 
L 6119 4666 
L 4947 0 
L 4153 0 
L 3169 4050 
L 2175 0 
L 1381 0 
L 213 4666 
z
" transform="scale(0.015625)"/>
       <path id="DejaVuSans-6f" d="M 1959 3097 
Q 1497 3097 1228 2736 
Q 959 2375 959 1747 
Q 959 1119 1226 758 
Q 1494 397 1959 397 
Q 2419 397 2687 759 
Q 2956 1122 2956 1747 
Q 2956 2369 2687 2733 
Q 2419 3097 1959 3097 
z
M 1959 3584 
Q 2709 3584 3137 3096 
Q 3566 2609 3566 1747 
Q 3566 888 3137 398 
Q 2709 -91 1959 -91 
Q 1206 -91 779 398 
Q 353 888 353 1747 
Q 353 2609 779 3096 
Q 1206 3584 1959 3584 
z
" transform="scale(0.015625)"/>
       <path id="DejaVuSans-64" d="M 2906 2969 
L 2906 4863 
L 3481 4863 
L 3481 0 
L 2906 0 
L 2906 525 
Q 2725 213 2448 61 
Q 2172 -91 1784 -91 
Q 1150 -91 751 415 
Q 353 922 353 1747 
Q 353 2572 751 3078 
Q 1150 3584 1784 3584 
Q 2172 3584 2448 3432 
Q 2725 3281 2906 2969 
z
M 947 1747 
Q 947 1113 1208 752 
Q 1469 391 1925 391 
Q 2381 391 2643 752 
Q 2906 1113 2906 1747 
Q 2906 2381 2643 2742 
Q 2381 3103 1925 3103 
Q 1469 3103 1208 2742 
Q 947 2381 947 1747 
z
" transform="scale(0.015625)"/>
      </defs>
      <use xlink:href="#DejaVuSans-43"/>
      <use xlink:href="#DejaVuSans-2e" x="69.824219"/>
      <use xlink:href="#DejaVuSans-57" x="101.611328"/>
      <use xlink:href="#DejaVuSans-6f" x="194.613281"/>
      <use xlink:href="#DejaVuSans-6f" x="255.794922"/>
      <use xlink:href="#DejaVuSans-64" x="316.976562"/>
     </g>
    </g>
   </g>
   <g id="text_3">
    <g clip-path="url(#pdf40c0e05a)">
     <!-- D.Augustin -->
     <g transform="translate(166.207154 60.262455)scale(0.12 -0.12)">
      <defs>
       <path id="DejaVuSans-44" d="M 1259 4147 
L 1259 519 
L 2022 519 
Q 2988 519 3436 956 
Q 3884 1394 3884 2338 
Q 3884 3275 3436 3711 
Q 2988 4147 2022 4147 
L 1259 4147 
z
M 628 4666 
L 1925 4666 
Q 3281 4666 3915 4102 
Q 4550 3538 4550 2338 
Q 4550 1131 3912 565 
Q 3275 0 1925 0 
L 628 0 
L 628 4666 
z
" transform="scale(0.015625)"/>
       <path id="DejaVuSans-73" d="M 2834 3397 
L 2834 2853 
Q 2591 2978 2328 3040 
Q 2066 3103 1784 3103 
Q 1356 3103 1142 2972 
Q 928 2841 928 2578 
Q 928 2378 1081 2264 
Q 1234 2150 1697 2047 
L 1894 2003 
Q 2506 1872 2764 1633 
Q 3022 1394 3022 966 
Q 3022 478 2636 193 
Q 2250 -91 1575 -91 
Q 1294 -91 989 -36 
Q 684 19 347 128 
L 347 722 
Q 666 556 975 473 
Q 1284 391 1588 391 
Q 1994 391 2212 530 
Q 2431 669 2431 922 
Q 2431 1156 2273 1281 
Q 2116 1406 1581 1522 
L 1381 1569 
Q 847 1681 609 1914 
Q 372 2147 372 2553 
Q 372 3047 722 3315 
Q 1072 3584 1716 3584 
Q 2034 3584 2315 3537 
Q 2597 3491 2834 3397 
z
" transform="scale(0.015625)"/>
       <path id="DejaVuSans-74" d="M 1172 4494 
L 1172 3500 
L 2356 3500 
L 2356 3053 
L 1172 3053 
L 1172 1153 
Q 1172 725 1289 603 
Q 1406 481 1766 481 
L 2356 481 
L 2356 0 
L 1766 0 
Q 1100 0 847 248 
Q 594 497 594 1153 
L 594 3053 
L 172 3053 
L 172 3500 
L 594 3500 
L 594 4494 
L 1172 4494 
z
" transform="scale(0.015625)"/>
       <path id="DejaVuSans-69" d="M 603 3500 
L 1178 3500 
L 1178 0 
L 603 0 
L 603 3500 
z
M 603 4863 
L 1178 4863 
L 1178 4134 
L 603 4134 
L 603 4863 
z
" transform="scale(0.015625)"/>
      </defs>
      <use xlink:href="#DejaVuSans-44"/>
      <use xlink:href="#DejaVuSans-2e" x="77.001953"/>
      <use xlink:href="#DejaVuSans-41" x="108.789062"/>
      <use xlink:href="#DejaVuSans-75" x="177.197266"/>
      <use xlink:href="#DejaVuSans-67" x="240.576172"/>
      <use xlink:href="#DejaVuSans-75" x="304.052734"/>
      <use xlink:href="#DejaVuSans-73" x="367.431641"/>
      <use xlink:href="#DejaVuSans-74" x="419.53125"/>
      <use xlink:href="#DejaVuSans-69" x="458.740234"/>
      <use xlink:href="#DejaVuSans-6e" x="486.523438"/>
     </g>
    </g>
   </g>
   <g id="text_4">
    <g clip-path="url(#pdf40c0e05a)">
     <!-- D.Schroder -->
     <g transform="translate(98.045266 50.621111)scale(0.12 -0.12)">
      <defs>
       <path id="DejaVuSans-63" d="M 3122 3366 
L 3122 2828 
Q 2878 2963 2633 3030 
Q 2388 3097 2138 3097 
Q 1578 3097 1268 2742 
Q 959 2388 959 1747 
Q 959 1106 1268 751 
Q 1578 397 2138 397 
Q 2388 397 2633 464 
Q 2878 531 3122 666 
L 3122 134 
Q 2881 22 2623 -34 
Q 2366 -91 2075 -91 
Q 1284 -91 818 406 
Q 353 903 353 1747 
Q 353 2603 823 3093 
Q 1294 3584 2113 3584 
Q 2378 3584 2631 3529 
Q 2884 3475 3122 3366 
z
" transform="scale(0.015625)"/>
       <path id="DejaVuSans-68" d="M 3513 2113 
L 3513 0 
L 2938 0 
L 2938 2094 
Q 2938 2591 2744 2837 
Q 2550 3084 2163 3084 
Q 1697 3084 1428 2787 
Q 1159 2491 1159 1978 
L 1159 0 
L 581 0 
L 581 4863 
L 1159 4863 
L 1159 2956 
Q 1366 3272 1645 3428 
Q 1925 3584 2291 3584 
Q 2894 3584 3203 3211 
Q 3513 2838 3513 2113 
z
" transform="scale(0.015625)"/>
       <path id="DejaVuSans-72" d="M 2631 2963 
Q 2534 3019 2420 3045 
Q 2306 3072 2169 3072 
Q 1681 3072 1420 2755 
Q 1159 2438 1159 1844 
L 1159 0 
L 581 0 
L 581 3500 
L 1159 3500 
L 1159 2956 
Q 1341 3275 1631 3429 
Q 1922 3584 2338 3584 
Q 2397 3584 2469 3576 
Q 2541 3569 2628 3553 
L 2631 2963 
z
" transform="scale(0.015625)"/>
      </defs>
      <use xlink:href="#DejaVuSans-44"/>
      <use xlink:href="#DejaVuSans-2e" x="77.001953"/>
      <use xlink:href="#DejaVuSans-53" x="108.789062"/>
      <use xlink:href="#DejaVuSans-63" x="172.265625"/>
      <use xlink:href="#DejaVuSans-68" x="227.246094"/>
      <use xlink:href="#DejaVuSans-72" x="290.625"/>
      <use xlink:href="#DejaVuSans-6f" x="329.488281"/>
      <use xlink:href="#DejaVuSans-64" x="390.669922"/>
      <use xlink:href="#DejaVuSans-65" x="454.146484"/>
      <use xlink:href="#DejaVuSans-72" x="515.669922"/>
     </g>
    </g>
   </g>
   <g id="text_5">
    <g clip-path="url(#pdf40c0e05a)">
     <!-- E.Gordon -->
     <g transform="translate(41.53213 78.764043)scale(0.12 -0.12)">
      <defs>
       <path id="DejaVuSans-45" d="M 628 4666 
L 3578 4666 
L 3578 4134 
L 1259 4134 
L 1259 2753 
L 3481 2753 
L 3481 2222 
L 1259 2222 
L 1259 531 
L 3634 531 
L 3634 0 
L 628 0 
L 628 4666 
z
" transform="scale(0.015625)"/>
       <path id="DejaVuSans-47" d="M 3809 666 
L 3809 1919 
L 2778 1919 
L 2778 2438 
L 4434 2438 
L 4434 434 
Q 4069 175 3628 42 
Q 3188 -91 2688 -91 
Q 1594 -91 976 548 
Q 359 1188 359 2328 
Q 359 3472 976 4111 
Q 1594 4750 2688 4750 
Q 3144 4750 3555 4637 
Q 3966 4525 4313 4306 
L 4313 3634 
Q 3963 3931 3569 4081 
Q 3175 4231 2741 4231 
Q 1884 4231 1454 3753 
Q 1025 3275 1025 2328 
Q 1025 1384 1454 906 
Q 1884 428 2741 428 
Q 3075 428 3337 486 
Q 3600 544 3809 666 
z
" transform="scale(0.015625)"/>
      </defs>
      <use xlink:href="#DejaVuSans-45"/>
      <use xlink:href="#DejaVuSans-2e" x="63.183594"/>
      <use xlink:href="#DejaVuSans-47" x="94.970703"/>
      <use xlink:href="#DejaVuSans-6f" x="172.460938"/>
      <use xlink:href="#DejaVuSans-72" x="233.642578"/>
      <use xlink:href="#DejaVuSans-64" x="273.005859"/>
      <use xlink:href="#DejaVuSans-6f" x="336.482422"/>
      <use xlink:href="#DejaVuSans-6e" x="397.664062"/>
     </g>
    </g>
   </g>
   <g id="text_6">
    <g clip-path="url(#pdf40c0e05a)">
     <!-- G.Mathews -->
     <g transform="translate(-1.097014 135.756087)scale(0.12 -0.12)">
      <defs>
       <path id="DejaVuSans-4d" d="M 628 4666 
L 1569 4666 
L 2759 1491 
L 3956 4666 
L 4897 4666 
L 4897 0 
L 4281 0 
L 4281 4097 
L 3078 897 
L 2444 897 
L 1241 4097 
L 1241 0 
L 628 0 
L 628 4666 
z
" transform="scale(0.015625)"/>
       <path id="DejaVuSans-61" d="M 2194 1759 
Q 1497 1759 1228 1600 
Q 959 1441 959 1056 
Q 959 750 1161 570 
Q 1363 391 1709 391 
Q 2188 391 2477 730 
Q 2766 1069 2766 1631 
L 2766 1759 
L 2194 1759 
z
M 3341 1997 
L 3341 0 
L 2766 0 
L 2766 531 
Q 2569 213 2275 61 
Q 1981 -91 1556 -91 
Q 1019 -91 701 211 
Q 384 513 384 1019 
Q 384 1609 779 1909 
Q 1175 2209 1959 2209 
L 2766 2209 
L 2766 2266 
Q 2766 2663 2505 2880 
Q 2244 3097 1772 3097 
Q 1472 3097 1187 3025 
Q 903 2953 641 2809 
L 641 3341 
Q 956 3463 1253 3523 
Q 1550 3584 1831 3584 
Q 2591 3584 2966 3190 
Q 3341 2797 3341 1997 
z
" transform="scale(0.015625)"/>
       <path id="DejaVuSans-77" d="M 269 3500 
L 844 3500 
L 1563 769 
L 2278 3500 
L 2956 3500 
L 3675 769 
L 4391 3500 
L 4966 3500 
L 4050 0 
L 3372 0 
L 2619 2869 
L 1863 0 
L 1184 0 
L 269 3500 
z
" transform="scale(0.015625)"/>
      </defs>
      <use xlink:href="#DejaVuSans-47"/>
      <use xlink:href="#DejaVuSans-2e" x="77.490234"/>
      <use xlink:href="#DejaVuSans-4d" x="109.277344"/>
      <use xlink:href="#DejaVuSans-61" x="195.556641"/>
      <use xlink:href="#DejaVuSans-74" x="256.835938"/>
      <use xlink:href="#DejaVuSans-68" x="296.044922"/>
      <use xlink:href="#DejaVuSans-65" x="359.423828"/>
      <use xlink:href="#DejaVuSans-77" x="420.947266"/>
      <use xlink:href="#DejaVuSans-73" x="502.734375"/>
     </g>
    </g>
   </g>
   <g id="text_7">
    <g clip-path="url(#pdf40c0e05a)">
     <!-- J.Tate -->
     <g transform="translate(16.119236 203.502659)scale(0.12 -0.12)">
      <defs>
       <path id="DejaVuSans-4a" d="M 628 4666 
L 1259 4666 
L 1259 325 
Q 1259 -519 939 -900 
Q 619 -1281 -91 -1281 
L -331 -1281 
L -331 -750 
L -134 -750 
Q 284 -750 456 -515 
Q 628 -281 628 325 
L 628 4666 
z
" transform="scale(0.015625)"/>
       <path id="DejaVuSans-54" d="M -19 4666 
L 3928 4666 
L 3928 4134 
L 2272 4134 
L 2272 0 
L 1638 0 
L 1638 4134 
L -19 4134 
L -19 4666 
z
" transform="scale(0.015625)"/>
      </defs>
      <use xlink:href="#DejaVuSans-4a"/>
      <use xlink:href="#DejaVuSans-2e" x="29.492188"/>
      <use xlink:href="#DejaVuSans-54" x="61.279297"/>
      <use xlink:href="#DejaVuSans-61" x="105.863281"/>
      <use xlink:href="#DejaVuSans-74" x="167.142578"/>
      <use xlink:href="#DejaVuSans-65" x="206.351562"/>
     </g>
    </g>
   </g>
   <g id="text_8">
    <g clip-path="url(#pdf40c0e05a)">
     <!-- J.Green -->
     <g transform="translate(47.351185 260.4947)scale(0.12 -0.12)">
      <use xlink:href="#DejaVuSans-4a"/>
      <use xlink:href="#DejaVuSans-2e" x="29.492188"/>
      <use xlink:href="#DejaVuSans-47" x="61.279297"/>
      <use xlink:href="#DejaVuSans-72" x="138.769531"/>
      <use xlink:href="#DejaVuSans-65" x="177.632812"/>
      <use xlink:href="#DejaVuSans-65" x="239.15625"/>
      <use xlink:href="#DejaVuSans-6e" x="300.679688"/>
     </g>
    </g>
   </g>
   <g id="text_9">
    <g clip-path="url(#pdf40c0e05a)">
     <!-- J.Christopher -->
     <g transform="translate(92.731495 288.637639)scale(0.12 -0.12)">
      <defs>
       <path id="DejaVuSans-70" d="M 1159 525 
L 1159 -1331 
L 581 -1331 
L 581 3500 
L 1159 3500 
L 1159 2969 
Q 1341 3281 1617 3432 
Q 1894 3584 2278 3584 
Q 2916 3584 3314 3078 
Q 3713 2572 3713 1747 
Q 3713 922 3314 415 
Q 2916 -91 2278 -91 
Q 1894 -91 1617 61 
Q 1341 213 1159 525 
z
M 3116 1747 
Q 3116 2381 2855 2742 
Q 2594 3103 2138 3103 
Q 1681 3103 1420 2742 
Q 1159 2381 1159 1747 
Q 1159 1113 1420 752 
Q 1681 391 2138 391 
Q 2594 391 2855 752 
Q 3116 1113 3116 1747 
z
" transform="scale(0.015625)"/>
      </defs>
      <use xlink:href="#DejaVuSans-4a"/>
      <use xlink:href="#DejaVuSans-2e" x="29.492188"/>
      <use xlink:href="#DejaVuSans-43" x="61.279297"/>
      <use xlink:href="#DejaVuSans-68" x="131.103516"/>
      <use xlink:href="#DejaVuSans-72" x="194.482422"/>
      <use xlink:href="#DejaVuSans-69" x="235.595703"/>
      <use xlink:href="#DejaVuSans-73" x="263.378906"/>
      <use xlink:href="#DejaVuSans-74" x="315.478516"/>
      <use xlink:href="#DejaVuSans-6f" x="354.6875"/>
      <use xlink:href="#DejaVuSans-70" x="415.869141"/>
      <use xlink:href="#DejaVuSans-68" x="479.345703"/>
      <use xlink:href="#DejaVuSans-65" x="542.724609"/>
      <use xlink:href="#DejaVuSans-72" x="604.248047"/>
     </g>
    </g>
   </g>
   <g id="text_10">
    <g clip-path="url(#pdf40c0e05a)">
     <!-- K.Martin Jr. -->
     <g transform="translate(166.713408 278.996295)scale(0.12 -0.12)">
      <defs>
       <path id="DejaVuSans-4b" d="M 628 4666 
L 1259 4666 
L 1259 2694 
L 3353 4666 
L 4166 4666 
L 1850 2491 
L 4331 0 
L 3500 0 
L 1259 2247 
L 1259 0 
L 628 0 
L 628 4666 
z
" transform="scale(0.015625)"/>
       <path id="DejaVuSans-20" transform="scale(0.015625)"/>
      </defs>
      <use xlink:href="#DejaVuSans-4b"/>
      <use xlink:href="#DejaVuSans-2e" x="65.576172"/>
      <use xlink:href="#DejaVuSans-4d" x="97.363281"/>
      <use xlink:href="#DejaVuSans-61" x="183.642578"/>
      <use xlink:href="#DejaVuSans-72" x="244.921875"/>
      <use xlink:href="#DejaVuSans-74" x="286.035156"/>
      <use xlink:href="#DejaVuSans-69" x="325.244141"/>
      <use xlink:href="#DejaVuSans-6e" x="353.027344"/>
      <use xlink:href="#DejaVuSans-20" x="416.40625"/>
      <use xlink:href="#DejaVuSans-4a" x="448.193359"/>
      <use xlink:href="#DejaVuSans-72" x="477.685547"/>
      <use xlink:href="#DejaVuSans-2e" x="509.673828"/>
     </g>
    </g>
   </g>
   <g id="text_11">
    <g clip-path="url(#pdf40c0e05a)">
     <!-- K.Porter Jr. -->
     <g transform="translate(219.532447 234.63174)scale(0.12 -0.12)">
      <defs>
       <path id="DejaVuSans-50" d="M 1259 4147 
L 1259 2394 
L 2053 2394 
Q 2494 2394 2734 2622 
Q 2975 2850 2975 3272 
Q 2975 3691 2734 3919 
Q 2494 4147 2053 4147 
L 1259 4147 
z
M 628 4666 
L 2053 4666 
Q 2838 4666 3239 4311 
Q 3641 3956 3641 3272 
Q 3641 2581 3239 2228 
Q 2838 1875 2053 1875 
L 1259 1875 
L 1259 0 
L 628 0 
L 628 4666 
z
" transform="scale(0.015625)"/>
      </defs>
      <use xlink:href="#DejaVuSans-4b"/>
      <use xlink:href="#DejaVuSans-2e" x="65.576172"/>
      <use xlink:href="#DejaVuSans-50" x="97.363281"/>
      <use xlink:href="#DejaVuSans-6f" x="154.041016"/>
      <use xlink:href="#DejaVuSans-72" x="215.222656"/>
      <use xlink:href="#DejaVuSans-74" x="256.335938"/>
      <use xlink:href="#DejaVuSans-65" x="295.544922"/>
      <use xlink:href="#DejaVuSans-72" x="357.068359"/>
      <use xlink:href="#DejaVuSans-20" x="398.181641"/>
      <use xlink:href="#DejaVuSans-4a" x="429.96875"/>
      <use xlink:href="#DejaVuSans-72" x="459.460938"/>
      <use xlink:href="#DejaVuSans-2e" x="491.449219"/>
     </g>
    </g>
   </g>
   <g id="text_12">
    <!-- 2021-22 Houston Rockets Assist Network -->
    <g transform="translate(27.717187 16.318125)scale(0.12 -0.12)">
     <defs>
      <path id="DejaVuSans-32" d="M 1228 531 
L 3431 531 
L 3431 0 
L 469 0 
L 469 531 
Q 828 903 1448 1529 
Q 2069 2156 2228 2338 
Q 2531 2678 2651 2914 
Q 2772 3150 2772 3378 
Q 2772 3750 2511 3984 
Q 2250 4219 1831 4219 
Q 1534 4219 1204 4116 
Q 875 4013 500 3803 
L 500 4441 
Q 881 4594 1212 4672 
Q 1544 4750 1819 4750 
Q 2544 4750 2975 4387 
Q 3406 4025 3406 3419 
Q 3406 3131 3298 2873 
Q 3191 2616 2906 2266 
Q 2828 2175 2409 1742 
Q 1991 1309 1228 531 
z
" transform="scale(0.015625)"/>
      <path id="DejaVuSans-30" d="M 2034 4250 
Q 1547 4250 1301 3770 
Q 1056 3291 1056 2328 
Q 1056 1369 1301 889 
Q 1547 409 2034 409 
Q 2525 409 2770 889 
Q 3016 1369 3016 2328 
Q 3016 3291 2770 3770 
Q 2525 4250 2034 4250 
z
M 2034 4750 
Q 2819 4750 3233 4129 
Q 3647 3509 3647 2328 
Q 3647 1150 3233 529 
Q 2819 -91 2034 -91 
Q 1250 -91 836 529 
Q 422 1150 422 2328 
Q 422 3509 836 4129 
Q 1250 4750 2034 4750 
z
" transform="scale(0.015625)"/>
      <path id="DejaVuSans-31" d="M 794 531 
L 1825 531 
L 1825 4091 
L 703 3866 
L 703 4441 
L 1819 4666 
L 2450 4666 
L 2450 531 
L 3481 531 
L 3481 0 
L 794 0 
L 794 531 
z
" transform="scale(0.015625)"/>
      <path id="DejaVuSans-2d" d="M 313 2009 
L 1997 2009 
L 1997 1497 
L 313 1497 
L 313 2009 
z
" transform="scale(0.015625)"/>
      <path id="DejaVuSans-48" d="M 628 4666 
L 1259 4666 
L 1259 2753 
L 3553 2753 
L 3553 4666 
L 4184 4666 
L 4184 0 
L 3553 0 
L 3553 2222 
L 1259 2222 
L 1259 0 
L 628 0 
L 628 4666 
z
" transform="scale(0.015625)"/>
      <path id="DejaVuSans-52" d="M 2841 2188 
Q 3044 2119 3236 1894 
Q 3428 1669 3622 1275 
L 4263 0 
L 3584 0 
L 2988 1197 
Q 2756 1666 2539 1819 
Q 2322 1972 1947 1972 
L 1259 1972 
L 1259 0 
L 628 0 
L 628 4666 
L 2053 4666 
Q 2853 4666 3247 4331 
Q 3641 3997 3641 3322 
Q 3641 2881 3436 2590 
Q 3231 2300 2841 2188 
z
M 1259 4147 
L 1259 2491 
L 2053 2491 
Q 2509 2491 2742 2702 
Q 2975 2913 2975 3322 
Q 2975 3731 2742 3939 
Q 2509 4147 2053 4147 
L 1259 4147 
z
" transform="scale(0.015625)"/>
      <path id="DejaVuSans-6b" d="M 581 4863 
L 1159 4863 
L 1159 1991 
L 2875 3500 
L 3609 3500 
L 1753 1863 
L 3688 0 
L 2938 0 
L 1159 1709 
L 1159 0 
L 581 0 
L 581 4863 
z
" transform="scale(0.015625)"/>
      <path id="DejaVuSans-4e" d="M 628 4666 
L 1478 4666 
L 3547 763 
L 3547 4666 
L 4159 4666 
L 4159 0 
L 3309 0 
L 1241 3903 
L 1241 0 
L 628 0 
L 628 4666 
z
" transform="scale(0.015625)"/>
     </defs>
     <use xlink:href="#DejaVuSans-32"/>
     <use xlink:href="#DejaVuSans-30" x="63.623047"/>
     <use xlink:href="#DejaVuSans-32" x="127.246094"/>
     <use xlink:href="#DejaVuSans-31" x="190.869141"/>
     <use xlink:href="#DejaVuSans-2d" x="254.492188"/>
     <use xlink:href="#DejaVuSans-32" x="290.576172"/>
     <use xlink:href="#DejaVuSans-32" x="354.199219"/>
     <use xlink:href="#DejaVuSans-20" x="417.822266"/>
     <use xlink:href="#DejaVuSans-48" x="449.609375"/>
     <use xlink:href="#DejaVuSans-6f" x="524.804688"/>
     <use xlink:href="#DejaVuSans-75" x="585.986328"/>
     <use xlink:href="#DejaVuSans-73" x="649.365234"/>
     <use xlink:href="#DejaVuSans-74" x="701.464844"/>
     <use xlink:href="#DejaVuSans-6f" x="740.673828"/>
     <use xlink:href="#DejaVuSans-6e" x="801.855469"/>
     <use xlink:href="#DejaVuSans-20" x="865.234375"/>
     <use xlink:href="#DejaVuSans-52" x="897.021484"/>
     <use xlink:href="#DejaVuSans-6f" x="962.003906"/>
     <use xlink:href="#DejaVuSans-63" x="1023.185547"/>
     <use xlink:href="#DejaVuSans-6b" x="1078.166016"/>
     <use xlink:href="#DejaVuSans-65" x="1132.451172"/>
     <use xlink:href="#DejaVuSans-74" x="1193.974609"/>
     <use xlink:href="#DejaVuSans-73" x="1233.183594"/>
     <use xlink:href="#DejaVuSans-20" x="1285.283203"/>
     <use xlink:href="#DejaVuSans-41" x="1317.070312"/>
     <use xlink:href="#DejaVuSans-73" x="1385.478516"/>
     <use xlink:href="#DejaVuSans-73" x="1437.578125"/>
     <use xlink:href="#DejaVuSans-69" x="1489.677734"/>
     <use xlink:href="#DejaVuSans-73" x="1517.460938"/>
     <use xlink:href="#DejaVuSans-74" x="1569.560547"/>
     <use xlink:href="#DejaVuSans-20" x="1608.769531"/>
     <use xlink:href="#DejaVuSans-4e" x="1640.556641"/>
     <use xlink:href="#DejaVuSans-65" x="1715.361328"/>
     <use xlink:href="#DejaVuSans-74" x="1776.884766"/>
     <use xlink:href="#DejaVuSans-77" x="1816.09375"/>
     <use xlink:href="#DejaVuSans-6f" x="1897.880859"/>
     <use xlink:href="#DejaVuSans-72" x="1959.0625"/>
     <use xlink:href="#DejaVuSans-6b" x="2000.175781"/>
    </g>
   </g>
  </g>
 </g>
 <defs>
  <clipPath id="pdf40c0e05a">
   <rect x="7.2" y="22.318125" width="288" height="288"/>
  </clipPath>
 </defs>
</svg>
