<?xml version="1.0" encoding="utf-8" standalone="no"?>
<!DOCTYPE svg PUBLIC "-//W3C//DTD SVG 1.1//EN"
  "http://www.w3.org/Graphics/SVG/1.1/DTD/svg11.dtd">
<svg xmlns:xlink="http://www.w3.org/1999/xlink" width="590.4pt" height="605.518125pt" viewBox="0 0 590.4 605.518125" xmlns="http://www.w3.org/2000/svg" version="1.1">
 <metadata>
  <rdf:RDF xmlns:dc="http://purl.org/dc/elements/1.1/" xmlns:cc="http://creativecommons.org/ns#" xmlns:rdf="http://www.w3.org/1999/02/22-rdf-syntax-ns#">
   <cc:Work>
    <dc:type rdf:resource="http://purl.org/dc/dcmitype/StillImage"/>
    <dc:date>2023-04-14T16:48:14.336747</dc:date>
    <dc:format>image/svg+xml</dc:format>
    <dc:creator>
     <cc:Agent>
      <dc:title>Matplotlib v3.5.2, https://matplotlib.org/</dc:title>
     </cc:Agent>
    </dc:creator>
   </cc:Work>
  </rdf:RDF>
 </metadata>
 <defs>
  <style type="text/css">*{stroke-linejoin: round; stroke-linecap: butt}</style>
 </defs>
 <g id="figure_1">
  <g id="patch_1">
   <path d="M 0 605.518125 
L 590.4 605.518125 
L 590.4 0 
L 0 0 
z
" style="fill: #ffffff"/>
  </g>
  <g id="axes_1">
   <g id="LineCollection_1">
    <path d="M 533.216529 310.318125 
L 494.651158 180.313424 
" clip-path="url(#p936221f9eb)" style="fill: none; stroke: #c6c6c6; stroke-width: 2"/>
    <path d="M 533.216529 310.318125 
L 391.199308 91.584285 
" clip-path="url(#p936221f9eb)" style="fill: none; stroke: #000000; stroke-width: 2"/>
    <path d="M 533.216529 310.318125 
L 255.706158 72.301596 
" clip-path="url(#p936221f9eb)" style="fill: none; stroke: #a9a9a9; stroke-width: 2"/>
    <path d="M 533.216529 310.318125 
L 131.189885 128.587461 
" clip-path="url(#p936221f9eb)" style="fill: none; stroke: #d9d9d9; stroke-width: 2"/>
    <path d="M 533.216529 310.318125 
L 57.183471 242.571549 
" clip-path="url(#p936221f9eb)" style="fill: none; stroke: #8a8a8a; stroke-width: 2"/>
    <path d="M 533.216529 310.318125 
L 57.183471 378.064694 
" clip-path="url(#p936221f9eb)" style="fill: none; stroke: #f4f4f4; stroke-width: 2"/>
    <path d="M 533.216529 310.318125 
L 131.18987 492.048775 
" clip-path="url(#p936221f9eb)" style="fill: none; stroke: #e5e5e5; stroke-width: 2"/>
    <path d="M 533.216529 310.318125 
L 255.706114 548.334654 
" clip-path="url(#p936221f9eb)" style="fill: none; stroke: #e3e3e3; stroke-width: 2"/>
    <path d="M 533.216529 310.318125 
L 391.199315 529.051965 
" clip-path="url(#p936221f9eb)" style="fill: none; stroke: #c6c6c6; stroke-width: 2"/>
    <path d="M 533.216529 310.318125 
L 494.651144 440.322855 
" clip-path="url(#p936221f9eb)" style="fill: none; stroke: #d4d4d4; stroke-width: 2"/>
    <path d="M 494.651158 180.313424 
L 391.199308 91.584285 
" clip-path="url(#p936221f9eb)" style="fill: none; stroke: #696969; stroke-width: 2"/>
    <path d="M 494.651158 180.313424 
L 255.706158 72.301596 
" clip-path="url(#p936221f9eb)" style="fill: none; stroke: #dcdcdc; stroke-width: 2"/>
    <path d="M 494.651158 180.313424 
L 131.189885 128.587461 
" clip-path="url(#p936221f9eb)" style="fill: none; stroke: #d4d4d4; stroke-width: 2"/>
    <path d="M 494.651158 180.313424 
L 57.183471 242.571549 
" clip-path="url(#p936221f9eb)" style="fill: none; stroke: #d0d0d0; stroke-width: 2"/>
    <path d="M 494.651158 180.313424 
L 57.183471 378.064694 
" clip-path="url(#p936221f9eb)" style="fill: none; stroke: #fdfdfd; stroke-width: 2"/>
    <path d="M 494.651158 180.313424 
L 131.18987 492.048775 
" clip-path="url(#p936221f9eb)" style="fill: none; stroke: #acacac; stroke-width: 2"/>
    <path d="M 494.651158 180.313424 
L 255.706114 548.334654 
" clip-path="url(#p936221f9eb)" style="fill: none; stroke: #ececec; stroke-width: 2"/>
    <path d="M 494.651158 180.313424 
L 391.199315 529.051965 
" clip-path="url(#p936221f9eb)" style="fill: none; stroke: #c8c8c8; stroke-width: 2"/>
    <path d="M 494.651158 180.313424 
L 494.651144 440.322855 
" clip-path="url(#p936221f9eb)" style="fill: none; stroke: #999999; stroke-width: 2"/>
    <path d="M 391.199308 91.584285 
L 255.706158 72.301596 
" clip-path="url(#p936221f9eb)" style="fill: none; stroke: #d7d7d7; stroke-width: 2"/>
    <path d="M 391.199308 91.584285 
L 131.189885 128.587461 
" clip-path="url(#p936221f9eb)" style="fill: none; stroke: #8a8a8a; stroke-width: 2"/>
    <path d="M 391.199308 91.584285 
L 57.183471 242.571549 
" clip-path="url(#p936221f9eb)" style="fill: none; stroke: #969696; stroke-width: 2"/>
    <path d="M 391.199308 91.584285 
L 57.183471 378.064694 
" clip-path="url(#p936221f9eb)" style="fill: none; stroke: #e3e3e3; stroke-width: 2"/>
    <path d="M 391.199308 91.584285 
L 131.18987 492.048775 
" clip-path="url(#p936221f9eb)" style="fill: none; stroke: #f1f1f1; stroke-width: 2"/>
    <path d="M 391.199308 91.584285 
L 255.706114 548.334654 
" clip-path="url(#p936221f9eb)" style="fill: none; stroke: #e5e5e5; stroke-width: 2"/>
    <path d="M 391.199308 91.584285 
L 391.199315 529.051965 
" clip-path="url(#p936221f9eb)" style="fill: none; stroke: #d0d0d0; stroke-width: 2"/>
    <path d="M 391.199308 91.584285 
L 494.651144 440.322855 
" clip-path="url(#p936221f9eb)" style="fill: none; stroke: #999999; stroke-width: 2"/>
    <path d="M 255.706158 72.301596 
L 131.189885 128.587461 
" clip-path="url(#p936221f9eb)" style="fill: none; stroke: #cdcdcd; stroke-width: 2"/>
    <path d="M 255.706158 72.301596 
L 57.183471 378.064694 
" clip-path="url(#p936221f9eb)" style="fill: none; stroke: #bdbdbd; stroke-width: 2"/>
    <path d="M 255.706158 72.301596 
L 131.18987 492.048775 
" clip-path="url(#p936221f9eb)" style="fill: none; stroke: #f6f6f6; stroke-width: 2"/>
    <path d="M 255.706158 72.301596 
L 255.706114 548.334654 
" clip-path="url(#p936221f9eb)" style="fill: none; stroke: #a2a2a2; stroke-width: 2"/>
    <path d="M 255.706158 72.301596 
L 391.199315 529.051965 
" clip-path="url(#p936221f9eb)" style="fill: none; stroke: #a5a5a5; stroke-width: 2"/>
    <path d="M 255.706158 72.301596 
L 494.651144 440.322855 
" clip-path="url(#p936221f9eb)" style="fill: none; stroke: #c4c4c4; stroke-width: 2"/>
    <path d="M 131.189885 128.587461 
L 57.183471 242.571549 
" clip-path="url(#p936221f9eb)" style="fill: none; stroke: #565656; stroke-width: 2"/>
    <path d="M 131.189885 128.587461 
L 57.183471 378.064694 
" clip-path="url(#p936221f9eb)" style="fill: none; stroke: #fdfdfd; stroke-width: 2"/>
    <path d="M 131.189885 128.587461 
L 131.18987 492.048775 
" clip-path="url(#p936221f9eb)" style="fill: none; stroke: #b1b1b1; stroke-width: 2"/>
    <path d="M 131.189885 128.587461 
L 255.706114 548.334654 
" clip-path="url(#p936221f9eb)" style="fill: none; stroke: #ececec; stroke-width: 2"/>
    <path d="M 131.189885 128.587461 
L 391.199315 529.051965 
" clip-path="url(#p936221f9eb)" style="fill: none; stroke: #bdbdbd; stroke-width: 2"/>
    <path d="M 131.189885 128.587461 
L 494.651144 440.322855 
" clip-path="url(#p936221f9eb)" style="fill: none; stroke: #7e7e7e; stroke-width: 2"/>
    <path d="M 57.183471 242.571549 
L 57.183471 378.064694 
" clip-path="url(#p936221f9eb)" style="fill: none; stroke: #ffffff; stroke-width: 2"/>
    <path d="M 57.183471 242.571549 
L 131.18987 492.048775 
" clip-path="url(#p936221f9eb)" style="fill: none; stroke: #c1c1c1; stroke-width: 2"/>
    <path d="M 57.183471 242.571549 
L 255.706114 548.334654 
" clip-path="url(#p936221f9eb)" style="fill: none; stroke: #fbfbfb; stroke-width: 2"/>
    <path d="M 57.183471 242.571549 
L 391.199315 529.051965 
" clip-path="url(#p936221f9eb)" style="fill: none; stroke: #fbfbfb; stroke-width: 2"/>
    <path d="M 57.183471 242.571549 
L 494.651144 440.322855 
" clip-path="url(#p936221f9eb)" style="fill: none; stroke: #999999; stroke-width: 2"/>
    <path d="M 57.183471 378.064694 
L 131.18987 492.048775 
" clip-path="url(#p936221f9eb)" style="fill: none; stroke: #d7d7d7; stroke-width: 2"/>
    <path d="M 57.183471 378.064694 
L 255.706114 548.334654 
" clip-path="url(#p936221f9eb)" style="fill: none; stroke: #e0e0e0; stroke-width: 2"/>
    <path d="M 57.183471 378.064694 
L 391.199315 529.051965 
" clip-path="url(#p936221f9eb)" style="fill: none; stroke: #bfbfbf; stroke-width: 2"/>
    <path d="M 57.183471 378.064694 
L 494.651144 440.322855 
" clip-path="url(#p936221f9eb)" style="fill: none; stroke: #f4f4f4; stroke-width: 2"/>
    <path d="M 131.18987 492.048775 
L 255.706114 548.334654 
" clip-path="url(#p936221f9eb)" style="fill: none; stroke: #f8f8f8; stroke-width: 2"/>
    <path d="M 131.18987 492.048775 
L 391.199315 529.051965 
" clip-path="url(#p936221f9eb)" style="fill: none; stroke: #d9d9d9; stroke-width: 2"/>
    <path d="M 131.18987 492.048775 
L 494.651144 440.322855 
" clip-path="url(#p936221f9eb)" style="fill: none; stroke: #bfbfbf; stroke-width: 2"/>
    <path d="M 255.706114 548.334654 
L 391.199315 529.051965 
" clip-path="url(#p936221f9eb)" style="fill: none; stroke: #d4d4d4; stroke-width: 2"/>
    <path d="M 255.706114 548.334654 
L 494.651144 440.322855 
" clip-path="url(#p936221f9eb)" style="fill: none; stroke: #dedede; stroke-width: 2"/>
    <path d="M 391.199315 529.051965 
L 494.651144 440.322855 
" clip-path="url(#p936221f9eb)" style="fill: none; stroke: #c8c8c8; stroke-width: 2"/>
   </g>
   <g id="PathCollection_1">
    <path d="M 533.216529 314.981815 
C 534.453354 314.981815 535.639688 314.490419 536.514255 313.615851 
C 537.388823 312.741284 537.880218 311.55495 537.880218 310.318125 
C 537.880218 309.0813 537.388823 307.894966 536.514255 307.020399 
C 535.639688 306.145831 534.453354 305.654435 533.216529 305.654435 
C 531.979704 305.654435 530.79337 306.145831 529.918802 307.020399 
C 529.044235 307.894966 528.552839 309.0813 528.552839 310.318125 
C 528.552839 311.55495 529.044235 312.741284 529.918802 313.615851 
C 530.79337 314.490419 531.979704 314.981815 533.216529 314.981815 
z
" clip-path="url(#p936221f9eb)" style="fill: #ffffff; stroke: #000000; stroke-width: 2"/>
    <path d="M 494.651158 184.868641 
C 495.859216 184.868641 497.017957 184.388674 497.872183 183.534448 
C 498.726409 182.680223 499.206375 181.521481 499.206375 180.313424 
C 499.206375 179.105366 498.726409 177.946625 497.872183 177.092399 
C 497.017957 176.238173 495.859216 175.758207 494.651158 175.758207 
C 493.443101 175.758207 492.28436 176.238173 491.430134 177.092399 
C 490.575908 177.946625 490.095942 179.105366 490.095942 180.313424 
C 490.095942 181.521481 490.575908 182.680223 491.430134 183.534448 
C 492.28436 184.388674 493.443101 184.868641 494.651158 184.868641 
z
" clip-path="url(#p936221f9eb)" style="fill: #ffffff; stroke: #000000; stroke-width: 2"/>
    <path d="M 391.199308 100.172067 
C 393.476814 100.172067 395.661347 99.267204 397.271787 97.656764 
C 398.882227 96.046323 399.78709 93.861791 399.78709 91.584285 
C 399.78709 89.306778 398.882227 87.122246 397.271787 85.511806 
C 395.661347 83.901366 393.476814 82.996503 391.199308 82.996503 
C 388.921802 82.996503 386.737269 83.901366 385.126829 85.511806 
C 383.516389 87.122246 382.611526 89.306778 382.611526 91.584285 
C 382.611526 93.861791 383.516389 96.046323 385.126829 97.656764 
C 386.737269 99.267204 388.921802 100.172067 391.199308 100.172067 
z
" clip-path="url(#p936221f9eb)" style="fill: #ffffff; stroke: #000000; stroke-width: 2"/>
    <path d="M 255.706158 78.586499 
C 257.372933 78.586499 258.971667 77.924282 260.150255 76.745693 
C 261.328843 75.567105 261.99106 73.968372 261.99106 72.301596 
C 261.99106 70.63482 261.328843 69.036087 260.150255 67.857499 
C 258.971667 66.678911 257.372933 66.016694 255.706158 66.016694 
C 254.039382 66.016694 252.440649 66.678911 251.262061 67.857499 
C 250.083472 69.036087 249.421255 70.63482 249.421255 72.301596 
C 249.421255 73.968372 250.083472 75.567105 251.262061 76.745693 
C 252.440649 77.924282 254.039382 78.586499 255.706158 78.586499 
z
" clip-path="url(#p936221f9eb)" style="fill: #ffffff; stroke: #000000; stroke-width: 2"/>
    <path d="M 131.189885 133.562398 
C 132.509254 133.562398 133.774762 133.038207 134.707697 132.105273 
C 135.640631 131.172338 136.164822 129.906829 136.164822 128.587461 
C 136.164822 127.268092 135.640631 126.002583 134.707697 125.069649 
C 133.774762 124.136714 132.509254 123.612524 131.189885 123.612524 
C 129.870516 123.612524 128.605008 124.136714 127.672073 125.069649 
C 126.739138 126.002583 126.214948 127.268092 126.214948 128.587461 
C 126.214948 129.906829 126.739138 131.172338 127.672073 132.105273 
C 128.605008 133.038207 129.870516 133.562398 131.189885 133.562398 
z
" clip-path="url(#p936221f9eb)" style="fill: #ffffff; stroke: #000000; stroke-width: 2"/>
    <path d="M 57.183471 249.316918 
C 58.972364 249.316918 60.688229 248.606183 61.953167 247.341245 
C 63.218105 246.076307 63.92884 244.360442 63.92884 242.571549 
C 63.92884 240.782656 63.218105 239.066791 61.953167 237.801853 
C 60.688229 236.536915 58.972364 235.82618 57.183471 235.82618 
C 55.394578 235.82618 53.678713 236.536915 52.413775 237.801853 
C 51.148837 239.066791 50.438102 240.782656 50.438102 242.571549 
C 50.438102 244.360442 51.148837 246.076307 52.413775 247.341245 
C 53.678713 248.606183 55.394578 249.316918 57.183471 249.316918 
z
" clip-path="url(#p936221f9eb)" style="fill: #ffffff; stroke: #000000; stroke-width: 2"/>
    <path d="M 57.183471 381.492521 
C 58.092542 381.492521 58.964501 381.131344 59.607311 380.488534 
C 60.250121 379.845724 60.611298 378.973764 60.611298 378.064694 
C 60.611298 377.155623 60.250121 376.283664 59.607311 375.640854 
C 58.964501 374.998044 58.092542 374.636866 57.183471 374.636866 
C 56.274401 374.636866 55.402441 374.998044 54.759631 375.640854 
C 54.116821 376.283664 53.755644 377.155623 53.755644 378.064694 
C 53.755644 378.973764 54.116821 379.845724 54.759631 380.488534 
C 55.402441 381.131344 56.274401 381.492521 57.183471 381.492521 
z
" clip-path="url(#p936221f9eb)" style="fill: #ffffff; stroke: #000000; stroke-width: 2"/>
    <path d="M 131.18987 498.192878 
C 132.819305 498.192878 134.382222 497.545496 135.534407 496.393312 
C 136.686592 495.241127 137.333973 493.67821 137.333973 492.048775 
C 137.333973 490.41934 136.686592 488.856423 135.534407 487.704238 
C 134.382222 486.552054 132.819305 485.904672 131.18987 485.904672 
C 129.560435 485.904672 127.997518 486.552054 126.845333 487.704238 
C 125.693149 488.856423 125.045767 490.41934 125.045767 492.048775 
C 125.045767 493.67821 125.693149 495.241127 126.845333 496.393312 
C 127.997518 497.545496 129.560435 498.192878 131.18987 498.192878 
z
" clip-path="url(#p936221f9eb)" style="fill: #ffffff; stroke: #000000; stroke-width: 2"/>
    <path d="M 255.706114 552.547729 
C 256.823435 552.547729 257.895143 552.103813 258.685208 551.313748 
C 259.475273 550.523683 259.919189 549.451974 259.919189 548.334654 
C 259.919189 547.217333 259.475273 546.145625 258.685208 545.35556 
C 257.895143 544.565495 256.823435 544.121579 255.706114 544.121579 
C 254.588794 544.121579 253.517085 544.565495 252.72702 545.35556 
C 251.936956 546.145625 251.493039 547.217333 251.493039 548.334654 
C 251.493039 549.451974 251.936956 550.523683 252.72702 551.313748 
C 253.517085 552.103813 254.588794 552.547729 255.706114 552.547729 
z
" clip-path="url(#p936221f9eb)" style="fill: #ffffff; stroke: #000000; stroke-width: 2"/>
    <path d="M 391.199315 533.715655 
C 392.43614 533.715655 393.622474 533.224259 394.497042 532.349692 
C 395.371609 531.475125 395.863005 530.28879 395.863005 529.051965 
C 395.863005 527.81514 395.371609 526.628806 394.497042 525.754239 
C 393.622474 524.879672 392.43614 524.388276 391.199315 524.388276 
C 389.96249 524.388276 388.776156 524.879672 387.901589 525.754239 
C 387.027021 526.628806 386.535626 527.81514 386.535626 529.051965 
C 386.535626 530.28879 387.027021 531.475125 387.901589 532.349692 
C 388.776156 533.224259 389.96249 533.715655 391.199315 533.715655 
z
" clip-path="url(#p936221f9eb)" style="fill: #ffffff; stroke: #000000; stroke-width: 2"/>
    <path d="M 494.651144 445.566899 
C 496.041881 445.566899 497.375844 445.014354 498.359243 444.030954 
C 499.342643 443.047555 499.895188 441.713592 499.895188 440.322855 
C 499.895188 438.932118 499.342643 437.598155 498.359243 436.614756 
C 497.375844 435.631356 496.041881 435.078811 494.651144 435.078811 
C 493.260407 435.078811 491.926444 435.631356 490.943045 436.614756 
C 489.959645 437.598155 489.4071 438.932118 489.4071 440.322855 
C 489.4071 441.713592 489.959645 443.047555 490.943045 444.030954 
C 491.926444 445.014354 493.260407 445.566899 494.651144 445.566899 
z
" clip-path="url(#p936221f9eb)" style="fill: #ffffff; stroke: #000000; stroke-width: 2"/>
   </g>
   <g id="text_1">
    <g clip-path="url(#p936221f9eb)">
     <!-- C.Boozer -->
     <g transform="translate(535.505826 284.773682)scale(0.12 -0.12)">
      <defs>
       <path id="DejaVuSans-43" d="M 4122 4306 
L 4122 3641 
Q 3803 3938 3442 4084 
Q 3081 4231 2675 4231 
Q 1875 4231 1450 3742 
Q 1025 3253 1025 2328 
Q 1025 1406 1450 917 
Q 1875 428 2675 428 
Q 3081 428 3442 575 
Q 3803 722 4122 1019 
L 4122 359 
Q 3791 134 3420 21 
Q 3050 -91 2638 -91 
Q 1578 -91 968 557 
Q 359 1206 359 2328 
Q 359 3453 968 4101 
Q 1578 4750 2638 4750 
Q 3056 4750 3426 4639 
Q 3797 4528 4122 4306 
z
" transform="scale(0.015625)"/>
       <path id="DejaVuSans-2e" d="M 684 794 
L 1344 794 
L 1344 0 
L 684 0 
L 684 794 
z
" transform="scale(0.015625)"/>
       <path id="DejaVuSans-42" d="M 1259 2228 
L 1259 519 
L 2272 519 
Q 2781 519 3026 730 
Q 3272 941 3272 1375 
Q 3272 1813 3026 2020 
Q 2781 2228 2272 2228 
L 1259 2228 
z
M 1259 4147 
L 1259 2741 
L 2194 2741 
Q 2656 2741 2882 2914 
Q 3109 3088 3109 3444 
Q 3109 3797 2882 3972 
Q 2656 4147 2194 4147 
L 1259 4147 
z
M 628 4666 
L 2241 4666 
Q 2963 4666 3353 4366 
Q 3744 4066 3744 3513 
Q 3744 3084 3544 2831 
Q 3344 2578 2956 2516 
Q 3422 2416 3680 2098 
Q 3938 1781 3938 1306 
Q 3938 681 3513 340 
Q 3088 0 2303 0 
L 628 0 
L 628 4666 
z
" transform="scale(0.015625)"/>
       <path id="DejaVuSans-6f" d="M 1959 3097 
Q 1497 3097 1228 2736 
Q 959 2375 959 1747 
Q 959 1119 1226 758 
Q 1494 397 1959 397 
Q 2419 397 2687 759 
Q 2956 1122 2956 1747 
Q 2956 2369 2687 2733 
Q 2419 3097 1959 3097 
z
M 1959 3584 
Q 2709 3584 3137 3096 
Q 3566 2609 3566 1747 
Q 3566 888 3137 398 
Q 2709 -91 1959 -91 
Q 1206 -91 779 398 
Q 353 888 353 1747 
Q 353 2609 779 3096 
Q 1206 3584 1959 3584 
z
" transform="scale(0.015625)"/>
       <path id="DejaVuSans-7a" d="M 353 3500 
L 3084 3500 
L 3084 2975 
L 922 459 
L 3084 459 
L 3084 0 
L 275 0 
L 275 525 
L 2438 3041 
L 353 3041 
L 353 3500 
z
" transform="scale(0.015625)"/>
       <path id="DejaVuSans-65" d="M 3597 1894 
L 3597 1613 
L 953 1613 
Q 991 1019 1311 708 
Q 1631 397 2203 397 
Q 2534 397 2845 478 
Q 3156 559 3463 722 
L 3463 178 
Q 3153 47 2828 -22 
Q 2503 -91 2169 -91 
Q 1331 -91 842 396 
Q 353 884 353 1716 
Q 353 2575 817 3079 
Q 1281 3584 2069 3584 
Q 2775 3584 3186 3129 
Q 3597 2675 3597 1894 
z
M 3022 2063 
Q 3016 2534 2758 2815 
Q 2500 3097 2075 3097 
Q 1594 3097 1305 2825 
Q 1016 2553 972 2059 
L 3022 2063 
z
" transform="scale(0.015625)"/>
       <path id="DejaVuSans-72" d="M 2631 2963 
Q 2534 3019 2420 3045 
Q 2306 3072 2169 3072 
Q 1681 3072 1420 2755 
Q 1159 2438 1159 1844 
L 1159 0 
L 581 0 
L 581 3500 
L 1159 3500 
L 1159 2956 
Q 1341 3275 1631 3429 
Q 1922 3584 2338 3584 
Q 2397 3584 2469 3576 
Q 2541 3569 2628 3553 
L 2631 2963 
z
" transform="scale(0.015625)"/>
      </defs>
      <use xlink:href="#DejaVuSans-43"/>
      <use xlink:href="#DejaVuSans-2e" x="69.824219"/>
      <use xlink:href="#DejaVuSans-42" x="101.611328"/>
      <use xlink:href="#DejaVuSans-6f" x="170.214844"/>
      <use xlink:href="#DejaVuSans-6f" x="231.396484"/>
      <use xlink:href="#DejaVuSans-7a" x="292.578125"/>
      <use xlink:href="#DejaVuSans-65" x="345.068359"/>
      <use xlink:href="#DejaVuSans-72" x="406.591797"/>
     </g>
    </g>
   </g>
   <g id="text_2">
    <g clip-path="url(#p936221f9eb)">
     <!-- E.Davis -->
     <g transform="translate(501.464831 154.768981)scale(0.12 -0.12)">
      <defs>
       <path id="DejaVuSans-45" d="M 628 4666 
L 3578 4666 
L 3578 4134 
L 1259 4134 
L 1259 2753 
L 3481 2753 
L 3481 2222 
L 1259 2222 
L 1259 531 
L 3634 531 
L 3634 0 
L 628 0 
L 628 4666 
z
" transform="scale(0.015625)"/>
       <path id="DejaVuSans-44" d="M 1259 4147 
L 1259 519 
L 2022 519 
Q 2988 519 3436 956 
Q 3884 1394 3884 2338 
Q 3884 3275 3436 3711 
Q 2988 4147 2022 4147 
L 1259 4147 
z
M 628 4666 
L 1925 4666 
Q 3281 4666 3915 4102 
Q 4550 3538 4550 2338 
Q 4550 1131 3912 565 
Q 3275 0 1925 0 
L 628 0 
L 628 4666 
z
" transform="scale(0.015625)"/>
       <path id="DejaVuSans-61" d="M 2194 1759 
Q 1497 1759 1228 1600 
Q 959 1441 959 1056 
Q 959 750 1161 570 
Q 1363 391 1709 391 
Q 2188 391 2477 730 
Q 2766 1069 2766 1631 
L 2766 1759 
L 2194 1759 
z
M 3341 1997 
L 3341 0 
L 2766 0 
L 2766 531 
Q 2569 213 2275 61 
Q 1981 -91 1556 -91 
Q 1019 -91 701 211 
Q 384 513 384 1019 
Q 384 1609 779 1909 
Q 1175 2209 1959 2209 
L 2766 2209 
L 2766 2266 
Q 2766 2663 2505 2880 
Q 2244 3097 1772 3097 
Q 1472 3097 1187 3025 
Q 903 2953 641 2809 
L 641 3341 
Q 956 3463 1253 3523 
Q 1550 3584 1831 3584 
Q 2591 3584 2966 3190 
Q 3341 2797 3341 1997 
z
" transform="scale(0.015625)"/>
       <path id="DejaVuSans-76" d="M 191 3500 
L 800 3500 
L 1894 563 
L 2988 3500 
L 3597 3500 
L 2284 0 
L 1503 0 
L 191 3500 
z
" transform="scale(0.015625)"/>
       <path id="DejaVuSans-69" d="M 603 3500 
L 1178 3500 
L 1178 0 
L 603 0 
L 603 3500 
z
M 603 4863 
L 1178 4863 
L 1178 4134 
L 603 4134 
L 603 4863 
z
" transform="scale(0.015625)"/>
       <path id="DejaVuSans-73" d="M 2834 3397 
L 2834 2853 
Q 2591 2978 2328 3040 
Q 2066 3103 1784 3103 
Q 1356 3103 1142 2972 
Q 928 2841 928 2578 
Q 928 2378 1081 2264 
Q 1234 2150 1697 2047 
L 1894 2003 
Q 2506 1872 2764 1633 
Q 3022 1394 3022 966 
Q 3022 478 2636 193 
Q 2250 -91 1575 -91 
Q 1294 -91 989 -36 
Q 684 19 347 128 
L 347 722 
Q 666 556 975 473 
Q 1284 391 1588 391 
Q 1994 391 2212 530 
Q 2431 669 2431 922 
Q 2431 1156 2273 1281 
Q 2116 1406 1581 1522 
L 1381 1569 
Q 847 1681 609 1914 
Q 372 2147 372 2553 
Q 372 3047 722 3315 
Q 1072 3584 1716 3584 
Q 2034 3584 2315 3537 
Q 2597 3491 2834 3397 
z
" transform="scale(0.015625)"/>
      </defs>
      <use xlink:href="#DejaVuSans-45"/>
      <use xlink:href="#DejaVuSans-2e" x="63.183594"/>
      <use xlink:href="#DejaVuSans-44" x="94.970703"/>
      <use xlink:href="#DejaVuSans-61" x="171.972656"/>
      <use xlink:href="#DejaVuSans-76" x="233.251953"/>
      <use xlink:href="#DejaVuSans-69" x="292.431641"/>
      <use xlink:href="#DejaVuSans-73" x="320.214844"/>
     </g>
    </g>
   </g>
   <g id="text_3">
    <g clip-path="url(#p936221f9eb)">
     <!-- J.Lin -->
     <g transform="translate(407.862355 66.039841)scale(0.12 -0.12)">
      <defs>
       <path id="DejaVuSans-4a" d="M 628 4666 
L 1259 4666 
L 1259 325 
Q 1259 -519 939 -900 
Q 619 -1281 -91 -1281 
L -331 -1281 
L -331 -750 
L -134 -750 
Q 284 -750 456 -515 
Q 628 -281 628 325 
L 628 4666 
z
" transform="scale(0.015625)"/>
       <path id="DejaVuSans-4c" d="M 628 4666 
L 1259 4666 
L 1259 531 
L 3531 531 
L 3531 0 
L 628 0 
L 628 4666 
z
" transform="scale(0.015625)"/>
       <path id="DejaVuSans-6e" d="M 3513 2113 
L 3513 0 
L 2938 0 
L 2938 2094 
Q 2938 2591 2744 2837 
Q 2550 3084 2163 3084 
Q 1697 3084 1428 2787 
Q 1159 2491 1159 1978 
L 1159 0 
L 581 0 
L 581 3500 
L 1159 3500 
L 1159 2956 
Q 1366 3272 1645 3428 
Q 1925 3584 2291 3584 
Q 2894 3584 3203 3211 
Q 3513 2838 3513 2113 
z
" transform="scale(0.015625)"/>
      </defs>
      <use xlink:href="#DejaVuSans-4a"/>
      <use xlink:href="#DejaVuSans-2e" x="29.492188"/>
      <use xlink:href="#DejaVuSans-4c" x="61.279297"/>
      <use xlink:href="#DejaVuSans-69" x="116.992188"/>
      <use xlink:href="#DejaVuSans-6e" x="144.775391"/>
     </g>
    </g>
   </g>
   <g id="text_4">
    <g clip-path="url(#p936221f9eb)">
     <!-- J.Clarkson -->
     <g transform="translate(196.80311 46.757153)scale(0.12 -0.12)">
      <defs>
       <path id="DejaVuSans-6c" d="M 603 4863 
L 1178 4863 
L 1178 0 
L 603 0 
L 603 4863 
z
" transform="scale(0.015625)"/>
       <path id="DejaVuSans-6b" d="M 581 4863 
L 1159 4863 
L 1159 1991 
L 2875 3500 
L 3609 3500 
L 1753 1863 
L 3688 0 
L 2938 0 
L 1159 1709 
L 1159 0 
L 581 0 
L 581 4863 
z
" transform="scale(0.015625)"/>
      </defs>
      <use xlink:href="#DejaVuSans-4a"/>
      <use xlink:href="#DejaVuSans-2e" x="29.492188"/>
      <use xlink:href="#DejaVuSans-43" x="61.279297"/>
      <use xlink:href="#DejaVuSans-6c" x="131.103516"/>
      <use xlink:href="#DejaVuSans-61" x="158.886719"/>
      <use xlink:href="#DejaVuSans-72" x="220.166016"/>
      <use xlink:href="#DejaVuSans-6b" x="261.279297"/>
      <use xlink:href="#DejaVuSans-73" x="319.189453"/>
      <use xlink:href="#DejaVuSans-6f" x="371.289062"/>
      <use xlink:href="#DejaVuSans-6e" x="432.470703"/>
     </g>
    </g>
   </g>
   <g id="text_5">
    <g clip-path="url(#p936221f9eb)">
     <!-- J.Hill -->
     <g transform="translate(88.847775 103.043018)scale(0.12 -0.12)">
      <defs>
       <path id="DejaVuSans-48" d="M 628 4666 
L 1259 4666 
L 1259 2753 
L 3553 2753 
L 3553 4666 
L 4184 4666 
L 4184 0 
L 3553 0 
L 3553 2222 
L 1259 2222 
L 1259 0 
L 628 0 
L 628 4666 
z
" transform="scale(0.015625)"/>
      </defs>
      <use xlink:href="#DejaVuSans-4a"/>
      <use xlink:href="#DejaVuSans-2e" x="29.492188"/>
      <use xlink:href="#DejaVuSans-48" x="61.279297"/>
      <use xlink:href="#DejaVuSans-69" x="136.474609"/>
      <use xlink:href="#DejaVuSans-6c" x="164.257812"/>
      <use xlink:href="#DejaVuSans-6c" x="192.041016"/>
     </g>
    </g>
   </g>
   <g id="text_6">
    <g clip-path="url(#p936221f9eb)">
     <!-- K.Bryant -->
     <g transform="translate(2.223549 217.027106)scale(0.12 -0.12)">
      <defs>
       <path id="DejaVuSans-4b" d="M 628 4666 
L 1259 4666 
L 1259 2694 
L 3353 4666 
L 4166 4666 
L 1850 2491 
L 4331 0 
L 3500 0 
L 1259 2247 
L 1259 0 
L 628 0 
L 628 4666 
z
" transform="scale(0.015625)"/>
       <path id="DejaVuSans-79" d="M 2059 -325 
Q 1816 -950 1584 -1140 
Q 1353 -1331 966 -1331 
L 506 -1331 
L 506 -850 
L 844 -850 
Q 1081 -850 1212 -737 
Q 1344 -625 1503 -206 
L 1606 56 
L 191 3500 
L 800 3500 
L 1894 763 
L 2988 3500 
L 3597 3500 
L 2059 -325 
z
" transform="scale(0.015625)"/>
       <path id="DejaVuSans-74" d="M 1172 4494 
L 1172 3500 
L 2356 3500 
L 2356 3053 
L 1172 3053 
L 1172 1153 
Q 1172 725 1289 603 
Q 1406 481 1766 481 
L 2356 481 
L 2356 0 
L 1766 0 
Q 1100 0 847 248 
Q 594 497 594 1153 
L 594 3053 
L 172 3053 
L 172 3500 
L 594 3500 
L 594 4494 
L 1172 4494 
z
" transform="scale(0.015625)"/>
      </defs>
      <use xlink:href="#DejaVuSans-4b"/>
      <use xlink:href="#DejaVuSans-2e" x="65.576172"/>
      <use xlink:href="#DejaVuSans-42" x="97.363281"/>
      <use xlink:href="#DejaVuSans-72" x="165.966797"/>
      <use xlink:href="#DejaVuSans-79" x="207.080078"/>
      <use xlink:href="#DejaVuSans-61" x="266.259766"/>
      <use xlink:href="#DejaVuSans-6e" x="327.539062"/>
      <use xlink:href="#DejaVuSans-74" x="390.917969"/>
     </g>
    </g>
   </g>
   <g id="text_7">
    <g clip-path="url(#p936221f9eb)">
     <!-- R.Sacre -->
     <g transform="translate(5.364174 410.231637)scale(0.12 -0.12)">
      <defs>
       <path id="DejaVuSans-52" d="M 2841 2188 
Q 3044 2119 3236 1894 
Q 3428 1669 3622 1275 
L 4263 0 
L 3584 0 
L 2988 1197 
Q 2756 1666 2539 1819 
Q 2322 1972 1947 1972 
L 1259 1972 
L 1259 0 
L 628 0 
L 628 4666 
L 2053 4666 
Q 2853 4666 3247 4331 
Q 3641 3997 3641 3322 
Q 3641 2881 3436 2590 
Q 3231 2300 2841 2188 
z
M 1259 4147 
L 1259 2491 
L 2053 2491 
Q 2509 2491 2742 2702 
Q 2975 2913 2975 3322 
Q 2975 3731 2742 3939 
Q 2509 4147 2053 4147 
L 1259 4147 
z
" transform="scale(0.015625)"/>
       <path id="DejaVuSans-53" d="M 3425 4513 
L 3425 3897 
Q 3066 4069 2747 4153 
Q 2428 4238 2131 4238 
Q 1616 4238 1336 4038 
Q 1056 3838 1056 3469 
Q 1056 3159 1242 3001 
Q 1428 2844 1947 2747 
L 2328 2669 
Q 3034 2534 3370 2195 
Q 3706 1856 3706 1288 
Q 3706 609 3251 259 
Q 2797 -91 1919 -91 
Q 1588 -91 1214 -16 
Q 841 59 441 206 
L 441 856 
Q 825 641 1194 531 
Q 1563 422 1919 422 
Q 2459 422 2753 634 
Q 3047 847 3047 1241 
Q 3047 1584 2836 1778 
Q 2625 1972 2144 2069 
L 1759 2144 
Q 1053 2284 737 2584 
Q 422 2884 422 3419 
Q 422 4038 858 4394 
Q 1294 4750 2059 4750 
Q 2388 4750 2728 4690 
Q 3069 4631 3425 4513 
z
" transform="scale(0.015625)"/>
       <path id="DejaVuSans-63" d="M 3122 3366 
L 3122 2828 
Q 2878 2963 2633 3030 
Q 2388 3097 2138 3097 
Q 1578 3097 1268 2742 
Q 959 2388 959 1747 
Q 959 1106 1268 751 
Q 1578 397 2138 397 
Q 2388 397 2633 464 
Q 2878 531 3122 666 
L 3122 134 
Q 2881 22 2623 -34 
Q 2366 -91 2075 -91 
Q 1284 -91 818 406 
Q 353 903 353 1747 
Q 353 2603 823 3093 
Q 1294 3584 2113 3584 
Q 2378 3584 2631 3529 
Q 2884 3475 3122 3366 
z
" transform="scale(0.015625)"/>
      </defs>
      <use xlink:href="#DejaVuSans-52"/>
      <use xlink:href="#DejaVuSans-2e" x="65.857422"/>
      <use xlink:href="#DejaVuSans-53" x="97.644531"/>
      <use xlink:href="#DejaVuSans-61" x="161.121094"/>
      <use xlink:href="#DejaVuSans-63" x="222.400391"/>
      <use xlink:href="#DejaVuSans-72" x="277.380859"/>
      <use xlink:href="#DejaVuSans-65" x="316.244141"/>
     </g>
    </g>
   </g>
   <g id="text_8">
    <g clip-path="url(#p936221f9eb)">
     <!-- R.Price -->
     <g transform="translate(81.541823 524.215718)scale(0.12 -0.12)">
      <defs>
       <path id="DejaVuSans-50" d="M 1259 4147 
L 1259 2394 
L 2053 2394 
Q 2494 2394 2734 2622 
Q 2975 2850 2975 3272 
Q 2975 3691 2734 3919 
Q 2494 4147 2053 4147 
L 1259 4147 
z
M 628 4666 
L 2053 4666 
Q 2838 4666 3239 4311 
Q 3641 3956 3641 3272 
Q 3641 2581 3239 2228 
Q 2838 1875 2053 1875 
L 1259 1875 
L 1259 0 
L 628 0 
L 628 4666 
z
" transform="scale(0.015625)"/>
      </defs>
      <use xlink:href="#DejaVuSans-52"/>
      <use xlink:href="#DejaVuSans-2e" x="65.857422"/>
      <use xlink:href="#DejaVuSans-50" x="97.644531"/>
      <use xlink:href="#DejaVuSans-72" x="156.197266"/>
      <use xlink:href="#DejaVuSans-69" x="197.310547"/>
      <use xlink:href="#DejaVuSans-63" x="225.09375"/>
      <use xlink:href="#DejaVuSans-65" x="280.074219"/>
     </g>
    </g>
   </g>
   <g id="text_9">
    <g clip-path="url(#p936221f9eb)">
     <!-- R.Kelly -->
     <g transform="translate(206.483692 580.501597)scale(0.12 -0.12)">
      <use xlink:href="#DejaVuSans-52"/>
      <use xlink:href="#DejaVuSans-2e" x="65.857422"/>
      <use xlink:href="#DejaVuSans-4b" x="97.644531"/>
      <use xlink:href="#DejaVuSans-65" x="158.220703"/>
      <use xlink:href="#DejaVuSans-6c" x="219.744141"/>
      <use xlink:href="#DejaVuSans-6c" x="247.527344"/>
      <use xlink:href="#DejaVuSans-79" x="275.310547"/>
     </g>
    </g>
   </g>
   <g id="text_10">
    <g clip-path="url(#p936221f9eb)">
     <!-- W.Ellington -->
     <g transform="translate(386.972988 561.218909)scale(0.12 -0.12)">
      <defs>
       <path id="DejaVuSans-57" d="M 213 4666 
L 850 4666 
L 1831 722 
L 2809 4666 
L 3519 4666 
L 4500 722 
L 5478 4666 
L 6119 4666 
L 4947 0 
L 4153 0 
L 3169 4050 
L 2175 0 
L 1381 0 
L 213 4666 
z
" transform="scale(0.015625)"/>
       <path id="DejaVuSans-67" d="M 2906 1791 
Q 2906 2416 2648 2759 
Q 2391 3103 1925 3103 
Q 1463 3103 1205 2759 
Q 947 2416 947 1791 
Q 947 1169 1205 825 
Q 1463 481 1925 481 
Q 2391 481 2648 825 
Q 2906 1169 2906 1791 
z
M 3481 434 
Q 3481 -459 3084 -895 
Q 2688 -1331 1869 -1331 
Q 1566 -1331 1297 -1286 
Q 1028 -1241 775 -1147 
L 775 -588 
Q 1028 -725 1275 -790 
Q 1522 -856 1778 -856 
Q 2344 -856 2625 -561 
Q 2906 -266 2906 331 
L 2906 616 
Q 2728 306 2450 153 
Q 2172 0 1784 0 
Q 1141 0 747 490 
Q 353 981 353 1791 
Q 353 2603 747 3093 
Q 1141 3584 1784 3584 
Q 2172 3584 2450 3431 
Q 2728 3278 2906 2969 
L 2906 3500 
L 3481 3500 
L 3481 434 
z
" transform="scale(0.015625)"/>
      </defs>
      <use xlink:href="#DejaVuSans-57"/>
      <use xlink:href="#DejaVuSans-2e" x="87.376953"/>
      <use xlink:href="#DejaVuSans-45" x="119.164062"/>
      <use xlink:href="#DejaVuSans-6c" x="182.347656"/>
      <use xlink:href="#DejaVuSans-6c" x="210.130859"/>
      <use xlink:href="#DejaVuSans-69" x="237.914062"/>
      <use xlink:href="#DejaVuSans-6e" x="265.697266"/>
      <use xlink:href="#DejaVuSans-67" x="329.076172"/>
      <use xlink:href="#DejaVuSans-74" x="392.552734"/>
      <use xlink:href="#DejaVuSans-6f" x="431.761719"/>
      <use xlink:href="#DejaVuSans-6e" x="492.943359"/>
     </g>
    </g>
   </g>
   <g id="text_11">
    <g clip-path="url(#p936221f9eb)">
     <!-- W.Johnson -->
     <g transform="translate(493.008566 472.489798)scale(0.12 -0.12)">
      <defs>
       <path id="DejaVuSans-68" d="M 3513 2113 
L 3513 0 
L 2938 0 
L 2938 2094 
Q 2938 2591 2744 2837 
Q 2550 3084 2163 3084 
Q 1697 3084 1428 2787 
Q 1159 2491 1159 1978 
L 1159 0 
L 581 0 
L 581 4863 
L 1159 4863 
L 1159 2956 
Q 1366 3272 1645 3428 
Q 1925 3584 2291 3584 
Q 2894 3584 3203 3211 
Q 3513 2838 3513 2113 
z
" transform="scale(0.015625)"/>
      </defs>
      <use xlink:href="#DejaVuSans-57"/>
      <use xlink:href="#DejaVuSans-2e" x="87.376953"/>
      <use xlink:href="#DejaVuSans-4a" x="119.164062"/>
      <use xlink:href="#DejaVuSans-6f" x="148.65625"/>
      <use xlink:href="#DejaVuSans-68" x="209.837891"/>
      <use xlink:href="#DejaVuSans-6e" x="273.216797"/>
      <use xlink:href="#DejaVuSans-73" x="336.595703"/>
      <use xlink:href="#DejaVuSans-6f" x="388.695312"/>
      <use xlink:href="#DejaVuSans-6e" x="449.876953"/>
     </g>
    </g>
   </g>
   <g id="text_12">
    <!-- 2014-15 Los Angeles Lakers Assist Network -->
    <g transform="translate(164.555625 16.318125)scale(0.12 -0.12)">
     <defs>
      <path id="DejaVuSans-32" d="M 1228 531 
L 3431 531 
L 3431 0 
L 469 0 
L 469 531 
Q 828 903 1448 1529 
Q 2069 2156 2228 2338 
Q 2531 2678 2651 2914 
Q 2772 3150 2772 3378 
Q 2772 3750 2511 3984 
Q 2250 4219 1831 4219 
Q 1534 4219 1204 4116 
Q 875 4013 500 3803 
L 500 4441 
Q 881 4594 1212 4672 
Q 1544 4750 1819 4750 
Q 2544 4750 2975 4387 
Q 3406 4025 3406 3419 
Q 3406 3131 3298 2873 
Q 3191 2616 2906 2266 
Q 2828 2175 2409 1742 
Q 1991 1309 1228 531 
z
" transform="scale(0.015625)"/>
      <path id="DejaVuSans-30" d="M 2034 4250 
Q 1547 4250 1301 3770 
Q 1056 3291 1056 2328 
Q 1056 1369 1301 889 
Q 1547 409 2034 409 
Q 2525 409 2770 889 
Q 3016 1369 3016 2328 
Q 3016 3291 2770 3770 
Q 2525 4250 2034 4250 
z
M 2034 4750 
Q 2819 4750 3233 4129 
Q 3647 3509 3647 2328 
Q 3647 1150 3233 529 
Q 2819 -91 2034 -91 
Q 1250 -91 836 529 
Q 422 1150 422 2328 
Q 422 3509 836 4129 
Q 1250 4750 2034 4750 
z
" transform="scale(0.015625)"/>
      <path id="DejaVuSans-31" d="M 794 531 
L 1825 531 
L 1825 4091 
L 703 3866 
L 703 4441 
L 1819 4666 
L 2450 4666 
L 2450 531 
L 3481 531 
L 3481 0 
L 794 0 
L 794 531 
z
" transform="scale(0.015625)"/>
      <path id="DejaVuSans-34" d="M 2419 4116 
L 825 1625 
L 2419 1625 
L 2419 4116 
z
M 2253 4666 
L 3047 4666 
L 3047 1625 
L 3713 1625 
L 3713 1100 
L 3047 1100 
L 3047 0 
L 2419 0 
L 2419 1100 
L 313 1100 
L 313 1709 
L 2253 4666 
z
" transform="scale(0.015625)"/>
      <path id="DejaVuSans-2d" d="M 313 2009 
L 1997 2009 
L 1997 1497 
L 313 1497 
L 313 2009 
z
" transform="scale(0.015625)"/>
      <path id="DejaVuSans-35" d="M 691 4666 
L 3169 4666 
L 3169 4134 
L 1269 4134 
L 1269 2991 
Q 1406 3038 1543 3061 
Q 1681 3084 1819 3084 
Q 2600 3084 3056 2656 
Q 3513 2228 3513 1497 
Q 3513 744 3044 326 
Q 2575 -91 1722 -91 
Q 1428 -91 1123 -41 
Q 819 9 494 109 
L 494 744 
Q 775 591 1075 516 
Q 1375 441 1709 441 
Q 2250 441 2565 725 
Q 2881 1009 2881 1497 
Q 2881 1984 2565 2268 
Q 2250 2553 1709 2553 
Q 1456 2553 1204 2497 
Q 953 2441 691 2322 
L 691 4666 
z
" transform="scale(0.015625)"/>
      <path id="DejaVuSans-20" transform="scale(0.015625)"/>
      <path id="DejaVuSans-41" d="M 2188 4044 
L 1331 1722 
L 3047 1722 
L 2188 4044 
z
M 1831 4666 
L 2547 4666 
L 4325 0 
L 3669 0 
L 3244 1197 
L 1141 1197 
L 716 0 
L 50 0 
L 1831 4666 
z
" transform="scale(0.015625)"/>
      <path id="DejaVuSans-4e" d="M 628 4666 
L 1478 4666 
L 3547 763 
L 3547 4666 
L 4159 4666 
L 4159 0 
L 3309 0 
L 1241 3903 
L 1241 0 
L 628 0 
L 628 4666 
z
" transform="scale(0.015625)"/>
      <path id="DejaVuSans-77" d="M 269 3500 
L 844 3500 
L 1563 769 
L 2278 3500 
L 2956 3500 
L 3675 769 
L 4391 3500 
L 4966 3500 
L 4050 0 
L 3372 0 
L 2619 2869 
L 1863 0 
L 1184 0 
L 269 3500 
z
" transform="scale(0.015625)"/>
     </defs>
     <use xlink:href="#DejaVuSans-32"/>
     <use xlink:href="#DejaVuSans-30" x="63.623047"/>
     <use xlink:href="#DejaVuSans-31" x="127.246094"/>
     <use xlink:href="#DejaVuSans-34" x="190.869141"/>
     <use xlink:href="#DejaVuSans-2d" x="254.492188"/>
     <use xlink:href="#DejaVuSans-31" x="290.576172"/>
     <use xlink:href="#DejaVuSans-35" x="354.199219"/>
     <use xlink:href="#DejaVuSans-20" x="417.822266"/>
     <use xlink:href="#DejaVuSans-4c" x="449.609375"/>
     <use xlink:href="#DejaVuSans-6f" x="503.572266"/>
     <use xlink:href="#DejaVuSans-73" x="564.753906"/>
     <use xlink:href="#DejaVuSans-20" x="616.853516"/>
     <use xlink:href="#DejaVuSans-41" x="648.640625"/>
     <use xlink:href="#DejaVuSans-6e" x="717.048828"/>
     <use xlink:href="#DejaVuSans-67" x="780.427734"/>
     <use xlink:href="#DejaVuSans-65" x="843.904297"/>
     <use xlink:href="#DejaVuSans-6c" x="905.427734"/>
     <use xlink:href="#DejaVuSans-65" x="933.210938"/>
     <use xlink:href="#DejaVuSans-73" x="994.734375"/>
     <use xlink:href="#DejaVuSans-20" x="1046.833984"/>
     <use xlink:href="#DejaVuSans-4c" x="1078.621094"/>
     <use xlink:href="#DejaVuSans-61" x="1134.333984"/>
     <use xlink:href="#DejaVuSans-6b" x="1195.613281"/>
     <use xlink:href="#DejaVuSans-65" x="1249.898438"/>
     <use xlink:href="#DejaVuSans-72" x="1311.421875"/>
     <use xlink:href="#DejaVuSans-73" x="1352.535156"/>
     <use xlink:href="#DejaVuSans-20" x="1404.634766"/>
     <use xlink:href="#DejaVuSans-41" x="1436.421875"/>
     <use xlink:href="#DejaVuSans-73" x="1504.830078"/>
     <use xlink:href="#DejaVuSans-73" x="1556.929688"/>
     <use xlink:href="#DejaVuSans-69" x="1609.029297"/>
     <use xlink:href="#DejaVuSans-73" x="1636.8125"/>
     <use xlink:href="#DejaVuSans-74" x="1688.912109"/>
     <use xlink:href="#DejaVuSans-20" x="1728.121094"/>
     <use xlink:href="#DejaVuSans-4e" x="1759.908203"/>
     <use xlink:href="#DejaVuSans-65" x="1834.712891"/>
     <use xlink:href="#DejaVuSans-74" x="1896.236328"/>
     <use xlink:href="#DejaVuSans-77" x="1935.445312"/>
     <use xlink:href="#DejaVuSans-6f" x="2017.232422"/>
     <use xlink:href="#DejaVuSans-72" x="2078.414062"/>
     <use xlink:href="#DejaVuSans-6b" x="2119.527344"/>
    </g>
   </g>
  </g>
 </g>
 <defs>
  <clipPath id="p936221f9eb">
   <rect x="7.2" y="22.318125" width="576" height="576"/>
  </clipPath>
 </defs>
</svg>
