<?xml version="1.0" encoding="utf-8" standalone="no"?>
<!DOCTYPE svg PUBLIC "-//W3C//DTD SVG 1.1//EN"
  "http://www.w3.org/Graphics/SVG/1.1/DTD/svg11.dtd">
<svg xmlns:xlink="http://www.w3.org/1999/xlink" width="590.4pt" height="605.518125pt" viewBox="0 0 590.4 605.518125" xmlns="http://www.w3.org/2000/svg" version="1.1">
 <metadata>
  <rdf:RDF xmlns:dc="http://purl.org/dc/elements/1.1/" xmlns:cc="http://creativecommons.org/ns#" xmlns:rdf="http://www.w3.org/1999/02/22-rdf-syntax-ns#">
   <cc:Work>
    <dc:type rdf:resource="http://purl.org/dc/dcmitype/StillImage"/>
    <dc:date>2023-04-12T08:34:12.019945</dc:date>
    <dc:format>image/svg+xml</dc:format>
    <dc:creator>
     <cc:Agent>
      <dc:title>Matplotlib v3.5.2, https://matplotlib.org/</dc:title>
     </cc:Agent>
    </dc:creator>
   </cc:Work>
  </rdf:RDF>
 </metadata>
 <defs>
  <style type="text/css">*{stroke-linejoin: round; stroke-linecap: butt}</style>
 </defs>
 <g id="figure_1">
  <g id="patch_1">
   <path d="M 0 605.518125 
L 590.4 605.518125 
L 590.4 0 
L 0 0 
z
" style="fill: #ffffff"/>
  </g>
  <g id="axes_1">
   <g id="LineCollection_1">
    <path d="M 533.216529 310.318125 
L 494.651158 180.313424 
" clip-path="url(#p3f48d46b6a)" style="fill: none; stroke: #a5a5a5; stroke-width: 2"/>
    <path d="M 533.216529 310.318125 
L 391.199308 91.584285 
" clip-path="url(#p3f48d46b6a)" style="fill: none; stroke: #c6c6c6; stroke-width: 2"/>
    <path d="M 533.216529 310.318125 
L 255.706158 72.301596 
" clip-path="url(#p3f48d46b6a)" style="fill: none; stroke: #bbbbbb; stroke-width: 2"/>
    <path d="M 533.216529 310.318125 
L 131.189885 128.587461 
" clip-path="url(#p3f48d46b6a)" style="fill: none; stroke: #767676; stroke-width: 2"/>
    <path d="M 533.216529 310.318125 
L 57.183471 242.571549 
" clip-path="url(#p3f48d46b6a)" style="fill: none; stroke: #767676; stroke-width: 2"/>
    <path d="M 533.216529 310.318125 
L 57.183471 378.064694 
" clip-path="url(#p3f48d46b6a)" style="fill: none; stroke: #e6e6e6; stroke-width: 2"/>
    <path d="M 533.216529 310.318125 
L 131.18987 492.048775 
" clip-path="url(#p3f48d46b6a)" style="fill: none; stroke: #d4d4d4; stroke-width: 2"/>
    <path d="M 533.216529 310.318125 
L 255.706114 548.334654 
" clip-path="url(#p3f48d46b6a)" style="fill: none; stroke: #818181; stroke-width: 2"/>
    <path d="M 533.216529 310.318125 
L 391.199315 529.051965 
" clip-path="url(#p3f48d46b6a)" style="fill: none; stroke: #bbbbbb; stroke-width: 2"/>
    <path d="M 533.216529 310.318125 
L 494.651144 440.322855 
" clip-path="url(#p3f48d46b6a)" style="fill: none; stroke: #dbdbdb; stroke-width: 2"/>
    <path d="M 494.651158 180.313424 
L 391.199308 91.584285 
" clip-path="url(#p3f48d46b6a)" style="fill: none; stroke: #030303; stroke-width: 2"/>
    <path d="M 494.651158 180.313424 
L 255.706158 72.301596 
" clip-path="url(#p3f48d46b6a)" style="fill: none; stroke: #909090; stroke-width: 2"/>
    <path d="M 494.651158 180.313424 
L 131.189885 128.587461 
" clip-path="url(#p3f48d46b6a)" style="fill: none; stroke: #bbbbbb; stroke-width: 2"/>
    <path d="M 494.651158 180.313424 
L 57.183471 242.571549 
" clip-path="url(#p3f48d46b6a)" style="fill: none; stroke: #000000; stroke-width: 2"/>
    <path d="M 494.651158 180.313424 
L 57.183471 378.064694 
" clip-path="url(#p3f48d46b6a)" style="fill: none; stroke: #d8d8d8; stroke-width: 2"/>
    <path d="M 494.651158 180.313424 
L 255.706114 548.334654 
" clip-path="url(#p3f48d46b6a)" style="fill: none; stroke: #dbdbdb; stroke-width: 2"/>
    <path d="M 494.651158 180.313424 
L 391.199315 529.051965 
" clip-path="url(#p3f48d46b6a)" style="fill: none; stroke: #b4b4b4; stroke-width: 2"/>
    <path d="M 494.651158 180.313424 
L 494.651144 440.322855 
" clip-path="url(#p3f48d46b6a)" style="fill: none; stroke: #dbdbdb; stroke-width: 2"/>
    <path d="M 391.199308 91.584285 
L 255.706158 72.301596 
" clip-path="url(#p3f48d46b6a)" style="fill: none; stroke: #202020; stroke-width: 2"/>
    <path d="M 391.199308 91.584285 
L 131.189885 128.587461 
" clip-path="url(#p3f48d46b6a)" style="fill: none; stroke: #030303; stroke-width: 2"/>
    <path d="M 391.199308 91.584285 
L 57.183471 242.571549 
" clip-path="url(#p3f48d46b6a)" style="fill: none; stroke: #323232; stroke-width: 2"/>
    <path d="M 391.199308 91.584285 
L 57.183471 378.064694 
" clip-path="url(#p3f48d46b6a)" style="fill: none; stroke: #5a5a5a; stroke-width: 2"/>
    <path d="M 391.199308 91.584285 
L 131.18987 492.048775 
" clip-path="url(#p3f48d46b6a)" style="fill: none; stroke: #818181; stroke-width: 2"/>
    <path d="M 391.199308 91.584285 
L 255.706114 548.334654 
" clip-path="url(#p3f48d46b6a)" style="fill: none; stroke: #393939; stroke-width: 2"/>
    <path d="M 391.199308 91.584285 
L 391.199315 529.051965 
" clip-path="url(#p3f48d46b6a)" style="fill: none; stroke: #b0b0b0; stroke-width: 2"/>
    <path d="M 391.199308 91.584285 
L 494.651144 440.322855 
" clip-path="url(#p3f48d46b6a)" style="fill: none; stroke: #c9c9c9; stroke-width: 2"/>
    <path d="M 255.706158 72.301596 
L 131.189885 128.587461 
" clip-path="url(#p3f48d46b6a)" style="fill: none; stroke: #7e7e7e; stroke-width: 2"/>
    <path d="M 255.706158 72.301596 
L 57.183471 242.571549 
" clip-path="url(#p3f48d46b6a)" style="fill: none; stroke: #0a0a0a; stroke-width: 2"/>
    <path d="M 255.706158 72.301596 
L 57.183471 378.064694 
" clip-path="url(#p3f48d46b6a)" style="fill: none; stroke: #bfbfbf; stroke-width: 2"/>
    <path d="M 255.706158 72.301596 
L 131.18987 492.048775 
" clip-path="url(#p3f48d46b6a)" style="fill: none; stroke: #c9c9c9; stroke-width: 2"/>
    <path d="M 255.706158 72.301596 
L 255.706114 548.334654 
" clip-path="url(#p3f48d46b6a)" style="fill: none; stroke: #dbdbdb; stroke-width: 2"/>
    <path d="M 255.706158 72.301596 
L 391.199315 529.051965 
" clip-path="url(#p3f48d46b6a)" style="fill: none; stroke: #c6c6c6; stroke-width: 2"/>
    <path d="M 255.706158 72.301596 
L 494.651144 440.322855 
" clip-path="url(#p3f48d46b6a)" style="fill: none; stroke: #eaeaea; stroke-width: 2"/>
    <path d="M 131.189885 128.587461 
L 57.183471 242.571549 
" clip-path="url(#p3f48d46b6a)" style="fill: none; stroke: #363636; stroke-width: 2"/>
    <path d="M 131.189885 128.587461 
L 57.183471 378.064694 
" clip-path="url(#p3f48d46b6a)" style="fill: none; stroke: #b0b0b0; stroke-width: 2"/>
    <path d="M 131.189885 128.587461 
L 131.18987 492.048775 
" clip-path="url(#p3f48d46b6a)" style="fill: none; stroke: #b0b0b0; stroke-width: 2"/>
    <path d="M 131.189885 128.587461 
L 255.706114 548.334654 
" clip-path="url(#p3f48d46b6a)" style="fill: none; stroke: #858585; stroke-width: 2"/>
    <path d="M 131.189885 128.587461 
L 391.199315 529.051965 
" clip-path="url(#p3f48d46b6a)" style="fill: none; stroke: #adadad; stroke-width: 2"/>
    <path d="M 131.189885 128.587461 
L 494.651144 440.322855 
" clip-path="url(#p3f48d46b6a)" style="fill: none; stroke: #dbdbdb; stroke-width: 2"/>
    <path d="M 57.183471 242.571549 
L 57.183471 378.064694 
" clip-path="url(#p3f48d46b6a)" style="fill: none; stroke: #616161; stroke-width: 2"/>
    <path d="M 57.183471 242.571549 
L 131.18987 492.048775 
" clip-path="url(#p3f48d46b6a)" style="fill: none; stroke: #979797; stroke-width: 2"/>
    <path d="M 57.183471 242.571549 
L 255.706114 548.334654 
" clip-path="url(#p3f48d46b6a)" style="fill: none; stroke: #363636; stroke-width: 2"/>
    <path d="M 57.183471 242.571549 
L 391.199315 529.051965 
" clip-path="url(#p3f48d46b6a)" style="fill: none; stroke: #8c8c8c; stroke-width: 2"/>
    <path d="M 57.183471 242.571549 
L 494.651144 440.322855 
" clip-path="url(#p3f48d46b6a)" style="fill: none; stroke: #a2a2a2; stroke-width: 2"/>
    <path d="M 57.183471 378.064694 
L 131.18987 492.048775 
" clip-path="url(#p3f48d46b6a)" style="fill: none; stroke: #dbdbdb; stroke-width: 2"/>
    <path d="M 57.183471 378.064694 
L 255.706114 548.334654 
" clip-path="url(#p3f48d46b6a)" style="fill: none; stroke: #ffffff; stroke-width: 2"/>
    <path d="M 57.183471 378.064694 
L 391.199315 529.051965 
" clip-path="url(#p3f48d46b6a)" style="fill: none; stroke: #dfdfdf; stroke-width: 2"/>
    <path d="M 57.183471 378.064694 
L 494.651144 440.322855 
" clip-path="url(#p3f48d46b6a)" style="fill: none; stroke: #f1f1f1; stroke-width: 2"/>
    <path d="M 131.18987 492.048775 
L 255.706114 548.334654 
" clip-path="url(#p3f48d46b6a)" style="fill: none; stroke: #d8d8d8; stroke-width: 2"/>
    <path d="M 131.18987 492.048775 
L 391.199315 529.051965 
" clip-path="url(#p3f48d46b6a)" style="fill: none; stroke: #cdcdcd; stroke-width: 2"/>
    <path d="M 131.18987 492.048775 
L 494.651144 440.322855 
" clip-path="url(#p3f48d46b6a)" style="fill: none; stroke: #cdcdcd; stroke-width: 2"/>
    <path d="M 255.706114 548.334654 
L 391.199315 529.051965 
" clip-path="url(#p3f48d46b6a)" style="fill: none; stroke: #404040; stroke-width: 2"/>
    <path d="M 255.706114 548.334654 
L 494.651144 440.322855 
" clip-path="url(#p3f48d46b6a)" style="fill: none; stroke: #c9c9c9; stroke-width: 2"/>
    <path d="M 391.199315 529.051965 
L 494.651144 440.322855 
" clip-path="url(#p3f48d46b6a)" style="fill: none; stroke: #e6e6e6; stroke-width: 2"/>
   </g>
   <g id="PathCollection_1">
    <path d="M 533.216529 316.318125 
C 534.807748 316.318125 536.334008 315.685927 537.45917 314.560766 
C 538.584331 313.435604 539.216529 311.909344 539.216529 310.318125 
C 539.216529 308.726906 538.584331 307.200646 537.45917 306.075484 
C 536.334008 304.950323 534.807748 304.318125 533.216529 304.318125 
C 531.62531 304.318125 530.09905 304.950323 528.973888 306.075484 
C 527.848727 307.200646 527.216529 308.726906 527.216529 310.318125 
C 527.216529 311.909344 527.848727 313.435604 528.973888 314.560766 
C 530.09905 315.685927 531.62531 316.318125 533.216529 316.318125 
z
" clip-path="url(#p3f48d46b6a)" style="fill: #ffffff; stroke: #000000; stroke-width: 2"/>
    <path d="M 494.651158 185.338362 
C 495.983788 185.338362 497.262015 184.808902 498.204326 183.866591 
C 499.146637 182.92428 499.676096 181.646053 499.676096 180.313424 
C 499.676096 178.980795 499.146637 177.702567 498.204326 176.760256 
C 497.262015 175.817945 495.983788 175.288486 494.651158 175.288486 
C 493.318529 175.288486 492.040302 175.817945 491.097991 176.760256 
C 490.15568 177.702567 489.626221 178.980795 489.626221 180.313424 
C 489.626221 181.646053 490.15568 182.92428 491.097991 183.866591 
C 492.040302 184.808902 493.318529 185.338362 494.651158 185.338362 
z
" clip-path="url(#p3f48d46b6a)" style="fill: #ffffff; stroke: #000000; stroke-width: 2"/>
    <path d="M 391.199308 100.51457 
C 393.567647 100.51457 395.839305 99.573619 397.513973 97.89895 
C 399.188642 96.224281 400.129593 93.952624 400.129593 91.584285 
C 400.129593 89.215945 399.188642 86.944288 397.513973 85.269619 
C 395.839305 83.59495 393.567647 82.653999 391.199308 82.653999 
C 388.830969 82.653999 386.559311 83.59495 384.884642 85.269619 
C 383.209974 86.944288 382.269022 89.215945 382.269022 91.584285 
C 382.269022 93.952624 383.209974 96.224281 384.884642 97.89895 
C 386.559311 99.573619 388.830969 100.51457 391.199308 100.51457 
z
" clip-path="url(#p3f48d46b6a)" style="fill: #ffffff; stroke: #000000; stroke-width: 2"/>
    <path d="M 255.706158 77.521749 
C 257.090559 77.521749 258.418444 76.971721 259.397364 75.992802 
C 260.376283 75.013883 260.926311 73.685997 260.926311 72.301596 
C 260.926311 70.917195 260.376283 69.58931 259.397364 68.61039 
C 258.418444 67.631471 257.090559 67.081443 255.706158 67.081443 
C 254.321757 67.081443 252.993871 67.631471 252.014952 68.61039 
C 251.036033 69.58931 250.486004 70.917195 250.486004 72.301596 
C 250.486004 73.685997 251.036033 75.013883 252.014952 75.992802 
C 252.993871 76.971721 254.321757 77.521749 255.706158 77.521749 
z
" clip-path="url(#p3f48d46b6a)" style="fill: #ffffff; stroke: #000000; stroke-width: 2"/>
    <path d="M 131.189885 133.878963 
C 132.593208 133.878963 133.939243 133.321417 134.931542 132.329118 
C 135.923841 131.336819 136.481387 129.990784 136.481387 128.587461 
C 136.481387 127.184138 135.923841 125.838102 134.931542 124.845803 
C 133.939243 123.853504 132.593208 123.295958 131.189885 123.295958 
C 129.786562 123.295958 128.440527 123.853504 127.448227 124.845803 
C 126.455928 125.838102 125.898382 127.184138 125.898382 128.587461 
C 125.898382 129.990784 126.455928 131.336819 127.448227 132.329118 
C 128.440527 133.321417 129.786562 133.878963 131.189885 133.878963 
z
" clip-path="url(#p3f48d46b6a)" style="fill: #ffffff; stroke: #000000; stroke-width: 2"/>
    <path d="M 57.183471 251.6545 
C 59.592298 251.6545 61.90279 250.697463 63.606087 248.994165 
C 65.309385 247.290868 66.266422 244.980376 66.266422 242.571549 
C 66.266422 240.162722 65.309385 237.852231 63.606087 236.148933 
C 61.90279 234.445635 59.592298 233.488598 57.183471 233.488598 
C 54.774644 233.488598 52.464153 234.445635 50.760855 236.148933 
C 49.057557 237.852231 48.10052 240.162722 48.10052 242.571549 
C 48.10052 244.980376 49.057557 247.290868 50.760855 248.994165 
C 52.464153 250.697463 54.774644 251.6545 57.183471 251.6545 
z
" clip-path="url(#p3f48d46b6a)" style="fill: #ffffff; stroke: #000000; stroke-width: 2"/>
    <path d="M 57.183471 383.188169 
C 58.542233 383.188169 59.845526 382.648327 60.806315 381.687538 
C 61.767105 380.726748 62.306946 379.423455 62.306946 378.064694 
C 62.306946 376.705932 61.767105 375.402639 60.806315 374.44185 
C 59.845526 373.48106 58.542233 372.941218 57.183471 372.941218 
C 55.82471 372.941218 54.521416 373.48106 53.560627 374.44185 
C 52.599837 375.402639 52.059996 376.705932 52.059996 378.064694 
C 52.059996 379.423455 52.599837 380.726748 53.560627 381.687538 
C 54.521416 382.648327 55.82471 383.188169 57.183471 383.188169 
z
" clip-path="url(#p3f48d46b6a)" style="fill: #ffffff; stroke: #000000; stroke-width: 2"/>
    <path d="M 131.18987 495.9539 
C 132.225521 495.9539 133.218895 495.542431 133.951211 494.810115 
C 134.683527 494.077799 135.094995 493.084426 135.094995 492.048775 
C 135.094995 491.013124 134.683527 490.019751 133.951211 489.287435 
C 133.218895 488.555119 132.225521 488.14365 131.18987 488.14365 
C 130.154219 488.14365 129.160846 488.555119 128.42853 489.287435 
C 127.696214 490.019751 127.284745 491.013124 127.284745 492.048775 
C 127.284745 493.084426 127.696214 494.077799 128.42853 494.810115 
C 129.160846 495.542431 130.154219 495.9539 131.18987 495.9539 
z
" clip-path="url(#p3f48d46b6a)" style="fill: #ffffff; stroke: #000000; stroke-width: 2"/>
    <path d="M 255.706114 552.42733 
C 256.791505 552.42733 257.832587 551.9961 258.600074 551.228613 
C 259.36756 550.461126 259.798791 549.420044 259.798791 548.334654 
C 259.798791 547.249263 259.36756 546.208182 258.600074 545.440695 
C 257.832587 544.673208 256.791505 544.241978 255.706114 544.241978 
C 254.620724 544.241978 253.579642 544.673208 252.812155 545.440695 
C 252.044668 546.208182 251.613438 547.249263 251.613438 548.334654 
C 251.613438 549.420044 252.044668 550.461126 252.812155 551.228613 
C 253.579642 551.9961 254.620724 552.42733 255.706114 552.42733 
z
" clip-path="url(#p3f48d46b6a)" style="fill: #ffffff; stroke: #000000; stroke-width: 2"/>
    <path d="M 391.199315 534.968045 
C 392.768278 534.968045 394.273191 534.34469 395.382615 533.235265 
C 396.492039 532.125841 397.115395 530.620928 397.115395 529.051965 
C 397.115395 527.483003 396.492039 525.978089 395.382615 524.868665 
C 394.273191 523.759241 392.768278 523.135886 391.199315 523.135886 
C 389.630352 523.135886 388.125439 523.759241 387.016015 524.868665 
C 385.906591 525.978089 385.283235 527.483003 385.283235 529.051965 
C 385.283235 530.620928 385.906591 532.125841 387.016015 533.235265 
C 388.125439 534.34469 389.630352 534.968045 391.199315 534.968045 
z
" clip-path="url(#p3f48d46b6a)" style="fill: #ffffff; stroke: #000000; stroke-width: 2"/>
    <path d="M 494.651144 443.858389 
C 495.588779 443.858389 496.488136 443.485863 497.151144 442.822855 
C 497.814152 442.159847 498.186678 441.260489 498.186678 440.322855 
C 498.186678 439.38522 497.814152 438.485863 497.151144 437.822855 
C 496.488136 437.159847 495.588779 436.787321 494.651144 436.787321 
C 493.713509 436.787321 492.814152 437.159847 492.151144 437.822855 
C 491.488136 438.485863 491.11561 439.38522 491.11561 440.322855 
C 491.11561 441.260489 491.488136 442.159847 492.151144 442.822855 
C 492.814152 443.485863 493.713509 443.858389 494.651144 443.858389 
z
" clip-path="url(#p3f48d46b6a)" style="fill: #ffffff; stroke: #000000; stroke-width: 2"/>
   </g>
   <g id="text_1">
    <g clip-path="url(#p3f48d46b6a)">
     <!-- A.Caruso -->
     <g transform="translate(535.530201 284.773682)scale(0.12 -0.12)">
      <defs>
       <path id="DejaVuSans-41" d="M 2188 4044 
L 1331 1722 
L 3047 1722 
L 2188 4044 
z
M 1831 4666 
L 2547 4666 
L 4325 0 
L 3669 0 
L 3244 1197 
L 1141 1197 
L 716 0 
L 50 0 
L 1831 4666 
z
" transform="scale(0.015625)"/>
       <path id="DejaVuSans-2e" d="M 684 794 
L 1344 794 
L 1344 0 
L 684 0 
L 684 794 
z
" transform="scale(0.015625)"/>
       <path id="DejaVuSans-43" d="M 4122 4306 
L 4122 3641 
Q 3803 3938 3442 4084 
Q 3081 4231 2675 4231 
Q 1875 4231 1450 3742 
Q 1025 3253 1025 2328 
Q 1025 1406 1450 917 
Q 1875 428 2675 428 
Q 3081 428 3442 575 
Q 3803 722 4122 1019 
L 4122 359 
Q 3791 134 3420 21 
Q 3050 -91 2638 -91 
Q 1578 -91 968 557 
Q 359 1206 359 2328 
Q 359 3453 968 4101 
Q 1578 4750 2638 4750 
Q 3056 4750 3426 4639 
Q 3797 4528 4122 4306 
z
" transform="scale(0.015625)"/>
       <path id="DejaVuSans-61" d="M 2194 1759 
Q 1497 1759 1228 1600 
Q 959 1441 959 1056 
Q 959 750 1161 570 
Q 1363 391 1709 391 
Q 2188 391 2477 730 
Q 2766 1069 2766 1631 
L 2766 1759 
L 2194 1759 
z
M 3341 1997 
L 3341 0 
L 2766 0 
L 2766 531 
Q 2569 213 2275 61 
Q 1981 -91 1556 -91 
Q 1019 -91 701 211 
Q 384 513 384 1019 
Q 384 1609 779 1909 
Q 1175 2209 1959 2209 
L 2766 2209 
L 2766 2266 
Q 2766 2663 2505 2880 
Q 2244 3097 1772 3097 
Q 1472 3097 1187 3025 
Q 903 2953 641 2809 
L 641 3341 
Q 956 3463 1253 3523 
Q 1550 3584 1831 3584 
Q 2591 3584 2966 3190 
Q 3341 2797 3341 1997 
z
" transform="scale(0.015625)"/>
       <path id="DejaVuSans-72" d="M 2631 2963 
Q 2534 3019 2420 3045 
Q 2306 3072 2169 3072 
Q 1681 3072 1420 2755 
Q 1159 2438 1159 1844 
L 1159 0 
L 581 0 
L 581 3500 
L 1159 3500 
L 1159 2956 
Q 1341 3275 1631 3429 
Q 1922 3584 2338 3584 
Q 2397 3584 2469 3576 
Q 2541 3569 2628 3553 
L 2631 2963 
z
" transform="scale(0.015625)"/>
       <path id="DejaVuSans-75" d="M 544 1381 
L 544 3500 
L 1119 3500 
L 1119 1403 
Q 1119 906 1312 657 
Q 1506 409 1894 409 
Q 2359 409 2629 706 
Q 2900 1003 2900 1516 
L 2900 3500 
L 3475 3500 
L 3475 0 
L 2900 0 
L 2900 538 
Q 2691 219 2414 64 
Q 2138 -91 1772 -91 
Q 1169 -91 856 284 
Q 544 659 544 1381 
z
M 1991 3584 
L 1991 3584 
z
" transform="scale(0.015625)"/>
       <path id="DejaVuSans-73" d="M 2834 3397 
L 2834 2853 
Q 2591 2978 2328 3040 
Q 2066 3103 1784 3103 
Q 1356 3103 1142 2972 
Q 928 2841 928 2578 
Q 928 2378 1081 2264 
Q 1234 2150 1697 2047 
L 1894 2003 
Q 2506 1872 2764 1633 
Q 3022 1394 3022 966 
Q 3022 478 2636 193 
Q 2250 -91 1575 -91 
Q 1294 -91 989 -36 
Q 684 19 347 128 
L 347 722 
Q 666 556 975 473 
Q 1284 391 1588 391 
Q 1994 391 2212 530 
Q 2431 669 2431 922 
Q 2431 1156 2273 1281 
Q 2116 1406 1581 1522 
L 1381 1569 
Q 847 1681 609 1914 
Q 372 2147 372 2553 
Q 372 3047 722 3315 
Q 1072 3584 1716 3584 
Q 2034 3584 2315 3537 
Q 2597 3491 2834 3397 
z
" transform="scale(0.015625)"/>
       <path id="DejaVuSans-6f" d="M 1959 3097 
Q 1497 3097 1228 2736 
Q 959 2375 959 1747 
Q 959 1119 1226 758 
Q 1494 397 1959 397 
Q 2419 397 2687 759 
Q 2956 1122 2956 1747 
Q 2956 2369 2687 2733 
Q 2419 3097 1959 3097 
z
M 1959 3584 
Q 2709 3584 3137 3096 
Q 3566 2609 3566 1747 
Q 3566 888 3137 398 
Q 2709 -91 1959 -91 
Q 1206 -91 779 398 
Q 353 888 353 1747 
Q 353 2609 779 3096 
Q 1206 3584 1959 3584 
z
" transform="scale(0.015625)"/>
      </defs>
      <use xlink:href="#DejaVuSans-41"/>
      <use xlink:href="#DejaVuSans-2e" x="66.658203"/>
      <use xlink:href="#DejaVuSans-43" x="98.445312"/>
      <use xlink:href="#DejaVuSans-61" x="168.269531"/>
      <use xlink:href="#DejaVuSans-72" x="229.548828"/>
      <use xlink:href="#DejaVuSans-75" x="270.662109"/>
      <use xlink:href="#DejaVuSans-73" x="334.041016"/>
      <use xlink:href="#DejaVuSans-6f" x="386.140625"/>
     </g>
    </g>
   </g>
   <g id="text_2">
    <g clip-path="url(#p3f48d46b6a)">
     <!-- A.Davis -->
     <g transform="translate(501.256706 154.768981)scale(0.12 -0.12)">
      <defs>
       <path id="DejaVuSans-44" d="M 1259 4147 
L 1259 519 
L 2022 519 
Q 2988 519 3436 956 
Q 3884 1394 3884 2338 
Q 3884 3275 3436 3711 
Q 2988 4147 2022 4147 
L 1259 4147 
z
M 628 4666 
L 1925 4666 
Q 3281 4666 3915 4102 
Q 4550 3538 4550 2338 
Q 4550 1131 3912 565 
Q 3275 0 1925 0 
L 628 0 
L 628 4666 
z
" transform="scale(0.015625)"/>
       <path id="DejaVuSans-76" d="M 191 3500 
L 800 3500 
L 1894 563 
L 2988 3500 
L 3597 3500 
L 2284 0 
L 1503 0 
L 191 3500 
z
" transform="scale(0.015625)"/>
       <path id="DejaVuSans-69" d="M 603 3500 
L 1178 3500 
L 1178 0 
L 603 0 
L 603 3500 
z
M 603 4863 
L 1178 4863 
L 1178 4134 
L 603 4134 
L 603 4863 
z
" transform="scale(0.015625)"/>
      </defs>
      <use xlink:href="#DejaVuSans-41"/>
      <use xlink:href="#DejaVuSans-2e" x="66.658203"/>
      <use xlink:href="#DejaVuSans-44" x="98.445312"/>
      <use xlink:href="#DejaVuSans-61" x="175.447266"/>
      <use xlink:href="#DejaVuSans-76" x="236.726562"/>
      <use xlink:href="#DejaVuSans-69" x="295.90625"/>
      <use xlink:href="#DejaVuSans-73" x="323.689453"/>
     </g>
    </g>
   </g>
   <g id="text_3">
    <g clip-path="url(#p3f48d46b6a)">
     <!-- D.Schroder -->
     <g transform="translate(386.943918 66.039841)scale(0.12 -0.12)">
      <defs>
       <path id="DejaVuSans-53" d="M 3425 4513 
L 3425 3897 
Q 3066 4069 2747 4153 
Q 2428 4238 2131 4238 
Q 1616 4238 1336 4038 
Q 1056 3838 1056 3469 
Q 1056 3159 1242 3001 
Q 1428 2844 1947 2747 
L 2328 2669 
Q 3034 2534 3370 2195 
Q 3706 1856 3706 1288 
Q 3706 609 3251 259 
Q 2797 -91 1919 -91 
Q 1588 -91 1214 -16 
Q 841 59 441 206 
L 441 856 
Q 825 641 1194 531 
Q 1563 422 1919 422 
Q 2459 422 2753 634 
Q 3047 847 3047 1241 
Q 3047 1584 2836 1778 
Q 2625 1972 2144 2069 
L 1759 2144 
Q 1053 2284 737 2584 
Q 422 2884 422 3419 
Q 422 4038 858 4394 
Q 1294 4750 2059 4750 
Q 2388 4750 2728 4690 
Q 3069 4631 3425 4513 
z
" transform="scale(0.015625)"/>
       <path id="DejaVuSans-63" d="M 3122 3366 
L 3122 2828 
Q 2878 2963 2633 3030 
Q 2388 3097 2138 3097 
Q 1578 3097 1268 2742 
Q 959 2388 959 1747 
Q 959 1106 1268 751 
Q 1578 397 2138 397 
Q 2388 397 2633 464 
Q 2878 531 3122 666 
L 3122 134 
Q 2881 22 2623 -34 
Q 2366 -91 2075 -91 
Q 1284 -91 818 406 
Q 353 903 353 1747 
Q 353 2603 823 3093 
Q 1294 3584 2113 3584 
Q 2378 3584 2631 3529 
Q 2884 3475 3122 3366 
z
" transform="scale(0.015625)"/>
       <path id="DejaVuSans-68" d="M 3513 2113 
L 3513 0 
L 2938 0 
L 2938 2094 
Q 2938 2591 2744 2837 
Q 2550 3084 2163 3084 
Q 1697 3084 1428 2787 
Q 1159 2491 1159 1978 
L 1159 0 
L 581 0 
L 581 4863 
L 1159 4863 
L 1159 2956 
Q 1366 3272 1645 3428 
Q 1925 3584 2291 3584 
Q 2894 3584 3203 3211 
Q 3513 2838 3513 2113 
z
" transform="scale(0.015625)"/>
       <path id="DejaVuSans-64" d="M 2906 2969 
L 2906 4863 
L 3481 4863 
L 3481 0 
L 2906 0 
L 2906 525 
Q 2725 213 2448 61 
Q 2172 -91 1784 -91 
Q 1150 -91 751 415 
Q 353 922 353 1747 
Q 353 2572 751 3078 
Q 1150 3584 1784 3584 
Q 2172 3584 2448 3432 
Q 2725 3281 2906 2969 
z
M 947 1747 
Q 947 1113 1208 752 
Q 1469 391 1925 391 
Q 2381 391 2643 752 
Q 2906 1113 2906 1747 
Q 2906 2381 2643 2742 
Q 2381 3103 1925 3103 
Q 1469 3103 1208 2742 
Q 947 2381 947 1747 
z
" transform="scale(0.015625)"/>
       <path id="DejaVuSans-65" d="M 3597 1894 
L 3597 1613 
L 953 1613 
Q 991 1019 1311 708 
Q 1631 397 2203 397 
Q 2534 397 2845 478 
Q 3156 559 3463 722 
L 3463 178 
Q 3153 47 2828 -22 
Q 2503 -91 2169 -91 
Q 1331 -91 842 396 
Q 353 884 353 1716 
Q 353 2575 817 3079 
Q 1281 3584 2069 3584 
Q 2775 3584 3186 3129 
Q 3597 2675 3597 1894 
z
M 3022 2063 
Q 3016 2534 2758 2815 
Q 2500 3097 2075 3097 
Q 1594 3097 1305 2825 
Q 1016 2553 972 2059 
L 3022 2063 
z
" transform="scale(0.015625)"/>
      </defs>
      <use xlink:href="#DejaVuSans-44"/>
      <use xlink:href="#DejaVuSans-2e" x="77.001953"/>
      <use xlink:href="#DejaVuSans-53" x="108.789062"/>
      <use xlink:href="#DejaVuSans-63" x="172.265625"/>
      <use xlink:href="#DejaVuSans-68" x="227.246094"/>
      <use xlink:href="#DejaVuSans-72" x="290.625"/>
      <use xlink:href="#DejaVuSans-6f" x="329.488281"/>
      <use xlink:href="#DejaVuSans-64" x="390.669922"/>
      <use xlink:href="#DejaVuSans-65" x="454.146484"/>
      <use xlink:href="#DejaVuSans-72" x="515.669922"/>
     </g>
    </g>
   </g>
   <g id="text_4">
    <g clip-path="url(#p3f48d46b6a)">
     <!-- K.Caldwell-Pope -->
     <g transform="translate(178.699985 46.757153)scale(0.12 -0.12)">
      <defs>
       <path id="DejaVuSans-4b" d="M 628 4666 
L 1259 4666 
L 1259 2694 
L 3353 4666 
L 4166 4666 
L 1850 2491 
L 4331 0 
L 3500 0 
L 1259 2247 
L 1259 0 
L 628 0 
L 628 4666 
z
" transform="scale(0.015625)"/>
       <path id="DejaVuSans-6c" d="M 603 4863 
L 1178 4863 
L 1178 0 
L 603 0 
L 603 4863 
z
" transform="scale(0.015625)"/>
       <path id="DejaVuSans-77" d="M 269 3500 
L 844 3500 
L 1563 769 
L 2278 3500 
L 2956 3500 
L 3675 769 
L 4391 3500 
L 4966 3500 
L 4050 0 
L 3372 0 
L 2619 2869 
L 1863 0 
L 1184 0 
L 269 3500 
z
" transform="scale(0.015625)"/>
       <path id="DejaVuSans-2d" d="M 313 2009 
L 1997 2009 
L 1997 1497 
L 313 1497 
L 313 2009 
z
" transform="scale(0.015625)"/>
       <path id="DejaVuSans-50" d="M 1259 4147 
L 1259 2394 
L 2053 2394 
Q 2494 2394 2734 2622 
Q 2975 2850 2975 3272 
Q 2975 3691 2734 3919 
Q 2494 4147 2053 4147 
L 1259 4147 
z
M 628 4666 
L 2053 4666 
Q 2838 4666 3239 4311 
Q 3641 3956 3641 3272 
Q 3641 2581 3239 2228 
Q 2838 1875 2053 1875 
L 1259 1875 
L 1259 0 
L 628 0 
L 628 4666 
z
" transform="scale(0.015625)"/>
       <path id="DejaVuSans-70" d="M 1159 525 
L 1159 -1331 
L 581 -1331 
L 581 3500 
L 1159 3500 
L 1159 2969 
Q 1341 3281 1617 3432 
Q 1894 3584 2278 3584 
Q 2916 3584 3314 3078 
Q 3713 2572 3713 1747 
Q 3713 922 3314 415 
Q 2916 -91 2278 -91 
Q 1894 -91 1617 61 
Q 1341 213 1159 525 
z
M 3116 1747 
Q 3116 2381 2855 2742 
Q 2594 3103 2138 3103 
Q 1681 3103 1420 2742 
Q 1159 2381 1159 1747 
Q 1159 1113 1420 752 
Q 1681 391 2138 391 
Q 2594 391 2855 752 
Q 3116 1113 3116 1747 
z
" transform="scale(0.015625)"/>
      </defs>
      <use xlink:href="#DejaVuSans-4b"/>
      <use xlink:href="#DejaVuSans-2e" x="65.576172"/>
      <use xlink:href="#DejaVuSans-43" x="97.363281"/>
      <use xlink:href="#DejaVuSans-61" x="167.1875"/>
      <use xlink:href="#DejaVuSans-6c" x="228.466797"/>
      <use xlink:href="#DejaVuSans-64" x="256.25"/>
      <use xlink:href="#DejaVuSans-77" x="319.726562"/>
      <use xlink:href="#DejaVuSans-65" x="401.513672"/>
      <use xlink:href="#DejaVuSans-6c" x="463.037109"/>
      <use xlink:href="#DejaVuSans-6c" x="490.820312"/>
      <use xlink:href="#DejaVuSans-2d" x="518.603516"/>
      <use xlink:href="#DejaVuSans-50" x="554.6875"/>
      <use xlink:href="#DejaVuSans-6f" x="611.365234"/>
      <use xlink:href="#DejaVuSans-70" x="672.546875"/>
      <use xlink:href="#DejaVuSans-65" x="736.023438"/>
     </g>
    </g>
   </g>
   <g id="text_5">
    <g clip-path="url(#p3f48d46b6a)">
     <!-- K.Kuzma -->
     <g transform="translate(76.0884 103.043018)scale(0.12 -0.12)">
      <defs>
       <path id="DejaVuSans-7a" d="M 353 3500 
L 3084 3500 
L 3084 2975 
L 922 459 
L 3084 459 
L 3084 0 
L 275 0 
L 275 525 
L 2438 3041 
L 353 3041 
L 353 3500 
z
" transform="scale(0.015625)"/>
       <path id="DejaVuSans-6d" d="M 3328 2828 
Q 3544 3216 3844 3400 
Q 4144 3584 4550 3584 
Q 5097 3584 5394 3201 
Q 5691 2819 5691 2113 
L 5691 0 
L 5113 0 
L 5113 2094 
Q 5113 2597 4934 2840 
Q 4756 3084 4391 3084 
Q 3944 3084 3684 2787 
Q 3425 2491 3425 1978 
L 3425 0 
L 2847 0 
L 2847 2094 
Q 2847 2600 2669 2842 
Q 2491 3084 2119 3084 
Q 1678 3084 1418 2786 
Q 1159 2488 1159 1978 
L 1159 0 
L 581 0 
L 581 3500 
L 1159 3500 
L 1159 2956 
Q 1356 3278 1631 3431 
Q 1906 3584 2284 3584 
Q 2666 3584 2933 3390 
Q 3200 3197 3328 2828 
z
" transform="scale(0.015625)"/>
      </defs>
      <use xlink:href="#DejaVuSans-4b"/>
      <use xlink:href="#DejaVuSans-2e" x="65.576172"/>
      <use xlink:href="#DejaVuSans-4b" x="97.363281"/>
      <use xlink:href="#DejaVuSans-75" x="157.939453"/>
      <use xlink:href="#DejaVuSans-7a" x="221.318359"/>
      <use xlink:href="#DejaVuSans-6d" x="273.808594"/>
      <use xlink:href="#DejaVuSans-61" x="371.220703"/>
     </g>
    </g>
   </g>
   <g id="text_6">
    <g clip-path="url(#p3f48d46b6a)">
     <!-- L.James -->
     <g transform="translate(4.672299 217.027106)scale(0.12 -0.12)">
      <defs>
       <path id="DejaVuSans-4c" d="M 628 4666 
L 1259 4666 
L 1259 531 
L 3531 531 
L 3531 0 
L 628 0 
L 628 4666 
z
" transform="scale(0.015625)"/>
       <path id="DejaVuSans-4a" d="M 628 4666 
L 1259 4666 
L 1259 325 
Q 1259 -519 939 -900 
Q 619 -1281 -91 -1281 
L -331 -1281 
L -331 -750 
L -134 -750 
Q 284 -750 456 -515 
Q 628 -281 628 325 
L 628 4666 
z
" transform="scale(0.015625)"/>
      </defs>
      <use xlink:href="#DejaVuSans-4c"/>
      <use xlink:href="#DejaVuSans-2e" x="55.712891"/>
      <use xlink:href="#DejaVuSans-4a" x="87.5"/>
      <use xlink:href="#DejaVuSans-61" x="116.992188"/>
      <use xlink:href="#DejaVuSans-6d" x="178.271484"/>
      <use xlink:href="#DejaVuSans-65" x="275.683594"/>
      <use xlink:href="#DejaVuSans-73" x="337.207031"/>
     </g>
    </g>
   </g>
   <g id="text_7">
    <g clip-path="url(#p3f48d46b6a)">
     <!-- M.Gasol -->
     <g transform="translate(4.157611 410.231637)scale(0.12 -0.12)">
      <defs>
       <path id="DejaVuSans-4d" d="M 628 4666 
L 1569 4666 
L 2759 1491 
L 3956 4666 
L 4897 4666 
L 4897 0 
L 4281 0 
L 4281 4097 
L 3078 897 
L 2444 897 
L 1241 4097 
L 1241 0 
L 628 0 
L 628 4666 
z
" transform="scale(0.015625)"/>
       <path id="DejaVuSans-47" d="M 3809 666 
L 3809 1919 
L 2778 1919 
L 2778 2438 
L 4434 2438 
L 4434 434 
Q 4069 175 3628 42 
Q 3188 -91 2688 -91 
Q 1594 -91 976 548 
Q 359 1188 359 2328 
Q 359 3472 976 4111 
Q 1594 4750 2688 4750 
Q 3144 4750 3555 4637 
Q 3966 4525 4313 4306 
L 4313 3634 
Q 3963 3931 3569 4081 
Q 3175 4231 2741 4231 
Q 1884 4231 1454 3753 
Q 1025 3275 1025 2328 
Q 1025 1384 1454 906 
Q 1884 428 2741 428 
Q 3075 428 3337 486 
Q 3600 544 3809 666 
z
" transform="scale(0.015625)"/>
      </defs>
      <use xlink:href="#DejaVuSans-4d"/>
      <use xlink:href="#DejaVuSans-2e" x="86.279297"/>
      <use xlink:href="#DejaVuSans-47" x="118.066406"/>
      <use xlink:href="#DejaVuSans-61" x="195.556641"/>
      <use xlink:href="#DejaVuSans-73" x="256.835938"/>
      <use xlink:href="#DejaVuSans-6f" x="308.935547"/>
      <use xlink:href="#DejaVuSans-6c" x="370.117188"/>
     </g>
    </g>
   </g>
   <g id="text_8">
    <g clip-path="url(#p3f48d46b6a)">
     <!-- M.Morris -->
     <g transform="translate(76.484948 524.215718)scale(0.12 -0.12)">
      <use xlink:href="#DejaVuSans-4d"/>
      <use xlink:href="#DejaVuSans-2e" x="86.279297"/>
      <use xlink:href="#DejaVuSans-4d" x="118.066406"/>
      <use xlink:href="#DejaVuSans-6f" x="204.345703"/>
      <use xlink:href="#DejaVuSans-72" x="265.527344"/>
      <use xlink:href="#DejaVuSans-72" x="304.890625"/>
      <use xlink:href="#DejaVuSans-69" x="346.003906"/>
      <use xlink:href="#DejaVuSans-73" x="373.787109"/>
     </g>
    </g>
   </g>
   <g id="text_9">
    <g clip-path="url(#p3f48d46b6a)">
     <!-- M.Harrell -->
     <g transform="translate(199.562129 580.501597)scale(0.12 -0.12)">
      <defs>
       <path id="DejaVuSans-48" d="M 628 4666 
L 1259 4666 
L 1259 2753 
L 3553 2753 
L 3553 4666 
L 4184 4666 
L 4184 0 
L 3553 0 
L 3553 2222 
L 1259 2222 
L 1259 0 
L 628 0 
L 628 4666 
z
" transform="scale(0.015625)"/>
      </defs>
      <use xlink:href="#DejaVuSans-4d"/>
      <use xlink:href="#DejaVuSans-2e" x="86.279297"/>
      <use xlink:href="#DejaVuSans-48" x="118.066406"/>
      <use xlink:href="#DejaVuSans-61" x="193.261719"/>
      <use xlink:href="#DejaVuSans-72" x="254.541016"/>
      <use xlink:href="#DejaVuSans-72" x="293.904297"/>
      <use xlink:href="#DejaVuSans-65" x="332.767578"/>
      <use xlink:href="#DejaVuSans-6c" x="394.291016"/>
      <use xlink:href="#DejaVuSans-6c" x="422.074219"/>
     </g>
    </g>
   </g>
   <g id="text_10">
    <g clip-path="url(#p3f48d46b6a)">
     <!-- T.Horton-Tucker -->
     <g transform="translate(374.125488 561.218909)scale(0.12 -0.12)">
      <defs>
       <path id="DejaVuSans-54" d="M -19 4666 
L 3928 4666 
L 3928 4134 
L 2272 4134 
L 2272 0 
L 1638 0 
L 1638 4134 
L -19 4134 
L -19 4666 
z
" transform="scale(0.015625)"/>
       <path id="DejaVuSans-74" d="M 1172 4494 
L 1172 3500 
L 2356 3500 
L 2356 3053 
L 1172 3053 
L 1172 1153 
Q 1172 725 1289 603 
Q 1406 481 1766 481 
L 2356 481 
L 2356 0 
L 1766 0 
Q 1100 0 847 248 
Q 594 497 594 1153 
L 594 3053 
L 172 3053 
L 172 3500 
L 594 3500 
L 594 4494 
L 1172 4494 
z
" transform="scale(0.015625)"/>
       <path id="DejaVuSans-6e" d="M 3513 2113 
L 3513 0 
L 2938 0 
L 2938 2094 
Q 2938 2591 2744 2837 
Q 2550 3084 2163 3084 
Q 1697 3084 1428 2787 
Q 1159 2491 1159 1978 
L 1159 0 
L 581 0 
L 581 3500 
L 1159 3500 
L 1159 2956 
Q 1366 3272 1645 3428 
Q 1925 3584 2291 3584 
Q 2894 3584 3203 3211 
Q 3513 2838 3513 2113 
z
" transform="scale(0.015625)"/>
       <path id="DejaVuSans-6b" d="M 581 4863 
L 1159 4863 
L 1159 1991 
L 2875 3500 
L 3609 3500 
L 1753 1863 
L 3688 0 
L 2938 0 
L 1159 1709 
L 1159 0 
L 581 0 
L 581 4863 
z
" transform="scale(0.015625)"/>
      </defs>
      <use xlink:href="#DejaVuSans-54"/>
      <use xlink:href="#DejaVuSans-2e" x="49.208984"/>
      <use xlink:href="#DejaVuSans-48" x="80.996094"/>
      <use xlink:href="#DejaVuSans-6f" x="156.191406"/>
      <use xlink:href="#DejaVuSans-72" x="217.373047"/>
      <use xlink:href="#DejaVuSans-74" x="258.486328"/>
      <use xlink:href="#DejaVuSans-6f" x="297.695312"/>
      <use xlink:href="#DejaVuSans-6e" x="358.876953"/>
      <use xlink:href="#DejaVuSans-2d" x="422.255859"/>
      <use xlink:href="#DejaVuSans-54" x="449.214844"/>
      <use xlink:href="#DejaVuSans-75" x="495.173828"/>
      <use xlink:href="#DejaVuSans-63" x="558.552734"/>
      <use xlink:href="#DejaVuSans-6b" x="613.533203"/>
      <use xlink:href="#DejaVuSans-65" x="667.818359"/>
      <use xlink:href="#DejaVuSans-72" x="729.341797"/>
     </g>
    </g>
   </g>
   <g id="text_11">
    <g clip-path="url(#p3f48d46b6a)">
     <!-- W.Matthews -->
     <g transform="translate(487.569191 472.489798)scale(0.12 -0.12)">
      <defs>
       <path id="DejaVuSans-57" d="M 213 4666 
L 850 4666 
L 1831 722 
L 2809 4666 
L 3519 4666 
L 4500 722 
L 5478 4666 
L 6119 4666 
L 4947 0 
L 4153 0 
L 3169 4050 
L 2175 0 
L 1381 0 
L 213 4666 
z
" transform="scale(0.015625)"/>
      </defs>
      <use xlink:href="#DejaVuSans-57"/>
      <use xlink:href="#DejaVuSans-2e" x="87.376953"/>
      <use xlink:href="#DejaVuSans-4d" x="119.164062"/>
      <use xlink:href="#DejaVuSans-61" x="205.443359"/>
      <use xlink:href="#DejaVuSans-74" x="266.722656"/>
      <use xlink:href="#DejaVuSans-74" x="305.931641"/>
      <use xlink:href="#DejaVuSans-68" x="345.140625"/>
      <use xlink:href="#DejaVuSans-65" x="408.519531"/>
      <use xlink:href="#DejaVuSans-77" x="470.042969"/>
      <use xlink:href="#DejaVuSans-73" x="551.830078"/>
     </g>
    </g>
   </g>
   <g id="text_12">
    <!-- 2020-21 Los Angeles Lakers Assist Network -->
    <g transform="translate(164.555625 16.318125)scale(0.12 -0.12)">
     <defs>
      <path id="DejaVuSans-32" d="M 1228 531 
L 3431 531 
L 3431 0 
L 469 0 
L 469 531 
Q 828 903 1448 1529 
Q 2069 2156 2228 2338 
Q 2531 2678 2651 2914 
Q 2772 3150 2772 3378 
Q 2772 3750 2511 3984 
Q 2250 4219 1831 4219 
Q 1534 4219 1204 4116 
Q 875 4013 500 3803 
L 500 4441 
Q 881 4594 1212 4672 
Q 1544 4750 1819 4750 
Q 2544 4750 2975 4387 
Q 3406 4025 3406 3419 
Q 3406 3131 3298 2873 
Q 3191 2616 2906 2266 
Q 2828 2175 2409 1742 
Q 1991 1309 1228 531 
z
" transform="scale(0.015625)"/>
      <path id="DejaVuSans-30" d="M 2034 4250 
Q 1547 4250 1301 3770 
Q 1056 3291 1056 2328 
Q 1056 1369 1301 889 
Q 1547 409 2034 409 
Q 2525 409 2770 889 
Q 3016 1369 3016 2328 
Q 3016 3291 2770 3770 
Q 2525 4250 2034 4250 
z
M 2034 4750 
Q 2819 4750 3233 4129 
Q 3647 3509 3647 2328 
Q 3647 1150 3233 529 
Q 2819 -91 2034 -91 
Q 1250 -91 836 529 
Q 422 1150 422 2328 
Q 422 3509 836 4129 
Q 1250 4750 2034 4750 
z
" transform="scale(0.015625)"/>
      <path id="DejaVuSans-31" d="M 794 531 
L 1825 531 
L 1825 4091 
L 703 3866 
L 703 4441 
L 1819 4666 
L 2450 4666 
L 2450 531 
L 3481 531 
L 3481 0 
L 794 0 
L 794 531 
z
" transform="scale(0.015625)"/>
      <path id="DejaVuSans-20" transform="scale(0.015625)"/>
      <path id="DejaVuSans-67" d="M 2906 1791 
Q 2906 2416 2648 2759 
Q 2391 3103 1925 3103 
Q 1463 3103 1205 2759 
Q 947 2416 947 1791 
Q 947 1169 1205 825 
Q 1463 481 1925 481 
Q 2391 481 2648 825 
Q 2906 1169 2906 1791 
z
M 3481 434 
Q 3481 -459 3084 -895 
Q 2688 -1331 1869 -1331 
Q 1566 -1331 1297 -1286 
Q 1028 -1241 775 -1147 
L 775 -588 
Q 1028 -725 1275 -790 
Q 1522 -856 1778 -856 
Q 2344 -856 2625 -561 
Q 2906 -266 2906 331 
L 2906 616 
Q 2728 306 2450 153 
Q 2172 0 1784 0 
Q 1141 0 747 490 
Q 353 981 353 1791 
Q 353 2603 747 3093 
Q 1141 3584 1784 3584 
Q 2172 3584 2450 3431 
Q 2728 3278 2906 2969 
L 2906 3500 
L 3481 3500 
L 3481 434 
z
" transform="scale(0.015625)"/>
      <path id="DejaVuSans-4e" d="M 628 4666 
L 1478 4666 
L 3547 763 
L 3547 4666 
L 4159 4666 
L 4159 0 
L 3309 0 
L 1241 3903 
L 1241 0 
L 628 0 
L 628 4666 
z
" transform="scale(0.015625)"/>
     </defs>
     <use xlink:href="#DejaVuSans-32"/>
     <use xlink:href="#DejaVuSans-30" x="63.623047"/>
     <use xlink:href="#DejaVuSans-32" x="127.246094"/>
     <use xlink:href="#DejaVuSans-30" x="190.869141"/>
     <use xlink:href="#DejaVuSans-2d" x="254.492188"/>
     <use xlink:href="#DejaVuSans-32" x="290.576172"/>
     <use xlink:href="#DejaVuSans-31" x="354.199219"/>
     <use xlink:href="#DejaVuSans-20" x="417.822266"/>
     <use xlink:href="#DejaVuSans-4c" x="449.609375"/>
     <use xlink:href="#DejaVuSans-6f" x="503.572266"/>
     <use xlink:href="#DejaVuSans-73" x="564.753906"/>
     <use xlink:href="#DejaVuSans-20" x="616.853516"/>
     <use xlink:href="#DejaVuSans-41" x="648.640625"/>
     <use xlink:href="#DejaVuSans-6e" x="717.048828"/>
     <use xlink:href="#DejaVuSans-67" x="780.427734"/>
     <use xlink:href="#DejaVuSans-65" x="843.904297"/>
     <use xlink:href="#DejaVuSans-6c" x="905.427734"/>
     <use xlink:href="#DejaVuSans-65" x="933.210938"/>
     <use xlink:href="#DejaVuSans-73" x="994.734375"/>
     <use xlink:href="#DejaVuSans-20" x="1046.833984"/>
     <use xlink:href="#DejaVuSans-4c" x="1078.621094"/>
     <use xlink:href="#DejaVuSans-61" x="1134.333984"/>
     <use xlink:href="#DejaVuSans-6b" x="1195.613281"/>
     <use xlink:href="#DejaVuSans-65" x="1249.898438"/>
     <use xlink:href="#DejaVuSans-72" x="1311.421875"/>
     <use xlink:href="#DejaVuSans-73" x="1352.535156"/>
     <use xlink:href="#DejaVuSans-20" x="1404.634766"/>
     <use xlink:href="#DejaVuSans-41" x="1436.421875"/>
     <use xlink:href="#DejaVuSans-73" x="1504.830078"/>
     <use xlink:href="#DejaVuSans-73" x="1556.929688"/>
     <use xlink:href="#DejaVuSans-69" x="1609.029297"/>
     <use xlink:href="#DejaVuSans-73" x="1636.8125"/>
     <use xlink:href="#DejaVuSans-74" x="1688.912109"/>
     <use xlink:href="#DejaVuSans-20" x="1728.121094"/>
     <use xlink:href="#DejaVuSans-4e" x="1759.908203"/>
     <use xlink:href="#DejaVuSans-65" x="1834.712891"/>
     <use xlink:href="#DejaVuSans-74" x="1896.236328"/>
     <use xlink:href="#DejaVuSans-77" x="1935.445312"/>
     <use xlink:href="#DejaVuSans-6f" x="2017.232422"/>
     <use xlink:href="#DejaVuSans-72" x="2078.414062"/>
     <use xlink:href="#DejaVuSans-6b" x="2119.527344"/>
    </g>
   </g>
  </g>
 </g>
 <defs>
  <clipPath id="p3f48d46b6a">
   <rect x="7.2" y="22.318125" width="576" height="576"/>
  </clipPath>
 </defs>
</svg>
