<?xml version="1.0" encoding="utf-8" standalone="no"?>
<!DOCTYPE svg PUBLIC "-//W3C//DTD SVG 1.1//EN"
  "http://www.w3.org/Graphics/SVG/1.1/DTD/svg11.dtd">
<svg xmlns:xlink="http://www.w3.org/1999/xlink" width="590.4pt" height="605.518125pt" viewBox="0 0 590.4 605.518125" xmlns="http://www.w3.org/2000/svg" version="1.1">
 <metadata>
  <rdf:RDF xmlns:dc="http://purl.org/dc/elements/1.1/" xmlns:cc="http://creativecommons.org/ns#" xmlns:rdf="http://www.w3.org/1999/02/22-rdf-syntax-ns#">
   <cc:Work>
    <dc:type rdf:resource="http://purl.org/dc/dcmitype/StillImage"/>
    <dc:date>2023-04-10T22:31:26.322572</dc:date>
    <dc:format>image/svg+xml</dc:format>
    <dc:creator>
     <cc:Agent>
      <dc:title>Matplotlib v3.5.2, https://matplotlib.org/</dc:title>
     </cc:Agent>
    </dc:creator>
   </cc:Work>
  </rdf:RDF>
 </metadata>
 <defs>
  <style type="text/css">*{stroke-linejoin: round; stroke-linecap: butt}</style>
 </defs>
 <g id="figure_1">
  <g id="patch_1">
   <path d="M 0 605.518125 
L 590.4 605.518125 
L 590.4 0 
L 0 0 
z
" style="fill: #ffffff"/>
  </g>
  <g id="axes_1">
   <g id="LineCollection_1">
    <path d="M 533.216529 310.318125 
L 501.328357 191.309861 
" clip-path="url(#p88c395bb47)" style="fill: none; stroke: #bbbbbb; stroke-width: 2"/>
    <path d="M 533.216529 310.318125 
L 414.208257 104.189754 
" clip-path="url(#p88c395bb47)" style="fill: none; stroke: #b9b9b9; stroke-width: 2"/>
    <path d="M 533.216529 310.318125 
L 295.19999 72.301596 
" clip-path="url(#p88c395bb47)" style="fill: none; stroke: #e1e1e1; stroke-width: 2"/>
    <path d="M 533.216529 310.318125 
L 176.191721 104.189768 
" clip-path="url(#p88c395bb47)" style="fill: none; stroke: #919191; stroke-width: 2"/>
    <path d="M 533.216529 310.318125 
L 89.071643 191.309846 
" clip-path="url(#p88c395bb47)" style="fill: none; stroke: #cccccc; stroke-width: 2"/>
    <path d="M 533.216529 310.318125 
L 57.183471 310.318146 
" clip-path="url(#p88c395bb47)" style="fill: none; stroke: #d8d8d8; stroke-width: 2"/>
    <path d="M 533.216529 310.318125 
L 89.071629 429.326382 
" clip-path="url(#p88c395bb47)" style="fill: none; stroke: #d1d1d1; stroke-width: 2"/>
    <path d="M 533.216529 310.318125 
L 176.191757 516.446496 
" clip-path="url(#p88c395bb47)" style="fill: none; stroke: #f8f8f8; stroke-width: 2"/>
    <path d="M 533.216529 310.318125 
L 295.200003 548.334654 
" clip-path="url(#p88c395bb47)" style="fill: none; stroke: #838383; stroke-width: 2"/>
    <path d="M 533.216529 310.318125 
L 414.208243 516.446496 
" clip-path="url(#p88c395bb47)" style="fill: none; stroke: #fdfdfd; stroke-width: 2"/>
    <path d="M 533.216529 310.318125 
L 501.328343 429.326432 
" clip-path="url(#p88c395bb47)" style="fill: none; stroke: #dfdfdf; stroke-width: 2"/>
    <path d="M 501.328357 191.309861 
L 414.208257 104.189754 
" clip-path="url(#p88c395bb47)" style="fill: none; stroke: #9b9b9b; stroke-width: 2"/>
    <path d="M 501.328357 191.309861 
L 295.19999 72.301596 
" clip-path="url(#p88c395bb47)" style="fill: none; stroke: #dadada; stroke-width: 2"/>
    <path d="M 501.328357 191.309861 
L 176.191721 104.189768 
" clip-path="url(#p88c395bb47)" style="fill: none; stroke: #646464; stroke-width: 2"/>
    <path d="M 501.328357 191.309861 
L 89.071643 191.309846 
" clip-path="url(#p88c395bb47)" style="fill: none; stroke: #c7c7c7; stroke-width: 2"/>
    <path d="M 501.328357 191.309861 
L 57.183471 310.318146 
" clip-path="url(#p88c395bb47)" style="fill: none; stroke: #dadada; stroke-width: 2"/>
    <path d="M 501.328357 191.309861 
L 89.071629 429.326382 
" clip-path="url(#p88c395bb47)" style="fill: none; stroke: #939393; stroke-width: 2"/>
    <path d="M 501.328357 191.309861 
L 176.191757 516.446496 
" clip-path="url(#p88c395bb47)" style="fill: none; stroke: #cecece; stroke-width: 2"/>
    <path d="M 501.328357 191.309861 
L 295.200003 548.334654 
" clip-path="url(#p88c395bb47)" style="fill: none; stroke: #8c8c8c; stroke-width: 2"/>
    <path d="M 501.328357 191.309861 
L 414.208243 516.446496 
" clip-path="url(#p88c395bb47)" style="fill: none; stroke: #ededed; stroke-width: 2"/>
    <path d="M 501.328357 191.309861 
L 501.328343 429.326432 
" clip-path="url(#p88c395bb47)" style="fill: none; stroke: #dadada; stroke-width: 2"/>
    <path d="M 414.208257 104.189754 
L 295.19999 72.301596 
" clip-path="url(#p88c395bb47)" style="fill: none; stroke: #d3d3d3; stroke-width: 2"/>
    <path d="M 414.208257 104.189754 
L 176.191721 104.189768 
" clip-path="url(#p88c395bb47)" style="fill: none; stroke: #000000; stroke-width: 2"/>
    <path d="M 414.208257 104.189754 
L 89.071643 191.309846 
" clip-path="url(#p88c395bb47)" style="fill: none; stroke: #5b5b5b; stroke-width: 2"/>
    <path d="M 414.208257 104.189754 
L 57.183471 310.318146 
" clip-path="url(#p88c395bb47)" style="fill: none; stroke: #c5c5c5; stroke-width: 2"/>
    <path d="M 414.208257 104.189754 
L 89.071629 429.326382 
" clip-path="url(#p88c395bb47)" style="fill: none; stroke: #b0b0b0; stroke-width: 2"/>
    <path d="M 414.208257 104.189754 
L 176.191757 516.446496 
" clip-path="url(#p88c395bb47)" style="fill: none; stroke: #2a2a2a; stroke-width: 2"/>
    <path d="M 414.208257 104.189754 
L 295.200003 548.334654 
" clip-path="url(#p88c395bb47)" style="fill: none; stroke: #464646; stroke-width: 2"/>
    <path d="M 414.208257 104.189754 
L 414.208243 516.446496 
" clip-path="url(#p88c395bb47)" style="fill: none; stroke: #eaeaea; stroke-width: 2"/>
    <path d="M 414.208257 104.189754 
L 501.328343 429.326432 
" clip-path="url(#p88c395bb47)" style="fill: none; stroke: #cccccc; stroke-width: 2"/>
    <path d="M 295.19999 72.301596 
L 176.191721 104.189768 
" clip-path="url(#p88c395bb47)" style="fill: none; stroke: #cecece; stroke-width: 2"/>
    <path d="M 295.19999 72.301596 
L 89.071643 191.309846 
" clip-path="url(#p88c395bb47)" style="fill: none; stroke: #c2c2c2; stroke-width: 2"/>
    <path d="M 295.19999 72.301596 
L 57.183471 310.318146 
" clip-path="url(#p88c395bb47)" style="fill: none; stroke: #ffffff; stroke-width: 2"/>
    <path d="M 295.19999 72.301596 
L 89.071629 429.326382 
" clip-path="url(#p88c395bb47)" style="fill: none; stroke: #dcdcdc; stroke-width: 2"/>
    <path d="M 295.19999 72.301596 
L 176.191757 516.446496 
" clip-path="url(#p88c395bb47)" style="fill: none; stroke: #a9a9a9; stroke-width: 2"/>
    <path d="M 295.19999 72.301596 
L 295.200003 548.334654 
" clip-path="url(#p88c395bb47)" style="fill: none; stroke: #bbbbbb; stroke-width: 2"/>
    <path d="M 295.19999 72.301596 
L 414.208243 516.446496 
" clip-path="url(#p88c395bb47)" style="fill: none; stroke: #f4f4f4; stroke-width: 2"/>
    <path d="M 295.19999 72.301596 
L 501.328343 429.326432 
" clip-path="url(#p88c395bb47)" style="fill: none; stroke: #ffffff; stroke-width: 2"/>
    <path d="M 176.191721 104.189768 
L 89.071643 191.309846 
" clip-path="url(#p88c395bb47)" style="fill: none; stroke: #696969; stroke-width: 2"/>
    <path d="M 176.191721 104.189768 
L 57.183471 310.318146 
" clip-path="url(#p88c395bb47)" style="fill: none; stroke: #e3e3e3; stroke-width: 2"/>
    <path d="M 176.191721 104.189768 
L 89.071629 429.326382 
" clip-path="url(#p88c395bb47)" style="fill: none; stroke: #858585; stroke-width: 2"/>
    <path d="M 176.191721 104.189768 
L 176.191757 516.446496 
" clip-path="url(#p88c395bb47)" style="fill: none; stroke: #5d5d5d; stroke-width: 2"/>
    <path d="M 176.191721 104.189768 
L 295.200003 548.334654 
" clip-path="url(#p88c395bb47)" style="fill: none; stroke: #ededed; stroke-width: 2"/>
    <path d="M 176.191721 104.189768 
L 414.208243 516.446496 
" clip-path="url(#p88c395bb47)" style="fill: none; stroke: #e1e1e1; stroke-width: 2"/>
    <path d="M 176.191721 104.189768 
L 501.328343 429.326432 
" clip-path="url(#p88c395bb47)" style="fill: none; stroke: #969696; stroke-width: 2"/>
    <path d="M 89.071643 191.309846 
L 57.183471 310.318146 
" clip-path="url(#p88c395bb47)" style="fill: none; stroke: #e1e1e1; stroke-width: 2"/>
    <path d="M 89.071643 191.309846 
L 89.071629 429.326382 
" clip-path="url(#p88c395bb47)" style="fill: none; stroke: #dcdcdc; stroke-width: 2"/>
    <path d="M 89.071643 191.309846 
L 176.191757 516.446496 
" clip-path="url(#p88c395bb47)" style="fill: none; stroke: #b7b7b7; stroke-width: 2"/>
    <path d="M 89.071643 191.309846 
L 295.200003 548.334654 
" clip-path="url(#p88c395bb47)" style="fill: none; stroke: #545454; stroke-width: 2"/>
    <path d="M 89.071643 191.309846 
L 414.208243 516.446496 
" clip-path="url(#p88c395bb47)" style="fill: none; stroke: #f4f4f4; stroke-width: 2"/>
    <path d="M 89.071643 191.309846 
L 501.328343 429.326432 
" clip-path="url(#p88c395bb47)" style="fill: none; stroke: #efefef; stroke-width: 2"/>
    <path d="M 57.183471 310.318146 
L 89.071629 429.326382 
" clip-path="url(#p88c395bb47)" style="fill: none; stroke: #dfdfdf; stroke-width: 2"/>
    <path d="M 57.183471 310.318146 
L 176.191757 516.446496 
" clip-path="url(#p88c395bb47)" style="fill: none; stroke: #f4f4f4; stroke-width: 2"/>
    <path d="M 57.183471 310.318146 
L 295.200003 548.334654 
" clip-path="url(#p88c395bb47)" style="fill: none; stroke: #d5d5d5; stroke-width: 2"/>
    <path d="M 57.183471 310.318146 
L 414.208243 516.446496 
" clip-path="url(#p88c395bb47)" style="fill: none; stroke: #dcdcdc; stroke-width: 2"/>
    <path d="M 57.183471 310.318146 
L 501.328343 429.326432 
" clip-path="url(#p88c395bb47)" style="fill: none; stroke: #dfdfdf; stroke-width: 2"/>
    <path d="M 89.071629 429.326382 
L 176.191757 516.446496 
" clip-path="url(#p88c395bb47)" style="fill: none; stroke: #dcdcdc; stroke-width: 2"/>
    <path d="M 89.071629 429.326382 
L 295.200003 548.334654 
" clip-path="url(#p88c395bb47)" style="fill: none; stroke: #b4b4b4; stroke-width: 2"/>
    <path d="M 89.071629 429.326382 
L 414.208243 516.446496 
" clip-path="url(#p88c395bb47)" style="fill: none; stroke: #dcdcdc; stroke-width: 2"/>
    <path d="M 89.071629 429.326382 
L 501.328343 429.326432 
" clip-path="url(#p88c395bb47)" style="fill: none; stroke: #cccccc; stroke-width: 2"/>
    <path d="M 176.191757 516.446496 
L 295.200003 548.334654 
" clip-path="url(#p88c395bb47)" style="fill: none; stroke: #b2b2b2; stroke-width: 2"/>
    <path d="M 176.191757 516.446496 
L 501.328343 429.326432 
" clip-path="url(#p88c395bb47)" style="fill: none; stroke: #c7c7c7; stroke-width: 2"/>
    <path d="M 295.200003 548.334654 
L 414.208243 516.446496 
" clip-path="url(#p88c395bb47)" style="fill: none; stroke: #e8e8e8; stroke-width: 2"/>
    <path d="M 295.200003 548.334654 
L 501.328343 429.326432 
" clip-path="url(#p88c395bb47)" style="fill: none; stroke: #c7c7c7; stroke-width: 2"/>
    <path d="M 414.208243 516.446496 
L 501.328343 429.326432 
" clip-path="url(#p88c395bb47)" style="fill: none; stroke: #ededed; stroke-width: 2"/>
   </g>
   <g id="PathCollection_1">
    <path d="M 533.216529 314.734005 
C 534.387634 314.734005 535.510932 314.26872 536.339028 313.440624 
C 537.167124 312.612528 537.632409 311.48923 537.632409 310.318125 
C 537.632409 309.14702 537.167124 308.023722 536.339028 307.195626 
C 535.510932 306.36753 534.387634 305.902245 533.216529 305.902245 
C 532.045424 305.902245 530.922126 306.36753 530.09403 307.195626 
C 529.265934 308.023722 528.800648 309.14702 528.800648 310.318125 
C 528.800648 311.48923 529.265934 312.612528 530.09403 313.440624 
C 530.922126 314.26872 532.045424 314.734005 533.216529 314.734005 
z
" clip-path="url(#p88c395bb47)" style="fill: #ffffff; stroke: #000000; stroke-width: 2"/>
    <path d="M 501.328357 197.94311 
C 503.087515 197.94311 504.77486 197.244189 506.018773 196.000276 
C 507.262685 194.756363 507.961606 193.069019 507.961606 191.309861 
C 507.961606 189.550702 507.262685 187.863358 506.018773 186.619445 
C 504.77486 185.375532 503.087515 184.676611 501.328357 184.676611 
C 499.569199 184.676611 497.881854 185.375532 496.637941 186.619445 
C 495.394028 187.863358 494.695107 189.550702 494.695107 191.309861 
C 494.695107 193.069019 495.394028 194.756363 496.637941 196.000276 
C 497.881854 197.244189 499.569199 197.94311 501.328357 197.94311 
z
" clip-path="url(#p88c395bb47)" style="fill: #ffffff; stroke: #000000; stroke-width: 2"/>
    <path d="M 414.208257 111.260822 
C 416.083526 111.260822 417.882242 110.515769 419.208257 109.189754 
C 420.534273 107.863738 421.279325 106.065023 421.279325 104.189754 
C 421.279325 102.314485 420.534273 100.515769 419.208257 99.189754 
C 417.882242 97.863738 416.083526 97.118686 414.208257 97.118686 
C 412.332988 97.118686 410.534273 97.863738 409.208257 99.189754 
C 407.882242 100.515769 407.13719 102.314485 407.13719 104.189754 
C 407.13719 106.065023 407.882242 107.863738 409.208257 109.189754 
C 410.534273 110.515769 412.332988 111.260822 414.208257 111.260822 
z
" clip-path="url(#p88c395bb47)" style="fill: #ffffff; stroke: #000000; stroke-width: 2"/>
    <path d="M 295.19999 76.911368 
C 296.422515 76.911368 297.595134 76.425654 298.459591 75.561197 
C 299.324047 74.696741 299.809762 73.524122 299.809762 72.301596 
C 299.809762 71.07907 299.324047 69.906451 298.459591 69.041995 
C 297.595134 68.177539 296.422515 67.691824 295.19999 67.691824 
C 293.977464 67.691824 292.804845 68.177539 291.940388 69.041995 
C 291.075932 69.906451 290.590217 71.07907 290.590217 72.301596 
C 290.590217 73.524122 291.075932 74.696741 291.940388 75.561197 
C 292.804845 76.425654 293.977464 76.911368 295.19999 76.911368 
z
" clip-path="url(#p88c395bb47)" style="fill: #ffffff; stroke: #000000; stroke-width: 2"/>
    <path d="M 176.191721 113.80746 
C 178.742363 113.80746 181.188881 112.794079 182.992457 110.990503 
C 184.796033 109.186927 185.809413 106.74041 185.809413 104.189768 
C 185.809413 101.639126 184.796033 99.192609 182.992457 97.389033 
C 181.188881 95.585457 178.742363 94.572076 176.191721 94.572076 
C 173.64108 94.572076 171.194562 95.585457 169.390986 97.389033 
C 167.58741 99.192609 166.574029 101.639126 166.574029 104.189768 
C 166.574029 106.74041 167.58741 109.186927 169.390986 110.990503 
C 171.194562 112.794079 173.64108 113.80746 176.191721 113.80746 
z
" clip-path="url(#p88c395bb47)" style="fill: #ffffff; stroke: #000000; stroke-width: 2"/>
    <path d="M 89.071643 195.892422 
C 90.286956 195.892422 91.452657 195.409573 92.312013 194.550217 
C 93.17137 193.69086 93.654219 192.52516 93.654219 191.309846 
C 93.654219 190.094533 93.17137 188.928832 92.312013 188.069476 
C 91.452657 187.21012 90.286956 186.727271 89.071643 186.727271 
C 87.85633 186.727271 86.690629 187.21012 85.831273 188.069476 
C 84.971917 188.928832 84.489067 190.094533 84.489067 191.309846 
C 84.489067 192.52516 84.971917 193.69086 85.831273 194.550217 
C 86.690629 195.409573 87.85633 195.892422 89.071643 195.892422 
z
" clip-path="url(#p88c395bb47)" style="fill: #ffffff; stroke: #000000; stroke-width: 2"/>
    <path d="M 57.183471 315.008562 
C 58.427384 315.008562 59.620517 314.51435 60.500096 313.634771 
C 61.379675 312.755191 61.873887 311.562059 61.873887 310.318146 
C 61.873887 309.074233 61.379675 307.8811 60.500096 307.001521 
C 59.620517 306.121942 58.427384 305.62773 57.183471 305.62773 
C 55.939558 305.62773 54.746425 306.121942 53.866846 307.001521 
C 52.987267 307.8811 52.493055 309.074233 52.493055 310.318146 
C 52.493055 311.562059 52.987267 312.755191 53.866846 313.634771 
C 54.746425 314.51435 55.939558 315.008562 57.183471 315.008562 
z
" clip-path="url(#p88c395bb47)" style="fill: #ffffff; stroke: #000000; stroke-width: 2"/>
    <path d="M 89.071629 436.015926 
C 90.845717 436.015926 92.547381 435.311074 93.801851 434.056604 
C 95.05632 432.802135 95.761173 431.10047 95.761173 429.326382 
C 95.761173 427.552295 95.05632 425.85063 93.801851 424.59616 
C 92.547381 423.341691 90.845717 422.636838 89.071629 422.636838 
C 87.297541 422.636838 85.595876 423.341691 84.341407 424.59616 
C 83.086937 425.85063 82.382085 427.552295 82.382085 429.326382 
C 82.382085 431.10047 83.086937 432.802135 84.341407 434.056604 
C 85.595876 435.311074 87.297541 436.015926 89.071629 436.015926 
z
" clip-path="url(#p88c395bb47)" style="fill: #ffffff; stroke: #000000; stroke-width: 2"/>
    <path d="M 176.191757 524.304613 
C 178.275754 524.304613 180.274676 523.476632 181.748285 522.003024 
C 183.221893 520.529415 184.049874 518.530493 184.049874 516.446496 
C 184.049874 514.362499 183.221893 512.363577 181.748285 510.889968 
C 180.274676 509.41636 178.275754 508.588379 176.191757 508.588379 
C 174.10776 508.588379 172.108837 509.41636 170.635229 510.889968 
C 169.161621 512.363577 168.33364 514.362499 168.33364 516.446496 
C 168.33364 518.530493 169.161621 520.529415 170.635229 522.003024 
C 172.108837 523.476632 174.10776 524.304613 176.191757 524.304613 
z
" clip-path="url(#p88c395bb47)" style="fill: #ffffff; stroke: #000000; stroke-width: 2"/>
    <path d="M 295.200003 557.138062 
C 297.534694 557.138062 299.774077 556.21048 301.424953 554.559604 
C 303.075829 552.908728 304.003411 550.669345 304.003411 548.334654 
C 304.003411 545.999963 303.075829 543.76058 301.424953 542.109704 
C 299.774077 540.458828 297.534694 539.531245 295.200003 539.531245 
C 292.865312 539.531245 290.625929 540.458828 288.975053 542.109704 
C 287.324177 543.76058 286.396594 545.999963 286.396594 548.334654 
C 286.396594 550.669345 287.324177 552.908728 288.975053 554.559604 
C 290.625929 556.21048 292.865312 557.138062 295.200003 557.138062 
z
" clip-path="url(#p88c395bb47)" style="fill: #ffffff; stroke: #000000; stroke-width: 2"/>
    <path d="M 414.208243 520.086551 
C 415.173597 520.086551 416.099542 519.703012 416.782151 519.020404 
C 417.464759 518.337795 417.848298 517.41185 417.848298 516.446496 
C 417.848298 515.481142 417.464759 514.555197 416.782151 513.872589 
C 416.099542 513.18998 415.173597 512.806441 414.208243 512.806441 
C 413.242889 512.806441 412.316944 513.18998 411.634336 513.872589 
C 410.951727 514.555197 410.568188 515.481142 410.568188 516.446496 
C 410.568188 517.41185 410.951727 518.337795 411.634336 519.020404 
C 412.316944 519.703012 413.242889 520.086551 414.208243 520.086551 
z
" clip-path="url(#p88c395bb47)" style="fill: #ffffff; stroke: #000000; stroke-width: 2"/>
    <path d="M 501.328343 433.231557 
C 502.363994 433.231557 503.357367 432.820088 504.089683 432.087772 
C 504.821999 431.355456 505.233468 430.362083 505.233468 429.326432 
C 505.233468 428.290781 504.821999 427.297408 504.089683 426.565092 
C 503.357367 425.832776 502.363994 425.421307 501.328343 425.421307 
C 500.292691 425.421307 499.299318 425.832776 498.567002 426.565092 
C 497.834686 427.297408 497.423218 428.290781 497.423218 429.326432 
C 497.423218 430.362083 497.834686 431.355456 498.567002 432.087772 
C 499.299318 432.820088 500.292691 433.231557 501.328343 433.231557 
z
" clip-path="url(#p88c395bb47)" style="fill: #ffffff; stroke: #000000; stroke-width: 2"/>
   </g>
   <g id="text_1">
    <g clip-path="url(#p88c395bb47)">
     <!-- B.Clarke -->
     <g transform="translate(536.806325 285.067391)scale(0.12 -0.12)">
      <defs>
       <path id="DejaVuSans-42" d="M 1259 2228 
L 1259 519 
L 2272 519 
Q 2781 519 3026 730 
Q 3272 941 3272 1375 
Q 3272 1813 3026 2020 
Q 2781 2228 2272 2228 
L 1259 2228 
z
M 1259 4147 
L 1259 2741 
L 2194 2741 
Q 2656 2741 2882 2914 
Q 3109 3088 3109 3444 
Q 3109 3797 2882 3972 
Q 2656 4147 2194 4147 
L 1259 4147 
z
M 628 4666 
L 2241 4666 
Q 2963 4666 3353 4366 
Q 3744 4066 3744 3513 
Q 3744 3084 3544 2831 
Q 3344 2578 2956 2516 
Q 3422 2416 3680 2098 
Q 3938 1781 3938 1306 
Q 3938 681 3513 340 
Q 3088 0 2303 0 
L 628 0 
L 628 4666 
z
" transform="scale(0.015625)"/>
       <path id="DejaVuSans-2e" d="M 684 794 
L 1344 794 
L 1344 0 
L 684 0 
L 684 794 
z
" transform="scale(0.015625)"/>
       <path id="DejaVuSans-43" d="M 4122 4306 
L 4122 3641 
Q 3803 3938 3442 4084 
Q 3081 4231 2675 4231 
Q 1875 4231 1450 3742 
Q 1025 3253 1025 2328 
Q 1025 1406 1450 917 
Q 1875 428 2675 428 
Q 3081 428 3442 575 
Q 3803 722 4122 1019 
L 4122 359 
Q 3791 134 3420 21 
Q 3050 -91 2638 -91 
Q 1578 -91 968 557 
Q 359 1206 359 2328 
Q 359 3453 968 4101 
Q 1578 4750 2638 4750 
Q 3056 4750 3426 4639 
Q 3797 4528 4122 4306 
z
" transform="scale(0.015625)"/>
       <path id="DejaVuSans-6c" d="M 603 4863 
L 1178 4863 
L 1178 0 
L 603 0 
L 603 4863 
z
" transform="scale(0.015625)"/>
       <path id="DejaVuSans-61" d="M 2194 1759 
Q 1497 1759 1228 1600 
Q 959 1441 959 1056 
Q 959 750 1161 570 
Q 1363 391 1709 391 
Q 2188 391 2477 730 
Q 2766 1069 2766 1631 
L 2766 1759 
L 2194 1759 
z
M 3341 1997 
L 3341 0 
L 2766 0 
L 2766 531 
Q 2569 213 2275 61 
Q 1981 -91 1556 -91 
Q 1019 -91 701 211 
Q 384 513 384 1019 
Q 384 1609 779 1909 
Q 1175 2209 1959 2209 
L 2766 2209 
L 2766 2266 
Q 2766 2663 2505 2880 
Q 2244 3097 1772 3097 
Q 1472 3097 1187 3025 
Q 903 2953 641 2809 
L 641 3341 
Q 956 3463 1253 3523 
Q 1550 3584 1831 3584 
Q 2591 3584 2966 3190 
Q 3341 2797 3341 1997 
z
" transform="scale(0.015625)"/>
       <path id="DejaVuSans-72" d="M 2631 2963 
Q 2534 3019 2420 3045 
Q 2306 3072 2169 3072 
Q 1681 3072 1420 2755 
Q 1159 2438 1159 1844 
L 1159 0 
L 581 0 
L 581 3500 
L 1159 3500 
L 1159 2956 
Q 1341 3275 1631 3429 
Q 1922 3584 2338 3584 
Q 2397 3584 2469 3576 
Q 2541 3569 2628 3553 
L 2631 2963 
z
" transform="scale(0.015625)"/>
       <path id="DejaVuSans-6b" d="M 581 4863 
L 1159 4863 
L 1159 1991 
L 2875 3500 
L 3609 3500 
L 1753 1863 
L 3688 0 
L 2938 0 
L 1159 1709 
L 1159 0 
L 581 0 
L 581 4863 
z
" transform="scale(0.015625)"/>
       <path id="DejaVuSans-65" d="M 3597 1894 
L 3597 1613 
L 953 1613 
Q 991 1019 1311 708 
Q 1631 397 2203 397 
Q 2534 397 2845 478 
Q 3156 559 3463 722 
L 3463 178 
Q 3153 47 2828 -22 
Q 2503 -91 2169 -91 
Q 1331 -91 842 396 
Q 353 884 353 1716 
Q 353 2575 817 3079 
Q 1281 3584 2069 3584 
Q 2775 3584 3186 3129 
Q 3597 2675 3597 1894 
z
M 3022 2063 
Q 3016 2534 2758 2815 
Q 2500 3097 2075 3097 
Q 1594 3097 1305 2825 
Q 1016 2553 972 2059 
L 3022 2063 
z
" transform="scale(0.015625)"/>
      </defs>
      <use xlink:href="#DejaVuSans-42"/>
      <use xlink:href="#DejaVuSans-2e" x="68.603516"/>
      <use xlink:href="#DejaVuSans-43" x="100.390625"/>
      <use xlink:href="#DejaVuSans-6c" x="170.214844"/>
      <use xlink:href="#DejaVuSans-61" x="197.998047"/>
      <use xlink:href="#DejaVuSans-72" x="259.277344"/>
      <use xlink:href="#DejaVuSans-6b" x="300.390625"/>
      <use xlink:href="#DejaVuSans-65" x="354.675781"/>
     </g>
    </g>
   </g>
   <g id="text_2">
    <g clip-path="url(#p88c395bb47)">
     <!-- D.Melton -->
     <g transform="translate(503.001903 166.059126)scale(0.12 -0.12)">
      <defs>
       <path id="DejaVuSans-44" d="M 1259 4147 
L 1259 519 
L 2022 519 
Q 2988 519 3436 956 
Q 3884 1394 3884 2338 
Q 3884 3275 3436 3711 
Q 2988 4147 2022 4147 
L 1259 4147 
z
M 628 4666 
L 1925 4666 
Q 3281 4666 3915 4102 
Q 4550 3538 4550 2338 
Q 4550 1131 3912 565 
Q 3275 0 1925 0 
L 628 0 
L 628 4666 
z
" transform="scale(0.015625)"/>
       <path id="DejaVuSans-4d" d="M 628 4666 
L 1569 4666 
L 2759 1491 
L 3956 4666 
L 4897 4666 
L 4897 0 
L 4281 0 
L 4281 4097 
L 3078 897 
L 2444 897 
L 1241 4097 
L 1241 0 
L 628 0 
L 628 4666 
z
" transform="scale(0.015625)"/>
       <path id="DejaVuSans-74" d="M 1172 4494 
L 1172 3500 
L 2356 3500 
L 2356 3053 
L 1172 3053 
L 1172 1153 
Q 1172 725 1289 603 
Q 1406 481 1766 481 
L 2356 481 
L 2356 0 
L 1766 0 
Q 1100 0 847 248 
Q 594 497 594 1153 
L 594 3053 
L 172 3053 
L 172 3500 
L 594 3500 
L 594 4494 
L 1172 4494 
z
" transform="scale(0.015625)"/>
       <path id="DejaVuSans-6f" d="M 1959 3097 
Q 1497 3097 1228 2736 
Q 959 2375 959 1747 
Q 959 1119 1226 758 
Q 1494 397 1959 397 
Q 2419 397 2687 759 
Q 2956 1122 2956 1747 
Q 2956 2369 2687 2733 
Q 2419 3097 1959 3097 
z
M 1959 3584 
Q 2709 3584 3137 3096 
Q 3566 2609 3566 1747 
Q 3566 888 3137 398 
Q 2709 -91 1959 -91 
Q 1206 -91 779 398 
Q 353 888 353 1747 
Q 353 2609 779 3096 
Q 1206 3584 1959 3584 
z
" transform="scale(0.015625)"/>
       <path id="DejaVuSans-6e" d="M 3513 2113 
L 3513 0 
L 2938 0 
L 2938 2094 
Q 2938 2591 2744 2837 
Q 2550 3084 2163 3084 
Q 1697 3084 1428 2787 
Q 1159 2491 1159 1978 
L 1159 0 
L 581 0 
L 581 3500 
L 1159 3500 
L 1159 2956 
Q 1366 3272 1645 3428 
Q 1925 3584 2291 3584 
Q 2894 3584 3203 3211 
Q 3513 2838 3513 2113 
z
" transform="scale(0.015625)"/>
      </defs>
      <use xlink:href="#DejaVuSans-44"/>
      <use xlink:href="#DejaVuSans-2e" x="77.001953"/>
      <use xlink:href="#DejaVuSans-4d" x="108.789062"/>
      <use xlink:href="#DejaVuSans-65" x="195.068359"/>
      <use xlink:href="#DejaVuSans-6c" x="256.591797"/>
      <use xlink:href="#DejaVuSans-74" x="284.375"/>
      <use xlink:href="#DejaVuSans-6f" x="323.583984"/>
      <use xlink:href="#DejaVuSans-6e" x="384.765625"/>
     </g>
    </g>
   </g>
   <g id="text_3">
    <g clip-path="url(#p88c395bb47)">
     <!-- D.Bane -->
     <g transform="translate(420.955554 78.93902)scale(0.12 -0.12)">
      <use xlink:href="#DejaVuSans-44"/>
      <use xlink:href="#DejaVuSans-2e" x="77.001953"/>
      <use xlink:href="#DejaVuSans-42" x="108.789062"/>
      <use xlink:href="#DejaVuSans-61" x="177.392578"/>
      <use xlink:href="#DejaVuSans-6e" x="238.671875"/>
      <use xlink:href="#DejaVuSans-65" x="302.050781"/>
     </g>
    </g>
   </g>
   <g id="text_4">
    <g clip-path="url(#p88c395bb47)">
     <!-- D.Brooks -->
     <g transform="translate(239.720506 47.050862)scale(0.12 -0.12)">
      <defs>
       <path id="DejaVuSans-73" d="M 2834 3397 
L 2834 2853 
Q 2591 2978 2328 3040 
Q 2066 3103 1784 3103 
Q 1356 3103 1142 2972 
Q 928 2841 928 2578 
Q 928 2378 1081 2264 
Q 1234 2150 1697 2047 
L 1894 2003 
Q 2506 1872 2764 1633 
Q 3022 1394 3022 966 
Q 3022 478 2636 193 
Q 2250 -91 1575 -91 
Q 1294 -91 989 -36 
Q 684 19 347 128 
L 347 722 
Q 666 556 975 473 
Q 1284 391 1588 391 
Q 1994 391 2212 530 
Q 2431 669 2431 922 
Q 2431 1156 2273 1281 
Q 2116 1406 1581 1522 
L 1381 1569 
Q 847 1681 609 1914 
Q 372 2147 372 2553 
Q 372 3047 722 3315 
Q 1072 3584 1716 3584 
Q 2034 3584 2315 3537 
Q 2597 3491 2834 3397 
z
" transform="scale(0.015625)"/>
      </defs>
      <use xlink:href="#DejaVuSans-44"/>
      <use xlink:href="#DejaVuSans-2e" x="77.001953"/>
      <use xlink:href="#DejaVuSans-42" x="108.789062"/>
      <use xlink:href="#DejaVuSans-72" x="177.392578"/>
      <use xlink:href="#DejaVuSans-6f" x="216.255859"/>
      <use xlink:href="#DejaVuSans-6f" x="277.4375"/>
      <use xlink:href="#DejaVuSans-6b" x="338.619141"/>
      <use xlink:href="#DejaVuSans-73" x="396.529297"/>
     </g>
    </g>
   </g>
   <g id="text_5">
    <g clip-path="url(#p88c395bb47)">
     <!-- J.Morant -->
     <g transform="translate(122.806612 78.939034)scale(0.12 -0.12)">
      <defs>
       <path id="DejaVuSans-4a" d="M 628 4666 
L 1259 4666 
L 1259 325 
Q 1259 -519 939 -900 
Q 619 -1281 -91 -1281 
L -331 -1281 
L -331 -750 
L -134 -750 
Q 284 -750 456 -515 
Q 628 -281 628 325 
L 628 4666 
z
" transform="scale(0.015625)"/>
      </defs>
      <use xlink:href="#DejaVuSans-4a"/>
      <use xlink:href="#DejaVuSans-2e" x="29.492188"/>
      <use xlink:href="#DejaVuSans-4d" x="61.279297"/>
      <use xlink:href="#DejaVuSans-6f" x="147.558594"/>
      <use xlink:href="#DejaVuSans-72" x="208.740234"/>
      <use xlink:href="#DejaVuSans-61" x="249.853516"/>
      <use xlink:href="#DejaVuSans-6e" x="311.132812"/>
      <use xlink:href="#DejaVuSans-74" x="374.511719"/>
     </g>
    </g>
   </g>
   <g id="text_6">
    <g clip-path="url(#p88c395bb47)">
     <!-- J.Jackson Jr. -->
     <g transform="translate(26.510284 166.059112)scale(0.12 -0.12)">
      <defs>
       <path id="DejaVuSans-63" d="M 3122 3366 
L 3122 2828 
Q 2878 2963 2633 3030 
Q 2388 3097 2138 3097 
Q 1578 3097 1268 2742 
Q 959 2388 959 1747 
Q 959 1106 1268 751 
Q 1578 397 2138 397 
Q 2388 397 2633 464 
Q 2878 531 3122 666 
L 3122 134 
Q 2881 22 2623 -34 
Q 2366 -91 2075 -91 
Q 1284 -91 818 406 
Q 353 903 353 1747 
Q 353 2603 823 3093 
Q 1294 3584 2113 3584 
Q 2378 3584 2631 3529 
Q 2884 3475 3122 3366 
z
" transform="scale(0.015625)"/>
       <path id="DejaVuSans-20" transform="scale(0.015625)"/>
      </defs>
      <use xlink:href="#DejaVuSans-4a"/>
      <use xlink:href="#DejaVuSans-2e" x="29.492188"/>
      <use xlink:href="#DejaVuSans-4a" x="61.279297"/>
      <use xlink:href="#DejaVuSans-61" x="90.771484"/>
      <use xlink:href="#DejaVuSans-63" x="152.050781"/>
      <use xlink:href="#DejaVuSans-6b" x="207.03125"/>
      <use xlink:href="#DejaVuSans-73" x="264.941406"/>
      <use xlink:href="#DejaVuSans-6f" x="317.041016"/>
      <use xlink:href="#DejaVuSans-6e" x="378.222656"/>
      <use xlink:href="#DejaVuSans-20" x="441.601562"/>
      <use xlink:href="#DejaVuSans-4a" x="473.388672"/>
      <use xlink:href="#DejaVuSans-72" x="502.880859"/>
      <use xlink:href="#DejaVuSans-2e" x="534.869141"/>
     </g>
    </g>
   </g>
   <g id="text_7">
    <g clip-path="url(#p88c395bb47)">
     <!-- J.Konchar -->
     <g transform="translate(0.591175 342.19138)scale(0.12 -0.12)">
      <defs>
       <path id="DejaVuSans-4b" d="M 628 4666 
L 1259 4666 
L 1259 2694 
L 3353 4666 
L 4166 4666 
L 1850 2491 
L 4331 0 
L 3500 0 
L 1259 2247 
L 1259 0 
L 628 0 
L 628 4666 
z
" transform="scale(0.015625)"/>
       <path id="DejaVuSans-68" d="M 3513 2113 
L 3513 0 
L 2938 0 
L 2938 2094 
Q 2938 2591 2744 2837 
Q 2550 3084 2163 3084 
Q 1697 3084 1428 2787 
Q 1159 2491 1159 1978 
L 1159 0 
L 581 0 
L 581 4863 
L 1159 4863 
L 1159 2956 
Q 1366 3272 1645 3428 
Q 1925 3584 2291 3584 
Q 2894 3584 3203 3211 
Q 3513 2838 3513 2113 
z
" transform="scale(0.015625)"/>
      </defs>
      <use xlink:href="#DejaVuSans-4a"/>
      <use xlink:href="#DejaVuSans-2e" x="29.492188"/>
      <use xlink:href="#DejaVuSans-4b" x="61.279297"/>
      <use xlink:href="#DejaVuSans-6f" x="121.855469"/>
      <use xlink:href="#DejaVuSans-6e" x="183.037109"/>
      <use xlink:href="#DejaVuSans-63" x="246.416016"/>
      <use xlink:href="#DejaVuSans-68" x="301.396484"/>
      <use xlink:href="#DejaVuSans-61" x="364.775391"/>
      <use xlink:href="#DejaVuSans-72" x="426.054688"/>
     </g>
    </g>
   </g>
   <g id="text_8">
    <g clip-path="url(#p88c395bb47)">
     <!-- K.Anderson -->
     <g transform="translate(26.194332 461.199616)scale(0.12 -0.12)">
      <defs>
       <path id="DejaVuSans-41" d="M 2188 4044 
L 1331 1722 
L 3047 1722 
L 2188 4044 
z
M 1831 4666 
L 2547 4666 
L 4325 0 
L 3669 0 
L 3244 1197 
L 1141 1197 
L 716 0 
L 50 0 
L 1831 4666 
z
" transform="scale(0.015625)"/>
       <path id="DejaVuSans-64" d="M 2906 2969 
L 2906 4863 
L 3481 4863 
L 3481 0 
L 2906 0 
L 2906 525 
Q 2725 213 2448 61 
Q 2172 -91 1784 -91 
Q 1150 -91 751 415 
Q 353 922 353 1747 
Q 353 2572 751 3078 
Q 1150 3584 1784 3584 
Q 2172 3584 2448 3432 
Q 2725 3281 2906 2969 
z
M 947 1747 
Q 947 1113 1208 752 
Q 1469 391 1925 391 
Q 2381 391 2643 752 
Q 2906 1113 2906 1747 
Q 2906 2381 2643 2742 
Q 2381 3103 1925 3103 
Q 1469 3103 1208 2742 
Q 947 2381 947 1747 
z
" transform="scale(0.015625)"/>
      </defs>
      <use xlink:href="#DejaVuSans-4b"/>
      <use xlink:href="#DejaVuSans-2e" x="65.576172"/>
      <use xlink:href="#DejaVuSans-41" x="97.363281"/>
      <use xlink:href="#DejaVuSans-6e" x="165.771484"/>
      <use xlink:href="#DejaVuSans-64" x="229.150391"/>
      <use xlink:href="#DejaVuSans-65" x="292.626953"/>
      <use xlink:href="#DejaVuSans-72" x="354.150391"/>
      <use xlink:href="#DejaVuSans-73" x="395.263672"/>
      <use xlink:href="#DejaVuSans-6f" x="447.363281"/>
      <use xlink:href="#DejaVuSans-6e" x="508.544922"/>
     </g>
    </g>
   </g>
   <g id="text_9">
    <g clip-path="url(#p88c395bb47)">
     <!-- S.Adams -->
     <g transform="translate(121.458523 548.31973)scale(0.12 -0.12)">
      <defs>
       <path id="DejaVuSans-53" d="M 3425 4513 
L 3425 3897 
Q 3066 4069 2747 4153 
Q 2428 4238 2131 4238 
Q 1616 4238 1336 4038 
Q 1056 3838 1056 3469 
Q 1056 3159 1242 3001 
Q 1428 2844 1947 2747 
L 2328 2669 
Q 3034 2534 3370 2195 
Q 3706 1856 3706 1288 
Q 3706 609 3251 259 
Q 2797 -91 1919 -91 
Q 1588 -91 1214 -16 
Q 841 59 441 206 
L 441 856 
Q 825 641 1194 531 
Q 1563 422 1919 422 
Q 2459 422 2753 634 
Q 3047 847 3047 1241 
Q 3047 1584 2836 1778 
Q 2625 1972 2144 2069 
L 1759 2144 
Q 1053 2284 737 2584 
Q 422 2884 422 3419 
Q 422 4038 858 4394 
Q 1294 4750 2059 4750 
Q 2388 4750 2728 4690 
Q 3069 4631 3425 4513 
z
" transform="scale(0.015625)"/>
       <path id="DejaVuSans-6d" d="M 3328 2828 
Q 3544 3216 3844 3400 
Q 4144 3584 4550 3584 
Q 5097 3584 5394 3201 
Q 5691 2819 5691 2113 
L 5691 0 
L 5113 0 
L 5113 2094 
Q 5113 2597 4934 2840 
Q 4756 3084 4391 3084 
Q 3944 3084 3684 2787 
Q 3425 2491 3425 1978 
L 3425 0 
L 2847 0 
L 2847 2094 
Q 2847 2600 2669 2842 
Q 2491 3084 2119 3084 
Q 1678 3084 1418 2786 
Q 1159 2488 1159 1978 
L 1159 0 
L 581 0 
L 581 3500 
L 1159 3500 
L 1159 2956 
Q 1356 3278 1631 3431 
Q 1906 3584 2284 3584 
Q 2666 3584 2933 3390 
Q 3200 3197 3328 2828 
z
" transform="scale(0.015625)"/>
      </defs>
      <use xlink:href="#DejaVuSans-53"/>
      <use xlink:href="#DejaVuSans-2e" x="63.476562"/>
      <use xlink:href="#DejaVuSans-41" x="95.263672"/>
      <use xlink:href="#DejaVuSans-64" x="161.921875"/>
      <use xlink:href="#DejaVuSans-61" x="225.398438"/>
      <use xlink:href="#DejaVuSans-6d" x="286.677734"/>
      <use xlink:href="#DejaVuSans-73" x="384.089844"/>
     </g>
    </g>
   </g>
   <g id="text_10">
    <g clip-path="url(#p88c395bb47)">
     <!-- T.Jones -->
     <g transform="translate(302.841674 580.207888)scale(0.12 -0.12)">
      <defs>
       <path id="DejaVuSans-54" d="M -19 4666 
L 3928 4666 
L 3928 4134 
L 2272 4134 
L 2272 0 
L 1638 0 
L 1638 4134 
L -19 4134 
L -19 4666 
z
" transform="scale(0.015625)"/>
      </defs>
      <use xlink:href="#DejaVuSans-54"/>
      <use xlink:href="#DejaVuSans-2e" x="49.208984"/>
      <use xlink:href="#DejaVuSans-4a" x="80.996094"/>
      <use xlink:href="#DejaVuSans-6f" x="110.488281"/>
      <use xlink:href="#DejaVuSans-6e" x="171.669922"/>
      <use xlink:href="#DejaVuSans-65" x="235.048828"/>
      <use xlink:href="#DejaVuSans-73" x="296.572266"/>
     </g>
    </g>
   </g>
   <g id="text_11">
    <g clip-path="url(#p88c395bb47)">
     <!-- X.Tillman -->
     <g transform="translate(414.95179 548.31973)scale(0.12 -0.12)">
      <defs>
       <path id="DejaVuSans-58" d="M 403 4666 
L 1081 4666 
L 2241 2931 
L 3406 4666 
L 4084 4666 
L 2584 2425 
L 4184 0 
L 3506 0 
L 2194 1984 
L 872 0 
L 191 0 
L 1856 2491 
L 403 4666 
z
" transform="scale(0.015625)"/>
       <path id="DejaVuSans-69" d="M 603 3500 
L 1178 3500 
L 1178 0 
L 603 0 
L 603 3500 
z
M 603 4863 
L 1178 4863 
L 1178 4134 
L 603 4134 
L 603 4863 
z
" transform="scale(0.015625)"/>
      </defs>
      <use xlink:href="#DejaVuSans-58"/>
      <use xlink:href="#DejaVuSans-2e" x="68.505859"/>
      <use xlink:href="#DejaVuSans-54" x="100.292969"/>
      <use xlink:href="#DejaVuSans-69" x="158.251953"/>
      <use xlink:href="#DejaVuSans-6c" x="186.035156"/>
      <use xlink:href="#DejaVuSans-6c" x="213.818359"/>
      <use xlink:href="#DejaVuSans-6d" x="241.601562"/>
      <use xlink:href="#DejaVuSans-61" x="339.013672"/>
      <use xlink:href="#DejaVuSans-6e" x="400.292969"/>
     </g>
    </g>
   </g>
   <g id="text_12">
    <g clip-path="url(#p88c395bb47)">
     <!-- Z.Williams -->
     <g transform="translate(498.761577 461.199666)scale(0.12 -0.12)">
      <defs>
       <path id="DejaVuSans-5a" d="M 359 4666 
L 4025 4666 
L 4025 4184 
L 1075 531 
L 4097 531 
L 4097 0 
L 288 0 
L 288 481 
L 3238 4134 
L 359 4134 
L 359 4666 
z
" transform="scale(0.015625)"/>
       <path id="DejaVuSans-57" d="M 213 4666 
L 850 4666 
L 1831 722 
L 2809 4666 
L 3519 4666 
L 4500 722 
L 5478 4666 
L 6119 4666 
L 4947 0 
L 4153 0 
L 3169 4050 
L 2175 0 
L 1381 0 
L 213 4666 
z
" transform="scale(0.015625)"/>
      </defs>
      <use xlink:href="#DejaVuSans-5a"/>
      <use xlink:href="#DejaVuSans-2e" x="68.505859"/>
      <use xlink:href="#DejaVuSans-57" x="100.292969"/>
      <use xlink:href="#DejaVuSans-69" x="196.919922"/>
      <use xlink:href="#DejaVuSans-6c" x="224.703125"/>
      <use xlink:href="#DejaVuSans-6c" x="252.486328"/>
      <use xlink:href="#DejaVuSans-69" x="280.269531"/>
      <use xlink:href="#DejaVuSans-61" x="308.052734"/>
      <use xlink:href="#DejaVuSans-6d" x="369.332031"/>
      <use xlink:href="#DejaVuSans-73" x="466.744141"/>
     </g>
    </g>
   </g>
   <g id="text_13">
    <!-- 2021-22 Memphis Grizzlies Assist Network -->
    <g transform="translate(167.601562 16.318125)scale(0.12 -0.12)">
     <defs>
      <path id="DejaVuSans-32" d="M 1228 531 
L 3431 531 
L 3431 0 
L 469 0 
L 469 531 
Q 828 903 1448 1529 
Q 2069 2156 2228 2338 
Q 2531 2678 2651 2914 
Q 2772 3150 2772 3378 
Q 2772 3750 2511 3984 
Q 2250 4219 1831 4219 
Q 1534 4219 1204 4116 
Q 875 4013 500 3803 
L 500 4441 
Q 881 4594 1212 4672 
Q 1544 4750 1819 4750 
Q 2544 4750 2975 4387 
Q 3406 4025 3406 3419 
Q 3406 3131 3298 2873 
Q 3191 2616 2906 2266 
Q 2828 2175 2409 1742 
Q 1991 1309 1228 531 
z
" transform="scale(0.015625)"/>
      <path id="DejaVuSans-30" d="M 2034 4250 
Q 1547 4250 1301 3770 
Q 1056 3291 1056 2328 
Q 1056 1369 1301 889 
Q 1547 409 2034 409 
Q 2525 409 2770 889 
Q 3016 1369 3016 2328 
Q 3016 3291 2770 3770 
Q 2525 4250 2034 4250 
z
M 2034 4750 
Q 2819 4750 3233 4129 
Q 3647 3509 3647 2328 
Q 3647 1150 3233 529 
Q 2819 -91 2034 -91 
Q 1250 -91 836 529 
Q 422 1150 422 2328 
Q 422 3509 836 4129 
Q 1250 4750 2034 4750 
z
" transform="scale(0.015625)"/>
      <path id="DejaVuSans-31" d="M 794 531 
L 1825 531 
L 1825 4091 
L 703 3866 
L 703 4441 
L 1819 4666 
L 2450 4666 
L 2450 531 
L 3481 531 
L 3481 0 
L 794 0 
L 794 531 
z
" transform="scale(0.015625)"/>
      <path id="DejaVuSans-2d" d="M 313 2009 
L 1997 2009 
L 1997 1497 
L 313 1497 
L 313 2009 
z
" transform="scale(0.015625)"/>
      <path id="DejaVuSans-70" d="M 1159 525 
L 1159 -1331 
L 581 -1331 
L 581 3500 
L 1159 3500 
L 1159 2969 
Q 1341 3281 1617 3432 
Q 1894 3584 2278 3584 
Q 2916 3584 3314 3078 
Q 3713 2572 3713 1747 
Q 3713 922 3314 415 
Q 2916 -91 2278 -91 
Q 1894 -91 1617 61 
Q 1341 213 1159 525 
z
M 3116 1747 
Q 3116 2381 2855 2742 
Q 2594 3103 2138 3103 
Q 1681 3103 1420 2742 
Q 1159 2381 1159 1747 
Q 1159 1113 1420 752 
Q 1681 391 2138 391 
Q 2594 391 2855 752 
Q 3116 1113 3116 1747 
z
" transform="scale(0.015625)"/>
      <path id="DejaVuSans-47" d="M 3809 666 
L 3809 1919 
L 2778 1919 
L 2778 2438 
L 4434 2438 
L 4434 434 
Q 4069 175 3628 42 
Q 3188 -91 2688 -91 
Q 1594 -91 976 548 
Q 359 1188 359 2328 
Q 359 3472 976 4111 
Q 1594 4750 2688 4750 
Q 3144 4750 3555 4637 
Q 3966 4525 4313 4306 
L 4313 3634 
Q 3963 3931 3569 4081 
Q 3175 4231 2741 4231 
Q 1884 4231 1454 3753 
Q 1025 3275 1025 2328 
Q 1025 1384 1454 906 
Q 1884 428 2741 428 
Q 3075 428 3337 486 
Q 3600 544 3809 666 
z
" transform="scale(0.015625)"/>
      <path id="DejaVuSans-7a" d="M 353 3500 
L 3084 3500 
L 3084 2975 
L 922 459 
L 3084 459 
L 3084 0 
L 275 0 
L 275 525 
L 2438 3041 
L 353 3041 
L 353 3500 
z
" transform="scale(0.015625)"/>
      <path id="DejaVuSans-4e" d="M 628 4666 
L 1478 4666 
L 3547 763 
L 3547 4666 
L 4159 4666 
L 4159 0 
L 3309 0 
L 1241 3903 
L 1241 0 
L 628 0 
L 628 4666 
z
" transform="scale(0.015625)"/>
      <path id="DejaVuSans-77" d="M 269 3500 
L 844 3500 
L 1563 769 
L 2278 3500 
L 2956 3500 
L 3675 769 
L 4391 3500 
L 4966 3500 
L 4050 0 
L 3372 0 
L 2619 2869 
L 1863 0 
L 1184 0 
L 269 3500 
z
" transform="scale(0.015625)"/>
     </defs>
     <use xlink:href="#DejaVuSans-32"/>
     <use xlink:href="#DejaVuSans-30" x="63.623047"/>
     <use xlink:href="#DejaVuSans-32" x="127.246094"/>
     <use xlink:href="#DejaVuSans-31" x="190.869141"/>
     <use xlink:href="#DejaVuSans-2d" x="254.492188"/>
     <use xlink:href="#DejaVuSans-32" x="290.576172"/>
     <use xlink:href="#DejaVuSans-32" x="354.199219"/>
     <use xlink:href="#DejaVuSans-20" x="417.822266"/>
     <use xlink:href="#DejaVuSans-4d" x="449.609375"/>
     <use xlink:href="#DejaVuSans-65" x="535.888672"/>
     <use xlink:href="#DejaVuSans-6d" x="597.412109"/>
     <use xlink:href="#DejaVuSans-70" x="694.824219"/>
     <use xlink:href="#DejaVuSans-68" x="758.300781"/>
     <use xlink:href="#DejaVuSans-69" x="821.679688"/>
     <use xlink:href="#DejaVuSans-73" x="849.462891"/>
     <use xlink:href="#DejaVuSans-20" x="901.5625"/>
     <use xlink:href="#DejaVuSans-47" x="933.349609"/>
     <use xlink:href="#DejaVuSans-72" x="1010.839844"/>
     <use xlink:href="#DejaVuSans-69" x="1051.953125"/>
     <use xlink:href="#DejaVuSans-7a" x="1079.736328"/>
     <use xlink:href="#DejaVuSans-7a" x="1132.226562"/>
     <use xlink:href="#DejaVuSans-6c" x="1184.716797"/>
     <use xlink:href="#DejaVuSans-69" x="1212.5"/>
     <use xlink:href="#DejaVuSans-65" x="1240.283203"/>
     <use xlink:href="#DejaVuSans-73" x="1301.806641"/>
     <use xlink:href="#DejaVuSans-20" x="1353.90625"/>
     <use xlink:href="#DejaVuSans-41" x="1385.693359"/>
     <use xlink:href="#DejaVuSans-73" x="1454.101562"/>
     <use xlink:href="#DejaVuSans-73" x="1506.201172"/>
     <use xlink:href="#DejaVuSans-69" x="1558.300781"/>
     <use xlink:href="#DejaVuSans-73" x="1586.083984"/>
     <use xlink:href="#DejaVuSans-74" x="1638.183594"/>
     <use xlink:href="#DejaVuSans-20" x="1677.392578"/>
     <use xlink:href="#DejaVuSans-4e" x="1709.179688"/>
     <use xlink:href="#DejaVuSans-65" x="1783.984375"/>
     <use xlink:href="#DejaVuSans-74" x="1845.507812"/>
     <use xlink:href="#DejaVuSans-77" x="1884.716797"/>
     <use xlink:href="#DejaVuSans-6f" x="1966.503906"/>
     <use xlink:href="#DejaVuSans-72" x="2027.685547"/>
     <use xlink:href="#DejaVuSans-6b" x="2068.798828"/>
    </g>
   </g>
  </g>
 </g>
 <defs>
  <clipPath id="p88c395bb47">
   <rect x="7.2" y="22.318125" width="576" height="576"/>
  </clipPath>
 </defs>
</svg>
