<?xml version="1.0" encoding="utf-8" standalone="no"?>
<!DOCTYPE svg PUBLIC "-//W3C//DTD SVG 1.1//EN"
  "http://www.w3.org/Graphics/SVG/1.1/DTD/svg11.dtd">
<svg xmlns:xlink="http://www.w3.org/1999/xlink" width="590.4pt" height="605.518125pt" viewBox="0 0 590.4 605.518125" xmlns="http://www.w3.org/2000/svg" version="1.1">
 <metadata>
  <rdf:RDF xmlns:dc="http://purl.org/dc/elements/1.1/" xmlns:cc="http://creativecommons.org/ns#" xmlns:rdf="http://www.w3.org/1999/02/22-rdf-syntax-ns#">
   <cc:Work>
    <dc:type rdf:resource="http://purl.org/dc/dcmitype/StillImage"/>
    <dc:date>2023-04-12T08:31:03.153088</dc:date>
    <dc:format>image/svg+xml</dc:format>
    <dc:creator>
     <cc:Agent>
      <dc:title>Matplotlib v3.5.2, https://matplotlib.org/</dc:title>
     </cc:Agent>
    </dc:creator>
   </cc:Work>
  </rdf:RDF>
 </metadata>
 <defs>
  <style type="text/css">*{stroke-linejoin: round; stroke-linecap: butt}</style>
 </defs>
 <g id="figure_1">
  <g id="patch_1">
   <path d="M 0 605.518125 
L 590.4 605.518125 
L 590.4 0 
L 0 0 
z
" style="fill: #ffffff"/>
  </g>
  <g id="axes_1">
   <g id="LineCollection_1">
    <path d="M 533.216529 310.318125 
L 494.651158 180.313424 
" clip-path="url(#p9932c63e03)" style="fill: none; stroke: #fcfcfc; stroke-width: 2"/>
    <path d="M 533.216529 310.318125 
L 391.199308 91.584285 
" clip-path="url(#p9932c63e03)" style="fill: none; stroke: #dfdfdf; stroke-width: 2"/>
    <path d="M 533.216529 310.318125 
L 255.706158 72.301596 
" clip-path="url(#p9932c63e03)" style="fill: none; stroke: #ebebeb; stroke-width: 2"/>
    <path d="M 533.216529 310.318125 
L 131.189885 128.587461 
" clip-path="url(#p9932c63e03)" style="fill: none; stroke: #c8c8c8; stroke-width: 2"/>
    <path d="M 533.216529 310.318125 
L 57.183471 242.571549 
" clip-path="url(#p9932c63e03)" style="fill: none; stroke: #f2f2f2; stroke-width: 2"/>
    <path d="M 533.216529 310.318125 
L 57.183471 378.064694 
" clip-path="url(#p9932c63e03)" style="fill: none; stroke: #ffffff; stroke-width: 2"/>
    <path d="M 533.216529 310.318125 
L 131.18987 492.048775 
" clip-path="url(#p9932c63e03)" style="fill: none; stroke: #f1f1f1; stroke-width: 2"/>
    <path d="M 533.216529 310.318125 
L 255.706114 548.334654 
" clip-path="url(#p9932c63e03)" style="fill: none; stroke: #dfdfdf; stroke-width: 2"/>
    <path d="M 533.216529 310.318125 
L 391.199315 529.051965 
" clip-path="url(#p9932c63e03)" style="fill: none; stroke: #fefefe; stroke-width: 2"/>
    <path d="M 533.216529 310.318125 
L 494.651144 440.322855 
" clip-path="url(#p9932c63e03)" style="fill: none; stroke: #e5e5e5; stroke-width: 2"/>
    <path d="M 494.651158 180.313424 
L 391.199308 91.584285 
" clip-path="url(#p9932c63e03)" style="fill: none; stroke: #f3f3f3; stroke-width: 2"/>
    <path d="M 494.651158 180.313424 
L 255.706158 72.301596 
" clip-path="url(#p9932c63e03)" style="fill: none; stroke: #fcfcfc; stroke-width: 2"/>
    <path d="M 494.651158 180.313424 
L 131.189885 128.587461 
" clip-path="url(#p9932c63e03)" style="fill: none; stroke: #dcdcdc; stroke-width: 2"/>
    <path d="M 494.651158 180.313424 
L 57.183471 242.571549 
" clip-path="url(#p9932c63e03)" style="fill: none; stroke: #dcdcdc; stroke-width: 2"/>
    <path d="M 494.651158 180.313424 
L 131.18987 492.048775 
" clip-path="url(#p9932c63e03)" style="fill: none; stroke: #f0f0f0; stroke-width: 2"/>
    <path d="M 494.651158 180.313424 
L 255.706114 548.334654 
" clip-path="url(#p9932c63e03)" style="fill: none; stroke: #fefefe; stroke-width: 2"/>
    <path d="M 494.651158 180.313424 
L 494.651144 440.322855 
" clip-path="url(#p9932c63e03)" style="fill: none; stroke: #fdfdfd; stroke-width: 2"/>
    <path d="M 391.199308 91.584285 
L 255.706158 72.301596 
" clip-path="url(#p9932c63e03)" style="fill: none; stroke: #e3e3e3; stroke-width: 2"/>
    <path d="M 391.199308 91.584285 
L 131.189885 128.587461 
" clip-path="url(#p9932c63e03)" style="fill: none; stroke: #bcbcbc; stroke-width: 2"/>
    <path d="M 391.199308 91.584285 
L 57.183471 242.571549 
" clip-path="url(#p9932c63e03)" style="fill: none; stroke: #d4d4d4; stroke-width: 2"/>
    <path d="M 391.199308 91.584285 
L 57.183471 378.064694 
" clip-path="url(#p9932c63e03)" style="fill: none; stroke: #fcfcfc; stroke-width: 2"/>
    <path d="M 391.199308 91.584285 
L 131.18987 492.048775 
" clip-path="url(#p9932c63e03)" style="fill: none; stroke: #dbdbdb; stroke-width: 2"/>
    <path d="M 391.199308 91.584285 
L 255.706114 548.334654 
" clip-path="url(#p9932c63e03)" style="fill: none; stroke: #e9e9e9; stroke-width: 2"/>
    <path d="M 391.199308 91.584285 
L 391.199315 529.051965 
" clip-path="url(#p9932c63e03)" style="fill: none; stroke: #fbfbfb; stroke-width: 2"/>
    <path d="M 391.199308 91.584285 
L 494.651144 440.322855 
" clip-path="url(#p9932c63e03)" style="fill: none; stroke: #f6f6f6; stroke-width: 2"/>
    <path d="M 255.706158 72.301596 
L 131.189885 128.587461 
" clip-path="url(#p9932c63e03)" style="fill: none; stroke: #dadada; stroke-width: 2"/>
    <path d="M 255.706158 72.301596 
L 57.183471 242.571549 
" clip-path="url(#p9932c63e03)" style="fill: none; stroke: #dedede; stroke-width: 2"/>
    <path d="M 255.706158 72.301596 
L 57.183471 378.064694 
" clip-path="url(#p9932c63e03)" style="fill: none; stroke: #fcfcfc; stroke-width: 2"/>
    <path d="M 255.706158 72.301596 
L 131.18987 492.048775 
" clip-path="url(#p9932c63e03)" style="fill: none; stroke: #fafafa; stroke-width: 2"/>
    <path d="M 255.706158 72.301596 
L 255.706114 548.334654 
" clip-path="url(#p9932c63e03)" style="fill: none; stroke: #f8f8f8; stroke-width: 2"/>
    <path d="M 255.706158 72.301596 
L 391.199315 529.051965 
" clip-path="url(#p9932c63e03)" style="fill: none; stroke: #fcfcfc; stroke-width: 2"/>
    <path d="M 255.706158 72.301596 
L 494.651144 440.322855 
" clip-path="url(#p9932c63e03)" style="fill: none; stroke: #e8e8e8; stroke-width: 2"/>
    <path d="M 131.189885 128.587461 
L 57.183471 242.571549 
" clip-path="url(#p9932c63e03)" style="fill: none; stroke: #000000; stroke-width: 2"/>
    <path d="M 131.189885 128.587461 
L 57.183471 378.064694 
" clip-path="url(#p9932c63e03)" style="fill: none; stroke: #e8e8e8; stroke-width: 2"/>
    <path d="M 131.189885 128.587461 
L 131.18987 492.048775 
" clip-path="url(#p9932c63e03)" style="fill: none; stroke: #b0b0b0; stroke-width: 2"/>
    <path d="M 131.189885 128.587461 
L 255.706114 548.334654 
" clip-path="url(#p9932c63e03)" style="fill: none; stroke: #b1b1b1; stroke-width: 2"/>
    <path d="M 131.189885 128.587461 
L 391.199315 529.051965 
" clip-path="url(#p9932c63e03)" style="fill: none; stroke: #fbfbfb; stroke-width: 2"/>
    <path d="M 131.189885 128.587461 
L 494.651144 440.322855 
" clip-path="url(#p9932c63e03)" style="fill: none; stroke: #c3c3c3; stroke-width: 2"/>
    <path d="M 57.183471 242.571549 
L 57.183471 378.064694 
" clip-path="url(#p9932c63e03)" style="fill: none; stroke: #f9f9f9; stroke-width: 2"/>
    <path d="M 57.183471 242.571549 
L 131.18987 492.048775 
" clip-path="url(#p9932c63e03)" style="fill: none; stroke: #c9c9c9; stroke-width: 2"/>
    <path d="M 57.183471 242.571549 
L 255.706114 548.334654 
" clip-path="url(#p9932c63e03)" style="fill: none; stroke: #d0d0d0; stroke-width: 2"/>
    <path d="M 57.183471 242.571549 
L 391.199315 529.051965 
" clip-path="url(#p9932c63e03)" style="fill: none; stroke: #fdfdfd; stroke-width: 2"/>
    <path d="M 57.183471 242.571549 
L 494.651144 440.322855 
" clip-path="url(#p9932c63e03)" style="fill: none; stroke: #acacac; stroke-width: 2"/>
    <path d="M 57.183471 378.064694 
L 131.18987 492.048775 
" clip-path="url(#p9932c63e03)" style="fill: none; stroke: #fcfcfc; stroke-width: 2"/>
    <path d="M 57.183471 378.064694 
L 255.706114 548.334654 
" clip-path="url(#p9932c63e03)" style="fill: none; stroke: #fdfdfd; stroke-width: 2"/>
    <path d="M 57.183471 378.064694 
L 494.651144 440.322855 
" clip-path="url(#p9932c63e03)" style="fill: none; stroke: #f6f6f6; stroke-width: 2"/>
    <path d="M 131.18987 492.048775 
L 255.706114 548.334654 
" clip-path="url(#p9932c63e03)" style="fill: none; stroke: #f5f5f5; stroke-width: 2"/>
    <path d="M 131.18987 492.048775 
L 391.199315 529.051965 
" clip-path="url(#p9932c63e03)" style="fill: none; stroke: #fcfcfc; stroke-width: 2"/>
    <path d="M 131.18987 492.048775 
L 494.651144 440.322855 
" clip-path="url(#p9932c63e03)" style="fill: none; stroke: #dedede; stroke-width: 2"/>
    <path d="M 255.706114 548.334654 
L 391.199315 529.051965 
" clip-path="url(#p9932c63e03)" style="fill: none; stroke: #fafafa; stroke-width: 2"/>
    <path d="M 255.706114 548.334654 
L 494.651144 440.322855 
" clip-path="url(#p9932c63e03)" style="fill: none; stroke: #c1c1c1; stroke-width: 2"/>
    <path d="M 391.199315 529.051965 
L 494.651144 440.322855 
" clip-path="url(#p9932c63e03)" style="fill: none; stroke: #f8f8f8; stroke-width: 2"/>
   </g>
   <g id="PathCollection_1">
    <path d="M 533.216529 316.462228 
C 534.845964 316.462228 536.408881 315.814846 537.561066 314.662662 
C 538.71325 313.510477 539.360632 311.94756 539.360632 310.318125 
C 539.360632 308.68869 538.71325 307.125773 537.561066 305.973588 
C 536.408881 304.821404 534.845964 304.174022 533.216529 304.174022 
C 531.587094 304.174022 530.024177 304.821404 528.871992 305.973588 
C 527.719807 307.125773 527.072426 308.68869 527.072426 310.318125 
C 527.072426 311.94756 527.719807 313.510477 528.871992 314.662662 
C 530.024177 315.814846 531.587094 316.462228 533.216529 316.462228 
z
" clip-path="url(#p9932c63e03)" style="fill: #ffffff; stroke: #000000; stroke-width: 2"/>
    <path d="M 494.651158 183.884138 
C 495.598123 183.884138 496.50643 183.507905 497.176035 182.8383 
C 497.84564 182.168695 498.221873 181.260388 498.221873 180.313424 
C 498.221873 179.366459 497.84564 178.458153 497.176035 177.788548 
C 496.50643 177.118943 495.598123 176.74271 494.651158 176.74271 
C 493.704194 176.74271 492.795887 177.118943 492.126282 177.788548 
C 491.456677 178.458153 491.080444 179.366459 491.080444 180.313424 
C 491.080444 181.260388 491.456677 182.168695 492.126282 182.8383 
C 492.795887 183.507905 493.704194 183.884138 494.651158 183.884138 
z
" clip-path="url(#p9932c63e03)" style="fill: #ffffff; stroke: #000000; stroke-width: 2"/>
    <path d="M 391.199308 95.885447 
C 392.33999 95.885447 393.434105 95.43225 394.240689 94.625666 
C 395.047273 93.819082 395.500471 92.724966 395.500471 91.584285 
C 395.500471 90.443603 395.047273 89.349487 394.240689 88.542903 
C 393.434105 87.73632 392.33999 87.283122 391.199308 87.283122 
C 390.058626 87.283122 388.96451 87.73632 388.157927 88.542903 
C 387.351343 89.349487 386.898145 90.443603 386.898145 91.584285 
C 386.898145 92.724966 387.351343 93.819082 388.157927 94.625666 
C 388.96451 95.43225 390.058626 95.885447 391.199308 95.885447 
z
" clip-path="url(#p9932c63e03)" style="fill: #ffffff; stroke: #000000; stroke-width: 2"/>
    <path d="M 255.706158 76.043253 
C 256.698457 76.043253 257.650248 75.649009 258.351909 74.947347 
C 259.053571 74.245686 259.447815 73.293895 259.447815 72.301596 
C 259.447815 71.309297 259.053571 70.357506 258.351909 69.655845 
C 257.650248 68.954183 256.698457 68.559939 255.706158 68.559939 
C 254.713859 68.559939 253.762068 68.954183 253.060406 69.655845 
C 252.358745 70.357506 251.9645 71.309297 251.9645 72.301596 
C 251.9645 73.293895 252.358745 74.245686 253.060406 74.947347 
C 253.762068 75.649009 254.713859 76.043253 255.706158 76.043253 
z
" clip-path="url(#p9932c63e03)" style="fill: #ffffff; stroke: #000000; stroke-width: 2"/>
    <path d="M 131.189885 137.204305 
C 133.475098 137.204305 135.667023 136.29638 137.282914 134.68049 
C 138.898804 133.064599 139.806729 130.872674 139.806729 128.587461 
C 139.806729 126.302247 138.898804 124.110322 137.282914 122.494432 
C 135.667023 120.878542 133.475098 119.970617 131.189885 119.970617 
C 128.904671 119.970617 126.712746 120.878542 125.096856 122.494432 
C 123.480966 124.110322 122.573041 126.302247 122.573041 128.587461 
C 122.573041 130.872674 123.480966 133.064599 125.096856 134.68049 
C 126.712746 136.29638 128.904671 137.204305 131.189885 137.204305 
z
" clip-path="url(#p9932c63e03)" style="fill: #ffffff; stroke: #000000; stroke-width: 2"/>
    <path d="M 57.183471 251.952381 
C 59.671297 251.952381 62.057562 250.963957 63.816721 249.204799 
C 65.575879 247.44564 66.564303 245.059375 66.564303 242.571549 
C 66.564303 240.083723 65.575879 237.697458 63.816721 235.9383 
C 62.057562 234.179141 59.671297 233.190718 57.183471 233.190718 
C 54.695645 233.190718 52.30938 234.179141 50.550221 235.9383 
C 48.791063 237.697458 47.80264 240.083723 47.80264 242.571549 
C 47.80264 245.059375 48.791063 247.44564 50.550221 249.204799 
C 52.30938 250.963957 54.695645 251.952381 57.183471 251.952381 
z
" clip-path="url(#p9932c63e03)" style="fill: #ffffff; stroke: #000000; stroke-width: 2"/>
    <path d="M 57.183471 381.226971 
C 58.022117 381.226971 58.826527 380.893774 59.419539 380.300762 
C 60.012551 379.70775 60.345749 378.90334 60.345749 378.064694 
C 60.345749 377.226048 60.012551 376.421638 59.419539 375.828626 
C 58.826527 375.235614 58.022117 374.902416 57.183471 374.902416 
C 56.344825 374.902416 55.540415 375.235614 54.947403 375.828626 
C 54.354391 376.421638 54.021193 377.226048 54.021193 378.064694 
C 54.021193 378.90334 54.354391 379.70775 54.947403 380.300762 
C 55.540415 380.893774 56.344825 381.226971 57.183471 381.226971 
z
" clip-path="url(#p9932c63e03)" style="fill: #ffffff; stroke: #000000; stroke-width: 2"/>
    <path d="M 131.18987 496.765766 
C 132.440831 496.765766 133.640724 496.268754 134.525286 495.384191 
C 135.409849 494.499628 135.906861 493.299735 135.906861 492.048775 
C 135.906861 490.797814 135.409849 489.597922 134.525286 488.713359 
C 133.640724 487.828796 132.440831 487.331784 131.18987 487.331784 
C 129.93891 487.331784 128.739017 487.828796 127.854454 488.713359 
C 126.969892 489.597922 126.47288 490.797814 126.47288 492.048775 
C 126.47288 493.299735 126.969892 494.499628 127.854454 495.384191 
C 128.739017 496.268754 129.93891 496.765766 131.18987 496.765766 
z
" clip-path="url(#p9932c63e03)" style="fill: #ffffff; stroke: #000000; stroke-width: 2"/>
    <path d="M 255.706114 553.766044 
C 257.146536 553.766044 258.528155 553.193759 259.546687 552.175227 
C 260.565219 551.156695 261.137505 549.775075 261.137505 548.334654 
C 261.137505 546.894232 260.565219 545.512613 259.546687 544.494081 
C 258.528155 543.475549 257.146536 542.903264 255.706114 542.903264 
C 254.265693 542.903264 252.884073 543.475549 251.865541 544.494081 
C 250.84701 545.512613 250.274724 546.894232 250.274724 548.334654 
C 250.274724 549.775075 250.84701 551.156695 251.865541 552.175227 
C 252.884073 553.193759 254.265693 553.766044 255.706114 553.766044 
z
" clip-path="url(#p9932c63e03)" style="fill: #ffffff; stroke: #000000; stroke-width: 2"/>
    <path d="M 391.199315 531.744548 
C 391.913396 531.744548 392.598327 531.46084 393.103258 530.955909 
C 393.60819 530.450977 393.891898 529.766047 393.891898 529.051965 
C 393.891898 528.337884 393.60819 527.652954 393.103258 527.148022 
C 392.598327 526.64309 391.913396 526.359383 391.199315 526.359383 
C 390.485234 526.359383 389.800304 526.64309 389.295372 527.148022 
C 388.79044 527.652954 388.506733 528.337884 388.506733 529.051965 
C 388.506733 529.766047 388.79044 530.450977 389.295372 530.955909 
C 389.800304 531.46084 390.485234 531.744548 391.199315 531.744548 
z
" clip-path="url(#p9932c63e03)" style="fill: #ffffff; stroke: #000000; stroke-width: 2"/>
    <path d="M 494.651144 445.170535 
C 495.936764 445.170535 497.169901 444.659753 498.078971 443.750682 
C 498.988042 442.841612 499.498824 441.608475 499.498824 440.322855 
C 499.498824 439.037235 498.988042 437.804098 498.078971 436.895028 
C 497.169901 435.985957 495.936764 435.475175 494.651144 435.475175 
C 493.365524 435.475175 492.132387 435.985957 491.223317 436.895028 
C 490.314246 437.804098 489.803464 439.037235 489.803464 440.322855 
C 489.803464 441.608475 490.314246 442.841612 491.223317 443.750682 
C 492.132387 444.659753 493.365524 445.170535 494.651144 445.170535 
z
" clip-path="url(#p9932c63e03)" style="fill: #ffffff; stroke: #000000; stroke-width: 2"/>
   </g>
   <g id="text_1">
    <g clip-path="url(#p9932c63e03)">
     <!-- A.Harrison -->
     <g transform="translate(531.179264 284.773682)scale(0.12 -0.12)">
      <defs>
       <path id="DejaVuSans-41" d="M 2188 4044 
L 1331 1722 
L 3047 1722 
L 2188 4044 
z
M 1831 4666 
L 2547 4666 
L 4325 0 
L 3669 0 
L 3244 1197 
L 1141 1197 
L 716 0 
L 50 0 
L 1831 4666 
z
" transform="scale(0.015625)"/>
       <path id="DejaVuSans-2e" d="M 684 794 
L 1344 794 
L 1344 0 
L 684 0 
L 684 794 
z
" transform="scale(0.015625)"/>
       <path id="DejaVuSans-48" d="M 628 4666 
L 1259 4666 
L 1259 2753 
L 3553 2753 
L 3553 4666 
L 4184 4666 
L 4184 0 
L 3553 0 
L 3553 2222 
L 1259 2222 
L 1259 0 
L 628 0 
L 628 4666 
z
" transform="scale(0.015625)"/>
       <path id="DejaVuSans-61" d="M 2194 1759 
Q 1497 1759 1228 1600 
Q 959 1441 959 1056 
Q 959 750 1161 570 
Q 1363 391 1709 391 
Q 2188 391 2477 730 
Q 2766 1069 2766 1631 
L 2766 1759 
L 2194 1759 
z
M 3341 1997 
L 3341 0 
L 2766 0 
L 2766 531 
Q 2569 213 2275 61 
Q 1981 -91 1556 -91 
Q 1019 -91 701 211 
Q 384 513 384 1019 
Q 384 1609 779 1909 
Q 1175 2209 1959 2209 
L 2766 2209 
L 2766 2266 
Q 2766 2663 2505 2880 
Q 2244 3097 1772 3097 
Q 1472 3097 1187 3025 
Q 903 2953 641 2809 
L 641 3341 
Q 956 3463 1253 3523 
Q 1550 3584 1831 3584 
Q 2591 3584 2966 3190 
Q 3341 2797 3341 1997 
z
" transform="scale(0.015625)"/>
       <path id="DejaVuSans-72" d="M 2631 2963 
Q 2534 3019 2420 3045 
Q 2306 3072 2169 3072 
Q 1681 3072 1420 2755 
Q 1159 2438 1159 1844 
L 1159 0 
L 581 0 
L 581 3500 
L 1159 3500 
L 1159 2956 
Q 1341 3275 1631 3429 
Q 1922 3584 2338 3584 
Q 2397 3584 2469 3576 
Q 2541 3569 2628 3553 
L 2631 2963 
z
" transform="scale(0.015625)"/>
       <path id="DejaVuSans-69" d="M 603 3500 
L 1178 3500 
L 1178 0 
L 603 0 
L 603 3500 
z
M 603 4863 
L 1178 4863 
L 1178 4134 
L 603 4134 
L 603 4863 
z
" transform="scale(0.015625)"/>
       <path id="DejaVuSans-73" d="M 2834 3397 
L 2834 2853 
Q 2591 2978 2328 3040 
Q 2066 3103 1784 3103 
Q 1356 3103 1142 2972 
Q 928 2841 928 2578 
Q 928 2378 1081 2264 
Q 1234 2150 1697 2047 
L 1894 2003 
Q 2506 1872 2764 1633 
Q 3022 1394 3022 966 
Q 3022 478 2636 193 
Q 2250 -91 1575 -91 
Q 1294 -91 989 -36 
Q 684 19 347 128 
L 347 722 
Q 666 556 975 473 
Q 1284 391 1588 391 
Q 1994 391 2212 530 
Q 2431 669 2431 922 
Q 2431 1156 2273 1281 
Q 2116 1406 1581 1522 
L 1381 1569 
Q 847 1681 609 1914 
Q 372 2147 372 2553 
Q 372 3047 722 3315 
Q 1072 3584 1716 3584 
Q 2034 3584 2315 3537 
Q 2597 3491 2834 3397 
z
" transform="scale(0.015625)"/>
       <path id="DejaVuSans-6f" d="M 1959 3097 
Q 1497 3097 1228 2736 
Q 959 2375 959 1747 
Q 959 1119 1226 758 
Q 1494 397 1959 397 
Q 2419 397 2687 759 
Q 2956 1122 2956 1747 
Q 2956 2369 2687 2733 
Q 2419 3097 1959 3097 
z
M 1959 3584 
Q 2709 3584 3137 3096 
Q 3566 2609 3566 1747 
Q 3566 888 3137 398 
Q 2709 -91 1959 -91 
Q 1206 -91 779 398 
Q 353 888 353 1747 
Q 353 2609 779 3096 
Q 1206 3584 1959 3584 
z
" transform="scale(0.015625)"/>
       <path id="DejaVuSans-6e" d="M 3513 2113 
L 3513 0 
L 2938 0 
L 2938 2094 
Q 2938 2591 2744 2837 
Q 2550 3084 2163 3084 
Q 1697 3084 1428 2787 
Q 1159 2491 1159 1978 
L 1159 0 
L 581 0 
L 581 3500 
L 1159 3500 
L 1159 2956 
Q 1366 3272 1645 3428 
Q 1925 3584 2291 3584 
Q 2894 3584 3203 3211 
Q 3513 2838 3513 2113 
z
" transform="scale(0.015625)"/>
      </defs>
      <use xlink:href="#DejaVuSans-41"/>
      <use xlink:href="#DejaVuSans-2e" x="66.658203"/>
      <use xlink:href="#DejaVuSans-48" x="98.445312"/>
      <use xlink:href="#DejaVuSans-61" x="173.640625"/>
      <use xlink:href="#DejaVuSans-72" x="234.919922"/>
      <use xlink:href="#DejaVuSans-72" x="274.283203"/>
      <use xlink:href="#DejaVuSans-69" x="315.396484"/>
      <use xlink:href="#DejaVuSans-73" x="343.179688"/>
      <use xlink:href="#DejaVuSans-6f" x="395.279297"/>
      <use xlink:href="#DejaVuSans-6e" x="456.460938"/>
     </g>
    </g>
   </g>
   <g id="text_2">
    <g clip-path="url(#p9932c63e03)">
     <!-- C.Parsons -->
     <g transform="translate(494.490768 154.768981)scale(0.12 -0.12)">
      <defs>
       <path id="DejaVuSans-43" d="M 4122 4306 
L 4122 3641 
Q 3803 3938 3442 4084 
Q 3081 4231 2675 4231 
Q 1875 4231 1450 3742 
Q 1025 3253 1025 2328 
Q 1025 1406 1450 917 
Q 1875 428 2675 428 
Q 3081 428 3442 575 
Q 3803 722 4122 1019 
L 4122 359 
Q 3791 134 3420 21 
Q 3050 -91 2638 -91 
Q 1578 -91 968 557 
Q 359 1206 359 2328 
Q 359 3453 968 4101 
Q 1578 4750 2638 4750 
Q 3056 4750 3426 4639 
Q 3797 4528 4122 4306 
z
" transform="scale(0.015625)"/>
       <path id="DejaVuSans-50" d="M 1259 4147 
L 1259 2394 
L 2053 2394 
Q 2494 2394 2734 2622 
Q 2975 2850 2975 3272 
Q 2975 3691 2734 3919 
Q 2494 4147 2053 4147 
L 1259 4147 
z
M 628 4666 
L 2053 4666 
Q 2838 4666 3239 4311 
Q 3641 3956 3641 3272 
Q 3641 2581 3239 2228 
Q 2838 1875 2053 1875 
L 1259 1875 
L 1259 0 
L 628 0 
L 628 4666 
z
" transform="scale(0.015625)"/>
      </defs>
      <use xlink:href="#DejaVuSans-43"/>
      <use xlink:href="#DejaVuSans-2e" x="69.824219"/>
      <use xlink:href="#DejaVuSans-50" x="101.611328"/>
      <use xlink:href="#DejaVuSans-61" x="157.414062"/>
      <use xlink:href="#DejaVuSans-72" x="218.693359"/>
      <use xlink:href="#DejaVuSans-73" x="259.806641"/>
      <use xlink:href="#DejaVuSans-6f" x="311.90625"/>
      <use xlink:href="#DejaVuSans-6e" x="373.087891"/>
      <use xlink:href="#DejaVuSans-73" x="436.466797"/>
     </g>
    </g>
   </g>
   <g id="text_3">
    <g clip-path="url(#p9932c63e03)">
     <!-- J.Green -->
     <g transform="translate(398.50798 66.039841)scale(0.12 -0.12)">
      <defs>
       <path id="DejaVuSans-4a" d="M 628 4666 
L 1259 4666 
L 1259 325 
Q 1259 -519 939 -900 
Q 619 -1281 -91 -1281 
L -331 -1281 
L -331 -750 
L -134 -750 
Q 284 -750 456 -515 
Q 628 -281 628 325 
L 628 4666 
z
" transform="scale(0.015625)"/>
       <path id="DejaVuSans-47" d="M 3809 666 
L 3809 1919 
L 2778 1919 
L 2778 2438 
L 4434 2438 
L 4434 434 
Q 4069 175 3628 42 
Q 3188 -91 2688 -91 
Q 1594 -91 976 548 
Q 359 1188 359 2328 
Q 359 3472 976 4111 
Q 1594 4750 2688 4750 
Q 3144 4750 3555 4637 
Q 3966 4525 4313 4306 
L 4313 3634 
Q 3963 3931 3569 4081 
Q 3175 4231 2741 4231 
Q 1884 4231 1454 3753 
Q 1025 3275 1025 2328 
Q 1025 1384 1454 906 
Q 1884 428 2741 428 
Q 3075 428 3337 486 
Q 3600 544 3809 666 
z
" transform="scale(0.015625)"/>
       <path id="DejaVuSans-65" d="M 3597 1894 
L 3597 1613 
L 953 1613 
Q 991 1019 1311 708 
Q 1631 397 2203 397 
Q 2534 397 2845 478 
Q 3156 559 3463 722 
L 3463 178 
Q 3153 47 2828 -22 
Q 2503 -91 2169 -91 
Q 1331 -91 842 396 
Q 353 884 353 1716 
Q 353 2575 817 3079 
Q 1281 3584 2069 3584 
Q 2775 3584 3186 3129 
Q 3597 2675 3597 1894 
z
M 3022 2063 
Q 3016 2534 2758 2815 
Q 2500 3097 2075 3097 
Q 1594 3097 1305 2825 
Q 1016 2553 972 2059 
L 3022 2063 
z
" transform="scale(0.015625)"/>
      </defs>
      <use xlink:href="#DejaVuSans-4a"/>
      <use xlink:href="#DejaVuSans-2e" x="29.492188"/>
      <use xlink:href="#DejaVuSans-47" x="61.279297"/>
      <use xlink:href="#DejaVuSans-72" x="138.769531"/>
      <use xlink:href="#DejaVuSans-65" x="177.632812"/>
      <use xlink:href="#DejaVuSans-65" x="239.15625"/>
      <use xlink:href="#DejaVuSans-6e" x="300.679688"/>
     </g>
    </g>
   </g>
   <g id="text_4">
    <g clip-path="url(#p9932c63e03)">
     <!-- J.Ennis III -->
     <g transform="translate(199.471235 46.757153)scale(0.12 -0.12)">
      <defs>
       <path id="DejaVuSans-45" d="M 628 4666 
L 3578 4666 
L 3578 4134 
L 1259 4134 
L 1259 2753 
L 3481 2753 
L 3481 2222 
L 1259 2222 
L 1259 531 
L 3634 531 
L 3634 0 
L 628 0 
L 628 4666 
z
" transform="scale(0.015625)"/>
       <path id="DejaVuSans-20" transform="scale(0.015625)"/>
       <path id="DejaVuSans-49" d="M 628 4666 
L 1259 4666 
L 1259 0 
L 628 0 
L 628 4666 
z
" transform="scale(0.015625)"/>
      </defs>
      <use xlink:href="#DejaVuSans-4a"/>
      <use xlink:href="#DejaVuSans-2e" x="29.492188"/>
      <use xlink:href="#DejaVuSans-45" x="61.279297"/>
      <use xlink:href="#DejaVuSans-6e" x="124.462891"/>
      <use xlink:href="#DejaVuSans-6e" x="187.841797"/>
      <use xlink:href="#DejaVuSans-69" x="251.220703"/>
      <use xlink:href="#DejaVuSans-73" x="279.003906"/>
      <use xlink:href="#DejaVuSans-20" x="331.103516"/>
      <use xlink:href="#DejaVuSans-49" x="362.890625"/>
      <use xlink:href="#DejaVuSans-49" x="392.382812"/>
      <use xlink:href="#DejaVuSans-49" x="421.875"/>
     </g>
    </g>
   </g>
   <g id="text_5">
    <g clip-path="url(#p9932c63e03)">
     <!-- M.Gasol -->
     <g transform="translate(78.164025 103.043018)scale(0.12 -0.12)">
      <defs>
       <path id="DejaVuSans-4d" d="M 628 4666 
L 1569 4666 
L 2759 1491 
L 3956 4666 
L 4897 4666 
L 4897 0 
L 4281 0 
L 4281 4097 
L 3078 897 
L 2444 897 
L 1241 4097 
L 1241 0 
L 628 0 
L 628 4666 
z
" transform="scale(0.015625)"/>
       <path id="DejaVuSans-6c" d="M 603 4863 
L 1178 4863 
L 1178 0 
L 603 0 
L 603 4863 
z
" transform="scale(0.015625)"/>
      </defs>
      <use xlink:href="#DejaVuSans-4d"/>
      <use xlink:href="#DejaVuSans-2e" x="86.279297"/>
      <use xlink:href="#DejaVuSans-47" x="118.066406"/>
      <use xlink:href="#DejaVuSans-61" x="195.556641"/>
      <use xlink:href="#DejaVuSans-73" x="256.835938"/>
      <use xlink:href="#DejaVuSans-6f" x="308.935547"/>
      <use xlink:href="#DejaVuSans-6c" x="370.117188"/>
     </g>
    </g>
   </g>
   <g id="text_6">
    <g clip-path="url(#p9932c63e03)">
     <!-- M.Conley -->
     <g transform="translate(0.373861 217.027106)scale(0.12 -0.12)">
      <defs>
       <path id="DejaVuSans-79" d="M 2059 -325 
Q 1816 -950 1584 -1140 
Q 1353 -1331 966 -1331 
L 506 -1331 
L 506 -850 
L 844 -850 
Q 1081 -850 1212 -737 
Q 1344 -625 1503 -206 
L 1606 56 
L 191 3500 
L 800 3500 
L 1894 763 
L 2988 3500 
L 3597 3500 
L 2059 -325 
z
" transform="scale(0.015625)"/>
      </defs>
      <use xlink:href="#DejaVuSans-4d"/>
      <use xlink:href="#DejaVuSans-2e" x="86.279297"/>
      <use xlink:href="#DejaVuSans-43" x="118.066406"/>
      <use xlink:href="#DejaVuSans-6f" x="187.890625"/>
      <use xlink:href="#DejaVuSans-6e" x="249.072266"/>
      <use xlink:href="#DejaVuSans-6c" x="312.451172"/>
      <use xlink:href="#DejaVuSans-65" x="340.234375"/>
      <use xlink:href="#DejaVuSans-79" x="401.757812"/>
     </g>
    </g>
   </g>
   <g id="text_7">
    <g clip-path="url(#p9932c63e03)">
     <!-- T.Douglas -->
     <g transform="translate(-1.200201 410.231637)scale(0.12 -0.12)">
      <defs>
       <path id="DejaVuSans-54" d="M -19 4666 
L 3928 4666 
L 3928 4134 
L 2272 4134 
L 2272 0 
L 1638 0 
L 1638 4134 
L -19 4134 
L -19 4666 
z
" transform="scale(0.015625)"/>
       <path id="DejaVuSans-44" d="M 1259 4147 
L 1259 519 
L 2022 519 
Q 2988 519 3436 956 
Q 3884 1394 3884 2338 
Q 3884 3275 3436 3711 
Q 2988 4147 2022 4147 
L 1259 4147 
z
M 628 4666 
L 1925 4666 
Q 3281 4666 3915 4102 
Q 4550 3538 4550 2338 
Q 4550 1131 3912 565 
Q 3275 0 1925 0 
L 628 0 
L 628 4666 
z
" transform="scale(0.015625)"/>
       <path id="DejaVuSans-75" d="M 544 1381 
L 544 3500 
L 1119 3500 
L 1119 1403 
Q 1119 906 1312 657 
Q 1506 409 1894 409 
Q 2359 409 2629 706 
Q 2900 1003 2900 1516 
L 2900 3500 
L 3475 3500 
L 3475 0 
L 2900 0 
L 2900 538 
Q 2691 219 2414 64 
Q 2138 -91 1772 -91 
Q 1169 -91 856 284 
Q 544 659 544 1381 
z
M 1991 3584 
L 1991 3584 
z
" transform="scale(0.015625)"/>
       <path id="DejaVuSans-67" d="M 2906 1791 
Q 2906 2416 2648 2759 
Q 2391 3103 1925 3103 
Q 1463 3103 1205 2759 
Q 947 2416 947 1791 
Q 947 1169 1205 825 
Q 1463 481 1925 481 
Q 2391 481 2648 825 
Q 2906 1169 2906 1791 
z
M 3481 434 
Q 3481 -459 3084 -895 
Q 2688 -1331 1869 -1331 
Q 1566 -1331 1297 -1286 
Q 1028 -1241 775 -1147 
L 775 -588 
Q 1028 -725 1275 -790 
Q 1522 -856 1778 -856 
Q 2344 -856 2625 -561 
Q 2906 -266 2906 331 
L 2906 616 
Q 2728 306 2450 153 
Q 2172 0 1784 0 
Q 1141 0 747 490 
Q 353 981 353 1791 
Q 353 2603 747 3093 
Q 1141 3584 1784 3584 
Q 2172 3584 2450 3431 
Q 2728 3278 2906 2969 
L 2906 3500 
L 3481 3500 
L 3481 434 
z
" transform="scale(0.015625)"/>
      </defs>
      <use xlink:href="#DejaVuSans-54"/>
      <use xlink:href="#DejaVuSans-2e" x="49.208984"/>
      <use xlink:href="#DejaVuSans-44" x="80.996094"/>
      <use xlink:href="#DejaVuSans-6f" x="157.998047"/>
      <use xlink:href="#DejaVuSans-75" x="219.179688"/>
      <use xlink:href="#DejaVuSans-67" x="282.558594"/>
      <use xlink:href="#DejaVuSans-6c" x="346.035156"/>
      <use xlink:href="#DejaVuSans-61" x="373.818359"/>
      <use xlink:href="#DejaVuSans-73" x="435.097656"/>
     </g>
    </g>
   </g>
   <g id="text_8">
    <g clip-path="url(#p9932c63e03)">
     <!-- T.Allen -->
     <g transform="translate(82.245885 524.215718)scale(0.12 -0.12)">
      <use xlink:href="#DejaVuSans-54"/>
      <use xlink:href="#DejaVuSans-2e" x="49.208984"/>
      <use xlink:href="#DejaVuSans-41" x="80.996094"/>
      <use xlink:href="#DejaVuSans-6c" x="149.404297"/>
      <use xlink:href="#DejaVuSans-6c" x="177.1875"/>
      <use xlink:href="#DejaVuSans-65" x="204.970703"/>
      <use xlink:href="#DejaVuSans-6e" x="266.494141"/>
     </g>
    </g>
   </g>
   <g id="text_9">
    <g clip-path="url(#p9932c63e03)">
     <!-- V.Carter -->
     <g transform="translate(202.471192 580.501597)scale(0.12 -0.12)">
      <defs>
       <path id="DejaVuSans-56" d="M 1831 0 
L 50 4666 
L 709 4666 
L 2188 738 
L 3669 4666 
L 4325 4666 
L 2547 0 
L 1831 0 
z
" transform="scale(0.015625)"/>
       <path id="DejaVuSans-74" d="M 1172 4494 
L 1172 3500 
L 2356 3500 
L 2356 3053 
L 1172 3053 
L 1172 1153 
Q 1172 725 1289 603 
Q 1406 481 1766 481 
L 2356 481 
L 2356 0 
L 1766 0 
Q 1100 0 847 248 
Q 594 497 594 1153 
L 594 3053 
L 172 3053 
L 172 3500 
L 594 3500 
L 594 4494 
L 1172 4494 
z
" transform="scale(0.015625)"/>
      </defs>
      <use xlink:href="#DejaVuSans-56"/>
      <use xlink:href="#DejaVuSans-2e" x="55.533203"/>
      <use xlink:href="#DejaVuSans-43" x="87.320312"/>
      <use xlink:href="#DejaVuSans-61" x="157.144531"/>
      <use xlink:href="#DejaVuSans-72" x="218.423828"/>
      <use xlink:href="#DejaVuSans-74" x="259.537109"/>
      <use xlink:href="#DejaVuSans-65" x="298.746094"/>
      <use xlink:href="#DejaVuSans-72" x="360.269531"/>
     </g>
    </g>
   </g>
   <g id="text_10">
    <g clip-path="url(#p9932c63e03)">
     <!-- W.Baldwin IV -->
     <g transform="translate(381.775488 561.218909)scale(0.12 -0.12)">
      <defs>
       <path id="DejaVuSans-57" d="M 213 4666 
L 850 4666 
L 1831 722 
L 2809 4666 
L 3519 4666 
L 4500 722 
L 5478 4666 
L 6119 4666 
L 4947 0 
L 4153 0 
L 3169 4050 
L 2175 0 
L 1381 0 
L 213 4666 
z
" transform="scale(0.015625)"/>
       <path id="DejaVuSans-42" d="M 1259 2228 
L 1259 519 
L 2272 519 
Q 2781 519 3026 730 
Q 3272 941 3272 1375 
Q 3272 1813 3026 2020 
Q 2781 2228 2272 2228 
L 1259 2228 
z
M 1259 4147 
L 1259 2741 
L 2194 2741 
Q 2656 2741 2882 2914 
Q 3109 3088 3109 3444 
Q 3109 3797 2882 3972 
Q 2656 4147 2194 4147 
L 1259 4147 
z
M 628 4666 
L 2241 4666 
Q 2963 4666 3353 4366 
Q 3744 4066 3744 3513 
Q 3744 3084 3544 2831 
Q 3344 2578 2956 2516 
Q 3422 2416 3680 2098 
Q 3938 1781 3938 1306 
Q 3938 681 3513 340 
Q 3088 0 2303 0 
L 628 0 
L 628 4666 
z
" transform="scale(0.015625)"/>
       <path id="DejaVuSans-64" d="M 2906 2969 
L 2906 4863 
L 3481 4863 
L 3481 0 
L 2906 0 
L 2906 525 
Q 2725 213 2448 61 
Q 2172 -91 1784 -91 
Q 1150 -91 751 415 
Q 353 922 353 1747 
Q 353 2572 751 3078 
Q 1150 3584 1784 3584 
Q 2172 3584 2448 3432 
Q 2725 3281 2906 2969 
z
M 947 1747 
Q 947 1113 1208 752 
Q 1469 391 1925 391 
Q 2381 391 2643 752 
Q 2906 1113 2906 1747 
Q 2906 2381 2643 2742 
Q 2381 3103 1925 3103 
Q 1469 3103 1208 2742 
Q 947 2381 947 1747 
z
" transform="scale(0.015625)"/>
       <path id="DejaVuSans-77" d="M 269 3500 
L 844 3500 
L 1563 769 
L 2278 3500 
L 2956 3500 
L 3675 769 
L 4391 3500 
L 4966 3500 
L 4050 0 
L 3372 0 
L 2619 2869 
L 1863 0 
L 1184 0 
L 269 3500 
z
" transform="scale(0.015625)"/>
      </defs>
      <use xlink:href="#DejaVuSans-57"/>
      <use xlink:href="#DejaVuSans-2e" x="87.376953"/>
      <use xlink:href="#DejaVuSans-42" x="119.164062"/>
      <use xlink:href="#DejaVuSans-61" x="187.767578"/>
      <use xlink:href="#DejaVuSans-6c" x="249.046875"/>
      <use xlink:href="#DejaVuSans-64" x="276.830078"/>
      <use xlink:href="#DejaVuSans-77" x="340.306641"/>
      <use xlink:href="#DejaVuSans-69" x="422.09375"/>
      <use xlink:href="#DejaVuSans-6e" x="449.876953"/>
      <use xlink:href="#DejaVuSans-20" x="513.255859"/>
      <use xlink:href="#DejaVuSans-49" x="545.042969"/>
      <use xlink:href="#DejaVuSans-56" x="574.535156"/>
     </g>
    </g>
   </g>
   <g id="text_11">
    <g clip-path="url(#p9932c63e03)">
     <!-- Z.Randolph -->
     <g transform="translate(489.514504 472.489798)scale(0.12 -0.12)">
      <defs>
       <path id="DejaVuSans-5a" d="M 359 4666 
L 4025 4666 
L 4025 4184 
L 1075 531 
L 4097 531 
L 4097 0 
L 288 0 
L 288 481 
L 3238 4134 
L 359 4134 
L 359 4666 
z
" transform="scale(0.015625)"/>
       <path id="DejaVuSans-52" d="M 2841 2188 
Q 3044 2119 3236 1894 
Q 3428 1669 3622 1275 
L 4263 0 
L 3584 0 
L 2988 1197 
Q 2756 1666 2539 1819 
Q 2322 1972 1947 1972 
L 1259 1972 
L 1259 0 
L 628 0 
L 628 4666 
L 2053 4666 
Q 2853 4666 3247 4331 
Q 3641 3997 3641 3322 
Q 3641 2881 3436 2590 
Q 3231 2300 2841 2188 
z
M 1259 4147 
L 1259 2491 
L 2053 2491 
Q 2509 2491 2742 2702 
Q 2975 2913 2975 3322 
Q 2975 3731 2742 3939 
Q 2509 4147 2053 4147 
L 1259 4147 
z
" transform="scale(0.015625)"/>
       <path id="DejaVuSans-70" d="M 1159 525 
L 1159 -1331 
L 581 -1331 
L 581 3500 
L 1159 3500 
L 1159 2969 
Q 1341 3281 1617 3432 
Q 1894 3584 2278 3584 
Q 2916 3584 3314 3078 
Q 3713 2572 3713 1747 
Q 3713 922 3314 415 
Q 2916 -91 2278 -91 
Q 1894 -91 1617 61 
Q 1341 213 1159 525 
z
M 3116 1747 
Q 3116 2381 2855 2742 
Q 2594 3103 2138 3103 
Q 1681 3103 1420 2742 
Q 1159 2381 1159 1747 
Q 1159 1113 1420 752 
Q 1681 391 2138 391 
Q 2594 391 2855 752 
Q 3116 1113 3116 1747 
z
" transform="scale(0.015625)"/>
       <path id="DejaVuSans-68" d="M 3513 2113 
L 3513 0 
L 2938 0 
L 2938 2094 
Q 2938 2591 2744 2837 
Q 2550 3084 2163 3084 
Q 1697 3084 1428 2787 
Q 1159 2491 1159 1978 
L 1159 0 
L 581 0 
L 581 4863 
L 1159 4863 
L 1159 2956 
Q 1366 3272 1645 3428 
Q 1925 3584 2291 3584 
Q 2894 3584 3203 3211 
Q 3513 2838 3513 2113 
z
" transform="scale(0.015625)"/>
      </defs>
      <use xlink:href="#DejaVuSans-5a"/>
      <use xlink:href="#DejaVuSans-2e" x="68.505859"/>
      <use xlink:href="#DejaVuSans-52" x="100.292969"/>
      <use xlink:href="#DejaVuSans-61" x="167.525391"/>
      <use xlink:href="#DejaVuSans-6e" x="228.804688"/>
      <use xlink:href="#DejaVuSans-64" x="292.183594"/>
      <use xlink:href="#DejaVuSans-6f" x="355.660156"/>
      <use xlink:href="#DejaVuSans-6c" x="416.841797"/>
      <use xlink:href="#DejaVuSans-70" x="444.625"/>
      <use xlink:href="#DejaVuSans-68" x="508.101562"/>
     </g>
    </g>
   </g>
   <g id="text_12">
    <!-- 2016-17 Memphis Grizzlies Assist Network -->
    <g transform="translate(167.601562 16.318125)scale(0.12 -0.12)">
     <defs>
      <path id="DejaVuSans-32" d="M 1228 531 
L 3431 531 
L 3431 0 
L 469 0 
L 469 531 
Q 828 903 1448 1529 
Q 2069 2156 2228 2338 
Q 2531 2678 2651 2914 
Q 2772 3150 2772 3378 
Q 2772 3750 2511 3984 
Q 2250 4219 1831 4219 
Q 1534 4219 1204 4116 
Q 875 4013 500 3803 
L 500 4441 
Q 881 4594 1212 4672 
Q 1544 4750 1819 4750 
Q 2544 4750 2975 4387 
Q 3406 4025 3406 3419 
Q 3406 3131 3298 2873 
Q 3191 2616 2906 2266 
Q 2828 2175 2409 1742 
Q 1991 1309 1228 531 
z
" transform="scale(0.015625)"/>
      <path id="DejaVuSans-30" d="M 2034 4250 
Q 1547 4250 1301 3770 
Q 1056 3291 1056 2328 
Q 1056 1369 1301 889 
Q 1547 409 2034 409 
Q 2525 409 2770 889 
Q 3016 1369 3016 2328 
Q 3016 3291 2770 3770 
Q 2525 4250 2034 4250 
z
M 2034 4750 
Q 2819 4750 3233 4129 
Q 3647 3509 3647 2328 
Q 3647 1150 3233 529 
Q 2819 -91 2034 -91 
Q 1250 -91 836 529 
Q 422 1150 422 2328 
Q 422 3509 836 4129 
Q 1250 4750 2034 4750 
z
" transform="scale(0.015625)"/>
      <path id="DejaVuSans-31" d="M 794 531 
L 1825 531 
L 1825 4091 
L 703 3866 
L 703 4441 
L 1819 4666 
L 2450 4666 
L 2450 531 
L 3481 531 
L 3481 0 
L 794 0 
L 794 531 
z
" transform="scale(0.015625)"/>
      <path id="DejaVuSans-36" d="M 2113 2584 
Q 1688 2584 1439 2293 
Q 1191 2003 1191 1497 
Q 1191 994 1439 701 
Q 1688 409 2113 409 
Q 2538 409 2786 701 
Q 3034 994 3034 1497 
Q 3034 2003 2786 2293 
Q 2538 2584 2113 2584 
z
M 3366 4563 
L 3366 3988 
Q 3128 4100 2886 4159 
Q 2644 4219 2406 4219 
Q 1781 4219 1451 3797 
Q 1122 3375 1075 2522 
Q 1259 2794 1537 2939 
Q 1816 3084 2150 3084 
Q 2853 3084 3261 2657 
Q 3669 2231 3669 1497 
Q 3669 778 3244 343 
Q 2819 -91 2113 -91 
Q 1303 -91 875 529 
Q 447 1150 447 2328 
Q 447 3434 972 4092 
Q 1497 4750 2381 4750 
Q 2619 4750 2861 4703 
Q 3103 4656 3366 4563 
z
" transform="scale(0.015625)"/>
      <path id="DejaVuSans-2d" d="M 313 2009 
L 1997 2009 
L 1997 1497 
L 313 1497 
L 313 2009 
z
" transform="scale(0.015625)"/>
      <path id="DejaVuSans-37" d="M 525 4666 
L 3525 4666 
L 3525 4397 
L 1831 0 
L 1172 0 
L 2766 4134 
L 525 4134 
L 525 4666 
z
" transform="scale(0.015625)"/>
      <path id="DejaVuSans-6d" d="M 3328 2828 
Q 3544 3216 3844 3400 
Q 4144 3584 4550 3584 
Q 5097 3584 5394 3201 
Q 5691 2819 5691 2113 
L 5691 0 
L 5113 0 
L 5113 2094 
Q 5113 2597 4934 2840 
Q 4756 3084 4391 3084 
Q 3944 3084 3684 2787 
Q 3425 2491 3425 1978 
L 3425 0 
L 2847 0 
L 2847 2094 
Q 2847 2600 2669 2842 
Q 2491 3084 2119 3084 
Q 1678 3084 1418 2786 
Q 1159 2488 1159 1978 
L 1159 0 
L 581 0 
L 581 3500 
L 1159 3500 
L 1159 2956 
Q 1356 3278 1631 3431 
Q 1906 3584 2284 3584 
Q 2666 3584 2933 3390 
Q 3200 3197 3328 2828 
z
" transform="scale(0.015625)"/>
      <path id="DejaVuSans-7a" d="M 353 3500 
L 3084 3500 
L 3084 2975 
L 922 459 
L 3084 459 
L 3084 0 
L 275 0 
L 275 525 
L 2438 3041 
L 353 3041 
L 353 3500 
z
" transform="scale(0.015625)"/>
      <path id="DejaVuSans-4e" d="M 628 4666 
L 1478 4666 
L 3547 763 
L 3547 4666 
L 4159 4666 
L 4159 0 
L 3309 0 
L 1241 3903 
L 1241 0 
L 628 0 
L 628 4666 
z
" transform="scale(0.015625)"/>
      <path id="DejaVuSans-6b" d="M 581 4863 
L 1159 4863 
L 1159 1991 
L 2875 3500 
L 3609 3500 
L 1753 1863 
L 3688 0 
L 2938 0 
L 1159 1709 
L 1159 0 
L 581 0 
L 581 4863 
z
" transform="scale(0.015625)"/>
     </defs>
     <use xlink:href="#DejaVuSans-32"/>
     <use xlink:href="#DejaVuSans-30" x="63.623047"/>
     <use xlink:href="#DejaVuSans-31" x="127.246094"/>
     <use xlink:href="#DejaVuSans-36" x="190.869141"/>
     <use xlink:href="#DejaVuSans-2d" x="254.492188"/>
     <use xlink:href="#DejaVuSans-31" x="290.576172"/>
     <use xlink:href="#DejaVuSans-37" x="354.199219"/>
     <use xlink:href="#DejaVuSans-20" x="417.822266"/>
     <use xlink:href="#DejaVuSans-4d" x="449.609375"/>
     <use xlink:href="#DejaVuSans-65" x="535.888672"/>
     <use xlink:href="#DejaVuSans-6d" x="597.412109"/>
     <use xlink:href="#DejaVuSans-70" x="694.824219"/>
     <use xlink:href="#DejaVuSans-68" x="758.300781"/>
     <use xlink:href="#DejaVuSans-69" x="821.679688"/>
     <use xlink:href="#DejaVuSans-73" x="849.462891"/>
     <use xlink:href="#DejaVuSans-20" x="901.5625"/>
     <use xlink:href="#DejaVuSans-47" x="933.349609"/>
     <use xlink:href="#DejaVuSans-72" x="1010.839844"/>
     <use xlink:href="#DejaVuSans-69" x="1051.953125"/>
     <use xlink:href="#DejaVuSans-7a" x="1079.736328"/>
     <use xlink:href="#DejaVuSans-7a" x="1132.226562"/>
     <use xlink:href="#DejaVuSans-6c" x="1184.716797"/>
     <use xlink:href="#DejaVuSans-69" x="1212.5"/>
     <use xlink:href="#DejaVuSans-65" x="1240.283203"/>
     <use xlink:href="#DejaVuSans-73" x="1301.806641"/>
     <use xlink:href="#DejaVuSans-20" x="1353.90625"/>
     <use xlink:href="#DejaVuSans-41" x="1385.693359"/>
     <use xlink:href="#DejaVuSans-73" x="1454.101562"/>
     <use xlink:href="#DejaVuSans-73" x="1506.201172"/>
     <use xlink:href="#DejaVuSans-69" x="1558.300781"/>
     <use xlink:href="#DejaVuSans-73" x="1586.083984"/>
     <use xlink:href="#DejaVuSans-74" x="1638.183594"/>
     <use xlink:href="#DejaVuSans-20" x="1677.392578"/>
     <use xlink:href="#DejaVuSans-4e" x="1709.179688"/>
     <use xlink:href="#DejaVuSans-65" x="1783.984375"/>
     <use xlink:href="#DejaVuSans-74" x="1845.507812"/>
     <use xlink:href="#DejaVuSans-77" x="1884.716797"/>
     <use xlink:href="#DejaVuSans-6f" x="1966.503906"/>
     <use xlink:href="#DejaVuSans-72" x="2027.685547"/>
     <use xlink:href="#DejaVuSans-6b" x="2068.798828"/>
    </g>
   </g>
  </g>
 </g>
 <defs>
  <clipPath id="p9932c63e03">
   <rect x="7.2" y="22.318125" width="576" height="576"/>
  </clipPath>
 </defs>
</svg>
