<?xml version="1.0" encoding="utf-8" standalone="no"?>
<!DOCTYPE svg PUBLIC "-//W3C//DTD SVG 1.1//EN"
  "http://www.w3.org/Graphics/SVG/1.1/DTD/svg11.dtd">
<svg xmlns:xlink="http://www.w3.org/1999/xlink" width="590.4pt" height="605.518125pt" viewBox="0 0 590.4 605.518125" xmlns="http://www.w3.org/2000/svg" version="1.1">
 <metadata>
  <rdf:RDF xmlns:dc="http://purl.org/dc/elements/1.1/" xmlns:cc="http://creativecommons.org/ns#" xmlns:rdf="http://www.w3.org/1999/02/22-rdf-syntax-ns#">
   <cc:Work>
    <dc:type rdf:resource="http://purl.org/dc/dcmitype/StillImage"/>
    <dc:date>2023-04-14T16:45:03.520802</dc:date>
    <dc:format>image/svg+xml</dc:format>
    <dc:creator>
     <cc:Agent>
      <dc:title>Matplotlib v3.5.2, https://matplotlib.org/</dc:title>
     </cc:Agent>
    </dc:creator>
   </cc:Work>
  </rdf:RDF>
 </metadata>
 <defs>
  <style type="text/css">*{stroke-linejoin: round; stroke-linecap: butt}</style>
 </defs>
 <g id="figure_1">
  <g id="patch_1">
   <path d="M 0 605.518125 
L 590.4 605.518125 
L 590.4 0 
L 0 0 
z
" style="fill: #ffffff"/>
  </g>
  <g id="axes_1">
   <g id="LineCollection_1">
    <path d="M 533.216529 310.318125 
L 494.651158 180.313424 
" clip-path="url(#p95d9c40a64)" style="fill: none; stroke: #dadada; stroke-width: 2"/>
    <path d="M 533.216529 310.318125 
L 391.199308 91.584285 
" clip-path="url(#p95d9c40a64)" style="fill: none; stroke: #cccccc; stroke-width: 2"/>
    <path d="M 533.216529 310.318125 
L 255.706158 72.301596 
" clip-path="url(#p95d9c40a64)" style="fill: none; stroke: #ececec; stroke-width: 2"/>
    <path d="M 533.216529 310.318125 
L 131.189885 128.587461 
" clip-path="url(#p95d9c40a64)" style="fill: none; stroke: #c7c7c7; stroke-width: 2"/>
    <path d="M 533.216529 310.318125 
L 57.183471 242.571549 
" clip-path="url(#p95d9c40a64)" style="fill: none; stroke: #8f8f8f; stroke-width: 2"/>
    <path d="M 533.216529 310.318125 
L 57.183471 378.064694 
" clip-path="url(#p95d9c40a64)" style="fill: none; stroke: #b0b0b0; stroke-width: 2"/>
    <path d="M 533.216529 310.318125 
L 131.18987 492.048775 
" clip-path="url(#p95d9c40a64)" style="fill: none; stroke: #c5c5c5; stroke-width: 2"/>
    <path d="M 533.216529 310.318125 
L 255.706114 548.334654 
" clip-path="url(#p95d9c40a64)" style="fill: none; stroke: #dadada; stroke-width: 2"/>
    <path d="M 533.216529 310.318125 
L 391.199315 529.051965 
" clip-path="url(#p95d9c40a64)" style="fill: none; stroke: #a5a5a5; stroke-width: 2"/>
    <path d="M 533.216529 310.318125 
L 494.651144 440.322855 
" clip-path="url(#p95d9c40a64)" style="fill: none; stroke: #7d7d7d; stroke-width: 2"/>
    <path d="M 494.651158 180.313424 
L 391.199308 91.584285 
" clip-path="url(#p95d9c40a64)" style="fill: none; stroke: #ececec; stroke-width: 2"/>
    <path d="M 494.651158 180.313424 
L 255.706158 72.301596 
" clip-path="url(#p95d9c40a64)" style="fill: none; stroke: #eaeaea; stroke-width: 2"/>
    <path d="M 494.651158 180.313424 
L 131.189885 128.587461 
" clip-path="url(#p95d9c40a64)" style="fill: none; stroke: #f3f3f3; stroke-width: 2"/>
    <path d="M 494.651158 180.313424 
L 57.183471 242.571549 
" clip-path="url(#p95d9c40a64)" style="fill: none; stroke: #f7f7f7; stroke-width: 2"/>
    <path d="M 494.651158 180.313424 
L 57.183471 378.064694 
" clip-path="url(#p95d9c40a64)" style="fill: none; stroke: #d7d7d7; stroke-width: 2"/>
    <path d="M 494.651158 180.313424 
L 131.18987 492.048775 
" clip-path="url(#p95d9c40a64)" style="fill: none; stroke: #e5e5e5; stroke-width: 2"/>
    <path d="M 494.651158 180.313424 
L 255.706114 548.334654 
" clip-path="url(#p95d9c40a64)" style="fill: none; stroke: #fefefe; stroke-width: 2"/>
    <path d="M 494.651158 180.313424 
L 391.199315 529.051965 
" clip-path="url(#p95d9c40a64)" style="fill: none; stroke: #d9d9d9; stroke-width: 2"/>
    <path d="M 494.651158 180.313424 
L 494.651144 440.322855 
" clip-path="url(#p95d9c40a64)" style="fill: none; stroke: #f5f5f5; stroke-width: 2"/>
    <path d="M 391.199308 91.584285 
L 255.706158 72.301596 
" clip-path="url(#p95d9c40a64)" style="fill: none; stroke: #f8f8f8; stroke-width: 2"/>
    <path d="M 391.199308 91.584285 
L 131.189885 128.587461 
" clip-path="url(#p95d9c40a64)" style="fill: none; stroke: #cccccc; stroke-width: 2"/>
    <path d="M 391.199308 91.584285 
L 57.183471 242.571549 
" clip-path="url(#p95d9c40a64)" style="fill: none; stroke: #dedede; stroke-width: 2"/>
    <path d="M 391.199308 91.584285 
L 57.183471 378.064694 
" clip-path="url(#p95d9c40a64)" style="fill: none; stroke: #e5e5e5; stroke-width: 2"/>
    <path d="M 391.199308 91.584285 
L 131.18987 492.048775 
" clip-path="url(#p95d9c40a64)" style="fill: none; stroke: #cecece; stroke-width: 2"/>
    <path d="M 391.199308 91.584285 
L 255.706114 548.334654 
" clip-path="url(#p95d9c40a64)" style="fill: none; stroke: #eaeaea; stroke-width: 2"/>
    <path d="M 391.199308 91.584285 
L 391.199315 529.051965 
" clip-path="url(#p95d9c40a64)" style="fill: none; stroke: #b5b5b5; stroke-width: 2"/>
    <path d="M 391.199308 91.584285 
L 494.651144 440.322855 
" clip-path="url(#p95d9c40a64)" style="fill: none; stroke: #8d8d8d; stroke-width: 2"/>
    <path d="M 255.706158 72.301596 
L 131.189885 128.587461 
" clip-path="url(#p95d9c40a64)" style="fill: none; stroke: #f3f3f3; stroke-width: 2"/>
    <path d="M 255.706158 72.301596 
L 57.183471 242.571549 
" clip-path="url(#p95d9c40a64)" style="fill: none; stroke: #e0e0e0; stroke-width: 2"/>
    <path d="M 255.706158 72.301596 
L 57.183471 378.064694 
" clip-path="url(#p95d9c40a64)" style="fill: none; stroke: #d5d5d5; stroke-width: 2"/>
    <path d="M 255.706158 72.301596 
L 131.18987 492.048775 
" clip-path="url(#p95d9c40a64)" style="fill: none; stroke: #d7d7d7; stroke-width: 2"/>
    <path d="M 255.706158 72.301596 
L 255.706114 548.334654 
" clip-path="url(#p95d9c40a64)" style="fill: none; stroke: #ffffff; stroke-width: 2"/>
    <path d="M 255.706158 72.301596 
L 391.199315 529.051965 
" clip-path="url(#p95d9c40a64)" style="fill: none; stroke: #fafafa; stroke-width: 2"/>
    <path d="M 255.706158 72.301596 
L 494.651144 440.322855 
" clip-path="url(#p95d9c40a64)" style="fill: none; stroke: #eaeaea; stroke-width: 2"/>
    <path d="M 131.189885 128.587461 
L 57.183471 242.571549 
" clip-path="url(#p95d9c40a64)" style="fill: none; stroke: #cccccc; stroke-width: 2"/>
    <path d="M 131.189885 128.587461 
L 57.183471 378.064694 
" clip-path="url(#p95d9c40a64)" style="fill: none; stroke: #d5d5d5; stroke-width: 2"/>
    <path d="M 131.189885 128.587461 
L 131.18987 492.048775 
" clip-path="url(#p95d9c40a64)" style="fill: none; stroke: #cccccc; stroke-width: 2"/>
    <path d="M 131.189885 128.587461 
L 255.706114 548.334654 
" clip-path="url(#p95d9c40a64)" style="fill: none; stroke: #dadada; stroke-width: 2"/>
    <path d="M 131.189885 128.587461 
L 391.199315 529.051965 
" clip-path="url(#p95d9c40a64)" style="fill: none; stroke: #a5a5a5; stroke-width: 2"/>
    <path d="M 131.189885 128.587461 
L 494.651144 440.322855 
" clip-path="url(#p95d9c40a64)" style="fill: none; stroke: #707070; stroke-width: 2"/>
    <path d="M 57.183471 242.571549 
L 57.183471 378.064694 
" clip-path="url(#p95d9c40a64)" style="fill: none; stroke: #969696; stroke-width: 2"/>
    <path d="M 57.183471 242.571549 
L 131.18987 492.048775 
" clip-path="url(#p95d9c40a64)" style="fill: none; stroke: #909090; stroke-width: 2"/>
    <path d="M 57.183471 242.571549 
L 255.706114 548.334654 
" clip-path="url(#p95d9c40a64)" style="fill: none; stroke: #bcbcbc; stroke-width: 2"/>
    <path d="M 57.183471 242.571549 
L 391.199315 529.051965 
" clip-path="url(#p95d9c40a64)" style="fill: none; stroke: #828282; stroke-width: 2"/>
    <path d="M 57.183471 242.571549 
L 494.651144 440.322855 
" clip-path="url(#p95d9c40a64)" style="fill: none; stroke: #b2b2b2; stroke-width: 2"/>
    <path d="M 57.183471 378.064694 
L 131.18987 492.048775 
" clip-path="url(#p95d9c40a64)" style="fill: none; stroke: #949494; stroke-width: 2"/>
    <path d="M 57.183471 378.064694 
L 255.706114 548.334654 
" clip-path="url(#p95d9c40a64)" style="fill: none; stroke: #dadada; stroke-width: 2"/>
    <path d="M 57.183471 378.064694 
L 391.199315 529.051965 
" clip-path="url(#p95d9c40a64)" style="fill: none; stroke: #878787; stroke-width: 2"/>
    <path d="M 57.183471 378.064694 
L 494.651144 440.322855 
" clip-path="url(#p95d9c40a64)" style="fill: none; stroke: #a9a9a9; stroke-width: 2"/>
    <path d="M 131.18987 492.048775 
L 255.706114 548.334654 
" clip-path="url(#p95d9c40a64)" style="fill: none; stroke: #ececec; stroke-width: 2"/>
    <path d="M 131.18987 492.048775 
L 391.199315 529.051965 
" clip-path="url(#p95d9c40a64)" style="fill: none; stroke: #f1f1f1; stroke-width: 2"/>
    <path d="M 131.18987 492.048775 
L 494.651144 440.322855 
" clip-path="url(#p95d9c40a64)" style="fill: none; stroke: #f7f7f7; stroke-width: 2"/>
    <path d="M 255.706114 548.334654 
L 391.199315 529.051965 
" clip-path="url(#p95d9c40a64)" style="fill: none; stroke: #c3c3c3; stroke-width: 2"/>
    <path d="M 255.706114 548.334654 
L 494.651144 440.322855 
" clip-path="url(#p95d9c40a64)" style="fill: none; stroke: #c0c0c0; stroke-width: 2"/>
    <path d="M 391.199315 529.051965 
L 494.651144 440.322855 
" clip-path="url(#p95d9c40a64)" style="fill: none; stroke: #000000; stroke-width: 2"/>
   </g>
   <g id="PathCollection_1">
    <path d="M 533.216529 317.494475 
C 535.119719 317.494475 536.945216 316.73833 538.290975 315.392571 
C 539.636733 314.046812 540.392879 312.221315 540.392879 310.318125 
C 540.392879 308.414935 539.636733 306.589438 538.290975 305.243679 
C 536.945216 303.89792 535.119719 303.141775 533.216529 303.141775 
C 531.313339 303.141775 529.487842 303.89792 528.142083 305.243679 
C 526.796324 306.589438 526.040179 308.414935 526.040179 310.318125 
C 526.040179 312.221315 526.796324 314.046812 528.142083 315.392571 
C 529.487842 316.73833 531.313339 317.494475 533.216529 317.494475 
z
" clip-path="url(#p95d9c40a64)" style="fill: #ffffff; stroke: #000000; stroke-width: 2"/>
    <path d="M 494.651158 185.030414 
C 495.902119 185.030414 497.102012 184.533402 497.986574 183.64884 
C 498.871137 182.764277 499.368149 181.564384 499.368149 180.313424 
C 499.368149 179.062463 498.871137 177.86257 497.986574 176.978008 
C 497.102012 176.093445 495.902119 175.596433 494.651158 175.596433 
C 493.400198 175.596433 492.200305 176.093445 491.315742 176.978008 
C 490.43118 177.86257 489.934168 179.062463 489.934168 180.313424 
C 489.934168 181.564384 490.43118 182.764277 491.315742 183.64884 
C 492.200305 184.533402 493.400198 185.030414 494.651158 185.030414 
z
" clip-path="url(#p95d9c40a64)" style="fill: #ffffff; stroke: #000000; stroke-width: 2"/>
    <path d="M 391.199308 96.431965 
C 392.484928 96.431965 393.718065 95.921182 394.627135 95.012112 
C 395.536206 94.103042 396.046988 92.869904 396.046988 91.584285 
C 396.046988 90.298665 395.536206 89.065528 394.627135 88.156457 
C 393.718065 87.247387 392.484928 86.736605 391.199308 86.736605 
C 389.913688 86.736605 388.680551 87.247387 387.771481 88.156457 
C 386.86241 89.065528 386.351628 90.298665 386.351628 91.584285 
C 386.351628 92.869904 386.86241 94.103042 387.771481 95.012112 
C 388.680551 95.921182 389.913688 96.431965 391.199308 96.431965 
z
" clip-path="url(#p95d9c40a64)" style="fill: #ffffff; stroke: #000000; stroke-width: 2"/>
    <path d="M 255.706158 75.83713 
C 256.643792 75.83713 257.54315 75.464604 258.206158 74.801596 
C 258.869166 74.138588 259.241692 73.239231 259.241692 72.301596 
C 259.241692 71.363962 258.869166 70.464604 258.206158 69.801596 
C 257.54315 69.138588 256.643792 68.766062 255.706158 68.766062 
C 254.768523 68.766062 253.869166 69.138588 253.206158 69.801596 
C 252.54315 70.464604 252.170624 71.363962 252.170624 72.301596 
C 252.170624 73.239231 252.54315 74.138588 253.206158 74.801596 
C 253.869166 75.464604 254.768523 75.83713 255.706158 75.83713 
z
" clip-path="url(#p95d9c40a64)" style="fill: #ffffff; stroke: #000000; stroke-width: 2"/>
    <path d="M 131.189885 134.199947 
C 132.678333 134.199947 134.10602 133.60858 135.158512 132.556088 
C 136.211004 131.503596 136.802371 130.075909 136.802371 128.587461 
C 136.802371 127.099012 136.211004 125.671326 135.158512 124.618834 
C 134.10602 123.566342 132.678333 122.974975 131.189885 122.974975 
C 129.701436 122.974975 128.27375 123.566342 127.221258 124.618834 
C 126.168766 125.671326 125.577399 127.099012 125.577399 128.587461 
C 125.577399 130.075909 126.168766 131.503596 127.221258 132.556088 
C 128.27375 133.60858 129.701436 134.199947 131.189885 134.199947 
z
" clip-path="url(#p95d9c40a64)" style="fill: #ffffff; stroke: #000000; stroke-width: 2"/>
    <path d="M 57.183471 250.832905 
C 59.374408 250.832905 61.475905 249.962436 63.025132 248.41321 
C 64.574358 246.863983 65.444827 244.762486 65.444827 242.571549 
C 65.444827 240.380612 64.574358 238.279115 63.025132 236.729888 
C 61.475905 235.180662 59.374408 234.310193 57.183471 234.310193 
C 54.992534 234.310193 52.891037 235.180662 51.34181 236.729888 
C 49.792584 238.279115 48.922115 240.380612 48.922115 242.571549 
C 48.922115 244.762486 49.792584 246.863983 51.34181 248.41321 
C 52.891037 249.962436 54.992534 250.832905 57.183471 250.832905 
z
" clip-path="url(#p95d9c40a64)" style="fill: #ffffff; stroke: #000000; stroke-width: 2"/>
    <path d="M 57.183471 384.188418 
C 58.807502 384.188418 60.365235 383.543184 61.513598 382.394821 
C 62.661961 381.246458 63.307195 379.688724 63.307195 378.064694 
C 63.307195 376.440663 62.661961 374.88293 61.513598 373.734567 
C 60.365235 372.586204 58.807502 371.940969 57.183471 371.940969 
C 55.55944 371.940969 54.001707 372.586204 52.853344 373.734567 
C 51.704981 374.88293 51.059747 376.440663 51.059747 378.064694 
C 51.059747 379.688724 51.704981 381.246458 52.853344 382.394821 
C 54.001707 383.543184 55.55944 384.188418 57.183471 384.188418 
z
" clip-path="url(#p95d9c40a64)" style="fill: #ffffff; stroke: #000000; stroke-width: 2"/>
    <path d="M 131.18987 497.771537 
C 132.707564 497.771537 134.163302 497.16855 135.236474 496.095378 
C 136.309646 495.022207 136.912632 493.566469 136.912632 492.048775 
C 136.912632 490.531081 136.309646 489.075343 135.236474 488.002171 
C 134.163302 486.929 132.707564 486.326013 131.18987 486.326013 
C 129.672176 486.326013 128.216439 486.929 127.143267 488.002171 
C 126.070095 489.075343 125.467109 490.531081 125.467109 492.048775 
C 125.467109 493.566469 126.070095 495.022207 127.143267 496.095378 
C 128.216439 497.16855 129.672176 497.771537 131.18987 497.771537 
z
" clip-path="url(#p95d9c40a64)" style="fill: #ffffff; stroke: #000000; stroke-width: 2"/>
    <path d="M 255.706114 553.02507 
C 256.950027 553.02507 258.14316 552.530858 259.022739 551.651279 
C 259.902318 550.7717 260.39653 549.578567 260.39653 548.334654 
C 260.39653 547.090741 259.902318 545.897608 259.022739 545.018029 
C 258.14316 544.13845 256.950027 543.644238 255.706114 543.644238 
C 254.462202 543.644238 253.269069 544.13845 252.38949 545.018029 
C 251.50991 545.897608 251.015699 547.090741 251.015699 548.334654 
C 251.015699 549.578567 251.50991 550.7717 252.38949 551.651279 
C 253.269069 552.530858 254.462202 553.02507 255.706114 553.02507 
z
" clip-path="url(#p95d9c40a64)" style="fill: #ffffff; stroke: #000000; stroke-width: 2"/>
    <path d="M 391.199315 536.383404 
C 393.143636 536.383404 395.008583 535.610918 396.383425 534.236076 
C 397.758268 532.861234 398.530754 530.996286 398.530754 529.051965 
C 398.530754 527.107645 397.758268 525.242697 396.383425 523.867855 
C 395.008583 522.493013 393.143636 521.720526 391.199315 521.720526 
C 389.254995 521.720526 387.390047 522.493013 386.015205 523.867855 
C 384.640363 525.242697 383.867876 527.107645 383.867876 529.051965 
C 383.867876 530.996286 384.640363 532.861234 386.015205 534.236076 
C 387.390047 535.610918 389.254995 536.383404 391.199315 536.383404 
z
" clip-path="url(#p95d9c40a64)" style="fill: #ffffff; stroke: #000000; stroke-width: 2"/>
    <path d="M 494.651144 449.888418 
C 497.187961 449.888418 499.621218 448.88053 501.415019 447.08673 
C 503.208819 445.292929 504.216707 442.859672 504.216707 440.322855 
C 504.216707 437.786038 503.208819 435.352781 501.415019 433.55898 
C 499.621218 431.76518 497.187961 430.757292 494.651144 430.757292 
C 492.114327 430.757292 489.68107 431.76518 487.887269 433.55898 
C 486.093469 435.352781 485.085581 437.786038 485.085581 440.322855 
C 485.085581 442.859672 486.093469 445.292929 487.887269 447.08673 
C 489.68107 448.88053 492.114327 449.888418 494.651144 449.888418 
z
" clip-path="url(#p95d9c40a64)" style="fill: #ffffff; stroke: #000000; stroke-width: 2"/>
   </g>
   <g id="text_1">
    <g clip-path="url(#p95d9c40a64)">
     <!-- B.Diaw -->
     <g transform="translate(541.474889 284.773682)scale(0.12 -0.12)">
      <defs>
       <path id="DejaVuSans-42" d="M 1259 2228 
L 1259 519 
L 2272 519 
Q 2781 519 3026 730 
Q 3272 941 3272 1375 
Q 3272 1813 3026 2020 
Q 2781 2228 2272 2228 
L 1259 2228 
z
M 1259 4147 
L 1259 2741 
L 2194 2741 
Q 2656 2741 2882 2914 
Q 3109 3088 3109 3444 
Q 3109 3797 2882 3972 
Q 2656 4147 2194 4147 
L 1259 4147 
z
M 628 4666 
L 2241 4666 
Q 2963 4666 3353 4366 
Q 3744 4066 3744 3513 
Q 3744 3084 3544 2831 
Q 3344 2578 2956 2516 
Q 3422 2416 3680 2098 
Q 3938 1781 3938 1306 
Q 3938 681 3513 340 
Q 3088 0 2303 0 
L 628 0 
L 628 4666 
z
" transform="scale(0.015625)"/>
       <path id="DejaVuSans-2e" d="M 684 794 
L 1344 794 
L 1344 0 
L 684 0 
L 684 794 
z
" transform="scale(0.015625)"/>
       <path id="DejaVuSans-44" d="M 1259 4147 
L 1259 519 
L 2022 519 
Q 2988 519 3436 956 
Q 3884 1394 3884 2338 
Q 3884 3275 3436 3711 
Q 2988 4147 2022 4147 
L 1259 4147 
z
M 628 4666 
L 1925 4666 
Q 3281 4666 3915 4102 
Q 4550 3538 4550 2338 
Q 4550 1131 3912 565 
Q 3275 0 1925 0 
L 628 0 
L 628 4666 
z
" transform="scale(0.015625)"/>
       <path id="DejaVuSans-69" d="M 603 3500 
L 1178 3500 
L 1178 0 
L 603 0 
L 603 3500 
z
M 603 4863 
L 1178 4863 
L 1178 4134 
L 603 4134 
L 603 4863 
z
" transform="scale(0.015625)"/>
       <path id="DejaVuSans-61" d="M 2194 1759 
Q 1497 1759 1228 1600 
Q 959 1441 959 1056 
Q 959 750 1161 570 
Q 1363 391 1709 391 
Q 2188 391 2477 730 
Q 2766 1069 2766 1631 
L 2766 1759 
L 2194 1759 
z
M 3341 1997 
L 3341 0 
L 2766 0 
L 2766 531 
Q 2569 213 2275 61 
Q 1981 -91 1556 -91 
Q 1019 -91 701 211 
Q 384 513 384 1019 
Q 384 1609 779 1909 
Q 1175 2209 1959 2209 
L 2766 2209 
L 2766 2266 
Q 2766 2663 2505 2880 
Q 2244 3097 1772 3097 
Q 1472 3097 1187 3025 
Q 903 2953 641 2809 
L 641 3341 
Q 956 3463 1253 3523 
Q 1550 3584 1831 3584 
Q 2591 3584 2966 3190 
Q 3341 2797 3341 1997 
z
" transform="scale(0.015625)"/>
       <path id="DejaVuSans-77" d="M 269 3500 
L 844 3500 
L 1563 769 
L 2278 3500 
L 2956 3500 
L 3675 769 
L 4391 3500 
L 4966 3500 
L 4050 0 
L 3372 0 
L 2619 2869 
L 1863 0 
L 1184 0 
L 269 3500 
z
" transform="scale(0.015625)"/>
      </defs>
      <use xlink:href="#DejaVuSans-42"/>
      <use xlink:href="#DejaVuSans-2e" x="68.603516"/>
      <use xlink:href="#DejaVuSans-44" x="100.390625"/>
      <use xlink:href="#DejaVuSans-69" x="177.392578"/>
      <use xlink:href="#DejaVuSans-61" x="205.175781"/>
      <use xlink:href="#DejaVuSans-77" x="266.455078"/>
     </g>
    </g>
   </g>
   <g id="text_2">
    <g clip-path="url(#p95d9c40a64)">
     <!-- C.Joseph -->
     <g transform="translate(497.836706 154.768981)scale(0.12 -0.12)">
      <defs>
       <path id="DejaVuSans-43" d="M 4122 4306 
L 4122 3641 
Q 3803 3938 3442 4084 
Q 3081 4231 2675 4231 
Q 1875 4231 1450 3742 
Q 1025 3253 1025 2328 
Q 1025 1406 1450 917 
Q 1875 428 2675 428 
Q 3081 428 3442 575 
Q 3803 722 4122 1019 
L 4122 359 
Q 3791 134 3420 21 
Q 3050 -91 2638 -91 
Q 1578 -91 968 557 
Q 359 1206 359 2328 
Q 359 3453 968 4101 
Q 1578 4750 2638 4750 
Q 3056 4750 3426 4639 
Q 3797 4528 4122 4306 
z
" transform="scale(0.015625)"/>
       <path id="DejaVuSans-4a" d="M 628 4666 
L 1259 4666 
L 1259 325 
Q 1259 -519 939 -900 
Q 619 -1281 -91 -1281 
L -331 -1281 
L -331 -750 
L -134 -750 
Q 284 -750 456 -515 
Q 628 -281 628 325 
L 628 4666 
z
" transform="scale(0.015625)"/>
       <path id="DejaVuSans-6f" d="M 1959 3097 
Q 1497 3097 1228 2736 
Q 959 2375 959 1747 
Q 959 1119 1226 758 
Q 1494 397 1959 397 
Q 2419 397 2687 759 
Q 2956 1122 2956 1747 
Q 2956 2369 2687 2733 
Q 2419 3097 1959 3097 
z
M 1959 3584 
Q 2709 3584 3137 3096 
Q 3566 2609 3566 1747 
Q 3566 888 3137 398 
Q 2709 -91 1959 -91 
Q 1206 -91 779 398 
Q 353 888 353 1747 
Q 353 2609 779 3096 
Q 1206 3584 1959 3584 
z
" transform="scale(0.015625)"/>
       <path id="DejaVuSans-73" d="M 2834 3397 
L 2834 2853 
Q 2591 2978 2328 3040 
Q 2066 3103 1784 3103 
Q 1356 3103 1142 2972 
Q 928 2841 928 2578 
Q 928 2378 1081 2264 
Q 1234 2150 1697 2047 
L 1894 2003 
Q 2506 1872 2764 1633 
Q 3022 1394 3022 966 
Q 3022 478 2636 193 
Q 2250 -91 1575 -91 
Q 1294 -91 989 -36 
Q 684 19 347 128 
L 347 722 
Q 666 556 975 473 
Q 1284 391 1588 391 
Q 1994 391 2212 530 
Q 2431 669 2431 922 
Q 2431 1156 2273 1281 
Q 2116 1406 1581 1522 
L 1381 1569 
Q 847 1681 609 1914 
Q 372 2147 372 2553 
Q 372 3047 722 3315 
Q 1072 3584 1716 3584 
Q 2034 3584 2315 3537 
Q 2597 3491 2834 3397 
z
" transform="scale(0.015625)"/>
       <path id="DejaVuSans-65" d="M 3597 1894 
L 3597 1613 
L 953 1613 
Q 991 1019 1311 708 
Q 1631 397 2203 397 
Q 2534 397 2845 478 
Q 3156 559 3463 722 
L 3463 178 
Q 3153 47 2828 -22 
Q 2503 -91 2169 -91 
Q 1331 -91 842 396 
Q 353 884 353 1716 
Q 353 2575 817 3079 
Q 1281 3584 2069 3584 
Q 2775 3584 3186 3129 
Q 3597 2675 3597 1894 
z
M 3022 2063 
Q 3016 2534 2758 2815 
Q 2500 3097 2075 3097 
Q 1594 3097 1305 2825 
Q 1016 2553 972 2059 
L 3022 2063 
z
" transform="scale(0.015625)"/>
       <path id="DejaVuSans-70" d="M 1159 525 
L 1159 -1331 
L 581 -1331 
L 581 3500 
L 1159 3500 
L 1159 2969 
Q 1341 3281 1617 3432 
Q 1894 3584 2278 3584 
Q 2916 3584 3314 3078 
Q 3713 2572 3713 1747 
Q 3713 922 3314 415 
Q 2916 -91 2278 -91 
Q 1894 -91 1617 61 
Q 1341 213 1159 525 
z
M 3116 1747 
Q 3116 2381 2855 2742 
Q 2594 3103 2138 3103 
Q 1681 3103 1420 2742 
Q 1159 2381 1159 1747 
Q 1159 1113 1420 752 
Q 1681 391 2138 391 
Q 2594 391 2855 752 
Q 3116 1113 3116 1747 
z
" transform="scale(0.015625)"/>
       <path id="DejaVuSans-68" d="M 3513 2113 
L 3513 0 
L 2938 0 
L 2938 2094 
Q 2938 2591 2744 2837 
Q 2550 3084 2163 3084 
Q 1697 3084 1428 2787 
Q 1159 2491 1159 1978 
L 1159 0 
L 581 0 
L 581 4863 
L 1159 4863 
L 1159 2956 
Q 1366 3272 1645 3428 
Q 1925 3584 2291 3584 
Q 2894 3584 3203 3211 
Q 3513 2838 3513 2113 
z
" transform="scale(0.015625)"/>
      </defs>
      <use xlink:href="#DejaVuSans-43"/>
      <use xlink:href="#DejaVuSans-2e" x="69.824219"/>
      <use xlink:href="#DejaVuSans-4a" x="101.611328"/>
      <use xlink:href="#DejaVuSans-6f" x="131.103516"/>
      <use xlink:href="#DejaVuSans-73" x="192.285156"/>
      <use xlink:href="#DejaVuSans-65" x="244.384766"/>
      <use xlink:href="#DejaVuSans-70" x="305.908203"/>
      <use xlink:href="#DejaVuSans-68" x="369.384766"/>
     </g>
    </g>
   </g>
   <g id="text_3">
    <g clip-path="url(#p95d9c40a64)">
     <!-- D.Green -->
     <g transform="translate(395.65798 66.039841)scale(0.12 -0.12)">
      <defs>
       <path id="DejaVuSans-47" d="M 3809 666 
L 3809 1919 
L 2778 1919 
L 2778 2438 
L 4434 2438 
L 4434 434 
Q 4069 175 3628 42 
Q 3188 -91 2688 -91 
Q 1594 -91 976 548 
Q 359 1188 359 2328 
Q 359 3472 976 4111 
Q 1594 4750 2688 4750 
Q 3144 4750 3555 4637 
Q 3966 4525 4313 4306 
L 4313 3634 
Q 3963 3931 3569 4081 
Q 3175 4231 2741 4231 
Q 1884 4231 1454 3753 
Q 1025 3275 1025 2328 
Q 1025 1384 1454 906 
Q 1884 428 2741 428 
Q 3075 428 3337 486 
Q 3600 544 3809 666 
z
" transform="scale(0.015625)"/>
       <path id="DejaVuSans-72" d="M 2631 2963 
Q 2534 3019 2420 3045 
Q 2306 3072 2169 3072 
Q 1681 3072 1420 2755 
Q 1159 2438 1159 1844 
L 1159 0 
L 581 0 
L 581 3500 
L 1159 3500 
L 1159 2956 
Q 1341 3275 1631 3429 
Q 1922 3584 2338 3584 
Q 2397 3584 2469 3576 
Q 2541 3569 2628 3553 
L 2631 2963 
z
" transform="scale(0.015625)"/>
       <path id="DejaVuSans-6e" d="M 3513 2113 
L 3513 0 
L 2938 0 
L 2938 2094 
Q 2938 2591 2744 2837 
Q 2550 3084 2163 3084 
Q 1697 3084 1428 2787 
Q 1159 2491 1159 1978 
L 1159 0 
L 581 0 
L 581 3500 
L 1159 3500 
L 1159 2956 
Q 1366 3272 1645 3428 
Q 1925 3584 2291 3584 
Q 2894 3584 3203 3211 
Q 3513 2838 3513 2113 
z
" transform="scale(0.015625)"/>
      </defs>
      <use xlink:href="#DejaVuSans-44"/>
      <use xlink:href="#DejaVuSans-2e" x="77.001953"/>
      <use xlink:href="#DejaVuSans-47" x="108.789062"/>
      <use xlink:href="#DejaVuSans-72" x="186.279297"/>
      <use xlink:href="#DejaVuSans-65" x="225.142578"/>
      <use xlink:href="#DejaVuSans-65" x="286.666016"/>
      <use xlink:href="#DejaVuSans-6e" x="348.189453"/>
     </g>
    </g>
   </g>
   <g id="text_4">
    <g clip-path="url(#p95d9c40a64)">
     <!-- J.Ayres -->
     <g transform="translate(206.477173 46.757153)scale(0.12 -0.12)">
      <defs>
       <path id="DejaVuSans-41" d="M 2188 4044 
L 1331 1722 
L 3047 1722 
L 2188 4044 
z
M 1831 4666 
L 2547 4666 
L 4325 0 
L 3669 0 
L 3244 1197 
L 1141 1197 
L 716 0 
L 50 0 
L 1831 4666 
z
" transform="scale(0.015625)"/>
       <path id="DejaVuSans-79" d="M 2059 -325 
Q 1816 -950 1584 -1140 
Q 1353 -1331 966 -1331 
L 506 -1331 
L 506 -850 
L 844 -850 
Q 1081 -850 1212 -737 
Q 1344 -625 1503 -206 
L 1606 56 
L 191 3500 
L 800 3500 
L 1894 763 
L 2988 3500 
L 3597 3500 
L 2059 -325 
z
" transform="scale(0.015625)"/>
      </defs>
      <use xlink:href="#DejaVuSans-4a"/>
      <use xlink:href="#DejaVuSans-2e" x="29.492188"/>
      <use xlink:href="#DejaVuSans-41" x="61.279297"/>
      <use xlink:href="#DejaVuSans-79" x="122.9375"/>
      <use xlink:href="#DejaVuSans-72" x="182.117188"/>
      <use xlink:href="#DejaVuSans-65" x="220.980469"/>
      <use xlink:href="#DejaVuSans-73" x="282.503906"/>
     </g>
    </g>
   </g>
   <g id="text_5">
    <g clip-path="url(#p95d9c40a64)">
     <!-- K.Leonard -->
     <g transform="translate(71.94465 103.043018)scale(0.12 -0.12)">
      <defs>
       <path id="DejaVuSans-4b" d="M 628 4666 
L 1259 4666 
L 1259 2694 
L 3353 4666 
L 4166 4666 
L 1850 2491 
L 4331 0 
L 3500 0 
L 1259 2247 
L 1259 0 
L 628 0 
L 628 4666 
z
" transform="scale(0.015625)"/>
       <path id="DejaVuSans-4c" d="M 628 4666 
L 1259 4666 
L 1259 531 
L 3531 531 
L 3531 0 
L 628 0 
L 628 4666 
z
" transform="scale(0.015625)"/>
       <path id="DejaVuSans-64" d="M 2906 2969 
L 2906 4863 
L 3481 4863 
L 3481 0 
L 2906 0 
L 2906 525 
Q 2725 213 2448 61 
Q 2172 -91 1784 -91 
Q 1150 -91 751 415 
Q 353 922 353 1747 
Q 353 2572 751 3078 
Q 1150 3584 1784 3584 
Q 2172 3584 2448 3432 
Q 2725 3281 2906 2969 
z
M 947 1747 
Q 947 1113 1208 752 
Q 1469 391 1925 391 
Q 2381 391 2643 752 
Q 2906 1113 2906 1747 
Q 2906 2381 2643 2742 
Q 2381 3103 1925 3103 
Q 1469 3103 1208 2742 
Q 947 2381 947 1747 
z
" transform="scale(0.015625)"/>
      </defs>
      <use xlink:href="#DejaVuSans-4b"/>
      <use xlink:href="#DejaVuSans-2e" x="65.576172"/>
      <use xlink:href="#DejaVuSans-4c" x="97.363281"/>
      <use xlink:href="#DejaVuSans-65" x="151.326172"/>
      <use xlink:href="#DejaVuSans-6f" x="212.849609"/>
      <use xlink:href="#DejaVuSans-6e" x="274.03125"/>
      <use xlink:href="#DejaVuSans-61" x="337.410156"/>
      <use xlink:href="#DejaVuSans-72" x="398.689453"/>
      <use xlink:href="#DejaVuSans-64" x="438.052734"/>
     </g>
    </g>
   </g>
   <g id="text_6">
    <g clip-path="url(#p95d9c40a64)">
     <!-- M.Ginobili -->
     <g transform="translate(-1.652076 217.027106)scale(0.12 -0.12)">
      <defs>
       <path id="DejaVuSans-4d" d="M 628 4666 
L 1569 4666 
L 2759 1491 
L 3956 4666 
L 4897 4666 
L 4897 0 
L 4281 0 
L 4281 4097 
L 3078 897 
L 2444 897 
L 1241 4097 
L 1241 0 
L 628 0 
L 628 4666 
z
" transform="scale(0.015625)"/>
       <path id="DejaVuSans-62" d="M 3116 1747 
Q 3116 2381 2855 2742 
Q 2594 3103 2138 3103 
Q 1681 3103 1420 2742 
Q 1159 2381 1159 1747 
Q 1159 1113 1420 752 
Q 1681 391 2138 391 
Q 2594 391 2855 752 
Q 3116 1113 3116 1747 
z
M 1159 2969 
Q 1341 3281 1617 3432 
Q 1894 3584 2278 3584 
Q 2916 3584 3314 3078 
Q 3713 2572 3713 1747 
Q 3713 922 3314 415 
Q 2916 -91 2278 -91 
Q 1894 -91 1617 61 
Q 1341 213 1159 525 
L 1159 0 
L 581 0 
L 581 4863 
L 1159 4863 
L 1159 2969 
z
" transform="scale(0.015625)"/>
       <path id="DejaVuSans-6c" d="M 603 4863 
L 1178 4863 
L 1178 0 
L 603 0 
L 603 4863 
z
" transform="scale(0.015625)"/>
      </defs>
      <use xlink:href="#DejaVuSans-4d"/>
      <use xlink:href="#DejaVuSans-2e" x="86.279297"/>
      <use xlink:href="#DejaVuSans-47" x="118.066406"/>
      <use xlink:href="#DejaVuSans-69" x="195.556641"/>
      <use xlink:href="#DejaVuSans-6e" x="223.339844"/>
      <use xlink:href="#DejaVuSans-6f" x="286.71875"/>
      <use xlink:href="#DejaVuSans-62" x="347.900391"/>
      <use xlink:href="#DejaVuSans-69" x="411.376953"/>
      <use xlink:href="#DejaVuSans-6c" x="439.160156"/>
      <use xlink:href="#DejaVuSans-69" x="466.943359"/>
     </g>
    </g>
   </g>
   <g id="text_7">
    <g clip-path="url(#p95d9c40a64)">
     <!-- M.Belinelli -->
     <g transform="translate(-2.689889 410.231637)scale(0.12 -0.12)">
      <use xlink:href="#DejaVuSans-4d"/>
      <use xlink:href="#DejaVuSans-2e" x="86.279297"/>
      <use xlink:href="#DejaVuSans-42" x="118.066406"/>
      <use xlink:href="#DejaVuSans-65" x="186.669922"/>
      <use xlink:href="#DejaVuSans-6c" x="248.193359"/>
      <use xlink:href="#DejaVuSans-69" x="275.976562"/>
      <use xlink:href="#DejaVuSans-6e" x="303.759766"/>
      <use xlink:href="#DejaVuSans-65" x="367.138672"/>
      <use xlink:href="#DejaVuSans-6c" x="428.662109"/>
      <use xlink:href="#DejaVuSans-6c" x="456.445312"/>
      <use xlink:href="#DejaVuSans-69" x="484.228516"/>
     </g>
    </g>
   </g>
   <g id="text_8">
    <g clip-path="url(#p95d9c40a64)">
     <!-- P.Mills -->
     <g transform="translate(84.147135 524.215718)scale(0.12 -0.12)">
      <defs>
       <path id="DejaVuSans-50" d="M 1259 4147 
L 1259 2394 
L 2053 2394 
Q 2494 2394 2734 2622 
Q 2975 2850 2975 3272 
Q 2975 3691 2734 3919 
Q 2494 4147 2053 4147 
L 1259 4147 
z
M 628 4666 
L 2053 4666 
Q 2838 4666 3239 4311 
Q 3641 3956 3641 3272 
Q 3641 2581 3239 2228 
Q 2838 1875 2053 1875 
L 1259 1875 
L 1259 0 
L 628 0 
L 628 4666 
z
" transform="scale(0.015625)"/>
      </defs>
      <use xlink:href="#DejaVuSans-50"/>
      <use xlink:href="#DejaVuSans-2e" x="44.677734"/>
      <use xlink:href="#DejaVuSans-4d" x="76.464844"/>
      <use xlink:href="#DejaVuSans-69" x="162.744141"/>
      <use xlink:href="#DejaVuSans-6c" x="190.527344"/>
      <use xlink:href="#DejaVuSans-6c" x="218.310547"/>
      <use xlink:href="#DejaVuSans-73" x="246.09375"/>
     </g>
    </g>
   </g>
   <g id="text_9">
    <g clip-path="url(#p95d9c40a64)">
     <!-- T.Splitter -->
     <g transform="translate(199.879942 580.501597)scale(0.12 -0.12)">
      <defs>
       <path id="DejaVuSans-54" d="M -19 4666 
L 3928 4666 
L 3928 4134 
L 2272 4134 
L 2272 0 
L 1638 0 
L 1638 4134 
L -19 4134 
L -19 4666 
z
" transform="scale(0.015625)"/>
       <path id="DejaVuSans-53" d="M 3425 4513 
L 3425 3897 
Q 3066 4069 2747 4153 
Q 2428 4238 2131 4238 
Q 1616 4238 1336 4038 
Q 1056 3838 1056 3469 
Q 1056 3159 1242 3001 
Q 1428 2844 1947 2747 
L 2328 2669 
Q 3034 2534 3370 2195 
Q 3706 1856 3706 1288 
Q 3706 609 3251 259 
Q 2797 -91 1919 -91 
Q 1588 -91 1214 -16 
Q 841 59 441 206 
L 441 856 
Q 825 641 1194 531 
Q 1563 422 1919 422 
Q 2459 422 2753 634 
Q 3047 847 3047 1241 
Q 3047 1584 2836 1778 
Q 2625 1972 2144 2069 
L 1759 2144 
Q 1053 2284 737 2584 
Q 422 2884 422 3419 
Q 422 4038 858 4394 
Q 1294 4750 2059 4750 
Q 2388 4750 2728 4690 
Q 3069 4631 3425 4513 
z
" transform="scale(0.015625)"/>
       <path id="DejaVuSans-74" d="M 1172 4494 
L 1172 3500 
L 2356 3500 
L 2356 3053 
L 1172 3053 
L 1172 1153 
Q 1172 725 1289 603 
Q 1406 481 1766 481 
L 2356 481 
L 2356 0 
L 1766 0 
Q 1100 0 847 248 
Q 594 497 594 1153 
L 594 3053 
L 172 3053 
L 172 3500 
L 594 3500 
L 594 4494 
L 1172 4494 
z
" transform="scale(0.015625)"/>
      </defs>
      <use xlink:href="#DejaVuSans-54"/>
      <use xlink:href="#DejaVuSans-2e" x="49.208984"/>
      <use xlink:href="#DejaVuSans-53" x="80.996094"/>
      <use xlink:href="#DejaVuSans-70" x="144.472656"/>
      <use xlink:href="#DejaVuSans-6c" x="207.949219"/>
      <use xlink:href="#DejaVuSans-69" x="235.732422"/>
      <use xlink:href="#DejaVuSans-74" x="263.515625"/>
      <use xlink:href="#DejaVuSans-74" x="302.724609"/>
      <use xlink:href="#DejaVuSans-65" x="341.933594"/>
      <use xlink:href="#DejaVuSans-72" x="403.457031"/>
     </g>
    </g>
   </g>
   <g id="text_10">
    <g clip-path="url(#p95d9c40a64)">
     <!-- T.Duncan -->
     <g transform="translate(392.489238 561.218909)scale(0.12 -0.12)">
      <defs>
       <path id="DejaVuSans-75" d="M 544 1381 
L 544 3500 
L 1119 3500 
L 1119 1403 
Q 1119 906 1312 657 
Q 1506 409 1894 409 
Q 2359 409 2629 706 
Q 2900 1003 2900 1516 
L 2900 3500 
L 3475 3500 
L 3475 0 
L 2900 0 
L 2900 538 
Q 2691 219 2414 64 
Q 2138 -91 1772 -91 
Q 1169 -91 856 284 
Q 544 659 544 1381 
z
M 1991 3584 
L 1991 3584 
z
" transform="scale(0.015625)"/>
       <path id="DejaVuSans-63" d="M 3122 3366 
L 3122 2828 
Q 2878 2963 2633 3030 
Q 2388 3097 2138 3097 
Q 1578 3097 1268 2742 
Q 959 2388 959 1747 
Q 959 1106 1268 751 
Q 1578 397 2138 397 
Q 2388 397 2633 464 
Q 2878 531 3122 666 
L 3122 134 
Q 2881 22 2623 -34 
Q 2366 -91 2075 -91 
Q 1284 -91 818 406 
Q 353 903 353 1747 
Q 353 2603 823 3093 
Q 1294 3584 2113 3584 
Q 2378 3584 2631 3529 
Q 2884 3475 3122 3366 
z
" transform="scale(0.015625)"/>
      </defs>
      <use xlink:href="#DejaVuSans-54"/>
      <use xlink:href="#DejaVuSans-2e" x="49.208984"/>
      <use xlink:href="#DejaVuSans-44" x="80.996094"/>
      <use xlink:href="#DejaVuSans-75" x="157.998047"/>
      <use xlink:href="#DejaVuSans-6e" x="221.376953"/>
      <use xlink:href="#DejaVuSans-63" x="284.755859"/>
      <use xlink:href="#DejaVuSans-61" x="339.736328"/>
      <use xlink:href="#DejaVuSans-6e" x="401.015625"/>
     </g>
    </g>
   </g>
   <g id="text_11">
    <g clip-path="url(#p95d9c40a64)">
     <!-- T.Parker -->
     <g transform="translate(500.037941 472.489798)scale(0.12 -0.12)">
      <defs>
       <path id="DejaVuSans-6b" d="M 581 4863 
L 1159 4863 
L 1159 1991 
L 2875 3500 
L 3609 3500 
L 1753 1863 
L 3688 0 
L 2938 0 
L 1159 1709 
L 1159 0 
L 581 0 
L 581 4863 
z
" transform="scale(0.015625)"/>
      </defs>
      <use xlink:href="#DejaVuSans-54"/>
      <use xlink:href="#DejaVuSans-2e" x="49.208984"/>
      <use xlink:href="#DejaVuSans-50" x="80.996094"/>
      <use xlink:href="#DejaVuSans-61" x="136.798828"/>
      <use xlink:href="#DejaVuSans-72" x="198.078125"/>
      <use xlink:href="#DejaVuSans-6b" x="239.191406"/>
      <use xlink:href="#DejaVuSans-65" x="293.476562"/>
      <use xlink:href="#DejaVuSans-72" x="355"/>
     </g>
    </g>
   </g>
   <g id="text_12">
    <!-- 2013-14 San Antonio Spurs Assist Network -->
    <g transform="translate(166.671562 16.318125)scale(0.12 -0.12)">
     <defs>
      <path id="DejaVuSans-32" d="M 1228 531 
L 3431 531 
L 3431 0 
L 469 0 
L 469 531 
Q 828 903 1448 1529 
Q 2069 2156 2228 2338 
Q 2531 2678 2651 2914 
Q 2772 3150 2772 3378 
Q 2772 3750 2511 3984 
Q 2250 4219 1831 4219 
Q 1534 4219 1204 4116 
Q 875 4013 500 3803 
L 500 4441 
Q 881 4594 1212 4672 
Q 1544 4750 1819 4750 
Q 2544 4750 2975 4387 
Q 3406 4025 3406 3419 
Q 3406 3131 3298 2873 
Q 3191 2616 2906 2266 
Q 2828 2175 2409 1742 
Q 1991 1309 1228 531 
z
" transform="scale(0.015625)"/>
      <path id="DejaVuSans-30" d="M 2034 4250 
Q 1547 4250 1301 3770 
Q 1056 3291 1056 2328 
Q 1056 1369 1301 889 
Q 1547 409 2034 409 
Q 2525 409 2770 889 
Q 3016 1369 3016 2328 
Q 3016 3291 2770 3770 
Q 2525 4250 2034 4250 
z
M 2034 4750 
Q 2819 4750 3233 4129 
Q 3647 3509 3647 2328 
Q 3647 1150 3233 529 
Q 2819 -91 2034 -91 
Q 1250 -91 836 529 
Q 422 1150 422 2328 
Q 422 3509 836 4129 
Q 1250 4750 2034 4750 
z
" transform="scale(0.015625)"/>
      <path id="DejaVuSans-31" d="M 794 531 
L 1825 531 
L 1825 4091 
L 703 3866 
L 703 4441 
L 1819 4666 
L 2450 4666 
L 2450 531 
L 3481 531 
L 3481 0 
L 794 0 
L 794 531 
z
" transform="scale(0.015625)"/>
      <path id="DejaVuSans-33" d="M 2597 2516 
Q 3050 2419 3304 2112 
Q 3559 1806 3559 1356 
Q 3559 666 3084 287 
Q 2609 -91 1734 -91 
Q 1441 -91 1130 -33 
Q 819 25 488 141 
L 488 750 
Q 750 597 1062 519 
Q 1375 441 1716 441 
Q 2309 441 2620 675 
Q 2931 909 2931 1356 
Q 2931 1769 2642 2001 
Q 2353 2234 1838 2234 
L 1294 2234 
L 1294 2753 
L 1863 2753 
Q 2328 2753 2575 2939 
Q 2822 3125 2822 3475 
Q 2822 3834 2567 4026 
Q 2313 4219 1838 4219 
Q 1578 4219 1281 4162 
Q 984 4106 628 3988 
L 628 4550 
Q 988 4650 1302 4700 
Q 1616 4750 1894 4750 
Q 2613 4750 3031 4423 
Q 3450 4097 3450 3541 
Q 3450 3153 3228 2886 
Q 3006 2619 2597 2516 
z
" transform="scale(0.015625)"/>
      <path id="DejaVuSans-2d" d="M 313 2009 
L 1997 2009 
L 1997 1497 
L 313 1497 
L 313 2009 
z
" transform="scale(0.015625)"/>
      <path id="DejaVuSans-34" d="M 2419 4116 
L 825 1625 
L 2419 1625 
L 2419 4116 
z
M 2253 4666 
L 3047 4666 
L 3047 1625 
L 3713 1625 
L 3713 1100 
L 3047 1100 
L 3047 0 
L 2419 0 
L 2419 1100 
L 313 1100 
L 313 1709 
L 2253 4666 
z
" transform="scale(0.015625)"/>
      <path id="DejaVuSans-20" transform="scale(0.015625)"/>
      <path id="DejaVuSans-4e" d="M 628 4666 
L 1478 4666 
L 3547 763 
L 3547 4666 
L 4159 4666 
L 4159 0 
L 3309 0 
L 1241 3903 
L 1241 0 
L 628 0 
L 628 4666 
z
" transform="scale(0.015625)"/>
     </defs>
     <use xlink:href="#DejaVuSans-32"/>
     <use xlink:href="#DejaVuSans-30" x="63.623047"/>
     <use xlink:href="#DejaVuSans-31" x="127.246094"/>
     <use xlink:href="#DejaVuSans-33" x="190.869141"/>
     <use xlink:href="#DejaVuSans-2d" x="254.492188"/>
     <use xlink:href="#DejaVuSans-31" x="290.576172"/>
     <use xlink:href="#DejaVuSans-34" x="354.199219"/>
     <use xlink:href="#DejaVuSans-20" x="417.822266"/>
     <use xlink:href="#DejaVuSans-53" x="449.609375"/>
     <use xlink:href="#DejaVuSans-61" x="513.085938"/>
     <use xlink:href="#DejaVuSans-6e" x="574.365234"/>
     <use xlink:href="#DejaVuSans-20" x="637.744141"/>
     <use xlink:href="#DejaVuSans-41" x="669.53125"/>
     <use xlink:href="#DejaVuSans-6e" x="737.939453"/>
     <use xlink:href="#DejaVuSans-74" x="801.318359"/>
     <use xlink:href="#DejaVuSans-6f" x="840.527344"/>
     <use xlink:href="#DejaVuSans-6e" x="901.708984"/>
     <use xlink:href="#DejaVuSans-69" x="965.087891"/>
     <use xlink:href="#DejaVuSans-6f" x="992.871094"/>
     <use xlink:href="#DejaVuSans-20" x="1054.052734"/>
     <use xlink:href="#DejaVuSans-53" x="1085.839844"/>
     <use xlink:href="#DejaVuSans-70" x="1149.316406"/>
     <use xlink:href="#DejaVuSans-75" x="1212.792969"/>
     <use xlink:href="#DejaVuSans-72" x="1276.171875"/>
     <use xlink:href="#DejaVuSans-73" x="1317.285156"/>
     <use xlink:href="#DejaVuSans-20" x="1369.384766"/>
     <use xlink:href="#DejaVuSans-41" x="1401.171875"/>
     <use xlink:href="#DejaVuSans-73" x="1469.580078"/>
     <use xlink:href="#DejaVuSans-73" x="1521.679688"/>
     <use xlink:href="#DejaVuSans-69" x="1573.779297"/>
     <use xlink:href="#DejaVuSans-73" x="1601.5625"/>
     <use xlink:href="#DejaVuSans-74" x="1653.662109"/>
     <use xlink:href="#DejaVuSans-20" x="1692.871094"/>
     <use xlink:href="#DejaVuSans-4e" x="1724.658203"/>
     <use xlink:href="#DejaVuSans-65" x="1799.462891"/>
     <use xlink:href="#DejaVuSans-74" x="1860.986328"/>
     <use xlink:href="#DejaVuSans-77" x="1900.195312"/>
     <use xlink:href="#DejaVuSans-6f" x="1981.982422"/>
     <use xlink:href="#DejaVuSans-72" x="2043.164062"/>
     <use xlink:href="#DejaVuSans-6b" x="2084.277344"/>
    </g>
   </g>
  </g>
 </g>
 <defs>
  <clipPath id="p95d9c40a64">
   <rect x="7.2" y="22.318125" width="576" height="576"/>
  </clipPath>
 </defs>
</svg>
